<svg width="764" height="324" viewBox="0 0 764 324" fill="none" xmlns="http://www.w3.org/2000/svg">
<rect x="44.0078" y="198" width="680" height="126" rx="36" fill="#574BA6"/>
<rect x="34.0078" y="165" width="226" height="159" rx="36" fill="#574BA6"/>
<mask id="path-3-outside-1_2092_589" maskUnits="userSpaceOnUse" x="43" y="40" width="690" height="228" fill="black">
<rect fill="white" x="43" y="40" width="690" height="228"/>
<path d="M134.516 65.6338C143.788 64.7713 158.02 64.1244 171.605 66.0651C189.071 68.437 205.674 74.4746 212.359 82.2373C216.24 86.3343 217.102 110.485 216.455 113.072C215.377 117.169 213.221 120.404 208.693 122.344C205.243 123.638 201.361 123.423 198.127 121.051C192.952 117.385 192.521 106.603 185.405 97.7626C177.211 87.628 164.057 84.8249 154.354 85.2561C147.454 85.6874 137.966 87.628 132.576 96.0376C129.988 100.35 129.772 104.663 131.929 109.622C136.457 120.188 152.845 124.069 161.254 126.226L178.505 130.97C198.989 136.36 217.102 143.045 224.218 166.117C228.962 181.211 224.649 202.127 212.359 217.006C191.227 242.666 152.198 245.685 130.419 243.313C118.56 241.803 80.8245 234.256 69.8274 212.909C67.0242 207.087 65.946 199.324 69.3961 193.933C71.9837 189.19 76.2962 187.033 81.687 186.602C88.3715 186.386 93.1154 188.758 99.153 197.168C112.306 215.928 124.597 220.887 140.769 220.887C148.963 220.887 161.686 218.731 167.939 209.027C170.311 205.146 171.173 199.971 168.801 194.796C164.057 184.23 148.963 180.996 140.769 179.702L129.557 177.977C107.778 174.095 83.6277 164.608 76.0806 137.87C71.768 123.854 75.0025 101.428 89.4497 86.3343C102.603 73.3965 121.147 67.3589 134.516 65.6338ZM347.038 218.084C346.822 210.753 342.509 196.737 339.059 187.249H279.761C274.802 187.249 269.195 214.418 272.861 219.162C274.586 221.318 277.174 221.318 279.33 223.043C281.271 224.768 282.996 226.709 283.211 229.297C283.643 231.453 283.211 236.197 279.761 237.491C277.174 238.784 276.311 239.216 254.748 239C248.279 239 240.732 239 238.576 238.784C236.204 238.569 232.754 238.784 231.245 234.472C230.598 232.1 230.598 228.219 232.538 225.415C234.91 222.181 235.557 223.259 238.36 220.887C239.87 219.809 241.81 218.084 243.32 215.281C245.261 212.046 247.417 207.302 248.495 203.205C248.495 203.205 260.139 167.627 268.549 145.848C275.88 127.951 289.465 99.7033 289.465 99.7033C304.343 72.534 302.618 69.7308 325.906 69.7308C347.469 69.7308 345.96 68.437 361.485 97.1157C361.485 97.1157 377.657 129.676 385.851 151.023C393.182 170.214 402.886 201.48 402.886 201.48C404.611 206.656 406.983 213.124 407.845 214.634C408.277 216.359 410.002 219.378 413.02 220.671C416.47 222.828 417.117 223.043 418.627 226.709C419.274 228.434 419.489 231.884 417.333 234.687C413.452 239.863 408.061 239 402.67 239H352.213C347.038 239 342.509 239.216 339.059 233.609C338.197 231.669 337.981 227.356 338.844 225.631C340.138 223.259 340.784 223.043 342.941 221.965C344.019 221.103 347.253 220.671 347.038 218.084ZM288.386 163.314H331.944C331.944 163.314 326.553 146.926 322.672 137.223C317.281 123.423 310.381 109.838 310.381 109.838C310.381 109.838 303.481 123.423 298.305 135.713C294.208 146.279 288.386 163.314 288.386 163.314ZM445.383 239C439.13 239 435.033 236.197 434.602 230.375C434.171 226.925 436.327 223.475 438.914 221.534C441.071 220.24 443.874 220.24 445.815 217.006C447.324 215.065 447.324 211.615 447.324 209.89V98.8408C447.324 97.1157 447.324 93.8813 445.815 91.725C443.874 88.4906 441.071 88.4906 438.914 87.1968C436.327 85.2561 433.955 83.7467 434.602 78.356C435.249 72.534 439.13 69.7308 445.383 69.7308H506.838C512.875 69.7308 516.972 72.534 517.404 78.356C517.835 82.0217 515.894 85.2561 513.091 87.1968C510.935 88.4906 508.132 88.4906 506.191 91.725C504.897 93.8813 504.897 97.1157 504.897 98.8408V194.58C504.897 211.184 504.035 215.065 508.347 217.868C510.719 219.809 526.676 219.809 530.773 218.515C535.085 217.006 538.104 214.634 543.495 208.596C551.257 199.324 552.12 197.383 555.139 195.012C558.373 192.424 562.901 190.915 566.998 192.424C571.311 193.718 574.114 198.462 573.683 201.696C573.252 204.931 566.567 232.531 563.548 235.766C560.314 239.216 557.942 239 554.061 239H445.383ZM691.711 69.7308C696.024 69.7308 701.846 69.2995 703.14 74.259C703.787 77.4935 706.159 91.2937 708.099 102.075C708.531 105.094 707.884 110.054 701.846 111.563C696.024 113.288 691.711 110.916 689.771 107.897C682.871 95.822 683.949 90.6469 667.561 90.6469H661.955C660.445 90.8625 659.367 91.2937 658.72 91.725C656.348 93.6657 656.995 96.2532 656.995 99.9189V209.89C656.995 211.615 656.779 215.065 658.073 217.006C660.014 220.24 662.817 220.24 664.973 221.534C667.561 223.475 669.717 226.925 669.286 230.375C668.855 236.197 664.758 239 658.504 239H597.481C591.228 239 587.131 236.197 586.7 230.375C586.269 226.925 588.425 223.475 591.012 221.534C593.169 220.24 595.972 220.24 597.913 217.006C599.422 215.065 599.422 211.615 599.422 209.89V99.9189C599.422 96.2532 599.853 93.6657 597.697 91.725C597.266 91.2937 595.972 90.8625 594.462 90.6469H588.856C572.468 90.6469 573.546 95.822 566.646 107.897C564.921 110.916 560.609 113.288 554.571 111.563C548.533 110.054 547.887 105.094 548.318 102.075C550.258 91.2937 552.63 77.4935 553.493 74.259C554.571 69.2995 560.609 69.7308 564.921 69.7308H691.711Z"/>
</mask>
<path d="M134.516 65.6338C143.788 64.7713 158.02 64.1244 171.605 66.0651C189.071 68.437 205.674 74.4746 212.359 82.2373C216.24 86.3343 217.102 110.485 216.455 113.072C215.377 117.169 213.221 120.404 208.693 122.344C205.243 123.638 201.361 123.423 198.127 121.051C192.952 117.385 192.521 106.603 185.405 97.7626C177.211 87.628 164.057 84.8249 154.354 85.2561C147.454 85.6874 137.966 87.628 132.576 96.0376C129.988 100.35 129.772 104.663 131.929 109.622C136.457 120.188 152.845 124.069 161.254 126.226L178.505 130.97C198.989 136.36 217.102 143.045 224.218 166.117C228.962 181.211 224.649 202.127 212.359 217.006C191.227 242.666 152.198 245.685 130.419 243.313C118.56 241.803 80.8245 234.256 69.8274 212.909C67.0242 207.087 65.946 199.324 69.3961 193.933C71.9837 189.19 76.2962 187.033 81.687 186.602C88.3715 186.386 93.1154 188.758 99.153 197.168C112.306 215.928 124.597 220.887 140.769 220.887C148.963 220.887 161.686 218.731 167.939 209.027C170.311 205.146 171.173 199.971 168.801 194.796C164.057 184.23 148.963 180.996 140.769 179.702L129.557 177.977C107.778 174.095 83.6277 164.608 76.0806 137.87C71.768 123.854 75.0025 101.428 89.4497 86.3343C102.603 73.3965 121.147 67.3589 134.516 65.6338ZM347.038 218.084C346.822 210.753 342.509 196.737 339.059 187.249H279.761C274.802 187.249 269.195 214.418 272.861 219.162C274.586 221.318 277.174 221.318 279.33 223.043C281.271 224.768 282.996 226.709 283.211 229.297C283.643 231.453 283.211 236.197 279.761 237.491C277.174 238.784 276.311 239.216 254.748 239C248.279 239 240.732 239 238.576 238.784C236.204 238.569 232.754 238.784 231.245 234.472C230.598 232.1 230.598 228.219 232.538 225.415C234.91 222.181 235.557 223.259 238.36 220.887C239.87 219.809 241.81 218.084 243.32 215.281C245.261 212.046 247.417 207.302 248.495 203.205C248.495 203.205 260.139 167.627 268.549 145.848C275.88 127.951 289.465 99.7033 289.465 99.7033C304.343 72.534 302.618 69.7308 325.906 69.7308C347.469 69.7308 345.96 68.437 361.485 97.1157C361.485 97.1157 377.657 129.676 385.851 151.023C393.182 170.214 402.886 201.48 402.886 201.48C404.611 206.656 406.983 213.124 407.845 214.634C408.277 216.359 410.002 219.378 413.02 220.671C416.47 222.828 417.117 223.043 418.627 226.709C419.274 228.434 419.489 231.884 417.333 234.687C413.452 239.863 408.061 239 402.67 239H352.213C347.038 239 342.509 239.216 339.059 233.609C338.197 231.669 337.981 227.356 338.844 225.631C340.138 223.259 340.784 223.043 342.941 221.965C344.019 221.103 347.253 220.671 347.038 218.084ZM288.386 163.314H331.944C331.944 163.314 326.553 146.926 322.672 137.223C317.281 123.423 310.381 109.838 310.381 109.838C310.381 109.838 303.481 123.423 298.305 135.713C294.208 146.279 288.386 163.314 288.386 163.314ZM445.383 239C439.13 239 435.033 236.197 434.602 230.375C434.171 226.925 436.327 223.475 438.914 221.534C441.071 220.24 443.874 220.24 445.815 217.006C447.324 215.065 447.324 211.615 447.324 209.89V98.8408C447.324 97.1157 447.324 93.8813 445.815 91.725C443.874 88.4906 441.071 88.4906 438.914 87.1968C436.327 85.2561 433.955 83.7467 434.602 78.356C435.249 72.534 439.13 69.7308 445.383 69.7308H506.838C512.875 69.7308 516.972 72.534 517.404 78.356C517.835 82.0217 515.894 85.2561 513.091 87.1968C510.935 88.4906 508.132 88.4906 506.191 91.725C504.897 93.8813 504.897 97.1157 504.897 98.8408V194.58C504.897 211.184 504.035 215.065 508.347 217.868C510.719 219.809 526.676 219.809 530.773 218.515C535.085 217.006 538.104 214.634 543.495 208.596C551.257 199.324 552.12 197.383 555.139 195.012C558.373 192.424 562.901 190.915 566.998 192.424C571.311 193.718 574.114 198.462 573.683 201.696C573.252 204.931 566.567 232.531 563.548 235.766C560.314 239.216 557.942 239 554.061 239H445.383ZM691.711 69.7308C696.024 69.7308 701.846 69.2995 703.14 74.259C703.787 77.4935 706.159 91.2937 708.099 102.075C708.531 105.094 707.884 110.054 701.846 111.563C696.024 113.288 691.711 110.916 689.771 107.897C682.871 95.822 683.949 90.6469 667.561 90.6469H661.955C660.445 90.8625 659.367 91.2937 658.72 91.725C656.348 93.6657 656.995 96.2532 656.995 99.9189V209.89C656.995 211.615 656.779 215.065 658.073 217.006C660.014 220.24 662.817 220.24 664.973 221.534C667.561 223.475 669.717 226.925 669.286 230.375C668.855 236.197 664.758 239 658.504 239H597.481C591.228 239 587.131 236.197 586.7 230.375C586.269 226.925 588.425 223.475 591.012 221.534C593.169 220.24 595.972 220.24 597.913 217.006C599.422 215.065 599.422 211.615 599.422 209.89V99.9189C599.422 96.2532 599.853 93.6657 597.697 91.725C597.266 91.2937 595.972 90.8625 594.462 90.6469H588.856C572.468 90.6469 573.546 95.822 566.646 107.897C564.921 110.916 560.609 113.288 554.571 111.563C548.533 110.054 547.887 105.094 548.318 102.075C550.258 91.2937 552.63 77.4935 553.493 74.259C554.571 69.2995 560.609 69.7308 564.921 69.7308H691.711Z" fill="#F2C335"/>
<path d="M134.516 65.6338L132.293 41.737L131.868 41.7765L131.445 41.8312L134.516 65.6338ZM171.605 66.0651L168.21 89.8239L168.293 89.8356L168.375 89.8468L171.605 66.0651ZM212.359 82.2373L194.172 97.8979L194.544 98.3296L194.936 98.7431L212.359 82.2373ZM216.455 113.072L239.665 119.18L239.703 119.037L239.739 118.893L216.455 113.072ZM208.693 122.344L217.12 144.816L217.638 144.622L218.147 144.404L208.693 122.344ZM198.127 121.051L212.32 101.697L212.16 101.58L211.999 101.466L198.127 121.051ZM185.405 97.7626L204.101 82.7144L204.085 82.6938L204.068 82.6733L185.405 97.7626ZM154.354 85.2561L153.289 61.2798L153.073 61.2894L152.857 61.3029L154.354 85.2561ZM132.576 96.0376L112.37 83.0856L112.179 83.3849L111.996 83.6897L132.576 96.0376ZM131.929 109.622L153.988 100.168L153.963 100.11L153.938 100.053L131.929 109.622ZM161.254 126.226L167.618 103.085L167.417 103.03L167.215 102.978L161.254 126.226ZM178.505 130.97L172.141 154.111L172.269 154.146L172.397 154.179L178.505 130.97ZM224.218 166.117L201.284 173.19L201.303 173.252L201.322 173.313L224.218 166.117ZM212.359 217.006L193.855 201.721L193.844 201.735L193.832 201.749L212.359 217.006ZM130.419 243.313L127.389 267.121L127.605 267.148L127.821 267.172L130.419 243.313ZM69.8274 212.909L48.2033 223.32L48.3437 223.612L48.492 223.9L69.8274 212.909ZM69.3961 193.933L89.6106 206.871L90.0634 206.163L90.4656 205.426L69.3961 193.933ZM81.687 186.602L80.9132 162.614L80.3424 162.633L79.7731 162.678L81.687 186.602ZM99.153 197.168L118.804 183.39L118.727 183.28L118.649 183.171L99.153 197.168ZM167.939 209.027L188.113 222.028L188.268 221.787L188.418 221.542L167.939 209.027ZM168.801 194.796L146.907 204.626L146.945 204.711L146.984 204.796L168.801 194.796ZM140.77 179.702L144.513 155.996L144.466 155.988L144.419 155.981L140.77 179.702ZM129.557 177.977L125.346 201.605L125.626 201.654L125.907 201.698L129.557 177.977ZM76.0806 137.87L99.1782 131.35L99.1019 131.08L99.0193 130.812L76.0806 137.87ZM89.4497 86.3343L72.6199 69.224L72.3619 69.4778L72.1116 69.7393L89.4497 86.3343ZM134.516 65.6338L136.739 89.5307C145.176 88.7459 157.292 88.2641 168.21 89.8239L171.605 66.0651L174.999 42.3063C158.748 39.9848 142.401 40.7967 132.293 41.737L134.516 65.6338ZM171.605 66.0651L168.375 89.8468C175.551 90.8213 182.204 92.5146 187.358 94.5104C193.129 96.7448 194.628 98.427 194.172 97.8979L212.359 82.2373L230.545 66.5767C223.405 58.2849 213.26 53.067 204.691 49.7489C195.506 46.1923 185.124 43.6808 174.834 42.2834L171.605 66.0651ZM212.359 82.2373L194.936 98.7431C193.324 97.042 192.405 95.5003 191.977 94.7141C191.514 93.8639 191.271 93.2402 191.184 93.0073C191.026 92.5832 191.088 92.6467 191.259 93.4429C191.592 95.0002 191.936 97.4227 192.202 100.377C192.46 103.234 192.598 106.054 192.638 108.189C192.659 109.268 192.65 109.998 192.638 110.367C192.631 110.561 192.629 110.49 192.652 110.233C192.664 110.099 192.692 109.807 192.748 109.405C192.796 109.065 192.916 108.274 193.172 107.252L216.455 113.072L239.739 118.893C240.533 115.716 240.592 112.545 240.611 111.978C240.66 110.515 240.66 108.901 240.63 107.288C240.569 104.039 240.37 100.081 240.008 96.0649C239.655 92.1458 239.095 87.6007 238.196 83.3967C237.749 81.3122 237.112 78.7966 236.167 76.2575C235.409 74.2222 233.61 69.7724 229.781 65.7315L212.359 82.2373ZM216.455 113.072L193.246 106.965C193.309 106.724 193.724 105.293 195.064 103.604C196.507 101.784 198.162 100.747 199.239 100.285L208.693 122.344L218.147 144.404C230.761 138.998 237.093 128.956 239.665 119.18L216.455 113.072ZM208.693 122.344L200.266 99.8725C203.245 98.7554 208.088 98.5936 212.32 101.697L198.127 121.051L183.934 140.404C194.635 148.251 207.241 148.521 217.12 144.816L208.693 122.344ZM198.127 121.051L211.999 101.466C213.571 102.579 214.625 103.727 215.256 104.53C215.864 105.304 216.151 105.849 216.177 105.897C216.203 105.946 216.104 105.763 215.853 105.162C215.595 104.543 215.315 103.823 214.883 102.703C213.365 98.7706 210.327 90.4502 204.101 82.7144L185.405 97.7626L166.709 112.811C167.598 113.916 168.334 115.407 170.104 119.991C170.795 121.78 172.068 125.163 173.736 128.32C175.447 131.558 178.6 136.63 184.255 140.635L198.127 121.051ZM185.405 97.7626L204.068 82.6733C189.24 64.3336 167.108 60.6656 153.289 61.2798L154.354 85.2561L155.42 109.232C157.68 109.132 160.317 109.438 162.591 110.226C164.761 110.977 166.004 111.939 166.742 112.852L185.405 97.7626ZM154.354 85.2561L152.857 61.3029C144.246 61.841 124.287 64.4957 112.37 83.0856L132.576 96.0376L152.781 108.99C152.595 109.278 152.328 109.568 152.057 109.779C151.818 109.966 151.732 109.971 151.944 109.885C152.171 109.793 152.616 109.646 153.332 109.508C154.044 109.371 154.883 109.27 155.851 109.209L154.354 85.2561ZM132.576 96.0376L111.996 83.6897C105.111 95.1642 104.92 107.694 109.919 119.192L131.929 109.622L153.938 100.053C154.004 100.203 154.55 101.566 154.445 103.743C154.336 106.007 153.596 107.651 153.155 108.385L132.576 96.0376ZM131.929 109.622L109.869 119.076C115.768 132.841 127.971 139.685 135.322 142.979C143.267 146.54 151.596 148.526 155.293 149.474L161.254 126.226L167.215 102.978C162.503 101.77 158.433 100.737 154.95 99.176C153.326 98.4481 152.592 97.9233 152.426 97.7873C152.306 97.6893 153.234 98.4089 153.988 100.168L131.929 109.622ZM161.254 126.226L154.891 149.367L172.141 154.111L178.505 130.97L184.868 107.829L167.618 103.085L161.254 126.226ZM178.505 130.97L172.397 154.179C182.47 156.83 188.774 159.072 193.219 161.986C196.725 164.284 199.442 167.219 201.284 173.19L224.218 166.117L247.152 159.044C241.878 141.943 231.981 130 219.531 121.84C208.019 114.295 195.024 110.5 184.613 107.76L178.505 130.97ZM224.218 166.117L201.322 173.313C203.326 179.687 201.649 192.286 193.855 201.721L212.359 217.006L230.862 232.291C247.649 211.969 254.598 182.735 247.114 158.921L224.218 166.117ZM212.359 217.006L193.832 201.749C187.648 209.258 177.989 214.435 165.977 217.347C154.009 220.248 141.652 220.394 133.018 219.454L130.419 243.313L127.821 267.172C140.965 268.603 159.011 268.426 177.286 263.996C195.516 259.576 215.938 250.413 230.885 232.263L212.359 217.006ZM130.419 243.313L133.449 219.505C128.805 218.914 118.413 217.008 108.442 213.16C97.4008 208.898 92.4385 204.394 91.1628 201.918L69.8274 212.909L48.492 223.9C58.2134 242.771 77.6171 252.714 91.1581 257.94C105.769 263.579 120.174 266.202 127.389 267.121L130.419 243.313ZM69.8274 212.909L91.4514 202.497C91.3828 202.355 91.3094 202.163 91.2587 201.976C91.2068 201.784 91.2198 201.75 91.2286 201.907C91.2355 202.029 91.3479 204.156 89.6106 206.871L69.3961 193.933L49.1816 180.996C39.1849 196.616 43.8332 214.244 48.2033 223.32L69.8274 212.909ZM69.3961 193.933L90.4656 205.426C89.6901 206.848 88.2905 208.407 86.3977 209.488C84.7029 210.457 83.5101 210.533 83.6009 210.526L81.687 186.602L79.7731 162.678C68.4632 163.583 55.7249 168.877 48.3266 182.441L69.3961 193.933ZM81.687 186.602L82.4608 210.59C82.6285 210.584 82.1354 210.617 81.2599 210.425C80.3106 210.218 79.3709 209.848 78.5822 209.388C77.8567 208.966 77.6071 208.67 77.8258 208.889C78.0731 209.137 78.6761 209.798 79.6572 211.165L99.153 197.168L118.649 183.171C114.697 177.667 109.659 171.942 102.743 167.913C95.1947 163.515 87.6244 162.398 80.9132 162.614L81.687 186.602ZM99.153 197.168L79.502 210.946C87.4866 222.334 96.4785 231.357 107.557 237.251C118.805 243.234 130.127 244.887 140.77 244.887V220.887V196.887C135.24 196.887 132.33 196.06 130.101 194.874C127.703 193.598 123.973 190.762 118.804 183.39L99.153 197.168ZM140.77 220.887V244.887C146.701 244.887 154.782 244.14 163.038 241.239C171.369 238.312 181.259 232.663 188.113 222.028L167.939 209.027L147.765 196.027C148.365 195.096 148.768 195.376 147.126 195.953C145.408 196.557 143.032 196.887 140.77 196.887V220.887ZM167.939 209.027L188.418 221.542C194.386 211.776 196.748 198.169 190.619 184.796L168.801 194.796L146.984 204.796C146.393 203.507 146.098 201.907 146.243 200.272C146.379 198.741 146.869 197.48 147.46 196.513L167.939 209.027ZM168.801 194.796L190.696 184.966C184.735 171.689 173.277 165.003 165.467 161.684C157.317 158.22 149.159 156.729 144.513 155.996L140.77 179.702L137.026 203.408C140.574 203.968 144.06 204.741 146.692 205.86C147.926 206.384 148.385 206.746 148.37 206.733C148.285 206.664 147.525 206.003 146.907 204.626L168.801 194.796ZM140.77 179.702L144.419 155.981L133.206 154.256L129.557 177.977L125.907 201.698L137.12 203.423L140.77 179.702ZM129.557 177.977L133.768 154.349C114.014 150.829 102.746 143.991 99.1782 131.35L76.0806 137.87L52.9831 144.389C64.5092 185.224 101.543 197.362 125.346 201.605L129.557 177.977ZM76.0806 137.87L99.0193 130.812C98.2868 128.431 97.83 123.632 99.1474 117.763C100.42 112.096 103.035 106.85 106.788 102.929L89.4497 86.3343L72.1116 69.7393C51.3512 91.4293 46.399 123.013 53.1419 144.928L76.0806 137.87ZM89.4497 86.3343L106.279 103.445C114.488 95.37 127.428 90.7474 137.588 89.4365L134.516 65.6338L131.445 41.8312C114.866 43.9703 90.7177 51.423 72.6199 69.224L89.4497 86.3343ZM347.038 218.084L323.048 218.79L323.067 219.434L323.121 220.077L347.038 218.084ZM339.059 187.249L361.614 179.047L355.87 163.249H339.059V187.249ZM272.861 219.162L253.87 233.837L253.994 233.997L254.12 234.155L272.861 219.162ZM279.33 223.043L295.275 205.106L294.809 204.692L294.323 204.303L279.33 223.043ZM283.211 229.297L259.294 231.29L259.408 232.658L259.677 234.003L283.211 229.297ZM279.761 237.491L271.334 215.019L270.155 215.461L269.028 216.024L279.761 237.491ZM254.748 239L254.988 215.001L254.868 215H254.748V239ZM238.576 238.784L240.964 214.903L240.857 214.893L240.749 214.883L238.576 238.784ZM231.245 234.472L208.09 240.787L208.313 241.602L208.592 242.4L231.245 234.472ZM232.538 225.415L213.185 211.223L212.992 211.486L212.806 211.754L232.538 225.415ZM238.36 220.887L224.411 201.358L223.609 201.93L222.858 202.566L238.36 220.887ZM243.32 215.281L222.74 202.933L222.453 203.411L222.189 203.902L243.32 215.281ZM248.495 203.205L225.685 195.741L225.465 196.413L225.285 197.098L248.495 203.205ZM268.549 145.848L246.34 136.75L246.247 136.976L246.16 137.203L268.549 145.848ZM289.465 99.7033L268.414 88.1758L268.11 88.7311L267.836 89.3017L289.465 99.7033ZM361.485 97.1157L382.98 86.4396L382.792 86.0614L382.591 85.69L361.485 97.1157ZM385.851 151.023L408.271 142.458L408.264 142.441L408.257 142.423L385.851 151.023ZM402.886 201.48L379.964 208.594L380.038 208.833L380.117 209.07L402.886 201.48ZM407.845 214.634L431.129 208.813L430.326 205.601L428.683 202.727L407.845 214.634ZM413.02 220.671L425.74 200.32L424.173 199.34L422.474 198.612L413.02 220.671ZM418.627 226.709L441.099 218.282L440.964 217.924L440.819 217.571L418.627 226.709ZM417.333 234.687L398.31 220.054L398.221 220.17L398.133 220.287L417.333 234.687ZM339.059 233.609L317.128 243.357L317.779 244.822L318.62 246.188L339.059 233.609ZM338.844 225.631L317.774 214.139L317.569 214.515L317.378 214.898L338.844 225.631ZM342.941 221.965L353.674 243.432L355.948 242.294L357.933 240.706L342.941 221.965ZM288.386 163.314L265.676 155.552L254.821 187.314H288.386V163.314ZM331.944 163.314V187.314H365.104L354.742 155.815L331.944 163.314ZM322.672 137.223L300.317 145.955L300.352 146.046L300.388 146.136L322.672 137.223ZM310.381 109.838L331.779 98.9691L310.381 56.842L288.983 98.9691L310.381 109.838ZM298.305 135.713L276.186 126.4L276.053 126.717L275.929 127.037L298.305 135.713ZM347.038 218.084L371.027 217.378C370.829 210.629 368.992 202.914 367.408 197.132C365.664 190.768 363.51 184.261 361.614 179.047L339.059 187.249L316.504 195.451C318.059 199.725 319.786 204.969 321.115 209.818C321.778 212.238 322.291 214.374 322.633 216.122C323.004 218.013 323.049 218.821 323.048 218.79L347.038 218.084ZM339.059 187.249V163.249H279.761V187.249V211.249H339.059V187.249ZM279.761 187.249V163.249C268.049 163.249 261.264 170.867 259.38 173.149C256.785 176.294 255.134 179.594 254.146 181.816C252.06 186.507 250.58 191.812 249.597 196.456C248.593 201.197 247.841 206.519 247.704 211.52C247.637 213.989 247.7 217.013 248.192 220.15C248.576 222.596 249.671 228.403 253.87 233.837L272.861 219.162L291.852 204.487C293.684 206.859 294.562 209.021 294.96 210.171C295.384 211.397 295.549 212.312 295.612 212.708C295.728 213.451 295.666 213.574 295.686 212.828C295.725 211.401 295.997 209.041 296.556 206.397C297.137 203.655 297.759 201.872 298.005 201.321C298.182 200.921 297.755 202.061 296.401 203.702C295.691 204.562 294.196 206.212 291.768 207.767C289.243 209.384 285.121 211.249 279.761 211.249V187.249ZM272.861 219.162L254.12 234.155C258.885 240.111 264.678 242.552 266.48 243.324C267.873 243.921 267.289 243.66 267.225 243.629C266.771 243.41 265.645 242.831 264.337 241.784L279.33 223.043L294.323 204.303C291.937 202.394 289.679 201.167 288.079 200.396C287.298 200.019 286.615 199.724 286.182 199.54C285.969 199.449 285.759 199.361 285.641 199.312C285.498 199.252 285.434 199.225 285.388 199.205C285.293 199.164 285.464 199.235 285.751 199.377C286.053 199.527 286.561 199.793 287.181 200.188C287.812 200.589 288.554 201.12 289.337 201.804C290.125 202.493 290.892 203.282 291.602 204.169L272.861 219.162ZM279.33 223.043L263.385 240.981C263.81 241.359 263.039 240.757 262.11 239.399C261.029 237.819 259.606 235.036 259.294 231.29L283.211 229.297L307.128 227.304C306.078 214.702 297.72 207.28 295.275 205.106L279.33 223.043ZM283.211 229.297L259.677 234.003C259.143 231.332 259.28 229.069 259.954 226.821C260.668 224.441 263.422 217.986 271.334 215.019L279.761 237.491L288.188 259.962C299.55 255.702 304.245 246.227 305.93 240.613C307.574 235.131 307.711 229.418 306.745 224.59L283.211 229.297ZM279.761 237.491L269.028 216.024C268.399 216.339 269.673 215.654 271.319 215.192C272.694 214.807 273.428 214.815 272.576 214.879C270.551 215.03 266.018 215.111 254.988 215.001L254.748 239L254.508 262.999C265.042 263.104 271.721 263.077 276.165 262.744C278.547 262.565 281.33 262.236 284.268 261.413C287.477 260.514 289.83 259.289 290.494 258.957L279.761 237.491ZM254.748 239V215C251.484 215 248.097 215 245.263 214.974C243.845 214.961 242.661 214.943 241.757 214.918C240.645 214.888 240.548 214.862 240.964 214.903L238.576 238.784L236.188 262.665C239.906 263.037 249.32 263 254.748 263V239ZM238.576 238.784L240.749 214.883C240.146 214.828 239.439 214.781 239.352 214.775C239.1 214.757 239.176 214.759 239.357 214.78C239.687 214.818 241.177 214.994 243.112 215.73C245.224 216.532 247.694 217.932 249.908 220.212C252.097 222.465 253.291 224.811 253.897 226.543L231.245 234.472L208.592 242.4C209.953 246.289 212.144 250.225 215.479 253.658C218.839 257.116 222.602 259.285 226.062 260.599C229.344 261.847 232.236 262.279 233.927 262.472C234.444 262.531 237.931 262.825 236.403 262.686L238.576 238.784ZM231.245 234.472L254.399 228.157C254.862 229.855 254.927 231.243 254.802 232.493C254.676 233.755 254.204 236.284 252.271 239.076L232.538 225.415L212.806 211.754C205.532 222.261 206.277 234.138 208.09 240.787L231.245 234.472ZM232.538 225.415L251.892 239.608C251.833 239.688 251.214 240.531 250.033 241.584C249.421 242.13 248.762 242.642 248.073 243.105C247.402 243.556 246.853 243.86 246.582 244.004C246.46 244.069 246.386 244.106 246.423 244.087C246.442 244.078 246.466 244.066 246.525 244.036C246.575 244.011 246.657 243.97 246.745 243.925C247.11 243.74 247.777 243.399 248.57 242.943C249.385 242.474 250.26 241.927 251.185 241.278C252.102 240.635 252.991 239.946 253.863 239.208L238.36 220.887L222.858 202.566C223.27 202.217 223.888 201.766 224.633 201.338C224.934 201.165 225.146 201.059 225.079 201.093C225.059 201.104 225.033 201.116 224.978 201.144C224.931 201.168 224.85 201.208 224.766 201.251C224.596 201.337 224.318 201.479 223.994 201.651C222.435 202.483 220.328 203.759 218.076 205.769C216.019 207.604 214.429 209.525 213.185 211.223L232.538 225.415ZM238.36 220.887L252.31 240.417C255.865 237.878 260.727 233.576 264.451 226.659L243.32 215.281L222.189 203.902C222.511 203.304 222.92 202.753 223.363 202.282C223.796 201.823 224.187 201.518 224.411 201.358L238.36 220.887ZM243.32 215.281L263.9 227.629C266.796 222.801 269.953 215.969 271.705 209.313L248.495 203.205L225.285 197.098C225.136 197.665 224.792 198.688 224.23 199.977C223.678 201.243 223.118 202.303 222.74 202.933L243.32 215.281ZM248.495 203.205C271.305 210.67 271.304 210.671 271.304 210.671C271.304 210.671 271.304 210.671 271.305 210.67C271.305 210.67 271.305 210.669 271.306 210.667C271.307 210.664 271.309 210.658 271.311 210.65C271.316 210.635 271.324 210.612 271.334 210.58C271.355 210.516 271.387 210.419 271.429 210.29C271.514 210.032 271.64 209.648 271.805 209.15C272.133 208.153 272.614 206.698 273.218 204.883C274.427 201.25 276.126 196.18 278.083 190.441C282.029 178.873 286.914 164.912 290.937 154.493L268.549 145.848L246.16 137.203C241.773 148.563 236.632 163.28 232.653 174.946C230.648 180.824 228.91 186.01 227.673 189.729C227.054 191.589 226.56 193.085 226.219 194.118C226.048 194.635 225.916 195.037 225.826 195.311C225.781 195.449 225.747 195.554 225.723 195.626C225.711 195.662 225.702 195.69 225.696 195.709C225.693 195.718 225.69 195.726 225.689 195.731C225.688 195.734 225.687 195.736 225.686 195.737C225.686 195.738 225.686 195.739 225.686 195.739C225.686 195.74 225.685 195.741 248.495 203.205ZM268.549 145.848L290.757 154.946C294.204 146.532 299.239 135.41 303.528 126.162C305.65 121.587 307.547 117.56 308.914 114.678C309.596 113.238 310.145 112.087 310.521 111.299C310.71 110.906 310.855 110.603 310.952 110.401C311 110.3 311.036 110.224 311.06 110.174C311.072 110.149 311.081 110.131 311.087 110.119C311.089 110.113 311.091 110.109 311.092 110.107C311.093 110.106 311.093 110.105 311.094 110.105C311.094 110.105 311.094 110.105 311.094 110.104C311.094 110.105 311.093 110.105 289.465 99.7033C267.836 89.3017 267.836 89.3021 267.835 89.3027C267.835 89.3031 267.835 89.3038 267.834 89.3045C267.834 89.3059 267.833 89.3077 267.832 89.3099C267.83 89.3144 267.827 89.3206 267.823 89.3285C267.815 89.3442 267.805 89.3667 267.79 89.3959C267.763 89.4542 267.722 89.539 267.669 89.6492C267.563 89.8694 267.409 90.1911 267.212 90.6047C266.817 91.4317 266.247 92.627 265.541 94.115C264.131 97.089 262.174 101.242 259.983 105.967C255.647 115.316 250.224 127.267 246.34 136.75L268.549 145.848ZM289.465 99.7033L310.515 111.231C312.458 107.682 314.127 104.538 315.541 101.876C316.995 99.1388 318.101 97.0631 319.084 95.3145C321.249 91.4614 321.679 91.3462 321.008 91.9799C320.464 92.4929 319.669 93.0863 318.706 93.5626C317.803 94.0089 317.221 94.1206 317.309 94.1023C318.003 93.9597 320.045 93.7308 325.906 93.7308V69.7308V45.7308C315.489 45.7308 300.257 45.558 288.056 57.0772C283.045 61.8078 279.661 67.4877 277.237 71.8016C275.087 75.6289 271.437 82.6563 268.414 88.1758L289.465 99.7033ZM325.906 69.7308V93.7308C328.911 93.7308 330.842 93.7108 332.748 93.73C334.57 93.7483 335.452 93.8017 335.889 93.8472C336.247 93.8846 333.855 93.6279 331.367 91.7231C329.795 90.5191 329.845 89.8257 331.902 93.2078C333.874 96.451 336.279 100.968 340.379 108.541L361.485 97.1157L382.591 85.69C378.928 78.9244 375.7 72.8483 372.914 68.2682C370.214 63.827 366.383 58.0797 360.552 53.6144C353.806 48.4482 346.778 46.7226 340.869 46.1062C336.111 45.61 330.245 45.7308 325.906 45.7308V69.7308ZM361.485 97.1157C339.99 107.792 339.99 107.791 339.99 107.791C339.99 107.791 339.99 107.791 339.99 107.791C339.99 107.791 339.99 107.792 339.991 107.793C339.992 107.795 339.994 107.799 339.997 107.805C340.003 107.818 340.013 107.838 340.027 107.866C340.054 107.921 340.097 108.007 340.153 108.121C340.266 108.35 340.437 108.695 340.658 109.145C341.101 110.046 341.747 111.366 342.55 113.02C344.159 116.332 346.388 120.968 348.865 126.252C353.891 136.972 359.674 149.799 363.445 159.623L385.851 151.023L408.257 142.423C403.834 130.9 397.435 116.774 392.326 105.876C389.736 100.352 387.409 95.5138 385.729 92.0536C384.888 90.3219 384.207 88.9313 383.734 87.9677C383.497 87.4857 383.311 87.1103 383.184 86.8521C383.12 86.723 383.071 86.6232 383.036 86.554C383.019 86.5194 383.006 86.4925 382.996 86.4733C382.992 86.4638 382.988 86.4562 382.985 86.4505C382.984 86.4477 382.982 86.4454 382.982 86.4436C382.981 86.4427 382.981 86.4417 382.98 86.4412C382.98 86.4403 382.98 86.4396 361.485 97.1157ZM385.851 151.023L363.431 159.588C366.877 168.608 370.986 180.758 374.307 190.911C375.951 195.934 377.37 200.37 378.377 203.548C378.88 205.135 379.28 206.406 379.553 207.276C379.689 207.711 379.793 208.045 379.863 208.268C379.898 208.38 379.924 208.464 379.941 208.518C379.949 208.546 379.955 208.566 379.959 208.579C379.961 208.585 379.963 208.589 379.964 208.592C379.964 208.593 379.964 208.594 379.964 208.594C379.964 208.595 379.964 208.594 379.964 208.595C379.964 208.594 379.964 208.594 402.886 201.48C425.807 194.367 425.807 194.366 425.807 194.366C425.807 194.365 425.807 194.364 425.806 194.364C425.806 194.362 425.805 194.36 425.804 194.358C425.803 194.353 425.801 194.346 425.798 194.337C425.793 194.319 425.785 194.294 425.775 194.262C425.755 194.197 425.725 194.103 425.687 193.981C425.611 193.737 425.5 193.381 425.356 192.923C425.07 192.008 424.654 190.686 424.133 189.043C423.092 185.759 421.627 181.179 419.928 175.985C416.565 165.708 412.156 152.63 408.271 142.458L385.851 151.023ZM402.886 201.48L380.117 209.07C381.061 211.902 382.181 215.085 383.207 217.832C383.885 219.646 385.4 223.728 387.007 226.541L407.845 214.634L428.683 202.727C428.936 203.168 429.102 203.5 429.172 203.64C429.251 203.801 429.296 203.898 429.301 203.91C429.308 203.926 429.257 203.812 429.14 203.527C428.907 202.962 428.577 202.119 428.171 201.032C427.365 198.873 426.435 196.234 425.654 193.891L402.886 201.48ZM407.845 214.634L384.562 220.455C386.316 227.47 391.967 237.76 403.566 242.731L413.02 220.671L422.474 198.612C425.637 199.967 427.546 201.947 428.553 203.269C429.449 204.446 430.471 206.183 431.129 208.813L407.845 214.634ZM413.02 220.671L400.3 241.023C400.547 241.177 400.777 241.32 400.969 241.44C401.172 241.566 401.324 241.66 401.463 241.747C401.757 241.931 401.824 241.976 401.8 241.96C401.754 241.93 400.763 241.277 399.581 240.095C398.266 238.78 397.355 237.464 396.784 236.47C396.341 235.698 396.202 235.282 396.434 235.847L418.627 226.709L440.819 217.571C439.828 215.165 437.829 210.461 433.522 206.154C431.558 204.19 429.664 202.85 428.48 202.058C427.501 201.404 426.203 200.609 425.74 200.32L413.02 220.671ZM418.627 226.709L396.155 235.136C395.133 232.411 394.949 230.036 395.137 228.04C395.35 225.779 396.172 222.834 398.31 220.054L417.333 234.687L436.356 249.32C444.724 238.442 443.925 225.818 441.099 218.282L418.627 226.709ZM417.333 234.687L398.133 220.287C399.031 219.091 400.414 217.755 402.282 216.691C404.081 215.667 405.654 215.277 406.498 215.132C407.215 215.009 407.48 215.054 406.69 215.054C406.31 215.054 405.886 215.046 405.171 215.032C404.538 215.019 403.624 215 402.67 215V239V263C403.064 263 403.498 263.008 404.207 263.022C404.833 263.035 405.745 263.054 406.69 263.054C408.547 263.054 411.414 262.991 414.637 262.437C422.092 261.154 430.3 257.398 436.533 249.087L417.333 234.687ZM402.67 239V215H352.213V239V263H402.67V239ZM352.213 239V215C350.505 215 350.15 215.003 349.798 214.983C349.614 214.973 350.44 214.995 351.731 215.373C353.177 215.796 354.902 216.573 356.55 217.851C358.156 219.097 359.076 220.344 359.499 221.031L339.059 233.609L318.62 246.188C323.319 253.825 330.084 259.051 338.248 261.441C344.519 263.276 350.983 263 352.213 263V239ZM339.059 233.609L360.991 223.862C361.83 225.749 362.09 227.143 362.153 227.493C362.25 228.023 362.28 228.408 362.29 228.698C362.299 228.963 362.307 229.541 362.194 230.411C362.136 230.862 362.022 231.57 361.79 232.459C361.57 233.299 361.142 234.701 360.31 236.364L338.844 225.631L317.378 214.898C314.102 221.449 314.241 228.134 314.319 230.381C314.421 233.282 314.903 238.351 317.128 243.357L339.059 233.609ZM338.844 225.631L359.913 237.123C359.913 237.125 359.895 237.158 359.861 237.216C359.827 237.274 359.773 237.366 359.7 237.484C359.556 237.717 359.313 238.091 358.968 238.553C358.21 239.571 357.151 240.755 355.767 241.888C354.47 242.949 353.374 243.561 353.039 243.743C352.941 243.797 352.725 243.906 353.674 243.432L342.941 221.965L332.208 200.499C332.079 200.563 330.973 201.104 330.106 201.576C329.004 202.175 327.261 203.192 325.371 204.738C321.253 208.108 318.991 211.907 317.774 214.139L338.844 225.631ZM342.941 221.965L357.933 240.706C356.321 241.996 354.938 242.726 354.505 242.952C354.011 243.208 353.653 243.362 353.874 243.263C353.904 243.25 354.499 242.987 355.038 242.732C355.643 242.445 356.577 241.985 357.643 241.358C359.596 240.209 363.294 237.76 366.361 233.338C369.827 228.342 371.471 222.289 370.955 216.091L347.038 218.084L323.121 220.077C322.712 215.172 324.033 210.144 326.919 205.983C329.406 202.397 332.269 200.595 333.306 199.985C334.264 199.422 335.207 199.03 334.258 199.454C334.028 199.558 333.242 199.907 332.366 200.362C331.55 200.786 329.83 201.719 327.948 203.224L342.941 221.965ZM288.386 163.314V187.314H331.944V163.314V139.314H288.386V163.314ZM331.944 163.314C354.742 155.815 354.742 155.814 354.742 155.814C354.741 155.813 354.741 155.813 354.741 155.812C354.741 155.811 354.74 155.81 354.74 155.808C354.739 155.805 354.737 155.801 354.736 155.796C354.732 155.786 354.728 155.771 354.722 155.753C354.71 155.717 354.693 155.666 354.671 155.6C354.627 155.468 354.564 155.277 354.483 155.032C354.321 154.544 354.087 153.842 353.795 152.971C353.213 151.233 352.394 148.813 351.45 146.076C349.6 140.717 347.124 133.732 344.955 128.309L322.672 137.223L300.388 146.136C302.1 150.417 304.261 156.478 306.077 161.738C306.965 164.311 307.737 166.594 308.286 168.232C308.56 169.05 308.778 169.704 308.926 170.15C309 170.372 309.056 170.543 309.093 170.655C309.112 170.712 309.126 170.753 309.134 170.78C309.139 170.793 309.142 170.803 309.144 170.808C309.145 170.811 309.145 170.813 309.146 170.814C309.146 170.814 309.146 170.814 309.146 170.814C309.146 170.814 309.146 170.814 309.146 170.814C309.146 170.814 309.145 170.813 331.944 163.314ZM322.672 137.223L345.027 128.49C342.069 120.918 338.757 113.552 336.238 108.175C334.967 105.461 333.872 103.198 333.087 101.599C332.694 100.799 332.377 100.162 332.154 99.7154C332.042 99.492 331.954 99.316 331.891 99.1906C331.859 99.1278 331.834 99.0777 331.815 99.0407C331.805 99.0222 331.798 99.0069 331.792 98.995C331.789 98.989 331.786 98.9839 331.784 98.9796C331.783 98.9774 331.782 98.9754 331.781 98.9737C331.78 98.9728 331.78 98.9717 331.78 98.9713C331.779 98.9702 331.779 98.9691 310.381 109.838C288.983 120.707 288.982 120.706 288.982 120.705C288.982 120.705 288.981 120.704 288.981 120.703C288.981 120.702 288.98 120.702 288.98 120.701C288.979 120.7 288.979 120.7 288.98 120.701C288.98 120.702 288.983 120.706 288.986 120.714C288.994 120.729 289.008 120.757 289.028 120.797C289.069 120.877 289.134 121.007 289.221 121.182C289.397 121.532 289.661 122.064 289.999 122.753C290.677 124.132 291.643 126.128 292.771 128.536C295.05 133.4 297.884 139.727 300.317 145.955L322.672 137.223ZM310.381 109.838C288.983 98.9691 288.982 98.9698 288.982 98.9706C288.982 98.9709 288.981 98.9717 288.981 98.9724C288.98 98.9736 288.98 98.9751 288.979 98.9768C288.977 98.9803 288.975 98.9845 288.972 98.9895C288.967 98.9997 288.96 99.0131 288.952 99.0297C288.935 99.063 288.912 99.1093 288.882 99.168C288.823 99.2855 288.738 99.453 288.631 99.6668C288.416 100.094 288.108 100.708 287.726 101.479C286.961 103.018 285.892 105.193 284.655 107.766C282.204 112.861 278.994 119.732 276.186 126.4L298.305 135.713L320.425 145.027C322.792 139.404 325.619 133.337 327.913 128.567C329.047 126.208 330.026 124.218 330.717 122.826C331.063 122.131 331.335 121.588 331.517 121.224C331.609 121.043 331.678 120.906 331.722 120.819C331.744 120.775 331.76 120.744 331.769 120.725C331.774 120.715 331.777 120.709 331.779 120.706C331.78 120.704 331.78 120.704 331.78 120.704C331.78 120.704 331.78 120.704 331.78 120.705C331.779 120.705 331.779 120.705 331.779 120.705C331.779 120.706 331.779 120.707 310.381 109.838ZM298.305 135.713L275.929 127.037C273.739 132.684 271.157 139.875 269.176 145.494C268.173 148.337 267.301 150.842 266.68 152.638C266.369 153.537 266.12 154.259 265.948 154.76C265.862 155.01 265.795 155.206 265.749 155.339C265.726 155.406 265.708 155.458 265.696 155.494C265.69 155.512 265.685 155.526 265.682 155.535C265.68 155.54 265.679 155.544 265.678 155.547C265.678 155.548 265.677 155.549 265.677 155.55C265.677 155.551 265.677 155.551 265.676 155.552C265.676 155.552 265.676 155.552 288.386 163.314C311.097 171.076 311.097 171.076 311.097 171.076C311.097 171.076 311.097 171.076 311.097 171.076C311.097 171.076 311.097 171.076 311.097 171.075C311.097 171.074 311.098 171.071 311.099 171.068C311.102 171.061 311.105 171.051 311.11 171.036C311.12 171.006 311.136 170.961 311.157 170.901C311.198 170.78 311.26 170.599 311.341 170.363C311.504 169.891 311.741 169.2 312.04 168.336C312.639 166.608 313.479 164.194 314.443 161.458C316.397 155.918 318.775 149.309 320.682 144.39L298.305 135.713ZM434.602 230.375L458.536 228.602L458.492 227.998L458.417 227.398L434.602 230.375ZM438.914 221.534L426.567 200.954L425.505 201.591L424.514 202.334L438.914 221.534ZM445.815 217.006L426.87 202.271L425.98 203.415L425.235 204.658L445.815 217.006ZM445.815 91.725L425.235 104.073L425.669 104.797L426.153 105.488L445.815 91.725ZM438.914 87.1968L424.514 106.397L425.505 107.14L426.566 107.777L438.914 87.1968ZM434.602 78.356L458.431 81.2154L458.443 81.1109L458.455 81.0063L434.602 78.356ZM517.404 78.356L493.469 80.1289L493.507 80.6456L493.568 81.1602L517.404 78.356ZM513.091 87.1968L525.439 107.777L526.109 107.374L526.752 106.929L513.091 87.1968ZM506.191 91.725L485.611 79.3771V79.3771L506.191 91.725ZM508.347 217.868L523.545 199.293L522.528 198.462L521.427 197.746L508.347 217.868ZM530.773 218.515L538 241.401L538.352 241.29L538.701 241.168L530.773 218.515ZM543.495 208.596L561.397 224.581L561.652 224.296L561.897 224.003L543.495 208.596ZM555.139 195.012L569.966 213.883L570.049 213.818L570.131 213.752L555.139 195.012ZM566.998 192.424L558.701 214.944L559.395 215.2L560.102 215.412L566.998 192.424ZM573.683 201.696L597.472 204.868L597.472 204.868L573.683 201.696ZM563.548 235.766L581.057 252.18L581.075 252.161L581.094 252.141L563.548 235.766ZM445.383 239V215C445.502 215 448.722 214.99 452.429 217.837C456.796 221.192 458.327 225.779 458.536 228.602L434.602 230.375L410.667 232.148C411.308 240.793 415.103 249.692 423.19 255.904C430.616 261.608 439.012 263 445.383 263V239ZM434.602 230.375L458.417 227.398C458.942 231.599 457.791 234.806 456.864 236.566C455.949 238.305 454.749 239.658 453.314 240.734L438.914 221.534L424.514 202.334C417.667 207.47 408.934 218.529 410.787 233.352L434.602 230.375ZM438.914 221.534L451.262 242.114C449.962 242.894 448.947 243.252 449.346 243.096C449.426 243.066 449.499 243.038 449.689 242.965C449.848 242.903 450.09 242.81 450.356 242.705C450.887 242.495 451.683 242.171 452.595 241.746C454.472 240.87 456.992 239.497 459.596 237.324C462.253 235.107 464.544 232.438 466.394 229.354L445.815 217.006L425.235 204.658C426.115 203.19 427.328 201.734 428.846 200.468C430.311 199.245 431.631 198.559 432.296 198.249C432.601 198.107 432.787 198.036 432.711 198.066C432.673 198.081 432.612 198.105 432.47 198.159C432.358 198.202 432.131 198.289 431.912 198.375C431.466 198.549 430.705 198.85 429.834 199.245C428.942 199.65 427.811 200.207 426.567 200.954L438.914 221.534ZM445.815 217.006L464.759 231.74C469.36 225.824 470.505 219.487 470.894 216.761C471.354 213.539 471.324 210.658 471.324 209.89H447.324H423.324C423.324 210.848 423.294 210.554 423.376 209.973C423.427 209.618 423.57 208.752 423.968 207.581C424.356 206.443 425.177 204.448 426.87 202.271L445.815 217.006ZM447.324 209.89H471.324V98.8408H447.324H423.324V209.89H447.324ZM447.324 98.8408H471.324C471.324 98.0598 471.355 95.2088 470.884 91.9812C470.443 88.9558 469.286 83.405 465.476 77.9619L445.815 91.725L426.153 105.488C424.931 103.743 424.278 102.166 423.931 101.13C423.582 100.089 423.443 99.2984 423.387 98.908C423.293 98.268 423.324 97.8967 423.324 98.8408H447.324ZM445.815 91.725L466.394 79.3771C464.544 76.2923 462.253 73.6233 459.596 71.4065C456.992 69.2341 454.472 67.861 452.595 66.9848C451.683 66.5594 450.887 66.2357 450.356 66.0257C450.09 65.9207 449.848 65.8275 449.689 65.7662C449.499 65.6932 449.426 65.6653 449.346 65.6343C448.948 65.4788 449.962 65.8369 451.262 66.617L438.914 87.1968L426.566 107.777C427.811 108.523 428.942 109.081 429.834 109.486C430.705 109.881 431.466 110.182 431.912 110.356C432.131 110.442 432.358 110.529 432.47 110.572C432.612 110.626 432.673 110.65 432.711 110.665C432.787 110.695 432.601 110.624 432.296 110.482C431.631 110.171 430.311 109.486 428.846 108.263C427.328 106.997 426.115 105.54 425.235 104.073L445.815 91.725ZM438.914 87.1968L453.314 67.9968C452.176 67.143 452.518 67.395 452.764 67.6077C453.247 68.0257 454.491 69.1681 455.706 71.0495C457.003 73.0581 457.846 75.2491 458.239 77.3777C458.604 79.351 458.487 80.7491 458.431 81.2154L434.602 78.356L410.773 75.4965C409.973 82.1639 410.744 89.906 415.384 97.0908C417.435 100.266 419.717 102.486 421.352 103.902C422.75 105.112 424.359 106.28 424.514 106.397L438.914 87.1968ZM434.602 78.356L458.455 81.0063C458.214 83.18 456.893 87.4781 452.644 90.7896C448.89 93.7152 445.557 93.7308 445.383 93.7308V69.7308V45.7308C438.957 45.7308 430.556 47.1479 423.136 52.9307C415.222 59.0992 411.637 67.71 410.749 75.7056L434.602 78.356ZM445.383 69.7308V93.7308H506.838V69.7308V45.7308H445.383V69.7308ZM506.838 69.7308V93.7308C506.445 93.7308 503.159 93.6656 499.469 90.7896C495.184 87.4497 493.677 82.9335 493.469 80.1289L517.404 78.356L541.338 76.583C540.699 67.9565 536.928 59.1277 528.977 52.9307C521.621 47.1976 513.268 45.7308 506.838 45.7308V69.7308ZM517.404 78.356L493.568 81.1602C492.738 74.1068 496.658 69.3831 499.43 67.4642L513.091 87.1968L526.752 106.929C535.13 101.129 542.932 89.9366 541.239 75.5518L517.404 78.356ZM513.091 87.1968L500.743 66.617C502.043 65.8369 503.058 65.4788 502.659 65.6343C502.58 65.6653 502.507 65.6932 502.317 65.7662C502.157 65.8275 501.915 65.9207 501.649 66.0257C501.118 66.2357 500.322 66.5594 499.411 66.9848C497.533 67.861 495.013 69.2341 492.409 71.4065C489.752 73.6233 487.462 76.2923 485.611 79.3771L506.191 91.725L526.771 104.073C525.89 105.541 524.678 106.997 523.16 108.263C521.695 109.486 520.374 110.171 519.709 110.482C519.404 110.624 519.218 110.695 519.294 110.665C519.332 110.65 519.393 110.626 519.535 110.572C519.647 110.529 519.874 110.442 520.093 110.356C520.539 110.182 521.3 109.881 522.172 109.486C523.063 109.081 524.194 108.523 525.439 107.777L513.091 87.1968ZM506.191 91.725L485.611 79.3771C482.47 84.6122 481.58 89.7814 481.244 92.4678C480.874 95.4272 480.897 98.0505 480.897 98.8408H504.897H528.897C528.897 97.906 528.92 98.0496 528.873 98.4214C528.843 98.6651 528.755 99.2761 528.51 100.13C528.271 100.961 527.778 102.394 526.771 104.073L506.191 91.725ZM504.897 98.8408H480.897V194.58H504.897H528.897V98.8408H504.897ZM504.897 194.58H480.897C480.897 201.039 480.646 208.773 481.113 213.675C481.404 216.728 482.12 221.469 484.665 226.396C487.499 231.882 491.503 235.544 495.267 237.991L508.347 217.868L521.427 197.746C522.1 198.183 523.16 198.958 524.304 200.154C525.493 201.397 526.516 202.826 527.312 204.367C528.806 207.259 528.929 209.467 528.897 209.124C528.863 208.765 528.816 207.741 528.829 204.947C528.841 202.644 528.897 198.706 528.897 194.58H504.897ZM508.347 217.868L493.149 236.443C497.555 240.048 502.216 241.308 503.505 241.66C505.589 242.228 507.573 242.555 509.101 242.759C512.222 243.176 515.558 243.352 518.509 243.401C521.525 243.452 524.693 243.38 527.595 243.171C529.82 243.011 534.056 242.646 538 241.401L530.773 218.515L523.545 195.629C524.294 195.393 524.83 195.277 525.027 195.237C525.255 195.189 525.36 195.176 525.307 195.184C525.188 195.201 524.811 195.247 524.153 195.295C522.837 195.389 521.099 195.438 519.317 195.408C518.448 195.393 517.642 195.361 516.941 195.316C516.223 195.27 515.727 195.218 515.45 195.181C515.085 195.132 515.401 195.151 516.142 195.353C516.526 195.458 517.34 195.696 518.394 196.148C518.939 196.381 519.659 196.719 520.485 197.189C521.298 197.652 522.372 198.334 523.545 199.293L508.347 217.868ZM530.773 218.515L538.701 241.168C548.817 237.627 555.15 231.577 561.397 224.581L543.495 208.596L525.592 192.612C524.446 193.896 523.606 194.781 522.973 195.407C522.347 196.025 522.034 196.279 521.959 196.337C521.918 196.369 522.07 196.249 522.365 196.089C522.662 195.927 522.864 195.856 522.844 195.863L530.773 218.515ZM543.495 208.596L561.897 224.003C565.964 219.145 568.535 215.825 569.786 214.272C570.954 212.822 570.586 213.397 569.966 213.883L555.139 195.012L540.311 176.14C536.673 178.998 534.364 181.729 532.406 184.16C530.53 186.489 528.789 188.775 525.093 193.19L543.495 208.596ZM555.139 195.012L570.131 213.752C569.378 214.355 568.246 215.045 566.566 215.465C564.79 215.909 561.934 216.135 558.701 214.944L566.998 192.424L575.295 169.904C560.628 164.5 547.356 170.503 540.146 176.271L555.139 195.012ZM566.998 192.424L560.102 215.412C555.968 214.172 553.521 211.67 552.245 209.786C551.545 208.752 550.873 207.444 550.395 205.814C549.941 204.262 549.466 201.732 549.893 198.524L573.683 201.696L597.472 204.868C598.692 195.72 595.375 187.872 591.994 182.879C588.347 177.49 582.341 171.97 573.895 169.436L566.998 192.424ZM573.683 201.696L549.893 198.524C549.983 197.853 550.032 197.753 549.783 198.916C549.599 199.772 549.331 200.953 548.991 202.384C548.313 205.242 547.407 208.839 546.432 212.416C545.439 216.057 544.458 219.362 543.636 221.765C543.216 222.995 542.957 223.631 542.876 223.814C542.836 223.905 542.96 223.61 543.256 223.086C543.436 222.766 544.318 221.195 546.003 219.39L563.548 235.766L581.094 252.141C584.525 248.465 586.325 244.249 586.789 243.197C587.653 241.239 588.416 239.163 589.053 237.3C590.347 233.517 591.631 229.113 592.74 225.046C594.768 217.612 597.008 208.348 597.472 204.868L573.683 201.696ZM563.548 235.766L546.039 219.351C546.306 219.066 547.1 218.274 548.452 217.421C549.903 216.507 551.512 215.829 553.127 215.418C554.595 215.044 555.645 215.004 555.739 215C555.786 214.998 555.72 215.002 555.404 215.003C554.822 215.004 554.951 215 554.061 215V239V263C554.411 263 559.813 263.247 564.967 261.935C571.772 260.203 576.999 256.509 581.057 252.18L563.548 235.766ZM554.061 239V215H445.383V239V263H554.061V239ZM703.14 74.259L726.674 69.5523L726.538 68.8721L726.363 68.2008L703.14 74.259ZM708.099 102.075L731.858 98.6812L731.797 98.2511L731.72 97.8235L708.099 102.075ZM701.846 111.563L696.025 88.2795L695.524 88.4049L695.028 88.5518L701.846 111.563ZM689.771 107.897L668.933 119.805L669.244 120.348L669.582 120.875L689.771 107.897ZM661.955 90.6469V66.6469H660.249L658.56 66.8881L661.955 90.6469ZM658.72 91.725L645.407 71.7559L644.431 72.4069L643.522 73.15L658.72 91.725ZM658.073 217.006L678.653 204.658L678.359 204.168L678.042 203.693L658.073 217.006ZM664.973 221.534L679.373 202.334L678.383 201.591L677.321 200.954L664.973 221.534ZM669.286 230.375L645.471 227.398L645.396 227.998L645.352 228.602L669.286 230.375ZM586.7 230.375L610.634 228.602L610.59 227.998L610.515 227.398L586.7 230.375ZM591.012 221.534L578.664 200.954L577.603 201.591L576.612 202.334L591.012 221.534ZM597.913 217.006L578.968 202.271L578.078 203.415L577.333 204.658L597.913 217.006ZM597.697 91.725L580.726 108.695L581.173 109.142L581.642 109.564L597.697 91.725ZM594.463 90.6469L597.857 66.8881L596.168 66.6469H594.463V90.6469ZM566.646 107.897L587.484 119.805V119.805L566.646 107.897ZM554.571 111.563L561.164 88.4864L560.78 88.3765L560.392 88.2795L554.571 111.563ZM548.318 102.075L524.697 97.8235L524.62 98.2511L524.559 98.6811L548.318 102.075ZM553.493 74.259L576.682 80.4429L576.826 79.9032L576.945 79.3573L553.493 74.259ZM691.711 69.7308V93.7308C693.543 93.7308 693.696 93.7074 694.376 93.7289C694.84 93.7436 694.19 93.7655 693.012 93.4856C691.812 93.2005 689.04 92.3669 686.128 89.9606C682.888 87.2839 680.817 83.7663 679.917 80.3172L703.14 74.259L726.363 68.2008C724.816 62.272 721.532 56.9485 716.702 52.9578C712.199 49.2375 707.46 47.5818 704.103 46.7846C698.435 45.4384 692.007 45.7308 691.711 45.7308V69.7308ZM703.14 74.259L679.606 78.9657C680.197 81.9198 682.437 94.9849 684.479 106.327L708.099 102.075L731.72 97.8235C729.88 87.6026 727.377 73.0671 726.674 69.5523L703.14 74.259ZM708.099 102.075L684.34 105.469C684.136 104.04 683.917 100.862 685.742 97.0416C686.746 94.9398 688.292 92.8491 690.413 91.1478C692.516 89.4604 694.578 88.6414 696.025 88.2795L701.846 111.563L707.667 134.846C717.318 132.433 724.972 126.278 729.055 117.729C732.605 110.296 732.493 103.129 731.858 98.6812L708.099 102.075ZM701.846 111.563L695.028 88.5518C696.716 88.0515 699.503 87.8295 702.65 88.9888C705.585 90.07 708.159 92.1191 709.959 94.919L689.771 107.897L669.582 120.875C677.352 132.962 692.715 139.3 708.664 134.574L701.846 111.563ZM689.771 107.897L710.609 95.9899C709.222 93.5639 708.575 92.1158 707.027 89.1119C705.83 86.7901 703.518 82.3462 699.691 78.2846C689.985 67.985 677.443 66.6469 667.561 66.6469V90.6469V114.647C669.012 114.647 669.907 114.706 670.399 114.758C670.891 114.81 670.771 114.835 670.257 114.685C669.694 114.521 668.739 114.171 667.614 113.496C666.461 112.803 665.498 111.989 664.757 111.203C664.069 110.473 663.731 109.934 663.719 109.915C663.711 109.901 663.759 109.977 663.874 110.185C663.991 110.396 664.146 110.685 664.361 111.103C664.58 111.529 664.817 111.999 665.123 112.606C665.413 113.183 665.763 113.88 666.136 114.611C666.897 116.098 667.82 117.857 668.933 119.805L689.771 107.897ZM667.561 90.6469V66.6469H661.955V90.6469V114.647H667.561V90.6469ZM661.955 90.6469L658.56 66.8881C654.479 67.4711 649.76 68.8541 645.407 71.7559L658.72 91.725L672.033 111.694C670.392 112.788 668.945 113.407 667.942 113.758C666.887 114.127 666.003 114.312 665.349 114.406L661.955 90.6469ZM658.72 91.725L643.522 73.15C640.35 75.7455 637.664 79.0386 635.784 82.9852C633.978 86.7745 633.338 90.2832 633.087 92.787C632.853 95.1265 632.915 97.1908 632.942 98.0827C632.981 99.3998 632.995 99.4804 632.995 99.9189H656.995H680.995C680.995 98.5246 680.928 96.9071 680.92 96.6474C680.9 95.9625 680.948 96.5714 680.849 97.5632C680.733 98.7192 680.376 100.988 679.116 103.632C677.782 106.433 675.904 108.675 673.918 110.3L658.72 91.725ZM656.995 99.9189H632.995V209.89H656.995H680.995V99.9189H656.995ZM656.995 209.89H632.995C632.995 209.449 632.915 212.699 633.129 215.32C633.254 216.855 633.513 218.975 634.128 221.345C634.728 223.658 635.852 226.941 638.104 230.319L658.073 217.006L678.042 203.693C679.647 206.1 680.313 208.224 680.59 209.29C680.881 210.414 680.952 211.2 680.969 211.414C680.99 211.664 680.982 211.729 680.982 211.457C680.982 211.326 680.983 211.177 680.986 210.919C680.989 210.725 680.995 210.297 680.995 209.89H656.995ZM658.073 217.006L637.493 229.354C639.344 232.438 641.635 235.107 644.292 237.324C646.896 239.497 649.416 240.87 651.293 241.746C652.205 242.171 653 242.495 653.532 242.705C653.797 242.81 654.04 242.903 654.199 242.965C654.389 243.038 654.462 243.066 654.541 243.096C654.94 243.252 653.926 242.894 652.625 242.114L664.973 221.534L677.321 200.954C676.076 200.207 674.945 199.65 674.054 199.245C673.183 198.85 672.422 198.549 671.975 198.375C671.757 198.289 671.529 198.202 671.418 198.159C671.275 198.105 671.215 198.081 671.177 198.066C671.101 198.036 671.287 198.107 671.592 198.249C672.256 198.559 673.577 199.245 675.042 200.468C676.56 201.734 677.772 203.19 678.653 204.658L658.073 217.006ZM664.973 221.534L650.573 240.734C649.139 239.658 647.939 238.305 647.024 236.566C646.097 234.806 644.946 231.599 645.471 227.398L669.286 230.375L693.101 233.352C694.953 218.529 686.221 207.47 679.373 202.334L664.973 221.534ZM669.286 230.375L645.352 228.602C645.561 225.779 647.092 221.192 651.459 217.837C655.166 214.99 658.386 215 658.504 215V239V263C664.876 263 673.272 261.608 680.698 255.904C688.785 249.692 692.58 240.793 693.22 232.148L669.286 230.375ZM658.504 239V215H597.481V239V263H658.504V239ZM597.481 239V215C597.6 215 600.82 214.99 604.527 217.837C608.894 221.192 610.425 225.779 610.634 228.602L586.7 230.375L562.765 232.148C563.406 240.793 567.201 249.692 575.288 255.904C582.714 261.608 591.11 263 597.481 263V239ZM586.7 230.375L610.515 227.398C611.04 231.599 609.889 234.806 608.962 236.566C608.047 238.305 606.847 239.658 605.412 240.734L591.012 221.534L576.612 202.334C569.765 207.47 561.032 218.529 562.885 233.352L586.7 230.375ZM591.012 221.534L603.36 242.114C602.06 242.894 601.045 243.252 601.444 243.096C601.524 243.066 601.597 243.038 601.787 242.965C601.946 242.903 602.188 242.81 602.454 242.705C602.985 242.495 603.781 242.171 604.693 241.746C606.57 240.87 609.09 239.497 611.694 237.324C614.351 235.107 616.641 232.438 618.492 229.354L597.913 217.006L577.333 204.658C578.213 203.19 579.426 201.734 580.944 200.468C582.409 199.245 583.729 198.559 584.394 198.249C584.699 198.107 584.885 198.036 584.809 198.066C584.771 198.081 584.71 198.105 584.568 198.159C584.456 198.202 584.229 198.289 584.01 198.375C583.564 198.549 582.803 198.85 581.932 199.245C581.04 199.65 579.909 200.207 578.664 200.954L591.012 221.534ZM597.913 217.006L616.857 231.74C621.458 225.824 622.603 219.487 622.992 216.761C623.452 213.539 623.422 210.658 623.422 209.89H599.422H575.422C575.422 210.848 575.392 210.554 575.474 209.973C575.525 209.618 575.668 208.752 576.066 207.581C576.454 206.443 577.275 204.448 578.968 202.271L597.913 217.006ZM599.422 209.89H623.422V99.9189H599.422H575.422V209.89H599.422ZM599.422 99.9189H623.422C623.422 98.8173 623.439 99.4107 623.455 97.5702C623.464 96.5334 623.467 94.5612 623.197 92.3156C622.553 86.9513 620.303 79.7814 613.752 73.8859L597.697 91.725L581.642 109.564C579.789 107.897 578.188 105.771 577.063 103.317C576.001 101.003 575.66 99.0467 575.539 98.0346C575.431 97.1366 575.461 96.62 575.457 97.1599C575.454 97.4083 575.449 97.6448 575.44 98.1663C575.432 98.6216 575.422 99.2381 575.422 99.9189H599.422ZM597.697 91.725L614.668 74.7546C610.223 70.3099 605.117 68.6845 604.073 68.3367C601.911 67.6157 599.774 67.1619 597.857 66.8881L594.463 90.6469L591.068 114.406C590.661 114.347 589.925 114.217 588.895 113.873C588.381 113.702 587.473 113.372 586.349 112.801C585.464 112.351 583.139 111.108 580.726 108.695L597.697 91.725ZM594.463 90.6469V66.6469H588.856V90.6469V114.647H594.463V90.6469ZM588.856 90.6469V66.6469C578.974 66.6469 566.432 67.985 556.726 78.2846C552.899 82.3462 550.587 86.7901 549.39 89.1119C547.842 92.1158 547.195 93.5639 545.808 95.9899L566.646 107.897L587.484 119.805C588.597 117.857 589.52 116.098 590.281 114.611C590.654 113.88 591.004 113.183 591.294 112.606C591.6 111.999 591.837 111.529 592.056 111.103C592.271 110.685 592.426 110.396 592.543 110.185C592.658 109.977 592.706 109.901 592.698 109.915C592.686 109.934 592.349 110.473 591.66 111.203C590.919 111.989 589.956 112.803 588.803 113.496C587.678 114.171 586.723 114.521 586.16 114.685C585.646 114.835 585.526 114.81 586.018 114.758C586.51 114.706 587.405 114.647 588.856 114.647V90.6469ZM566.646 107.897L545.808 95.9899C547.845 92.4265 550.865 90.1174 553.929 88.9888C557.161 87.798 559.827 88.1043 561.164 88.4864L554.571 111.563L547.978 134.639C563.295 139.016 579.612 133.581 587.484 119.805L566.646 107.897ZM554.571 111.563L560.392 88.2795C561.839 88.6414 563.901 89.4604 566.004 91.1478C568.125 92.8491 569.671 94.9398 570.675 97.0416C572.5 100.862 572.281 104.04 572.077 105.469L548.318 102.075L524.559 98.6811C523.924 103.129 523.812 110.296 527.362 117.729C531.445 126.278 539.099 132.433 548.75 134.846L554.571 111.563ZM548.318 102.075L571.938 106.327C572.954 100.681 573.966 94.9051 574.924 89.6195C575.39 87.0512 575.806 84.809 576.149 83.049C576.542 81.0337 576.709 80.3441 576.682 80.4429L553.493 74.259L530.303 68.0751C529.101 72.5852 526.419 88.2605 524.697 97.8235L548.318 102.075ZM553.493 74.259L576.945 79.3573C576.12 83.1504 573.964 86.99 570.53 89.8641C567.497 92.4026 564.609 93.2349 563.475 93.5009C562.328 93.77 561.715 93.7448 562.215 93.7292C562.92 93.7073 563.099 93.7308 564.921 93.7308V69.7308V45.7308C564.607 45.7308 558.169 45.4426 552.513 46.7693C549.196 47.5474 544.327 49.2018 539.724 53.0543C534.719 57.2424 531.404 62.8878 530.041 69.1607L553.493 74.259ZM564.921 69.7308V93.7308H691.711V69.7308V45.7308H564.921V69.7308Z" fill="#574BA6" mask="url(#path-3-outside-1_2092_589)"/>
<path d="M318.992 304.34C314.488 304.34 310.571 303.527 307.24 301.899C303.909 300.234 301.354 297.887 299.575 294.859C297.796 291.831 296.907 288.311 296.907 284.299C296.907 278.735 297.948 273.796 300.03 269.481C302.149 265.166 305.007 261.835 308.602 259.489C312.198 257.104 316.191 255.912 320.582 255.912C324.67 255.912 327.773 256.972 329.893 259.091C332.012 261.173 333.072 263.936 333.072 267.38C333.072 269.689 332.656 271.544 331.823 272.944C331.028 274.345 329.874 275.045 328.36 275.045C327.3 275.045 326.467 274.799 325.862 274.307C325.256 273.815 324.953 273.096 324.953 272.149C324.953 271.809 325.029 271.184 325.181 270.276C325.408 269.14 325.521 268.232 325.521 267.551C325.521 264.106 323.685 262.384 320.014 262.384C317.516 262.384 315.132 263.198 312.861 264.825C310.59 266.453 308.754 268.856 307.353 272.036C305.953 275.177 305.253 278.924 305.253 283.277C305.253 287.819 306.521 291.339 309.057 293.837C311.593 296.297 315.34 297.527 320.298 297.527C322.758 297.527 325.237 297.225 327.735 296.619C330.271 295.976 333.072 295.01 336.138 293.723C336.706 293.496 337.179 293.383 337.557 293.383C338.163 293.383 338.617 293.61 338.92 294.064C339.223 294.518 339.374 295.105 339.374 295.824C339.374 298.133 338.125 299.836 335.627 300.934C332.94 302.107 330.139 302.978 327.224 303.545C324.348 304.075 321.604 304.34 318.992 304.34ZM356.437 291.396C356.929 291.396 357.308 291.623 357.573 292.077C357.876 292.531 358.027 293.156 358.027 293.951C358.027 295.465 357.667 296.638 356.948 297.471C355.321 299.477 353.542 301.123 351.612 302.41C349.719 303.697 347.562 304.34 345.139 304.34C341.809 304.34 339.329 302.826 337.702 299.798C336.112 296.77 335.317 292.853 335.317 288.046C335.317 283.428 335.904 278.167 337.077 272.263C338.289 266.358 340.049 261.287 342.357 257.047C344.704 252.808 347.486 250.689 350.703 250.689C352.52 250.689 353.939 251.54 354.961 253.243C356.021 254.909 356.551 257.312 356.551 260.454C356.551 264.958 355.302 270.181 352.804 276.123C350.306 282.066 346.918 287.951 342.641 293.78C342.906 295.332 343.341 296.449 343.947 297.13C344.553 297.773 345.347 298.095 346.332 298.095C347.883 298.095 349.246 297.66 350.419 296.789C351.593 295.881 353.088 294.348 354.904 292.191C355.359 291.661 355.87 291.396 356.437 291.396ZM349.454 256.309C348.584 256.309 347.6 257.88 346.502 261.022C345.404 264.163 344.439 268.062 343.606 272.717C342.774 277.373 342.32 281.839 342.244 286.116C344.931 281.687 347.07 277.259 348.659 272.831C350.249 268.364 351.044 264.296 351.044 260.624C351.044 257.748 350.514 256.309 349.454 256.309ZM359.867 304.34C357.52 304.34 355.647 303.489 354.246 301.785C352.846 300.082 352.146 297.849 352.146 295.086C352.146 292.058 352.846 289.2 354.246 286.513C355.647 283.788 357.501 281.612 359.81 279.984C362.157 278.319 364.636 277.486 367.248 277.486C368.08 277.486 368.629 277.656 368.894 277.997C369.197 278.3 369.443 278.868 369.632 279.7C370.427 279.549 371.26 279.473 372.13 279.473C373.985 279.473 374.912 280.136 374.912 281.46C374.912 282.255 374.628 284.148 374.06 287.138C373.19 291.49 372.755 294.518 372.755 296.222C372.755 296.789 372.887 297.243 373.152 297.584C373.455 297.925 373.833 298.095 374.288 298.095C375.007 298.095 375.877 297.641 376.899 296.733C377.921 295.786 379.303 294.272 381.044 292.191C381.498 291.661 382.009 291.396 382.577 291.396C383.069 291.396 383.447 291.623 383.712 292.077C384.015 292.531 384.166 293.156 384.166 293.951C384.166 295.465 383.807 296.638 383.088 297.471C381.536 299.401 379.889 301.028 378.148 302.353C376.407 303.678 374.723 304.34 373.095 304.34C371.846 304.34 370.692 303.924 369.632 303.091C368.61 302.221 367.834 301.047 367.304 299.571C365.336 302.751 362.857 304.34 359.867 304.34ZM361.911 298.606C362.743 298.606 363.538 298.114 364.295 297.13C365.052 296.146 365.601 294.84 365.942 293.213L368.042 282.766C366.453 282.804 364.977 283.41 363.614 284.583C362.289 285.718 361.229 287.232 360.435 289.125C359.64 291.017 359.242 293.023 359.242 295.143C359.242 296.316 359.469 297.187 359.924 297.754C360.416 298.322 361.078 298.606 361.911 298.606ZM390.112 305.589C388.144 305.589 386.63 305.135 385.57 304.227C384.548 303.318 384.037 302.296 384.037 301.161C384.037 300.177 384.397 299.325 385.116 298.606C385.835 297.887 386.895 297.527 388.295 297.527C388.787 297.527 389.355 297.584 389.998 297.698C390.68 297.773 391.191 297.83 391.531 297.868C391.494 296.884 391.266 295.957 390.85 295.086C390.472 294.216 389.98 293.383 389.374 292.588C388.768 291.755 388.201 291.036 387.671 290.431C386.497 292.664 385.324 294.518 384.151 295.994C383.015 297.471 381.766 298.871 380.404 300.196C379.722 300.877 379.003 301.218 378.246 301.218C377.641 301.218 377.149 301.01 376.77 300.593C376.392 300.139 376.202 299.59 376.202 298.947C376.202 298.19 376.467 297.49 376.997 296.846L377.735 295.938C379.817 293.364 381.388 291.244 382.448 289.579C383.091 288.481 383.848 287.024 384.718 285.207C385.589 283.353 386.441 281.441 387.273 279.473C387.992 277.808 389.488 276.975 391.758 276.975C392.818 276.975 393.556 277.07 393.973 277.259C394.389 277.448 394.597 277.751 394.597 278.167C394.597 278.394 394.521 278.754 394.37 279.246C394.219 279.738 394.011 280.23 393.746 280.722C393.064 282.085 392.724 283.239 392.724 284.185C392.724 284.753 392.913 285.378 393.291 286.059C393.708 286.74 394.332 287.592 395.165 288.614C396.376 290.203 397.285 291.566 397.89 292.702C398.534 293.799 398.855 295.01 398.855 296.335C398.855 296.714 398.817 297.243 398.742 297.925C400.596 297.206 402.773 295.294 405.271 292.191C405.725 291.661 406.236 291.396 406.804 291.396C407.296 291.396 407.674 291.623 407.939 292.077C408.242 292.531 408.393 293.156 408.393 293.951C408.393 295.389 408.034 296.562 407.315 297.471C405.422 299.817 403.605 301.426 401.864 302.296C400.161 303.129 398.041 303.583 395.506 303.659C393.992 304.946 392.194 305.589 390.112 305.589ZM414.341 305.589C412.373 305.589 410.859 305.135 409.799 304.227C408.777 303.318 408.266 302.296 408.266 301.161C408.266 300.177 408.626 299.325 409.345 298.606C410.064 297.887 411.124 297.527 412.524 297.527C413.016 297.527 413.584 297.584 414.227 297.698C414.909 297.773 415.42 297.83 415.76 297.868C415.722 296.884 415.495 295.957 415.079 295.086C414.7 294.216 414.208 293.383 413.603 292.588C412.997 291.755 412.429 291.036 411.9 290.431C410.726 292.664 409.553 294.518 408.38 295.994C407.244 297.471 405.995 298.871 404.632 300.196C403.951 300.877 403.232 301.218 402.475 301.218C401.869 301.218 401.377 301.01 400.999 300.593C400.62 300.139 400.431 299.59 400.431 298.947C400.431 298.19 400.696 297.49 401.226 296.846L401.964 295.938C404.046 293.364 405.617 291.244 406.676 289.579C407.32 288.481 408.077 287.024 408.947 285.207C409.818 283.353 410.669 281.441 411.502 279.473C412.221 277.808 413.716 276.975 415.987 276.975C417.047 276.975 417.785 277.07 418.202 277.259C418.618 277.448 418.826 277.751 418.826 278.167C418.826 278.394 418.75 278.754 418.599 279.246C418.448 279.738 418.239 280.23 417.974 280.722C417.293 282.085 416.952 283.239 416.952 284.185C416.952 284.753 417.142 285.378 417.52 286.059C417.937 286.74 418.561 287.592 419.394 288.614C420.605 290.203 421.513 291.566 422.119 292.702C422.762 293.799 423.084 295.01 423.084 296.335C423.084 296.714 423.046 297.243 422.971 297.925C424.825 297.206 427.002 295.294 429.5 292.191C429.954 291.661 430.465 291.396 431.032 291.396C431.525 291.396 431.903 291.623 432.168 292.077C432.471 292.531 432.622 293.156 432.622 293.951C432.622 295.389 432.263 296.562 431.543 297.471C429.651 299.817 427.834 301.426 426.093 302.296C424.39 303.129 422.27 303.583 419.734 303.659C418.22 304.946 416.423 305.589 414.341 305.589ZM435.447 273.853C433.857 273.853 432.665 273.493 431.87 272.774C431.075 272.017 430.678 270.976 430.678 269.651C430.678 268.327 431.189 267.229 432.211 266.358C433.271 265.45 434.577 264.996 436.128 264.996C437.529 264.996 438.664 265.336 439.535 266.018C440.405 266.699 440.841 267.664 440.841 268.913C440.841 270.427 440.349 271.638 439.365 272.547C438.38 273.417 437.075 273.853 435.447 273.853ZM434.993 304.34C432.533 304.34 430.735 303.47 429.599 301.729C428.502 299.988 427.953 297.679 427.953 294.802C427.953 293.099 428.161 290.923 428.577 288.273C429.032 285.586 429.599 283.088 430.281 280.779C430.621 279.568 431.075 278.735 431.643 278.281C432.211 277.827 433.119 277.6 434.368 277.6C436.299 277.6 437.264 278.243 437.264 279.53C437.264 280.476 436.904 282.671 436.185 286.116C435.277 290.279 434.823 293.099 434.823 294.575C434.823 295.711 434.974 296.581 435.277 297.187C435.58 297.792 436.091 298.095 436.81 298.095C437.491 298.095 438.343 297.622 439.365 296.676C440.386 295.73 441.749 294.234 443.452 292.191C443.906 291.661 444.417 291.396 444.985 291.396C445.477 291.396 445.856 291.623 446.121 292.077C446.423 292.531 446.575 293.156 446.575 293.951C446.575 295.465 446.215 296.638 445.496 297.471C441.749 302.05 438.248 304.34 434.993 304.34ZM452.541 304.34C448.946 304.34 446.126 303.299 444.082 301.218C442.076 299.098 441.073 296.316 441.073 292.872C441.073 289.806 441.679 287.119 442.89 284.81C444.101 282.501 445.672 280.722 447.602 279.473C449.532 278.224 451.557 277.6 453.677 277.6C455.759 277.6 457.367 278.224 458.503 279.473C459.676 280.684 460.263 282.255 460.263 284.185C460.263 285.775 459.903 287.119 459.184 288.216C458.503 289.314 457.594 289.863 456.459 289.863C455.74 289.863 455.153 289.693 454.699 289.352C454.283 289.011 454.074 288.538 454.074 287.933C454.074 287.668 454.112 287.365 454.188 287.024C454.264 286.683 454.32 286.437 454.358 286.286C454.547 285.718 454.642 285.188 454.642 284.696C454.642 284.204 454.51 283.826 454.245 283.561C454.018 283.296 453.677 283.163 453.223 283.163C452.352 283.163 451.538 283.561 450.781 284.356C450.024 285.113 449.419 286.154 448.965 287.478C448.51 288.803 448.283 290.26 448.283 291.85C448.283 294.007 448.719 295.654 449.589 296.789C450.498 297.887 451.766 298.436 453.393 298.436C454.68 298.436 455.853 298.057 456.913 297.3C458.011 296.543 459.089 295.427 460.149 293.951C460.603 293.383 461.114 293.099 461.682 293.099C462.174 293.099 462.553 293.326 462.818 293.78C463.12 294.234 463.272 294.859 463.272 295.654C463.272 297.016 462.95 298.19 462.307 299.174C461.285 300.763 459.941 302.031 458.276 302.978C456.61 303.886 454.699 304.34 452.541 304.34Z" fill="white"/>
</svg>
