<svg width="537" height="104" viewBox="0 0 537 104" fill="none" xmlns="http://www.w3.org/2000/svg">
<rect x="16" width="504.583" height="146" rx="36" fill="#574BA6"/>
<path d="M158.104 48.2025C156.243 48.2025 154.558 47.744 153.047 46.827C151.564 45.91 150.391 44.5884 149.527 42.8623C148.664 41.1092 148.233 39.0459 148.233 36.6725C148.233 32.5729 149.109 28.7835 150.863 25.3043C152.616 21.7981 155.205 18.9931 158.63 16.8894C162.055 14.7587 166.169 13.6933 170.969 13.6933C172.21 13.6933 173.532 13.7877 174.934 13.9765C176.363 14.1653 177.658 14.4485 178.818 14.8261C179.573 15.0419 179.951 15.5813 179.951 16.4443C179.951 17.1456 179.681 17.8064 179.141 18.4267C178.629 19.047 178.022 19.3572 177.321 19.3572C177.105 19.3572 176.943 19.3437 176.835 19.3167C175.433 18.9931 174.233 18.7638 173.235 18.629C172.237 18.4672 171.185 18.3862 170.079 18.3862C166.654 18.3862 163.741 19.2223 161.341 20.8945C158.94 22.5398 157.147 24.7244 155.96 27.4485C154.773 30.1725 154.18 33.1123 154.18 36.2679C154.18 38.5604 154.625 40.3405 155.515 41.6082C156.432 42.8488 157.619 43.4691 159.075 43.4691C160.72 43.4691 162.163 42.7949 163.404 41.4463C164.645 40.0978 165.777 37.9131 166.802 34.8924C167.827 31.8717 168.839 27.7721 169.837 22.5937C169.998 21.8385 170.322 21.3261 170.808 21.0564C171.293 20.7867 171.94 20.6518 172.749 20.6518C174.664 20.6518 175.622 21.2721 175.622 22.5128C175.622 22.7286 175.581 22.9983 175.5 23.3219C174.799 25.9381 174.152 28.8375 173.559 32.02C172.992 35.1756 172.709 37.576 172.709 39.2212C172.709 40.6777 172.925 41.743 173.356 42.4173C173.788 43.0646 174.449 43.3882 175.339 43.3882C176.202 43.3882 177.024 43.105 177.806 42.5386C178.589 41.9453 179.573 40.9474 180.76 39.5449C181.083 39.1673 181.448 38.9785 181.852 38.9785C182.203 38.9785 182.472 39.1403 182.661 39.464C182.877 39.7876 182.985 40.2326 182.985 40.799C182.985 41.8509 182.729 42.687 182.216 43.3073C180.895 44.8986 179.6 46.1123 178.332 46.9484C177.065 47.7845 175.514 48.2025 173.68 48.2025C171.792 48.2025 170.268 47.6631 169.108 46.5843C167.949 45.4785 167.22 43.9276 166.924 41.9318C164.928 46.1123 161.988 48.2025 158.104 48.2025ZM182.586 48.2025C181.561 48.2025 180.833 47.6631 180.401 46.5843C179.996 45.5054 179.794 43.7793 179.794 41.4059C179.794 37.8997 180.293 34.5688 181.291 31.4132C181.534 30.631 181.925 30.0646 182.464 29.714C183.031 29.3364 183.813 29.1476 184.811 29.1476C185.35 29.1476 185.728 29.215 185.944 29.3499C186.159 29.4848 186.267 29.741 186.267 30.1186C186.267 30.5501 186.065 31.5211 185.66 33.0314C185.391 34.1103 185.175 35.0542 185.013 35.8634C184.851 36.6725 184.716 37.6704 184.608 38.8571C185.498 36.5376 186.496 34.6497 187.602 33.1932C188.708 31.7368 189.787 30.6984 190.839 30.0781C191.918 29.4578 192.902 29.1476 193.792 29.1476C195.545 29.1476 196.422 30.0242 196.422 31.7773C196.422 32.8291 196.125 34.7306 195.532 37.4816C195.019 39.8281 194.763 41.3789 194.763 42.1341C194.763 43.2129 195.154 43.7523 195.936 43.7523C196.476 43.7523 197.109 43.4287 197.838 42.7814C198.593 42.1071 199.591 41.0283 200.831 39.5449C201.155 39.1673 201.519 38.9785 201.924 38.9785C202.274 38.9785 202.544 39.1403 202.733 39.464C202.949 39.7876 203.057 40.2326 203.057 40.799C203.057 41.8779 202.8 42.714 202.288 43.3073C201.128 44.7368 199.874 45.91 198.525 46.827C197.204 47.744 195.693 48.2025 193.994 48.2025C192.619 48.2025 191.58 47.8114 190.879 47.0293C190.178 46.2202 189.827 45.0604 189.827 43.5501C189.827 42.7949 190.016 41.4463 190.394 39.5044C190.744 37.8053 190.92 36.632 190.92 35.9847C190.92 35.5532 190.771 35.3374 190.475 35.3374C190.124 35.3374 189.625 35.7959 188.978 36.7129C188.357 37.603 187.71 38.7897 187.036 40.2731C186.389 41.7565 185.863 43.3208 185.458 44.966C185.161 46.2337 184.811 47.0967 184.406 47.5552C184.029 47.9868 183.422 48.2025 182.586 48.2025ZM207.511 48.2025C204.867 48.2025 202.804 47.4608 201.321 45.9774C199.864 44.4671 199.136 42.4847 199.136 40.0304C199.136 37.8457 199.568 35.9308 200.431 34.2856C201.294 32.6403 202.413 31.3727 203.789 30.4827C205.164 29.5926 206.607 29.1476 208.117 29.1476C209.601 29.1476 210.747 29.5926 211.556 30.4827C212.392 31.3457 212.81 32.465 212.81 33.8405C212.81 34.9733 212.554 35.9308 212.042 36.7129C211.556 37.4951 210.909 37.8862 210.1 37.8862C209.587 37.8862 209.169 37.7648 208.846 37.5221C208.549 37.2793 208.401 36.9422 208.401 36.5107C208.401 36.3219 208.428 36.1061 208.481 35.8634C208.535 35.6206 208.576 35.4453 208.603 35.3374C208.738 34.9329 208.805 34.5553 208.805 34.2047C208.805 33.854 208.711 33.5843 208.522 33.3955C208.36 33.2067 208.117 33.1123 207.794 33.1123C207.173 33.1123 206.594 33.3955 206.054 33.9619C205.515 34.5013 205.083 35.243 204.759 36.187C204.436 37.131 204.274 38.1694 204.274 39.3021C204.274 42.4308 205.636 43.9951 208.36 43.9951C209.466 43.9951 210.653 43.631 211.92 42.9028C213.215 42.1476 214.482 41.0283 215.723 39.5449C216.047 39.1673 216.411 38.9785 216.815 38.9785C217.166 38.9785 217.436 39.1403 217.625 39.464C217.84 39.7876 217.948 40.2326 217.948 40.799C217.948 41.8239 217.692 42.66 217.18 43.3073C215.912 44.8716 214.388 46.0853 212.608 46.9484C210.855 47.7845 209.156 48.2025 207.511 48.2025ZM237.131 38.9785C237.482 38.9785 237.751 39.1403 237.94 39.464C238.156 39.7876 238.264 40.2326 238.264 40.799C238.264 41.8779 238.008 42.714 237.495 43.3073C236.255 44.7368 234.973 45.91 233.652 46.827C232.357 47.744 230.874 48.2025 229.202 48.2025C227.826 48.2025 226.788 47.8114 226.087 47.0293C225.385 46.2202 225.035 45.0604 225.035 43.5501C225.035 42.7949 225.224 41.4463 225.601 39.5044C225.952 37.8053 226.127 36.632 226.127 35.9847C226.127 35.5532 225.979 35.3374 225.682 35.3374C225.331 35.3374 224.832 35.7959 224.185 36.7129C223.538 37.603 222.891 38.7897 222.243 40.2731C221.596 41.7565 221.07 43.3208 220.665 44.966C220.153 47.1237 218.885 48.2025 216.863 48.2025C216.053 48.2025 215.514 47.9193 215.244 47.3529C215.002 46.7596 214.88 45.7077 214.88 44.1974C214.88 43.3343 214.894 42.6465 214.921 42.1341L214.961 38.8976C214.961 34.7441 215.379 30.4152 216.215 25.9111C217.078 21.407 218.332 17.6311 219.978 14.5834C221.65 11.5087 223.646 9.97134 225.965 9.97134C227.206 9.97134 228.204 10.5108 228.959 11.5896C229.741 12.6415 230.132 14.017 230.132 15.7161C230.132 18.4402 229.337 21.2721 227.745 24.212C226.154 27.1248 223.565 30.5366 219.978 34.4474C219.897 35.8499 219.856 37.2928 219.856 38.7762C220.746 36.4837 221.731 34.6227 222.81 33.1932C223.915 31.7368 224.994 30.6984 226.046 30.0781C227.125 29.4578 228.109 29.1476 228.999 29.1476C230.753 29.1476 231.629 30.0242 231.629 31.7773C231.629 32.8291 231.332 34.7306 230.739 37.4816C230.227 39.8281 229.97 41.3789 229.97 42.1341C229.97 43.2129 230.361 43.7523 231.144 43.7523C231.683 43.7523 232.317 43.4287 233.045 42.7814C233.8 42.1071 234.798 41.0283 236.039 39.5449C236.362 39.1673 236.727 38.9785 237.131 38.9785ZM225.116 13.9765C224.63 13.9765 224.091 14.6778 223.497 16.0802C222.904 17.4558 222.324 19.3302 221.758 21.7037C221.218 24.0501 220.773 26.6124 220.423 29.3904C222.095 27.4215 223.47 25.2773 224.549 22.9578C225.655 20.6383 226.208 18.5346 226.208 16.6466C226.208 15.7836 226.114 15.1228 225.925 14.6643C225.736 14.2058 225.466 13.9765 225.116 13.9765ZM255.618 35.5802C255.968 35.5802 256.238 35.7555 256.427 36.1061C256.616 36.4567 256.71 36.9017 256.71 37.4412C256.71 38.7358 256.319 39.5044 255.537 39.7472C253.919 40.3136 252.139 40.6372 250.197 40.7181C249.684 42.9837 248.673 44.8042 247.162 46.1797C245.652 47.5283 243.939 48.2025 242.024 48.2025C240.406 48.2025 239.017 47.8114 237.857 47.0293C236.725 46.2471 235.862 45.2088 235.268 43.9142C234.675 42.6196 234.378 41.2171 234.378 39.7067C234.378 37.6569 234.769 35.8364 235.551 34.2451C236.334 32.6269 237.412 31.3727 238.788 30.4827C240.163 29.5657 241.687 29.1072 243.36 29.1072C245.409 29.1072 247.055 29.8219 248.295 31.2513C249.563 32.6538 250.304 34.3934 250.52 36.4702C251.788 36.3893 253.298 36.1196 255.051 35.6611C255.267 35.6071 255.456 35.5802 255.618 35.5802ZM242.348 43.9142C243.211 43.9142 243.953 43.5635 244.573 42.8623C245.22 42.1611 245.652 41.1496 245.868 39.8281C245.032 39.2617 244.384 38.52 243.926 37.603C243.494 36.686 243.279 35.715 243.279 34.6901C243.279 34.2586 243.319 33.8271 243.4 33.3955H243.198C242.119 33.3955 241.215 33.9215 240.487 34.9733C239.786 35.9982 239.435 37.4546 239.435 39.3426C239.435 40.826 239.718 41.9588 240.285 42.7409C240.878 43.5231 241.566 43.9142 242.348 43.9142ZM256.11 48.2025C255.085 48.2025 254.357 47.6631 253.926 46.5843C253.521 45.5054 253.319 43.7793 253.319 41.4059C253.319 37.8997 253.818 34.5688 254.816 31.4132C255.058 30.631 255.449 30.0646 255.989 29.714C256.555 29.3364 257.337 29.1476 258.335 29.1476C258.875 29.1476 259.252 29.215 259.468 29.3499C259.684 29.4848 259.792 29.741 259.792 30.1186C259.792 30.5501 259.589 31.5211 259.185 33.0314C258.915 34.1103 258.699 35.0542 258.538 35.8634C258.376 36.6725 258.241 37.6704 258.133 38.8571C259.023 36.5376 260.021 34.6497 261.127 33.1932C262.233 31.7368 263.311 30.6984 264.363 30.0781C265.442 29.4578 266.427 29.1476 267.317 29.1476C269.07 29.1476 269.946 30.0242 269.946 31.7773C269.946 32.1279 269.825 32.9775 269.582 34.326C269.366 35.4049 269.258 36.0791 269.258 36.3488C269.258 37.2928 269.596 37.7648 270.27 37.7648C271.025 37.7648 271.996 37.1714 273.183 35.9847C273.533 35.6341 273.897 35.4588 274.275 35.4588C274.626 35.4588 274.895 35.6206 275.084 35.9443C275.3 36.241 275.408 36.6455 275.408 37.158C275.408 38.1559 275.138 38.938 274.599 39.5044C273.844 40.2866 272.953 40.9609 271.929 41.5272C270.931 42.0667 269.865 42.3364 268.733 42.3364C267.303 42.3364 266.211 41.9723 265.456 41.244C264.727 40.5158 264.363 39.5314 264.363 38.2907C264.363 37.8862 264.404 37.4816 264.485 37.077C264.539 36.5376 264.566 36.1735 264.566 35.9847C264.566 35.5532 264.417 35.3374 264.121 35.3374C263.716 35.3374 263.177 35.7959 262.502 36.7129C261.855 37.603 261.208 38.7897 260.56 40.2731C259.913 41.7565 259.387 43.3208 258.983 44.966C258.686 46.2337 258.335 47.0967 257.931 47.5552C257.553 47.9868 256.946 48.2025 256.11 48.2025ZM289.692 38.9785C290.043 38.9785 290.312 39.1403 290.501 39.464C290.717 39.7876 290.825 40.2326 290.825 40.799C290.825 41.8779 290.569 42.714 290.056 43.3073C289.058 44.521 287.642 45.6403 285.808 46.6652C284.001 47.6901 282.059 48.2025 279.983 48.2025C277.151 48.2025 274.952 47.4339 273.388 45.8965C271.824 44.3592 271.042 42.2555 271.042 39.5853C271.042 37.7243 271.433 35.9982 272.215 34.4069C272.997 32.7887 274.076 31.5076 275.451 30.5636C276.854 29.6196 278.432 29.1476 280.185 29.1476C281.749 29.1476 283.003 29.6196 283.947 30.5636C284.891 31.4806 285.363 32.7347 285.363 34.326C285.363 36.187 284.689 37.7918 283.34 39.1403C282.019 40.4619 279.767 41.5138 276.584 42.2959C277.259 43.5366 278.54 44.1569 280.428 44.1569C281.641 44.1569 283.017 43.7388 284.554 42.9028C286.118 42.0397 287.467 40.9204 288.6 39.5449C288.923 39.1673 289.288 38.9785 289.692 38.9785ZM279.497 33.1123C278.499 33.1123 277.65 33.6922 276.948 34.852C276.274 36.0117 275.937 37.4142 275.937 39.0594V39.1403C277.528 38.7627 278.782 38.1963 279.699 37.4412C280.616 36.686 281.075 35.8094 281.075 34.8115C281.075 34.2991 280.927 33.8945 280.63 33.5978C280.36 33.2742 279.983 33.1123 279.497 33.1123ZM302.059 38.9785C302.356 41.1901 302.788 43.3747 303.354 45.5324C303.462 45.883 303.516 46.2471 303.516 46.6247C303.516 47.8384 302.774 48.4453 301.291 48.4453C300.455 48.4453 299.807 48.216 299.349 47.7575C298.917 47.299 298.513 46.4359 298.135 45.1683L298.095 45.0065C297.07 46.2741 296.139 47.1237 295.303 47.5552C294.494 47.9868 293.55 48.2025 292.471 48.2025C290.826 48.2025 289.464 47.5957 288.385 46.382C287.333 45.1413 286.807 43.5366 286.807 41.5677C286.807 39.41 287.266 37.4142 288.183 35.5802C289.1 33.7461 290.354 32.2493 291.945 31.0895C293.537 29.9028 295.317 29.1881 297.286 28.9453C297.798 23.8478 298.769 19.4111 300.198 15.6352C301.655 11.8593 303.583 9.97134 305.984 9.97134C307.143 9.97134 308.101 10.4973 308.856 11.5491C309.638 12.601 310.029 14.1923 310.029 16.323C310.029 19.2898 309.301 22.7555 307.845 26.7202C306.388 30.685 304.46 34.771 302.059 38.9785ZM305.539 13.9361C304.756 13.9361 304.015 15.9319 303.313 19.9236C302.639 23.9153 302.181 28.2576 301.938 32.9505C304.932 26.4775 306.429 21.2182 306.429 17.1726C306.429 16.1477 306.334 15.352 306.145 14.7856C305.984 14.2193 305.781 13.9361 305.539 13.9361ZM293.887 44.1164C294.427 44.1164 294.939 43.9142 295.425 43.5096C295.937 43.105 296.584 42.3229 297.366 41.1631C297.097 39.1943 296.962 37.158 296.962 35.0542C296.962 34.2181 296.975 33.5708 297.002 33.1123C295.519 33.5439 294.292 34.5283 293.321 36.0656C292.35 37.603 291.864 39.3021 291.864 41.1631C291.864 43.132 292.539 44.1164 293.887 44.1164ZM348.172 35.7015C348.253 35.6746 348.388 35.6611 348.576 35.6611C348.981 35.6611 349.291 35.7959 349.507 36.0656C349.723 36.3354 349.831 36.6995 349.831 37.158C349.831 37.9941 349.669 38.6548 349.345 39.1403C349.021 39.5988 348.536 39.936 347.889 40.1517C346.648 40.5563 345.326 40.7586 343.924 40.7586C342.737 40.7586 341.618 40.5967 340.566 40.2731C339.784 41.5407 338.921 42.8488 337.977 44.1974C336.898 45.7347 335.968 46.7866 335.185 47.3529C334.43 47.9193 333.567 48.2025 332.596 48.2025C331.517 48.2025 330.695 47.7845 330.128 46.9484C329.589 46.1123 329.252 44.7368 329.117 42.8218L328.915 39.8685C328.079 42.1341 327.323 43.8602 326.649 45.0469C326.002 46.2337 325.341 47.0563 324.667 47.5148C324.02 47.9733 323.251 48.2025 322.361 48.2025C321.255 48.2025 320.378 47.771 319.731 46.9079C319.111 46.0449 318.72 44.6828 318.558 42.8218C318.234 39.0459 318.072 35.742 318.072 32.9101V31.4941C318.099 30.604 318.342 29.9837 318.801 29.6331C319.259 29.2825 319.947 29.1072 320.864 29.1072C321.565 29.1072 322.078 29.269 322.401 29.5926C322.752 29.8893 322.927 30.4018 322.927 31.13C322.927 34.2316 323.116 38.2638 323.494 43.2264C325.328 39.3696 327.013 35.3509 328.551 31.1704C328.847 30.3613 329.198 29.8219 329.602 29.5522C330.034 29.2555 330.546 29.1072 331.14 29.1072C331.868 29.1072 332.367 29.2555 332.637 29.5522C332.933 29.8489 333.082 30.3748 333.082 31.13C333.082 34.2316 333.271 38.2638 333.648 43.2264C335.266 40.826 336.48 38.9111 337.289 37.4816C336.885 36.6995 336.682 35.769 336.682 34.6901C336.682 33.7731 336.885 32.8831 337.289 32.02C337.694 31.1569 338.247 30.4557 338.948 29.9163C339.649 29.3769 340.445 29.1072 341.335 29.1072C342.117 29.1072 342.751 29.3904 343.236 29.9567C343.722 30.4962 343.964 31.2918 343.964 32.3437C343.964 33.5574 343.641 34.9464 342.994 36.5107C344.018 36.4567 345.38 36.2544 347.08 35.9038L348.172 35.7015ZM351.619 26.4775C350.486 26.4775 349.636 26.2213 349.07 25.7088C348.503 25.1694 348.22 24.4277 348.22 23.4837C348.22 22.5398 348.584 21.7576 349.313 21.1373C350.068 20.49 350.998 20.1663 352.104 20.1663C353.102 20.1663 353.911 20.4091 354.531 20.8945C355.152 21.38 355.462 22.0678 355.462 22.9578C355.462 24.0366 355.111 24.8997 354.41 25.547C353.709 26.1673 352.778 26.4775 351.619 26.4775ZM351.295 48.2025C349.542 48.2025 348.261 47.5822 347.452 46.3415C346.669 45.1009 346.278 43.4557 346.278 41.4059C346.278 40.1922 346.427 38.6414 346.723 36.7534C347.047 34.8385 347.452 33.0584 347.937 31.4132C348.18 30.5501 348.503 29.9567 348.908 29.6331C349.313 29.3094 349.96 29.1476 350.85 29.1476C352.225 29.1476 352.913 29.6061 352.913 30.5231C352.913 31.1974 352.657 32.7617 352.145 35.2161C351.497 38.1829 351.174 40.1922 351.174 41.244C351.174 42.0532 351.281 42.6735 351.497 43.105C351.713 43.5366 352.077 43.7523 352.59 43.7523C353.075 43.7523 353.682 43.4152 354.41 42.7409C355.138 42.0667 356.109 41.0013 357.323 39.5449C357.647 39.1673 358.011 38.9785 358.415 38.9785C358.766 38.9785 359.036 39.1403 359.224 39.464C359.44 39.7876 359.548 40.2326 359.548 40.799C359.548 41.8779 359.292 42.714 358.779 43.3073C356.109 46.5708 353.614 48.2025 351.295 48.2025ZM374.318 38.9785C374.669 38.9785 374.939 39.1403 375.128 39.464C375.343 39.7876 375.451 40.2326 375.451 40.799C375.451 41.8779 375.195 42.714 374.682 43.3073C373.523 44.7368 372.255 45.91 370.88 46.827C369.504 47.744 367.926 48.2025 366.146 48.2025C360.644 48.2025 357.893 44.3322 357.893 36.5916C357.893 35.4049 357.934 34.2047 358.014 32.991H356.437C355.628 32.991 355.075 32.8426 354.778 32.5459C354.508 32.2493 354.373 31.7773 354.373 31.13C354.373 29.6196 354.98 28.8644 356.194 28.8644H358.5C358.958 25.8976 359.66 23.1871 360.604 20.7327C361.548 18.2784 362.68 16.323 364.002 14.8666C365.351 13.4101 366.794 12.6819 368.331 12.6819C369.464 12.6819 370.354 13.1809 371.001 14.1788C371.648 15.1767 371.972 16.4309 371.972 17.9412C371.972 22.1217 370.219 25.7628 366.713 28.8644H371.244C371.675 28.8644 371.985 28.9588 372.174 29.1476C372.363 29.3364 372.457 29.687 372.457 30.1995C372.457 32.0605 370.934 32.991 367.886 32.991H362.95C362.896 34.3395 362.869 35.3914 362.869 36.1466C362.869 38.9515 363.193 40.9204 363.84 42.0532C364.514 43.1859 365.566 43.7523 366.996 43.7523C368.156 43.7523 369.18 43.4017 370.07 42.7005C370.961 41.9992 372.012 40.9474 373.226 39.5449C373.55 39.1673 373.914 38.9785 374.318 38.9785ZM367.239 16.5657C366.834 16.5657 366.375 17.0782 365.863 18.1031C365.378 19.101 364.906 20.5035 364.447 22.3105C364.016 24.0906 363.651 26.0729 363.355 28.2576C364.946 26.8821 366.133 25.3447 366.915 23.6456C367.724 21.9194 368.129 20.3551 368.129 18.9526C368.129 17.3614 367.832 16.5657 367.239 16.5657ZM386.479 29.1476C387.342 29.1476 387.989 29.3769 388.421 29.8354C388.879 30.2669 389.108 30.9142 389.108 31.7773C389.108 32.4785 388.96 33.8001 388.663 35.742C388.394 37.3872 388.178 38.9515 388.016 40.4349C387.854 41.8913 387.773 43.5231 387.773 45.3301C387.773 46.355 387.557 47.0967 387.126 47.5552C386.721 47.9868 386.047 48.2025 385.103 48.2025C384.213 48.2025 383.566 47.9733 383.161 47.5148C382.757 47.0563 382.554 46.3685 382.554 45.4515C382.554 44.3727 382.743 42.5926 383.121 40.1113C383.444 37.9536 383.606 36.5781 383.606 35.9847C383.606 35.5532 383.458 35.3374 383.161 35.3374C382.811 35.3374 382.312 35.7959 381.664 36.7129C381.017 37.603 380.37 38.7897 379.722 40.2731C379.075 41.7565 378.549 43.3208 378.145 44.966C377.848 46.2337 377.497 47.0967 377.093 47.5552C376.715 47.9868 376.108 48.2025 375.272 48.2025C374.436 48.2025 373.816 47.9058 373.411 47.3125C373.034 46.6922 372.777 45.7482 372.643 44.4805C372.508 43.2129 372.44 41.3519 372.44 38.8976C372.44 34.7441 372.858 30.4152 373.694 25.9111C374.558 21.407 375.812 17.6311 377.457 14.5834C379.129 11.5087 381.125 9.97134 383.444 9.97134C384.685 9.97134 385.683 10.5108 386.438 11.5896C387.22 12.6415 387.611 14.017 387.611 15.7161C387.611 18.4402 386.816 21.2721 385.224 24.212C383.633 27.1248 381.044 30.5366 377.457 34.4474C377.376 35.8499 377.336 37.2928 377.336 38.7762C378.226 36.4837 379.21 34.6227 380.289 33.1932C381.395 31.7368 382.473 30.6984 383.525 30.0781C384.604 29.4578 385.589 29.1476 386.479 29.1476ZM382.595 13.9765C382.109 13.9765 381.57 14.6778 380.977 16.0802C380.383 17.4558 379.803 19.3302 379.237 21.7037C378.698 24.0501 378.253 26.6124 377.902 29.3904C379.574 27.4215 380.95 25.2773 382.028 22.9578C383.134 20.6383 383.687 18.5346 383.687 16.6466C383.687 15.7836 383.593 15.1228 383.404 14.6643C383.215 14.2058 382.945 13.9765 382.595 13.9765ZM54.5535 86.2025C52.6926 86.2025 51.0069 85.744 49.4965 84.827C48.0131 83.91 46.8399 82.5884 45.9768 80.8623C45.1137 79.1092 44.6822 77.0459 44.6822 74.6725C44.6822 70.5729 45.5588 66.7835 47.3119 63.3043C49.065 59.7981 51.6542 56.9931 55.0795 54.8894C58.5048 52.7587 62.6178 51.6933 67.4186 51.6933C68.6593 51.6933 69.9809 51.7877 71.3834 51.9765C72.8128 52.1653 74.1074 52.4485 75.2672 52.8261C76.0223 53.0419 76.3999 53.5813 76.3999 54.4443C76.3999 55.1456 76.1302 55.8064 75.5908 56.4267C75.0784 57.047 74.4715 57.3572 73.7703 57.3572C73.5545 57.3572 73.3927 57.3437 73.2848 57.3167C71.8823 56.9931 70.6821 56.7638 69.6842 56.629C68.6863 56.4672 67.6344 56.3862 66.5286 56.3862C63.1033 56.3862 60.1904 57.2223 57.79 58.8945C55.3896 60.5398 53.5961 62.7244 52.4094 65.4485C51.2226 68.1725 50.6293 71.1123 50.6293 74.2679C50.6293 76.5604 51.0743 78.3405 51.9643 79.6082C52.8813 80.8488 54.0681 81.4691 55.5245 81.4691C57.1697 81.4691 58.6127 80.7949 59.8533 79.4463C61.094 78.0978 62.2267 75.9131 63.2516 72.8924C64.2765 69.8717 65.2879 65.7721 66.2859 60.5937C66.4477 59.8385 66.7713 59.3261 67.2568 59.0564C67.7423 58.7867 68.3896 58.6518 69.1987 58.6518C71.1136 58.6518 72.0711 59.2721 72.0711 60.5128C72.0711 60.7286 72.0307 60.9983 71.9497 61.3219C71.2485 63.9381 70.6012 66.8375 70.0078 70.02C69.4414 73.1756 69.1583 75.576 69.1583 77.2212C69.1583 78.6777 69.374 79.743 69.8056 80.4173C70.2371 81.0646 70.8979 81.3882 71.7879 81.3882C72.651 81.3882 73.4736 81.105 74.2557 80.5386C75.0379 79.9453 76.0223 78.9474 77.2091 77.5449C77.5327 77.1673 77.8968 76.9785 78.3014 76.9785C78.652 76.9785 78.9217 77.1403 79.1105 77.464C79.3263 77.7876 79.4341 78.2326 79.4341 78.799C79.4341 79.8509 79.1779 80.687 78.6655 81.3073C77.3439 82.8986 76.0493 84.1123 74.7817 84.9484C73.514 85.7845 71.9632 86.2025 70.1292 86.2025C68.2412 86.2025 66.7174 85.6631 65.5576 84.5843C64.3979 83.4785 63.6697 81.9276 63.373 79.9318C61.3772 84.1123 58.4373 86.2025 54.5535 86.2025ZM86.2235 86.2025C85.0368 86.2025 84.1333 85.8789 83.513 85.2316C82.9196 84.5843 82.6229 83.7347 82.6229 82.6828C82.6229 81.4691 82.9601 80.4982 83.6343 79.77C84.3356 79.0418 85.3065 78.6777 86.5472 78.6777C87.7339 78.6777 88.6239 78.9743 89.2173 79.5677C89.8376 80.1341 90.1478 80.9837 90.1478 82.1164C90.1478 83.3571 89.7972 84.355 89.0959 85.1102C88.3947 85.8384 87.4372 86.2025 86.2235 86.2025ZM109.615 86.2025C106.405 86.2025 103.614 85.6227 101.24 84.4629C98.867 83.2762 97.0464 81.604 95.7788 79.4463C94.5112 77.2887 93.8774 74.7804 93.8774 71.9215C93.8774 67.9567 94.6191 64.437 96.1025 61.3624C97.6128 58.2877 99.6491 55.9143 102.211 54.2421C104.774 52.5429 107.619 51.6933 110.748 51.6933C113.66 51.6933 115.872 52.4485 117.382 53.9589C118.893 55.4423 119.648 57.4111 119.648 59.8655C119.648 61.5107 119.351 62.8323 118.758 63.8302C118.192 64.8281 117.369 65.3271 116.29 65.3271C115.535 65.3271 114.942 65.1518 114.51 64.8012C114.079 64.4505 113.863 63.9381 113.863 63.2638C113.863 63.0211 113.917 62.5761 114.025 61.9288C114.186 61.1196 114.267 60.4723 114.267 59.9869C114.267 57.5325 112.959 56.3053 110.343 56.3053C108.563 56.3053 106.864 56.8852 105.246 58.045C103.627 59.2047 102.319 60.9174 101.321 63.1829C100.323 65.4215 99.8244 68.0916 99.8244 71.1932C99.8244 74.4297 100.728 76.938 102.535 78.7181C104.342 80.4712 107.012 81.3478 110.545 81.3478C112.298 81.3478 114.065 81.132 115.845 80.7005C117.652 80.242 119.648 79.5542 121.833 78.6372C122.237 78.4754 122.574 78.3945 122.844 78.3945C123.276 78.3945 123.599 78.5563 123.815 78.8799C124.031 79.2036 124.139 79.6216 124.139 80.1341C124.139 81.7793 123.249 82.993 121.469 83.7751C119.554 84.6112 117.558 85.2316 115.481 85.6361C113.431 86.0137 111.476 86.2025 109.615 86.2025ZM131.026 86.2025C129.839 86.2025 128.935 85.8789 128.315 85.2316C127.722 84.5843 127.425 83.7347 127.425 82.6828C127.425 81.4691 127.762 80.4982 128.436 79.77C129.138 79.0418 130.109 78.6777 131.349 78.6777C132.536 78.6777 133.426 78.9743 134.019 79.5677C134.64 80.1341 134.95 80.9837 134.95 82.1164C134.95 83.3571 134.599 84.355 133.898 85.1102C133.197 85.8384 132.239 86.2025 131.026 86.2025ZM154.417 86.2025C151.207 86.2025 148.416 85.6227 146.043 84.4629C143.669 83.2762 141.849 81.604 140.581 79.4463C139.313 77.2887 138.68 74.7804 138.68 71.9215C138.68 67.9567 139.421 64.437 140.905 61.3624C142.415 58.2877 144.451 55.9143 147.014 54.2421C149.576 52.5429 152.421 51.6933 155.55 51.6933C158.463 51.6933 160.674 52.4485 162.185 53.9589C163.695 55.4423 164.45 57.4111 164.45 59.8655C164.45 61.5107 164.153 62.8323 163.56 63.8302C162.994 64.8281 162.171 65.3271 161.092 65.3271C160.337 65.3271 159.744 65.1518 159.312 64.8012C158.881 64.4505 158.665 63.9381 158.665 63.2638C158.665 63.0211 158.719 62.5761 158.827 61.9288C158.989 61.1196 159.069 60.4723 159.069 59.9869C159.069 57.5325 157.761 56.3053 155.145 56.3053C153.365 56.3053 151.666 56.8852 150.048 58.045C148.429 59.2047 147.121 60.9174 146.123 63.1829C145.126 65.4215 144.627 68.0916 144.627 71.1932C144.627 74.4297 145.53 76.938 147.337 78.7181C149.144 80.4712 151.814 81.3478 155.348 81.3478C157.101 81.3478 158.867 81.132 160.647 80.7005C162.454 80.242 164.45 79.5542 166.635 78.6372C167.039 78.4754 167.377 78.3945 167.646 78.3945C168.078 78.3945 168.401 78.5563 168.617 78.8799C168.833 79.2036 168.941 79.6216 168.941 80.1341C168.941 81.7793 168.051 82.993 166.271 83.7751C164.356 84.6112 162.36 85.2316 160.283 85.6361C158.233 86.0137 156.278 86.2025 154.417 86.2025ZM175.828 86.2025C174.641 86.2025 173.738 85.8789 173.117 85.2316C172.524 84.5843 172.227 83.7347 172.227 82.6828C172.227 81.4691 172.564 80.4982 173.239 79.77C173.94 79.0418 174.911 78.6777 176.152 78.6777C177.338 78.6777 178.228 78.9743 178.822 79.5677C179.442 80.1341 179.752 80.9837 179.752 82.1164C179.752 83.3571 179.402 84.355 178.7 85.1102C177.999 85.8384 177.042 86.2025 175.828 86.2025ZM212.03 78.6372C212.434 78.4754 212.771 78.3945 213.041 78.3945C213.473 78.3945 213.796 78.5563 214.012 78.8799C214.228 79.2036 214.336 79.6216 214.336 80.1341C214.336 80.9432 214.133 81.631 213.729 82.1974C213.351 82.7637 212.69 83.2762 211.746 83.7347C210.155 84.4899 208.092 85.0967 205.557 85.5552C203.021 85.9868 200.527 86.2025 198.072 86.2025C194.674 86.2025 191.828 85.8249 189.536 85.0697C187.243 84.2876 185.531 83.2222 184.398 81.8737C183.292 80.5252 182.739 79.0013 182.739 77.3021C182.739 74.9827 183.481 73.0138 184.964 71.3955C186.475 69.7503 188.686 68.5636 191.599 67.8354C190.008 67.3769 188.781 66.5677 187.918 65.408C187.082 64.2483 186.664 62.9537 186.664 61.5242C186.664 59.5823 187.27 57.8696 188.484 56.3862C189.725 54.8759 191.383 53.7161 193.46 52.907C195.537 52.0979 197.816 51.6933 200.297 51.6933C203.642 51.6933 206.15 52.4215 207.822 53.878C209.494 55.3074 210.33 57.1684 210.33 59.4609C210.33 61.0522 210.034 62.3468 209.44 63.3447C208.874 64.3157 208.051 64.8012 206.973 64.8012C206.217 64.8012 205.624 64.6393 205.192 64.3157C204.761 63.9651 204.545 63.4526 204.545 62.7783C204.545 62.3198 204.613 61.8209 204.747 61.2815C204.882 60.3914 204.95 59.7846 204.95 59.4609C204.95 58.49 204.586 57.7078 203.857 57.1145C203.129 56.4941 201.916 56.184 200.216 56.184C197.924 56.184 196.09 56.6694 194.714 57.6404C193.339 58.6113 192.651 59.9194 192.651 61.5647C192.651 62.8323 193.163 63.8841 194.188 64.7202C195.24 65.5294 196.939 65.9744 199.286 66.0553C199.879 66.0823 200.297 66.2171 200.54 66.4599C200.783 66.7026 200.904 67.1072 200.904 67.6736C200.904 69.4536 200.095 70.3572 198.477 70.3841C196.238 70.4381 194.377 70.7482 192.894 71.3146C191.437 71.881 190.372 72.6092 189.698 73.4993C189.05 74.3623 188.727 75.2928 188.727 76.2907C188.727 77.9629 189.509 79.2306 191.073 80.0936C192.638 80.9297 195.119 81.3478 198.517 81.3478C200.756 81.3478 203.116 81.0915 205.597 80.5791C208.105 80.0397 210.25 79.3924 212.03 78.6372ZM221.223 86.2025C220.036 86.2025 219.132 85.8789 218.512 85.2316C217.919 84.5843 217.622 83.7347 217.622 82.6828C217.622 81.4691 217.959 80.4982 218.633 79.77C219.335 79.0418 220.306 78.6777 221.546 78.6777C222.733 78.6777 223.623 78.9743 224.216 79.5677C224.837 80.1341 225.147 80.9837 225.147 82.1164C225.147 83.3571 224.796 84.355 224.095 85.1102C223.394 85.8384 222.436 86.2025 221.223 86.2025ZM260.966 61.8883C260.966 64.1808 260.372 66.2846 259.185 68.1995C257.999 70.1144 256.273 71.6787 254.007 72.8924C251.742 74.1061 249.044 74.8208 245.916 75.0366L244.176 84.7866C243.502 88.5355 241.668 90.41 238.674 90.41C237.029 90.41 235.505 89.9245 234.103 88.9536C232.727 87.9826 231.621 86.4992 230.785 84.5034C229.949 82.5075 229.531 80.0532 229.531 77.1403C229.531 71.6652 230.408 67.0262 232.161 63.2234C233.941 59.3935 236.314 56.5346 239.281 54.6466C242.275 52.7317 245.565 51.7742 249.152 51.7742C251.688 51.7742 253.832 52.2193 255.585 53.1093C257.365 53.9993 258.7 55.213 259.59 56.7504C260.507 58.2607 260.966 59.9734 260.966 61.8883ZM246.644 70.8696C252.173 70.1684 254.938 67.296 254.938 62.2524C254.938 60.4723 254.344 59.0294 253.158 57.9236C251.998 56.7908 250.191 56.2244 247.736 56.2244C244.958 56.2244 242.531 57.101 240.454 58.8541C238.404 60.6072 236.813 63.048 235.68 66.1767C234.575 69.2783 234.022 72.825 234.022 76.8167C234.022 78.4889 234.184 79.9723 234.507 81.2669C234.858 82.5615 235.289 83.5729 235.802 84.3011C236.341 85.0023 236.854 85.3529 237.339 85.3529C238.013 85.3529 238.526 84.4224 238.876 82.5615L240.212 74.9152C239.16 74.7534 238.701 74.686 238.836 74.7129C238.027 74.5781 237.501 74.3354 237.258 73.9847C237.015 73.6071 236.894 73.1351 236.894 72.5688C236.894 71.9754 237.056 71.5034 237.38 71.1528C237.73 70.8022 238.202 70.6269 238.796 70.6269C239.065 70.6269 239.268 70.6403 239.402 70.6673C240.05 70.7752 240.549 70.8426 240.899 70.8696C241.25 68.7659 241.749 65.9474 242.396 62.4142C242.558 61.4972 242.922 60.8499 243.488 60.4723C244.082 60.0678 244.77 59.8655 245.552 59.8655C246.442 59.8655 247.076 60.0408 247.453 60.3914C247.858 60.7151 248.06 61.241 248.06 61.9692C248.06 62.4007 248.033 62.7514 247.979 63.0211L246.644 70.8696ZM262.311 86.2025C261.124 86.2025 260.221 85.8789 259.6 85.2316C259.007 84.5843 258.71 83.7347 258.71 82.6828C258.71 81.4691 259.048 80.4982 259.722 79.77C260.423 79.0418 261.394 78.6777 262.635 78.6777C263.821 78.6777 264.711 78.9743 265.305 79.5677C265.925 80.1341 266.235 80.9837 266.235 82.1164C266.235 83.3571 265.885 84.355 265.183 85.1102C264.482 85.8384 263.525 86.2025 262.311 86.2025ZM298.752 52.4215C299.588 52.5834 300.209 52.8666 300.613 53.2711C301.045 53.6757 301.261 54.1477 301.261 54.6871C301.261 55.5771 301.004 56.2244 300.492 56.629C300.007 57.0335 299.224 57.1954 298.146 57.1145C295.718 56.9257 293.817 56.8043 292.441 56.7504C291.093 56.6694 289.313 56.6155 287.101 56.5885C286.103 61.5512 285.186 66.5408 284.35 71.5574C284.053 73.3914 283.743 75.5221 283.419 77.9494C283.096 80.3499 282.88 82.2918 282.772 83.7751C282.718 84.5573 282.395 85.1641 281.801 85.5957C281.208 86.0002 280.493 86.2025 279.657 86.2025C278.767 86.2025 278.079 85.9868 277.594 85.5552C277.108 85.1237 276.866 84.5573 276.866 83.8561C276.866 83.2088 276.96 82.1434 277.149 80.66C277.364 79.1496 277.607 77.5719 277.877 75.9266C278.174 74.2814 278.403 72.852 278.565 71.6383C278.861 69.5885 279.198 67.5522 279.576 65.5294C279.954 63.5066 280.331 61.5916 280.709 59.7846C280.79 59.38 280.884 58.9215 280.992 58.4091C281.1 57.8696 281.221 57.2763 281.356 56.629C278.713 56.7099 276.636 56.9257 275.126 57.2763C273.616 57.6269 272.537 58.1259 271.889 58.7732C271.269 59.3935 270.959 60.2026 270.959 61.2005C270.959 62.1176 271.229 62.9941 271.768 63.8302C271.876 64.019 271.93 64.2213 271.93 64.437C271.93 64.9495 271.62 65.435 270.999 65.8935C270.406 66.325 269.786 66.5408 269.138 66.5408C268.68 66.5408 268.302 66.4059 268.006 66.1362C267.466 65.6777 267.021 65.0304 266.671 64.1943C266.32 63.3312 266.145 62.3603 266.145 61.2815C266.145 58.9889 266.886 57.1549 268.37 55.7794C269.88 54.3769 272.159 53.352 275.207 52.7047C278.281 52.0574 282.219 51.7338 287.02 51.7338C289.987 51.7338 292.347 51.7877 294.1 51.8956C295.88 52.0035 297.431 52.1788 298.752 52.4215ZM296.881 86.2025C295.694 86.2025 294.79 85.8789 294.17 85.2316C293.577 84.5843 293.28 83.7347 293.28 82.6828C293.28 81.4691 293.617 80.4982 294.291 79.77C294.993 79.0418 295.964 78.6777 297.204 78.6777C298.391 78.6777 299.281 78.9743 299.874 79.5677C300.495 80.1341 300.805 80.9837 300.805 82.1164C300.805 83.3571 300.454 84.355 299.753 85.1102C299.052 85.8384 298.094 86.2025 296.881 86.2025ZM314.675 86.2025C312.814 86.2025 311.128 85.744 309.618 84.827C308.134 83.91 306.961 82.5884 306.098 80.8623C305.235 79.1092 304.803 77.0459 304.803 74.6725C304.803 70.5729 305.68 66.7835 307.433 63.3043C309.186 59.7981 311.775 56.9931 315.201 54.8894C318.626 52.7587 322.739 51.6933 327.54 51.6933C328.781 51.6933 330.102 51.7877 331.505 51.9765C332.934 52.1653 334.229 52.4485 335.388 52.8261C336.144 53.0419 336.521 53.5813 336.521 54.4443C336.521 55.1456 336.251 55.8064 335.712 56.4267C335.2 57.047 334.593 57.3572 333.891 57.3572C333.676 57.3572 333.514 57.3437 333.406 57.3167C332.004 56.9931 330.803 56.7638 329.805 56.629C328.807 56.4672 327.756 56.3862 326.65 56.3862C323.225 56.3862 320.312 57.2223 317.911 58.8945C315.511 60.5398 313.717 62.7244 312.531 65.4485C311.344 68.1725 310.75 71.1123 310.75 74.2679C310.75 76.5604 311.196 78.3405 312.086 79.6082C313.003 80.8488 314.189 81.4691 315.646 81.4691C317.291 81.4691 318.734 80.7949 319.975 79.4463C321.215 78.0978 322.348 75.9131 323.373 72.8924C324.398 69.8717 325.409 65.7721 326.407 60.5937C326.569 59.8385 326.893 59.3261 327.378 59.0564C327.864 58.7867 328.511 58.6518 329.32 58.6518C331.235 58.6518 332.192 59.2721 332.192 60.5128C332.192 60.7286 332.152 60.9983 332.071 61.3219C331.37 63.9381 330.722 66.8375 330.129 70.02C329.563 73.1756 329.279 75.576 329.279 77.2212C329.279 78.6777 329.495 79.743 329.927 80.4173C330.358 81.0646 331.019 81.3882 331.909 81.3882C332.772 81.3882 333.595 81.105 334.377 80.5386C335.159 79.9453 336.144 78.9474 337.33 77.5449C337.654 77.1673 338.018 76.9785 338.423 76.9785C338.773 76.9785 339.043 77.1403 339.232 77.464C339.447 77.7876 339.555 78.2326 339.555 78.799C339.555 79.8509 339.299 80.687 338.787 81.3073C337.465 82.8986 336.171 84.1123 334.903 84.9484C333.635 85.7845 332.084 86.2025 330.25 86.2025C328.362 86.2025 326.839 85.6631 325.679 84.5843C324.519 83.4785 323.791 81.9276 323.494 79.9318C321.498 84.1123 318.559 86.2025 314.675 86.2025ZM346.345 86.2025C345.158 86.2025 344.255 85.8789 343.634 85.2316C343.041 84.5843 342.744 83.7347 342.744 82.6828C342.744 81.4691 343.081 80.4982 343.756 79.77C344.457 79.0418 345.428 78.6777 346.668 78.6777C347.855 78.6777 348.745 78.9743 349.339 79.5677C349.959 80.1341 350.269 80.9837 350.269 82.1164C350.269 83.3571 349.918 84.355 349.217 85.1102C348.516 85.8384 347.558 86.2025 346.345 86.2025ZM359.373 86.2025C358.375 86.2025 357.66 85.9868 357.229 85.5552C356.797 85.0967 356.581 84.2471 356.581 83.0065C356.581 82.1704 356.662 81.159 356.824 79.9723C356.986 78.7855 357.269 76.992 357.674 74.5916C357.728 74.2679 357.943 72.9598 358.321 70.6673C358.699 68.3478 359.036 65.9204 359.332 63.3852C359.602 61.2275 359.737 59.6093 359.737 58.5304C359.737 57.3167 359.292 56.7099 358.402 56.7099C357.728 56.7099 356.878 57.074 355.853 57.8022C354.855 58.5035 353.776 59.6362 352.617 61.2005C352.239 61.713 351.821 61.9692 351.363 61.9692C350.985 61.9692 350.648 61.7939 350.351 61.4433C350.081 61.0657 349.947 60.6476 349.947 60.1891C349.947 59.7306 350.028 59.2991 350.189 58.8945C350.351 58.463 350.648 57.9506 351.079 57.3572C352.401 55.5502 353.871 54.1612 355.489 53.1902C357.107 52.1923 358.807 51.6933 360.587 51.6933C362.07 51.6933 363.176 52.1518 363.904 53.0688C364.659 53.9858 365.037 55.3209 365.037 57.074C365.037 58.6383 364.821 60.9039 364.39 63.8707C365.738 59.879 367.451 56.8582 369.527 54.8085C371.604 52.7317 374.045 51.6933 376.85 51.6933C379.062 51.6933 380.72 52.3271 381.826 53.5948C382.959 54.8354 383.525 56.5076 383.525 58.6113C383.525 59.7981 383.35 61.241 382.999 62.9402L380.532 74.5107C380.262 75.8592 380.127 77.019 380.127 77.9899C380.127 79.1227 380.383 79.9723 380.896 80.5386C381.435 81.105 382.177 81.3882 383.121 81.3882C384.011 81.3882 384.874 81.0915 385.71 80.4982C386.573 79.9048 387.584 78.9204 388.744 77.5449C389.068 77.1673 389.432 76.9785 389.837 76.9785C390.187 76.9785 390.457 77.1403 390.646 77.464C390.861 77.7876 390.969 78.2326 390.969 78.799C390.969 79.8509 390.713 80.687 390.201 81.3073C388.798 83.0065 387.409 84.2471 386.034 85.0293C384.658 85.8114 383.215 86.2025 381.705 86.2025C379.412 86.2025 377.619 85.5283 376.324 84.1797C375.03 82.8042 374.382 80.9702 374.382 78.6777C374.382 77.7876 374.45 76.8167 374.585 75.7648C374.746 74.7129 375.003 73.3779 375.353 71.7596L376.971 64.3561C377.025 64.1134 377.12 63.6819 377.255 63.0615C377.389 62.4412 377.497 61.8613 377.578 61.3219C377.659 60.7555 377.7 60.2026 377.7 59.6632C377.7 58.8001 377.457 58.1124 376.971 57.5999C376.486 57.0875 375.798 56.8313 374.908 56.8313C373.29 56.8313 371.672 57.6943 370.053 59.4205C368.435 61.1466 366.938 63.9381 365.563 67.7949C364.187 71.6248 363.108 76.5335 362.326 82.521C362.137 83.8965 361.854 84.854 361.477 85.3934C361.126 85.9328 360.425 86.2025 359.373 86.2025ZM397.745 86.2025C396.558 86.2025 395.655 85.8789 395.034 85.2316C394.441 84.5843 394.144 83.7347 394.144 82.6828C394.144 81.4691 394.481 80.4982 395.156 79.77C395.857 79.0418 396.828 78.6777 398.068 78.6777C399.255 78.6777 400.145 78.9743 400.739 79.5677C401.359 80.1341 401.669 80.9837 401.669 82.1164C401.669 83.3571 401.318 84.355 400.617 85.1102C399.916 85.8384 398.958 86.2025 397.745 86.2025ZM421.136 86.2025C417.927 86.2025 415.135 85.6227 412.762 84.4629C410.388 83.2762 408.568 81.604 407.3 79.4463C406.032 77.2887 405.399 74.7804 405.399 71.9215C405.399 67.9567 406.14 64.437 407.624 61.3624C409.134 58.2877 411.17 55.9143 413.733 54.2421C416.295 52.5429 419.14 51.6933 422.269 51.6933C425.182 51.6933 427.393 52.4485 428.904 53.9589C430.414 55.4423 431.169 57.4111 431.169 59.8655C431.169 61.5107 430.873 62.8323 430.279 63.8302C429.713 64.8281 428.89 65.3271 427.811 65.3271C427.056 65.3271 426.463 65.1518 426.031 64.8012C425.6 64.4505 425.384 63.9381 425.384 63.2638C425.384 63.0211 425.438 62.5761 425.546 61.9288C425.708 61.1196 425.789 60.4723 425.789 59.9869C425.789 57.5325 424.48 56.3053 421.864 56.3053C420.084 56.3053 418.385 56.8852 416.767 58.045C415.149 59.2047 413.84 60.9174 412.843 63.1829C411.845 65.4215 411.346 68.0916 411.346 71.1932C411.346 74.4297 412.249 76.938 414.056 78.7181C415.863 80.4712 418.533 81.3478 422.067 81.3478C423.82 81.3478 425.586 81.132 427.366 80.7005C429.173 80.242 431.169 79.5542 433.354 78.6372C433.758 78.4754 434.096 78.3945 434.365 78.3945C434.797 78.3945 435.12 78.5563 435.336 78.8799C435.552 79.2036 435.66 79.6216 435.66 80.1341C435.66 81.7793 434.77 82.993 432.99 83.7751C431.075 84.6112 429.079 85.2316 427.002 85.6361C424.952 86.0137 422.997 86.2025 421.136 86.2025ZM442.547 86.2025C441.36 86.2025 440.457 85.8789 439.836 85.2316C439.243 84.5843 438.946 83.7347 438.946 82.6828C438.946 81.4691 439.283 80.4982 439.958 79.77C440.659 79.0418 441.63 78.6777 442.871 78.6777C444.057 78.6777 444.947 78.9743 445.541 79.5677C446.161 80.1341 446.471 80.9837 446.471 82.1164C446.471 83.3571 446.121 84.355 445.419 85.1102C444.718 85.8384 443.761 86.2025 442.547 86.2025ZM478.749 78.6372C479.153 78.4754 479.49 78.3945 479.76 78.3945C480.192 78.3945 480.515 78.5563 480.731 78.8799C480.947 79.2036 481.055 79.6216 481.055 80.1341C481.055 80.9432 480.852 81.631 480.448 82.1974C480.07 82.7637 479.409 83.2762 478.465 83.7347C476.874 84.4899 474.811 85.0967 472.276 85.5552C469.74 85.9868 467.246 86.2025 464.791 86.2025C461.393 86.2025 458.547 85.8249 456.255 85.0697C453.962 84.2876 452.25 83.2222 451.117 81.8737C450.011 80.5252 449.458 79.0013 449.458 77.3021C449.458 74.9827 450.2 73.0138 451.683 71.3955C453.194 69.7503 455.405 68.5636 458.318 67.8354C456.727 67.3769 455.5 66.5677 454.637 65.408C453.801 64.2483 453.383 62.9537 453.383 61.5242C453.383 59.5823 453.989 57.8696 455.203 56.3862C456.444 54.8759 458.102 53.7161 460.179 52.907C462.256 52.0979 464.535 51.6933 467.016 51.6933C470.361 51.6933 472.869 52.4215 474.541 53.878C476.213 55.3074 477.049 57.1684 477.049 59.4609C477.049 61.0522 476.753 62.3468 476.159 63.3447C475.593 64.3157 474.77 64.8012 473.692 64.8012C472.936 64.8012 472.343 64.6393 471.912 64.3157C471.48 63.9651 471.264 63.4526 471.264 62.7783C471.264 62.3198 471.332 61.8209 471.467 61.2815C471.601 60.3914 471.669 59.7846 471.669 59.4609C471.669 58.49 471.305 57.7078 470.576 57.1145C469.848 56.4941 468.635 56.184 466.935 56.184C464.643 56.184 462.809 56.6694 461.433 57.6404C460.058 58.6113 459.37 59.9194 459.37 61.5647C459.37 62.8323 459.883 63.8841 460.907 64.7202C461.959 65.5294 463.658 65.9744 466.005 66.0553C466.598 66.0823 467.016 66.2171 467.259 66.4599C467.502 66.7026 467.623 67.1072 467.623 67.6736C467.623 69.4536 466.814 70.3572 465.196 70.3841C462.957 70.4381 461.096 70.7482 459.613 71.3146C458.156 71.881 457.091 72.6092 456.417 73.4993C455.769 74.3623 455.446 75.2928 455.446 76.2907C455.446 77.9629 456.228 79.2306 457.792 80.0936C459.357 80.9297 461.838 81.3478 465.236 81.3478C467.475 81.3478 469.835 81.0915 472.316 80.5791C474.824 80.0397 476.969 79.3924 478.749 78.6372ZM487.942 86.2025C486.755 86.2025 485.851 85.8789 485.231 85.2316C484.638 84.5843 484.341 83.7347 484.341 82.6828C484.341 81.4691 484.678 80.4982 485.353 79.77C486.054 79.0418 487.025 78.6777 488.265 78.6777C489.452 78.6777 490.342 78.9743 490.935 79.5677C491.556 80.1341 491.866 80.9837 491.866 82.1164C491.866 83.3571 491.515 84.355 490.814 85.1102C490.113 85.8384 489.155 86.2025 487.942 86.2025Z" fill="white"/>
</svg>
