<svg width="51" height="390" viewBox="0 0 51 390" fill="none" xmlns="http://www.w3.org/2000/svg">
<path d="M12.4198 386.6C12.4198 387.464 12.1918 388.124 11.7358 388.58C11.2558 389.012 10.6198 389.228 9.82784 389.228C8.98784 389.228 7.87184 388.976 6.47984 388.472C5.08784 387.968 3.73184 387.356 2.41184 386.636C1.52384 386.156 0.935842 385.784 0.647842 385.52C0.359842 385.232 0.215843 384.86 0.215843 384.404C0.215843 383.876 0.335843 383.456 0.575842 383.144C0.815842 382.832 1.19984 382.676 1.72784 382.676C1.94384 382.676 2.19584 382.712 2.48384 382.784C3.58784 383.048 4.60784 383.252 5.54384 383.396C6.47984 383.516 7.52384 383.576 8.67584 383.576C9.87584 383.576 10.7998 383.864 11.4478 384.44C12.0958 384.992 12.4198 385.712 12.4198 386.6ZM12.4198 378.68C12.4198 379.544 12.1918 380.204 11.7358 380.66C11.2558 381.092 10.6198 381.308 9.82784 381.308C8.98784 381.308 7.87184 381.056 6.47984 380.552C5.08784 380.048 3.73184 379.436 2.41184 378.716C1.52384 378.236 0.935842 377.864 0.647841 377.6C0.359842 377.312 0.215843 376.94 0.215842 376.484C0.215842 375.956 0.335842 375.536 0.575842 375.224C0.815842 374.912 1.19984 374.756 1.72784 374.756C1.94384 374.756 2.19584 374.792 2.48384 374.864C3.58784 375.128 4.60784 375.332 5.54384 375.476C6.47984 375.596 7.52384 375.656 8.67584 375.656C9.87584 375.656 10.7998 375.944 11.4478 376.52C12.0958 377.072 12.4198 377.792 12.4198 378.68ZM3.99584 343.848C4.09184 343.176 4.29584 342.72 4.60784 342.48C4.91984 342.216 5.32784 342.084 5.83184 342.084C7.48784 342.084 8.25584 342.972 8.13584 344.748L8.02784 346.008C7.90784 347.424 7.81184 348.84 7.73984 350.256C7.66784 351.648 7.63184 353.112 7.63184 354.648L7.63184 356.268C11.1838 356.556 14.4238 356.856 17.3518 357.168L17.2438 350.976C17.2438 350.088 17.3998 349.5 17.7118 349.212C18.0238 348.9 18.4438 348.744 18.9718 348.744C19.7878 348.744 20.4358 348.984 20.9158 349.464C21.3718 349.944 21.5998 350.628 21.5998 351.516L21.5998 357.672L23.1478 357.888C27.1078 358.392 29.9278 359.472 31.6078 361.128C33.2878 362.76 34.1278 365.016 34.1278 367.896C34.1278 369.528 33.7798 371.028 33.0838 372.396C32.3638 373.764 31.4998 374.772 30.4918 375.42C30.0838 375.684 29.5918 375.816 29.0158 375.816C28.4398 375.816 27.9358 375.684 27.5038 375.42C27.0718 375.132 26.8558 374.784 26.8558 374.376C26.8558 374.088 26.9518 373.812 27.1438 373.548C27.3358 373.26 27.7078 372.9 28.2598 372.468C29.7718 371.316 30.5278 369.888 30.5278 368.184C30.5278 366.816 29.9758 365.676 28.8718 364.764C27.7438 363.828 25.9798 363.228 23.5798 362.964L21.5998 362.748L21.5998 364.476C21.5998 365.028 21.4438 365.508 21.1318 365.916C20.8198 366.3 20.3758 366.492 19.7998 366.492C19.0558 366.492 18.4918 366.3 18.1078 365.916C17.6998 365.532 17.4958 364.968 17.4958 364.224C17.4958 363.552 17.4838 362.892 17.4598 362.244C14.8198 361.956 11.6158 361.644 7.84784 361.308C8.08784 363.9 8.50784 365.724 9.10784 366.78C9.70784 367.836 10.5958 368.364 11.7718 368.364C12.5878 368.364 13.3678 368.124 14.1118 367.644C14.3278 367.5 14.5438 367.428 14.7598 367.428C15.1918 367.428 15.5758 367.668 15.9118 368.148C16.2238 368.628 16.3798 369.168 16.3798 369.768C16.3798 370.416 16.1878 370.968 15.8038 371.424C15.5638 371.712 15.0718 371.988 14.3278 372.252C13.5838 372.516 12.7558 372.648 11.8438 372.648C8.86784 372.648 6.70784 371.124 5.36384 368.076C4.01984 365.004 3.34784 360.528 3.34784 354.648C3.34784 350.568 3.56384 346.968 3.99584 343.848ZM25.8118 334.779C25.8118 334.467 25.9558 334.227 26.2438 334.059C26.5318 333.867 26.9278 333.771 27.4318 333.771C28.3918 333.771 29.1358 333.999 29.6638 334.455C30.9358 335.487 31.9798 336.615 32.7958 337.839C33.6118 339.039 34.0198 340.407 34.0198 341.943C34.0198 344.055 33.0598 345.627 31.1398 346.659C29.2198 347.667 26.7358 348.171 23.6878 348.171C20.7598 348.171 17.4238 347.799 13.6798 347.055C9.93584 346.287 6.71984 345.171 4.03184 343.707C1.34384 342.219 -0.000160604 340.455 -0.000160693 338.415C-0.000160743 337.263 0.539839 336.363 1.61984 335.715C2.67584 335.043 4.19984 334.707 6.19184 334.707C9.04784 334.707 12.3598 335.499 16.1278 337.083C19.8958 338.667 23.6278 340.815 27.3238 343.527C28.3078 343.359 29.0158 343.083 29.4478 342.699C29.8558 342.315 30.0598 341.811 30.0598 341.187C30.0598 340.203 29.7838 339.339 29.2318 338.595C28.6558 337.851 27.6838 336.903 26.3158 335.751C25.9798 335.463 25.8118 335.139 25.8118 334.779ZM3.56384 339.207C3.56384 339.759 4.55984 340.383 6.55184 341.079C8.54384 341.775 11.0158 342.387 13.9678 342.915C16.9198 343.443 19.7518 343.731 22.4638 343.779C19.6558 342.075 16.8478 340.719 14.0398 339.711C11.2078 338.703 8.62784 338.199 6.29984 338.199C4.47584 338.199 3.56384 338.535 3.56384 339.207ZM22.7878 318.321C22.7878 318.009 22.9438 317.769 23.2558 317.601C23.5678 317.433 23.9638 317.349 24.4438 317.349C25.5958 317.349 26.2798 317.697 26.4958 318.393C26.9998 319.833 27.2878 321.417 27.3598 323.145C29.3758 323.601 30.9958 324.501 32.2198 325.845C33.4198 327.189 34.0198 328.713 34.0198 330.417C34.0198 331.857 33.6718 333.093 32.9758 334.125C32.2798 335.133 31.3558 335.901 30.2038 336.429C29.0518 336.957 27.8038 337.221 26.4598 337.221C24.6358 337.221 23.0158 336.873 21.5998 336.177C20.1598 335.481 19.0438 334.521 18.2518 333.297C17.4358 332.073 17.0278 330.717 17.0278 329.229C17.0278 327.405 17.6638 325.941 18.9358 324.837C20.1838 323.709 21.7318 323.049 23.5798 322.857C23.5078 321.729 23.2678 320.385 22.8598 318.825C22.8118 318.633 22.7878 318.465 22.7878 318.321ZM30.2038 330.129C30.2038 329.361 29.8918 328.701 29.2678 328.149C28.6438 327.573 27.7438 327.189 26.5678 326.997C26.0638 327.741 25.4038 328.317 24.5878 328.725C23.7718 329.109 22.9078 329.301 21.9958 329.301C21.6118 329.301 21.2278 329.265 20.8438 329.193L20.8438 329.373C20.8438 330.333 21.3118 331.137 22.2478 331.785C23.1598 332.409 24.4558 332.721 26.1358 332.721C27.4558 332.721 28.4638 332.469 29.1598 331.965C29.8558 331.437 30.2038 330.825 30.2038 330.129ZM34.0198 316.011C34.0198 317.499 33.4798 318.687 32.3998 319.575C31.3198 320.463 29.9038 320.907 28.1518 320.907C26.2318 320.907 24.4198 320.463 22.7158 319.575C20.9878 318.687 19.6078 317.511 18.5758 316.047C17.5198 314.559 16.9918 312.987 16.9918 311.331C16.9918 310.803 17.0998 310.455 17.3158 310.287C17.5078 310.095 17.8678 309.939 18.3958 309.819C18.2998 309.315 18.2518 308.787 18.2518 308.235C18.2518 307.059 18.6718 306.471 19.5118 306.471C20.0158 306.471 21.2158 306.651 23.1118 307.011C25.8718 307.563 27.7918 307.839 28.8718 307.839C29.2318 307.839 29.5198 307.755 29.7358 307.587C29.9518 307.395 30.0598 307.155 30.0598 306.867C30.0598 306.411 29.7718 305.859 29.1958 305.211C28.5958 304.563 27.6358 303.687 26.3158 302.583C25.9798 302.295 25.8118 301.971 25.8118 301.611C25.8118 301.299 25.9558 301.059 26.2438 300.891C26.5318 300.699 26.9278 300.603 27.4318 300.603C28.3918 300.603 29.1358 300.831 29.6638 301.287C30.8878 302.271 31.9198 303.315 32.7598 304.419C33.5998 305.523 34.0198 306.591 34.0198 307.623C34.0198 308.415 33.7558 309.147 33.2278 309.819C32.6758 310.467 31.9318 310.959 30.9958 311.295C33.0118 312.543 34.0198 314.115 34.0198 316.011ZM30.3838 314.715C30.3838 314.187 30.0718 313.683 29.4478 313.203C28.8238 312.723 27.9958 312.375 26.9638 312.159L20.3398 310.827C20.3638 311.835 20.7478 312.771 21.4918 313.635C22.2118 314.475 23.1718 315.147 24.3718 315.651C25.5718 316.155 26.8438 316.407 28.1878 316.407C28.9318 316.407 29.4838 316.263 29.8438 315.975C30.2038 315.663 30.3838 315.243 30.3838 314.715ZM20.4838 297.588C21.6838 297.636 22.6198 297.66 23.2918 297.66C25.0198 297.66 26.3758 297.576 27.3598 297.408C28.3198 297.216 29.0158 296.916 29.4478 296.508C29.8558 296.076 30.0598 295.488 30.0598 294.744C30.0598 294.36 29.9398 293.904 29.6998 293.376C29.4598 292.848 29.1478 292.368 28.7638 291.936C28.5238 291.672 28.4038 291.408 28.4038 291.144C28.4038 290.856 28.5718 290.628 28.9078 290.46C29.2198 290.268 29.6038 290.172 30.0598 290.172C30.5158 290.172 30.9598 290.268 31.3918 290.46C31.8238 290.628 32.1838 290.892 32.4718 291.252C33.5038 292.5 34.0198 293.916 34.0198 295.5C34.0198 297.78 33.0718 299.448 31.1758 300.504C29.2558 301.56 26.7598 302.088 23.6878 302.088C22.6318 302.088 21.5638 302.052 20.4838 301.98L20.4838 303.384C20.4838 304.104 20.3518 304.596 20.0878 304.86C19.8238 305.1 19.4038 305.22 18.8278 305.22C17.4838 305.22 16.8118 304.68 16.8118 303.6L16.8118 301.548C14.1718 301.14 11.7598 300.516 9.57584 299.676C7.39184 298.836 5.65184 297.828 4.35584 296.652C3.05984 295.452 2.41184 294.168 2.41184 292.8C2.41184 291.792 2.85584 291 3.74384 290.424C4.63184 289.848 5.74784 289.56 7.09184 289.56C10.8118 289.56 14.0518 291.12 16.8118 294.24L16.8118 290.208C16.8118 289.824 16.8958 289.548 17.0638 289.38C17.2318 289.212 17.5438 289.128 17.9998 289.128C19.6558 289.128 20.4838 290.484 20.4838 293.196L20.4838 297.588ZM5.86784 293.772C5.86784 294.132 6.32384 294.54 7.23584 294.996C8.12384 295.428 9.37184 295.848 10.9798 296.256C12.5638 296.64 14.3278 296.964 16.2718 297.228C15.0478 295.812 13.6798 294.756 12.1678 294.06C10.6318 293.34 9.23984 292.98 7.99184 292.98C6.57584 292.98 5.86784 293.244 5.86784 293.772ZM34.0198 267.178C34.0198 269.314 33.5398 271.246 32.5798 272.974C31.6198 274.678 30.2158 276.034 28.3678 277.042C26.4958 278.05 24.2638 278.554 21.6718 278.554C18.0238 278.554 14.8078 277.894 12.0238 276.574C9.23984 275.23 7.09184 273.418 5.57984 271.138C4.06784 268.834 3.31184 266.29 3.31184 263.506C3.31184 261.37 3.79184 259.45 4.75184 257.746C5.71184 256.018 7.12784 254.65 8.99984 253.642C10.8478 252.634 13.0678 252.13 15.6598 252.13C19.3078 252.13 22.5238 252.802 25.3078 254.146C28.0918 255.466 30.2398 257.278 31.7518 259.582C33.2638 261.862 34.0198 264.394 34.0198 267.178ZM29.7718 266.818C29.7718 264.946 29.1958 263.302 28.0438 261.886C26.8918 260.446 25.2958 259.342 23.2558 258.574C21.1918 257.806 18.8638 257.422 16.2718 257.422C13.4158 257.422 11.2558 258.022 9.79184 259.222C8.30384 260.422 7.55984 261.97 7.55984 263.866C7.55984 265.714 8.13584 267.346 9.28784 268.762C10.4158 270.178 12.0118 271.282 14.0758 272.074C16.1158 272.866 18.4438 273.262 21.0598 273.262C23.9158 273.262 26.0878 272.662 27.5758 271.462C29.0398 270.262 29.7718 268.714 29.7718 266.818ZM34.0198 247.535C34.0198 248.447 33.5398 249.095 32.5798 249.479C31.6198 249.839 30.0838 250.019 27.9718 250.019C24.8518 250.019 21.8878 249.575 19.0798 248.687C18.3838 248.471 17.8798 248.123 17.5678 247.643C17.2318 247.139 17.0638 246.443 17.0638 245.555C17.0638 245.075 17.1238 244.739 17.2438 244.547C17.3638 244.355 17.5918 244.259 17.9278 244.259C18.3118 244.259 19.1758 244.439 20.5198 244.799C21.4798 245.039 22.3198 245.231 23.0398 245.375C23.7598 245.519 24.6478 245.639 25.7038 245.735C23.6398 244.943 21.9598 244.055 20.6638 243.071C19.3678 242.087 18.4438 241.127 17.8918 240.191C17.3398 239.231 17.0638 238.355 17.0638 237.563C17.0638 236.795 17.2678 236.219 17.6758 235.835C18.0598 235.427 18.6358 235.223 19.4038 235.223C20.0278 235.223 21.2038 235.355 22.9318 235.619C24.3958 235.859 25.7878 236.051 27.1078 236.195C28.4038 236.339 29.8558 236.411 31.4638 236.411C32.3758 236.411 33.0358 236.603 33.4438 236.987C33.8278 237.347 34.0198 237.947 34.0198 238.787C34.0198 239.579 33.8158 240.155 33.4078 240.515C32.9998 240.875 32.3878 241.055 31.5718 241.055C30.6118 241.055 29.0278 240.887 26.8198 240.551C24.8998 240.263 23.6758 240.119 23.1478 240.119C22.7638 240.119 22.5718 240.251 22.5718 240.515C22.5718 240.827 22.9798 241.271 23.7958 241.847C24.5878 242.399 25.6438 242.975 26.9638 243.575C28.2838 244.151 29.6758 244.619 31.1398 244.979C32.2678 245.243 33.0358 245.555 33.4438 245.915C33.8278 246.251 34.0198 246.791 34.0198 247.535ZM12.4198 228.937C12.4198 229.465 12.2998 229.885 12.0598 230.197C11.8198 230.509 11.4358 230.665 10.9078 230.665C10.6918 230.665 10.4398 230.629 10.1518 230.557C9.04783 230.293 8.02783 230.101 7.09184 229.981C6.15583 229.837 5.11183 229.765 3.95984 229.765C2.75983 229.765 1.83583 229.489 1.18783 228.937C0.539835 228.361 0.215836 227.629 0.215836 226.741C0.215836 225.877 0.455836 225.229 0.935835 224.797C1.39183 224.341 2.01583 224.113 2.80783 224.113C3.64784 224.113 4.76384 224.365 6.15583 224.869C7.54784 225.373 8.90384 225.985 10.2238 226.705C11.1118 227.185 11.6998 227.569 11.9878 227.857C12.2758 228.121 12.4198 228.481 12.4198 228.937ZM12.4198 221.017C12.4198 221.545 12.2998 221.965 12.0598 222.277C11.8198 222.589 11.4358 222.745 10.9078 222.745C10.6918 222.745 10.4398 222.709 10.1518 222.637C9.04783 222.373 8.02783 222.181 7.09184 222.061C6.15583 221.917 5.11183 221.845 3.95983 221.845C2.75983 221.845 1.83583 221.569 1.18783 221.017C0.539835 220.441 0.215836 219.709 0.215836 218.821C0.215836 217.957 0.455835 217.309 0.935835 216.877C1.39183 216.421 2.01583 216.193 2.80783 216.193C3.64783 216.193 4.76383 216.445 6.15583 216.949C7.54783 217.453 8.90384 218.065 10.2238 218.785C11.1118 219.265 11.6998 219.649 11.9878 219.937C12.2758 220.201 12.4198 220.561 12.4198 221.017ZM22.7878 178.38C22.7878 178.068 22.9438 177.828 23.2558 177.66C23.5678 177.492 23.9638 177.408 24.4438 177.408C25.0438 177.408 25.5118 177.492 25.8478 177.66C26.1598 177.828 26.3758 178.092 26.4958 178.452C26.9998 179.892 27.2878 181.476 27.3598 183.204C29.3518 183.684 30.9598 184.596 32.1838 185.94C33.4078 187.26 34.0198 188.724 34.0198 190.332C34.0198 192.756 33.0958 194.52 31.2478 195.624C29.3998 196.728 26.7238 197.28 23.2198 197.28C20.1238 197.28 16.7638 196.896 13.1398 196.128C9.49183 195.36 6.39583 194.244 3.85183 192.78C1.28383 191.292 -0.000167201 189.528 -0.00016729 187.488C-0.000167339 186.384 0.479833 185.496 1.43983 184.824C2.37583 184.152 3.59983 183.816 5.11183 183.816C7.07983 183.816 9.03583 184.188 10.9798 184.932C12.9238 185.676 14.9638 186.912 17.0998 188.64C17.2198 187.032 17.8918 185.724 19.1158 184.716C20.3158 183.708 21.8038 183.108 23.5798 182.916C23.5078 181.788 23.2678 180.444 22.8598 178.884C22.8118 178.74 22.7878 178.572 22.7878 178.38ZM3.56383 188.316C3.56383 188.796 4.28383 189.324 5.72383 189.9C7.13983 190.452 9.07183 190.968 11.5198 191.448C13.9678 191.928 16.6438 192.288 19.5478 192.528C16.6438 190.944 14.0878 189.684 11.8798 188.748C9.64783 187.788 7.66783 187.308 5.93983 187.308C5.17183 187.308 4.58383 187.404 4.17583 187.596C3.76783 187.764 3.56383 188.004 3.56383 188.316ZM30.2038 190.188C30.2038 189.444 29.8918 188.784 29.2678 188.208C28.6438 187.632 27.7438 187.248 26.5678 187.056C26.0638 187.8 25.4038 188.376 24.5878 188.784C23.7718 189.168 22.9078 189.36 21.9958 189.36C21.6598 189.36 21.2038 189.312 20.6278 189.216L20.6278 189.324C20.6278 190.308 21.1198 191.136 22.1038 191.808C23.0638 192.456 24.3598 192.78 25.9918 192.78C27.3598 192.78 28.4038 192.528 29.1238 192.024C29.8438 191.496 30.2038 190.884 30.2038 190.188ZM17.0638 167.917C17.0638 167.365 17.1358 166.981 17.2798 166.765C17.4238 166.549 17.6638 166.441 17.9998 166.441C18.5758 166.441 20.6278 166.753 24.1558 167.377C27.5398 167.929 29.5438 168.253 30.1678 168.349C36.3358 169.237 41.2198 170.461 44.8198 172.021C48.4198 173.581 50.2198 175.657 50.2198 178.249C50.2198 179.473 49.8358 180.469 49.0678 181.237C48.3238 182.005 47.3398 182.389 46.1158 182.389C44.9878 182.389 43.8358 182.137 42.6598 181.633C41.4838 181.105 40.1278 180.145 38.5918 178.753C37.0798 177.337 35.3398 175.345 33.3718 172.777L32.5438 172.669C31.6558 172.501 30.3838 172.309 28.7278 172.093C30.4558 172.573 31.7758 173.245 32.6878 174.109C33.5758 174.973 34.0198 175.885 34.0198 176.845C34.0198 177.925 33.5278 178.813 32.5438 179.509C31.5358 180.181 30.2878 180.517 28.7998 180.517C26.9998 180.517 25.3558 180.397 23.8678 180.157C22.3558 179.917 20.7598 179.521 19.0798 178.969C18.3598 178.729 17.8438 178.393 17.5318 177.961C17.2198 177.529 17.0638 176.845 17.0638 175.909C17.0638 175.381 17.1478 175.021 17.3158 174.829C17.4838 174.613 17.7358 174.505 18.0718 174.505C18.2638 174.505 18.9118 174.637 20.0158 174.901C20.9038 175.141 21.7078 175.333 22.4278 175.477C23.4118 175.669 24.3598 175.837 25.2718 175.981C26.1598 176.125 26.8918 176.197 27.4678 176.197C28.3798 176.197 28.8358 175.945 28.8358 175.441C28.8358 175.081 28.4758 174.637 27.7558 174.109C27.0358 173.557 25.9438 172.981 24.4798 172.381C23.0158 171.757 21.2158 171.157 19.0798 170.581C18.3598 170.389 17.8438 170.101 17.5318 169.717C17.2198 169.309 17.0638 168.709 17.0638 167.917ZM46.7278 177.853C46.7278 177.253 46.0318 176.581 44.6398 175.837C43.2478 175.093 40.9318 174.349 37.6918 173.605C39.2518 175.453 40.6678 176.797 41.9398 177.637C43.2358 178.453 44.3638 178.861 45.3238 178.861C45.7318 178.861 46.0678 178.789 46.3318 178.645C46.5958 178.477 46.7278 178.213 46.7278 177.853ZM22.7878 136.457C22.7878 136.145 22.9438 135.905 23.2558 135.737C23.5678 135.569 23.9638 135.485 24.4438 135.485C25.5958 135.485 26.2798 135.833 26.4958 136.529C26.9998 137.969 27.2878 139.553 27.3598 141.281C29.3758 141.737 30.9958 142.637 32.2198 143.981C33.4198 145.325 34.0198 146.849 34.0198 148.553C34.0198 149.993 33.6718 151.229 32.9758 152.261C32.2798 153.269 31.3558 154.037 30.2038 154.565C29.0518 155.093 27.8038 155.357 26.4598 155.357C24.6358 155.357 23.0158 155.009 21.5998 154.313C20.1598 153.617 19.0438 152.657 18.2518 151.433C17.4358 150.209 17.0278 148.853 17.0278 147.365C17.0278 145.541 17.6638 144.077 18.9358 142.973C20.1838 141.845 21.7318 141.185 23.5798 140.993C23.5078 139.865 23.2678 138.521 22.8598 136.961C22.8118 136.769 22.7878 136.601 22.7878 136.457ZM30.2038 148.265C30.2038 147.497 29.8918 146.837 29.2678 146.285C28.6438 145.709 27.7438 145.325 26.5678 145.133C26.0638 145.877 25.4038 146.453 24.5878 146.861C23.7718 147.245 22.9078 147.437 21.9958 147.437C21.6118 147.437 21.2278 147.401 20.8438 147.329L20.8438 147.509C20.8438 148.469 21.3118 149.273 22.2478 149.921C23.1598 150.545 24.4558 150.857 26.1358 150.857C27.4558 150.857 28.4638 150.605 29.1598 150.101C29.8558 149.573 30.2038 148.961 30.2038 148.265ZM34.0198 134.147C34.0198 135.635 33.4798 136.823 32.3998 137.711C31.3198 138.599 29.9038 139.043 28.1518 139.043C26.2318 139.043 24.4198 138.599 22.7158 137.711C20.9878 136.823 19.6078 135.647 18.5758 134.183C17.5198 132.695 16.9918 131.123 16.9918 129.467C16.9918 128.939 17.0998 128.591 17.3158 128.423C17.5078 128.231 17.8678 128.075 18.3958 127.955C18.2998 127.451 18.2518 126.923 18.2518 126.371C18.2518 125.195 18.6718 124.607 19.5118 124.607C20.0158 124.607 21.2158 124.787 23.1118 125.147C25.8718 125.699 27.7918 125.975 28.8718 125.975C29.2318 125.975 29.5198 125.891 29.7358 125.723C29.9518 125.531 30.0598 125.291 30.0598 125.003C30.0598 124.547 29.7718 123.995 29.1958 123.347C28.5958 122.699 27.6358 121.823 26.3158 120.719C25.9798 120.431 25.8118 120.107 25.8118 119.747C25.8118 119.435 25.9558 119.195 26.2438 119.027C26.5318 118.835 26.9278 118.739 27.4318 118.739C28.3918 118.739 29.1358 118.967 29.6638 119.423C30.8878 120.407 31.9198 121.451 32.7598 122.555C33.5998 123.659 34.0198 124.727 34.0198 125.759C34.0198 126.551 33.7558 127.283 33.2278 127.955C32.6758 128.603 31.9318 129.095 30.9958 129.431C33.0118 130.679 34.0198 132.251 34.0198 134.147ZM30.3838 132.851C30.3838 132.323 30.0718 131.819 29.4478 131.339C28.8238 130.859 27.9958 130.511 26.9638 130.295L20.3398 128.963C20.3638 129.971 20.7478 130.907 21.4918 131.771C22.2118 132.611 23.1718 133.283 24.3718 133.787C25.5718 134.291 26.8438 134.543 28.1878 134.543C28.9318 134.543 29.4838 134.399 29.8438 134.111C30.2038 133.799 30.3838 133.379 30.3838 132.851ZM30.0958 106.365C30.2878 105.381 30.8278 104.889 31.7158 104.889C32.3158 104.889 32.8558 105.165 33.3358 105.717C33.7918 106.245 34.0198 107.013 34.0198 108.021C34.0198 109.749 33.4918 111.165 32.4358 112.269C31.3558 113.349 29.9518 113.889 28.2238 113.889C27.2878 113.889 26.6158 113.409 26.2078 112.449C25.7518 111.393 25.2718 110.637 24.7678 110.181C24.2398 109.725 23.6038 109.497 22.8598 109.497C22.4278 109.497 22.1038 109.593 21.8878 109.785C21.6718 109.953 21.5638 110.169 21.5638 110.433C21.5638 111.081 22.0318 111.801 22.9678 112.593C23.9038 113.361 25.1158 114.081 26.6038 114.753C28.0678 115.425 29.5798 115.953 31.1398 116.337C32.2678 116.601 33.0358 116.913 33.4438 117.273C33.8278 117.609 34.0198 118.149 34.0198 118.893C34.0198 119.637 33.7558 120.189 33.2278 120.549C32.6758 120.885 31.8358 121.113 30.7078 121.233C29.5798 121.353 27.9238 121.413 25.7398 121.413C22.0438 121.413 18.1918 121.041 14.1838 120.297C10.1758 119.529 6.81583 118.413 4.10383 116.949C1.36783 115.461 -0.000170516 113.685 -0.000170607 111.621C-0.000170655 110.517 0.47983 109.629 1.43983 108.957C2.37583 108.261 3.59983 107.913 5.11183 107.913C7.53583 107.913 10.0558 108.621 12.6718 110.037C15.2638 111.453 18.2998 113.757 21.7798 116.949C23.0278 117.021 24.3118 117.057 25.6318 117.057C22.6318 115.905 20.4598 114.585 19.1158 113.097C17.7478 111.609 17.0638 110.217 17.0638 108.921C17.0638 107.721 17.4718 106.761 18.2878 106.041C19.1038 105.297 20.1118 104.925 21.3118 104.925C22.6318 104.925 23.8438 105.261 24.9478 105.933C26.0518 106.605 27.0358 107.757 27.8998 109.389C28.6198 109.245 29.1238 108.957 29.4118 108.525C29.6758 108.069 29.9038 107.349 30.0958 106.365ZM3.56383 112.377C3.56383 112.809 4.18783 113.289 5.43583 113.817C6.65983 114.345 8.32783 114.861 10.4398 115.365C12.5278 115.845 14.8078 116.241 17.2798 116.553C15.5278 115.065 13.6198 113.841 11.5558 112.881C9.49183 111.897 7.61983 111.405 5.93983 111.405C5.17183 111.405 4.58383 111.489 4.17583 111.657C3.76783 111.825 3.56383 112.065 3.56383 112.377ZM37.9438 102.873C37.9438 103.473 37.7518 103.941 37.3678 104.277C37.0078 104.613 36.4918 104.781 35.8198 104.781C35.1718 104.781 34.6798 104.613 34.3438 104.277C34.0078 103.941 33.8398 103.473 33.8398 102.873L33.8398 93.9805C33.8398 92.7325 34.4998 92.1085 35.8198 92.1085C36.4918 92.1085 37.0078 92.2765 37.3678 92.6125C37.7518 92.9245 37.9438 93.3805 37.9438 93.9805L37.9438 102.873ZM34.0198 85.3855C34.0198 86.8735 33.4798 88.0615 32.3998 88.9495C31.3198 89.8375 29.9038 90.2815 28.1518 90.2815C26.2318 90.2815 24.4198 89.8375 22.7158 88.9495C20.9878 88.0615 19.6078 86.8855 18.5758 85.4215C17.5198 83.9335 16.9918 82.3615 16.9918 80.7055C16.9918 80.1775 17.0998 79.8295 17.3158 79.6615C17.5078 79.4695 17.8678 79.3135 18.3958 79.1935C18.2998 78.6895 18.2518 78.1615 18.2518 77.6095C18.2518 76.4335 18.6718 75.8455 19.5118 75.8455C20.0158 75.8455 21.2158 76.0255 23.1118 76.3855C25.8718 76.9375 27.7918 77.2135 28.8718 77.2135C29.2318 77.2135 29.5198 77.1295 29.7358 76.9615C29.9518 76.7695 30.0598 76.5295 30.0598 76.2415C30.0598 75.7855 29.7718 75.2335 29.1958 74.5855C28.5958 73.9375 27.6358 73.0615 26.3158 71.9575C25.9798 71.6695 25.8118 71.3455 25.8118 70.9855C25.8118 70.6735 25.9558 70.4335 26.2438 70.2655C26.5318 70.0735 26.9278 69.9775 27.4318 69.9775C28.3918 69.9775 29.1358 70.2055 29.6638 70.6615C30.8878 71.6455 31.9198 72.6895 32.7598 73.7935C33.5998 74.8975 34.0198 75.9655 34.0198 76.9975C34.0198 77.7895 33.7558 78.5215 33.2278 79.1935C32.6758 79.8415 31.9318 80.3335 30.9958 80.6695C33.0118 81.9175 34.0198 83.4895 34.0198 85.3855ZM30.3838 84.0895C30.3838 83.5615 30.0718 83.0575 29.4478 82.5775C28.8238 82.0975 27.9958 81.7495 26.9638 81.5335L20.3398 80.2015C20.3638 81.2095 20.7478 82.1455 21.4918 83.0095C22.2118 83.8495 23.1718 84.5215 24.3718 85.0255C25.5718 85.5295 26.8438 85.7815 28.1878 85.7815C28.9318 85.7815 29.4838 85.6375 29.8438 85.3495C30.2038 85.0375 30.3838 84.6175 30.3838 84.0895ZM34.0198 70.3473C34.0198 71.2593 33.5398 71.9073 32.5798 72.2913C31.6198 72.6513 30.0838 72.8313 27.9718 72.8313C24.8518 72.8313 21.8878 72.3873 19.0798 71.4993C18.3838 71.2833 17.8798 70.9353 17.5678 70.4553C17.2318 69.9513 17.0638 69.2553 17.0638 68.3673C17.0638 67.8873 17.1238 67.5513 17.2438 67.3593C17.3638 67.1673 17.5918 67.0713 17.9278 67.0713C18.3118 67.0713 19.1758 67.2513 20.5198 67.6113C21.4798 67.8513 22.3198 68.0433 23.0398 68.1873C23.7598 68.3313 24.6478 68.4513 25.7038 68.5473C23.6398 67.7553 21.9598 66.8673 20.6638 65.8833C19.3678 64.8993 18.4438 63.9393 17.8918 63.0033C17.3398 62.0433 17.0638 61.1673 17.0638 60.3753C17.0638 58.8153 17.8438 58.0353 19.4038 58.0353C19.7158 58.0353 20.4718 58.1433 21.6718 58.3593C22.6318 58.5513 23.2318 58.6473 23.4718 58.6473C24.3118 58.6473 24.7318 58.3473 24.7318 57.7473C24.7318 57.0753 24.2038 56.2113 23.1478 55.1553C22.8358 54.8433 22.6798 54.5193 22.6798 54.1833C22.6798 53.8713 22.8238 53.6313 23.1118 53.4633C23.3758 53.2713 23.7358 53.1753 24.1918 53.1753C25.0798 53.1753 25.7758 53.4153 26.2798 53.8953C26.9758 54.5673 27.5758 55.3593 28.0798 56.2713C28.5598 57.1593 28.7998 58.1073 28.7998 59.1153C28.7998 60.3873 28.4758 61.3593 27.8278 62.0313C27.1798 62.6793 26.3038 63.0033 25.1998 63.0033C24.8398 63.0033 24.4798 62.9673 24.1198 62.8953C23.6398 62.8473 23.3158 62.8233 23.1478 62.8233C22.7638 62.8233 22.5718 62.9553 22.5718 63.2193C22.5718 63.5793 22.9798 64.0593 23.7958 64.6593C24.5878 65.2353 25.6438 65.8113 26.9638 66.3873C28.2838 66.9633 29.6758 67.4313 31.1398 67.7913C32.2678 68.0553 33.0358 68.3673 33.4438 68.7273C33.8278 69.0633 34.0198 69.6033 34.0198 70.3473ZM34.0198 53.9645C34.0198 54.8765 33.5398 55.5245 32.5798 55.9085C31.6198 56.2685 30.0838 56.4485 27.9718 56.4485C24.8518 56.4485 21.8878 56.0045 19.0798 55.1165C18.3838 54.9005 17.8798 54.5525 17.5678 54.0725C17.2318 53.5685 17.0638 52.8725 17.0638 51.9845C17.0638 51.5045 17.1238 51.1685 17.2438 50.9765C17.3638 50.7845 17.5918 50.6885 17.9278 50.6885C18.3118 50.6885 19.1758 50.8685 20.5198 51.2285C21.4798 51.4685 22.3198 51.6605 23.0398 51.8045C23.7598 51.9485 24.6478 52.0685 25.7038 52.1645C23.6398 51.3725 21.9598 50.4845 20.6638 49.5005C19.3678 48.5165 18.4438 47.5565 17.8918 46.6205C17.3398 45.6605 17.0638 44.7845 17.0638 43.9925C17.0638 42.4325 17.8438 41.6525 19.4038 41.6525C19.7158 41.6525 20.4718 41.7605 21.6718 41.9765C22.6318 42.1685 23.2318 42.2645 23.4718 42.2645C24.3118 42.2645 24.7318 41.9645 24.7318 41.3645C24.7318 40.6925 24.2038 39.8285 23.1478 38.7725C22.8358 38.4605 22.6798 38.1365 22.6798 37.8005C22.6798 37.4885 22.8238 37.2485 23.1118 37.0805C23.3758 36.8885 23.7358 36.7925 24.1918 36.7925C25.0798 36.7925 25.7758 37.0325 26.2798 37.5125C26.9758 38.1845 27.5758 38.9765 28.0798 39.8885C28.5598 40.7765 28.7998 41.7245 28.7998 42.7325C28.7998 44.0045 28.4758 44.9765 27.8278 45.6485C27.1798 46.2965 26.3038 46.6205 25.1998 46.6205C24.8398 46.6205 24.4798 46.5845 24.1198 46.5125C23.6398 46.4645 23.3158 46.4405 23.1478 46.4405C22.7638 46.4405 22.5718 46.5725 22.5718 46.8365C22.5718 47.1965 22.9798 47.6765 23.7958 48.2765C24.5878 48.8525 25.6438 49.4285 26.9638 50.0045C28.2838 50.5805 29.6758 51.0485 31.1398 51.4085C32.2678 51.6725 33.0358 51.9845 33.4438 52.3445C33.8278 52.6805 34.0198 53.2205 34.0198 53.9645ZM22.7878 21.7777C22.7878 21.4657 22.9438 21.2257 23.2558 21.0577C23.5678 20.8897 23.9638 20.8057 24.4438 20.8057C25.5958 20.8057 26.2798 21.1537 26.4958 21.8497C26.9998 23.2897 27.2878 24.8737 27.3598 26.6017C29.3758 27.0577 30.9958 27.9577 32.2198 29.3017C33.4198 30.6457 34.0198 32.1697 34.0198 33.8737C34.0198 35.3137 33.6718 36.5497 32.9758 37.5817C32.2798 38.5897 31.3558 39.3577 30.2038 39.8857C29.0518 40.4137 27.8038 40.6777 26.4598 40.6777C24.6358 40.6777 23.0158 40.3297 21.5998 39.6337C20.1598 38.9377 19.0438 37.9777 18.2518 36.7537C17.4358 35.5297 17.0278 34.1737 17.0278 32.6857C17.0278 30.8617 17.6638 29.3977 18.9358 28.2937C20.1838 27.1657 21.7318 26.5057 23.5798 26.3137C23.5078 25.1857 23.2678 23.8417 22.8598 22.2817C22.8118 22.0897 22.7878 21.9217 22.7878 21.7777ZM30.2038 33.5857C30.2038 32.8177 29.8918 32.1577 29.2678 31.6057C28.6438 31.0297 27.7438 30.6457 26.5678 30.4537C26.0638 31.1977 25.4038 31.7737 24.5878 32.1817C23.7718 32.5657 22.9078 32.7577 21.9958 32.7577C21.6118 32.7577 21.2278 32.7217 20.8438 32.6497L20.8438 32.8297C20.8438 33.7897 21.3118 34.5937 22.2478 35.2417C23.1598 35.8657 24.4558 36.1777 26.1358 36.1777C27.4558 36.1777 28.4638 35.9257 29.1598 35.4217C29.8558 34.8937 30.2038 34.2817 30.2038 33.5857ZM17.0278 1.97997C17.0278 0.659971 17.4478 -2.88156e-05 18.2878 -2.88524e-05C18.5758 -2.88649e-05 18.9718 0.0959713 19.4758 0.287972C24.0118 2.23197 27.6718 4.06797 30.4558 5.79597C31.8238 6.65997 32.7598 7.43997 33.2638 8.13597C33.7678 8.83197 34.0198 9.62397 34.0198 10.512C34.0198 11.472 33.6478 12.192 32.9038 12.672C32.1598 13.128 30.9358 13.416 29.2318 13.536C28.6078 13.584 27.6718 13.632 26.4238 13.68C28.4878 14.424 30.0718 15.108 31.1758 15.732C32.2558 16.332 32.9998 16.932 33.4078 17.532C33.8158 18.108 34.0198 18.804 34.0198 19.62C34.0198 20.604 33.6358 21.384 32.8678 21.96C32.0998 22.512 30.8878 22.86 29.2318 23.004C25.8718 23.292 22.9318 23.436 20.4118 23.436L19.1518 23.436C18.3358 23.412 17.7838 23.208 17.4958 22.824C17.1838 22.44 17.0278 21.816 17.0278 20.952C17.0278 20.328 17.1718 19.872 17.4598 19.584C17.7238 19.272 18.1798 19.116 18.8278 19.116C21.5878 19.116 25.1758 18.948 29.5918 18.612C27.9118 17.82 26.3038 17.088 24.7678 16.416C23.2318 15.744 21.2638 14.964 18.8638 14.076C18.1438 13.812 17.6638 13.5 17.4238 13.14C17.1598 12.756 17.0278 12.312 17.0278 11.808C17.0278 11.136 17.1718 10.632 17.4598 10.296C17.7238 9.95997 18.1798 9.79197 18.8278 9.79197L24.4078 9.79197C26.8078 9.79197 28.5358 9.77997 29.5918 9.75597C27.6718 8.65197 26.0038 7.75197 24.5878 7.05597C23.1718 6.33597 21.2638 5.53197 18.8638 4.64397C18.1438 4.37997 17.6638 4.03197 17.4238 3.59997C17.1598 3.16797 17.0278 2.62797 17.0278 1.97997Z" fill="#F8EE46"/>
</svg>
