<svg width="7012" height="6205" viewBox="0 0 7012 6205" fill="none" xmlns="http://www.w3.org/2000/svg">
<rect width="4096" height="2196" transform="translate(1770 1416)" fill="#F2529D"/>
<g opacity="0.06" clip-path="url(#clip0_2078_681)">
<path d="M4903.06 5390.29L4881.06 5348.52L4922.23 5326.53L4963.23 5304.49L4942.28 5265.01C4930.82 5243.25 4921.26 5224.53 4921.06 5223.29C4920.96 5221.39 4925.78 5218.55 4959.89 5200.28C4981.42 5188.94 5000.02 5179.44 5001.33 5179.36C5003.58 5179.07 5005.62 5182.66 5025.33 5220.07L5046.96 5261.13L5088.72 5239.13L5130.49 5217.13L5152.14 5258.79L5173.6 5300.39L5049.42 5366.25L4925.06 5432.06L4903.06 5390.29Z" fill="black"/>
<path d="M4754.26 5308.74C4753.9 5308.63 4743.81 5290.04 4731.91 5267.45L4710.35 5226.51L4669.16 5248.2L4627.98 5269.89L4605.98 5228.12L4583.98 5186.35L4625.16 5164.66L4666.34 5142.97L4644.77 5101.43L4623.24 5059.71L4654.89 5042.74C4672.36 5033.39 4690.88 5023.48 4696.23 5020.51L4705.88 5015.43L4662.19 4932.48L4618.5 4849.53L4577.21 4871.58L4535.86 4893.81L4557.38 4935.53L4578.96 4977.07L4537.78 4998.76L4496.6 5020.45L4518.06 5061.75L4539.39 5103.12L4500.23 5124.35C4478.7 5135.99 4460.12 5146.08 4459.12 5146.76C4457.18 5147.93 4458.55 5150.81 4478.75 5189.17L4500.44 5230.35L4459.14 5251.81L4417.77 5273.14L4352.39 5149.01L4287.01 5024.88L4328 5002.84L4369.06 4980.91L4347.37 4939.73L4325.68 4898.55L4367.09 4876.44L4408.32 4854.27L4386.86 4812.67L4365.22 4771.01L4282.27 4814.7C4216.73 4849.22 4199.5 4858.75 4200 4859.99C4200.38 4860.69 4210.11 4879.46 4221.58 4901.53L4242.42 4941.65L4201.19 4963.82L4159.78 4985.93L4181.47 5027.11L4203.16 5068.3L4161.39 5090.3L4119.62 5112.3L4097.93 5071.12L4076.24 5029.93L4034.82 5051.45L3993.45 5072.79L3978.14 5043.73C3969.65 5027.61 3959.98 5008.96 3956.39 5002.13L3949.88 4989.78L3991.06 4968.09L4032.24 4946.4L4010.66 4904.86L3989.26 4863.37L4072.15 4819.56L4155.04 4775.75L4133.35 4734.57L4111.66 4693.39L3987.1 4758.55C3887.79 4810.55 3862.62 4824.11 3863.12 4825.35C3863.56 4826.18 3873.29 4844.95 3884.76 4867.01L3905.6 4907.14L3864.48 4928.95L3823.36 4950.75L3844.82 4992.36L3866.34 5033.78L3824.57 5055.78L3782.8 5077.78L3739.11 4994.83L3695.42 4911.88L3737.19 4889.88L3778.96 4867.88L3756.96 4826.11L3734.96 4784.34L3776.49 4762.46L3817.91 4740.65L3796.22 4699.47L3774.53 4658.29L3733.16 4679.63L3691.85 4701.08L3669.69 4659.85L3647.57 4618.44L3605.81 4640.44L3564.04 4662.44L3607.73 4745.39L3651.42 4828.34L3526.93 4893.61L3402.26 4958.83L3380.69 4917.88L3359.13 4876.94L3400.18 4855.01L3441.24 4833.08L3419.78 4791.48L3398.14 4749.82L3439.91 4727.82L3481.67 4705.82L3459.67 4664.05L3437.67 4622.28L3478.85 4600.59L3520.04 4578.9L3498.34 4537.72L3476.65 4496.54L3393.7 4540.23L3310.75 4583.92L3288.75 4542.15L3266.75 4500.39L3225.33 4521.9L3183.85 4543.3L3161.92 4502.25L3140.11 4461.13L3181.29 4439.44L3222.47 4417.75L3201.01 4376.14L3179.37 4334.49L3221.14 4312.49L3262.91 4290.48L3284.78 4332.02L3306.66 4373.55L3347.78 4351.74L3388.9 4329.94L3410.78 4371.47L3432.65 4413L3515.83 4368.89L3598.83 4324.72L3577.14 4283.54L3555.51 4242.48L3514.21 4263.93L3472.96 4285.51L3450.8 4244.28L3428.81 4203.1L3387.15 4224.74L3345.55 4246.21L3301.75 4163.91C3263.65 4092.15 3258.18 4081.2 3259.47 4079.92C3260.16 4078.95 3297.51 4059.13 3342.4 4035.63L3424.07 3992.92L3445.99 4033.98L3467.8 4075.1L3509.28 4053.7L3550.71 4032.18L3572.71 4073.95L3594.71 4115.72L3636.12 4093.61L3677.35 4071.44L3633.66 3988.49L3589.97 3905.54L3548.66 3927L3507.36 3948.45L3485.31 3907.46L3463.32 3866.28L3421.9 3887.8L3380.54 3909.14L3358.85 3867.96L3337.15 3826.77L3378.15 3804.73L3419.32 3782.74L3397.63 3741.56L3375.94 3700.38L3417.71 3678.38L3459.48 3656.38L3481.17 3697.56L3502.86 3738.74L3544.52 3717.1L3586.12 3695.64L3629.69 3778.35L3673.19 3860.95L3714.73 3839.07L3756.14 3817.26L3734.45 3776.08L3712.76 3734.9L3754.53 3712.9L3796.3 3690.9L3774.25 3649.6L3752.02 3608.26L3710.42 3629.72L3668.76 3651.36L3647.07 3610.18L3625.38 3569L3584.08 3590.45L3542.71 3611.79L3499.02 3528.84L3455.21 3445.95L3496.32 3423.85L3537.38 3401.92L3559.38 3443.69L3581.38 3485.46L3664.33 3441.77L3747.28 3398.08L3769.39 3439.49L3791.56 3480.72L3833.28 3459.19L3874.82 3437.61L3830.82 3354.08L3786.82 3270.54L3703.87 3314.23L3620.92 3357.92L3577.23 3274.97L3533.53 3192.02L3616.48 3148.33L3699.43 3104.64L3721.44 3146.41L3743.44 3188.18L3784.86 3166.66L3826.34 3145.26L3847.96 3185.73L3869.57 3226.2L3911.18 3204.73L3952.72 3183.16L3931.03 3141.97L3909.34 3100.79L3950.75 3078.68L3991.98 3056.51L3970.51 3014.91L3948.87 2973.25L4031.82 2929.56L4114.77 2885.87L4136.77 2927.64L4158.77 2969.41L4117.24 2991.29L4075.71 3013.16L4119.27 3095.88L4162.9 3178.41L4246.39 3134.89L4329.69 3091.31L4307.69 3049.54L4285.69 3007.77L4326.87 2986.08L4368.06 2964.39L4412.06 3047.93L4456.06 3131.47L4414.88 3153.16L4373.7 3174.85L4395.39 3216.03L4417.08 3257.21L4375.31 3279.21L4333.54 3301.21L4355.54 3342.98L4377.54 3384.75L4419.31 3362.75L4461.08 3340.75L4482.95 3382.28L4504.77 3423.7L4527.24 3411.56C4539.65 3404.88 4558.17 3394.97 4568.29 3389.64L4586.82 3379.73L4543.49 3296.89L4500.34 3214.11L4541.68 3191.88L4582.98 3169.83L4561.29 3128.65L4539.6 3087.46L4581.25 3065.82C4617.21 3047.34 4622.98 3044.6 4623.9 3046.06C4624.52 3046.94 4634.36 3065.35 4645.82 3086.82L4666.52 3125.83L4707.7 3104.13L4748.88 3082.44L4770.88 3124.21L4792.88 3165.98L4751.7 3187.97L4710.59 3210.08L4732.04 3251.08L4753.31 3292.04L4712.31 3314.08L4671.26 3336L4714.78 3419.49L4758.36 3502.8L4799.65 3480.75L4841 3458.52L4819.55 3417.22L4798.09 3375.91L4839.09 3353.87L4880.26 3331.88L4858.63 3290.82C4839.23 3253.99 4837.18 3249.51 4838.51 3248.06C4839.32 3247.03 4876.26 3227.27 4920.39 3204.03C4983.04 3171.18 5001.23 3162.05 5002.85 3162.55C5004.11 3163.24 5018.9 3190.47 5047.6 3245.24L5090.44 3327.14L5049.21 3349.31L5007.8 3371.42L5029.44 3413.08L5050.9 3454.68L5010.96 3475.87C4988.96 3487.46 4970.37 3497.55 4969.67 3497.92C4968.62 3498.77 4973.1 3508.14 4989.95 3540.14L5011.64 3581.32L5094.82 3537.21L5177.82 3493.04L5156.99 3452.91C5145.52 3430.85 5135.84 3412.2 5135.41 3411.37C5134.97 3410.25 5144.66 3404.69 5175.73 3388.33L5216.49 3366.71L5195.16 3325.34L5173.7 3284.04L5215.47 3262.04L5257.24 3240.04L5278.93 3281.22L5300.62 3322.4L5341.8 3300.71L5382.98 3279.02L5404.98 3320.79L5426.98 3362.55L5385.8 3384.25L5344.62 3405.94L5366.26 3447.59L5387.72 3489.2L5304.96 3533.24L5222.13 3577.17L5243.63 3617.4C5255.51 3639.4 5265.36 3657.81 5265.67 3658.39C5265.92 3658.87 5284.69 3649.43 5307.28 3637.53L5348.46 3615.84L5370.47 3657.61L5392.47 3699.38L5434.24 3677.38L5476 3655.37L5519.7 3738.32L5563.39 3821.27L5480.44 3864.97C5402.31 3906.12 5397.42 3908.54 5396.32 3906.72C5395.7 3905.54 5375.88 3868.49 5352.4 3824.19L5309.59 3743.78L5268.11 3765.18L5226.57 3786.76L5248.15 3828.3L5269.67 3870.02L5228.61 3891.94L5187.55 3913.87L5208.95 3955.35L5230.41 3996.66L5313.72 3953.08L5397.21 3909.56L5462.59 4033.69L5527.97 4157.82L5486.74 4179.98L5445.33 4202.1L5423.41 4161.04L5401.3 4119.93L5360 4141.38L5318.69 4162.84L5296.52 4121.61L5274.41 4080.2L5232.99 4101.71L5191.62 4123.05L5169.7 4082L5147.77 4040.94L5106.05 4062.46L5064.51 4084.04L5108.5 4166.99L5152.54 4249.75L5193.85 4228.29L5235.15 4206.84L5257.08 4247.9L5279.12 4288.89L5320.49 4267.55L5361.79 4246.1L5383.79 4287.87L5405.79 4329.64L5364.38 4351.45L5322.84 4373.33L5344.89 4414.32L5366.93 4455.32L5325.05 4477.38L5283.28 4499.38L5261.59 4458.2L5239.89 4417.02L5198.35 4438.6L5156.63 4460.12L5112.59 4377.36L5068.66 4294.53L5028.43 4316.02C5006.43 4327.91 4988.02 4337.76 4987.55 4338C4986.97 4338.31 4996.4 4357.09 5008.3 4379.68L5029.99 4420.86L4988.22 4442.86L4946.46 4464.86L4968.46 4506.63L4990.46 4548.4L5032.23 4526.4L5073.99 4504.4L5095.69 4545.58L5117.38 4586.76L5158.56 4565.07L5199.74 4543.38L5221.74 4585.15L5243.74 4626.92L5285.51 4604.92L5327.28 4582.92L5348.86 4624.46L5370.38 4666.18L5246.25 4731.56L5122.12 4796.94L5099.95 4755.71L5077.84 4714.3L5036.18 4735.94L4994.58 4757.4L4973.46 4718.17C4961.94 4696.59 4951.97 4677.94 4951.41 4676.88C4950.36 4674.88 4947.59 4676.19 4909.12 4696.46L4867.94 4718.15L4911.81 4801.45L4955.63 4884.63L4997.05 4862.82L5038.46 4841.01L5060.27 4882.12L5081.96 4923.3L5123.68 4901.78L5165.22 4880.2L5187.22 4921.97L5209.22 4963.74L5167.81 4985.55L5126.27 5007.43L5148.15 5048.97L5169.96 5090.38L5128.91 5112.31L5087.85 5134.23L5043.45 5051.36L4999.04 4968.48L4916.09 5012.17L4833.14 5055.86L4853.67 5095.4C4864.95 5117.12 4874.69 5135.89 4875.31 5137.06C4876.18 5139.01 4873.42 5140.61 4835.06 5160.82L4793.88 5182.51L4815.46 5224.05L4836.99 5265.77L4796.04 5287.33C4773.57 5299.17 4754.8 5308.91 4754.26 5308.74ZM4762.71 4720.97L4741.02 4679.79L4782.43 4657.67L4823.66 4635.51L4802.2 4593.9L4780.56 4552.25L4655.84 4617.94L4531.12 4683.63L4553.12 4725.4L4575.12 4767.17L4616.66 4745.59L4658.38 4724.06L4679.57 4764.01C4691.27 4785.95 4701.06 4804.24 4701.49 4804.77C4701.73 4805.24 4720.63 4795.74 4743.22 4783.84L4784.4 4762.15L4762.71 4720.97ZM4465.61 4559.26L4443.73 4517.73L4484.91 4495.74L4525.9 4473.7L4504.96 4434.23C4493.5 4412.46 4483.94 4393.74 4483.79 4392.32C4483.63 4390.3 4487.51 4387.96 4524.57 4368.44L4565.63 4346.81L4587.63 4388.58L4609.63 4430.35L4651.4 4408.35L4693.17 4386.35L4715.05 4427.88L4736.93 4469.41L4819.45 4425.49L4901.8 4381.52L4880.53 4340.27L4859.07 4298.96L4817.53 4320.54L4775.81 4342.07L4757.61 4308.07C4747.52 4289.49 4737.54 4270.84 4735.44 4266.84L4731.53 4259.43L4690.35 4281.12L4649.17 4302.81L4605.48 4219.86L4561.79 4136.91L4644.74 4093.22L4727.69 4049.53L4749.8 4090.94L4771.97 4132.17L4813.21 4110.59L4854.52 4089.14L4876.62 4130.25L4898.61 4171.42L4939.79 4149.73L4980.97 4128.04L4937.28 4045.09L4893.59 3962.14L4852.41 3983.83L4811.23 4005.52L4789.23 3963.75L4767.23 3921.99L4725.46 3943.99L4683.69 3965.99L4662 3924.81L4640.31 3883.63L4682.08 3861.62L4723.85 3839.62L4701.84 3797.85L4679.84 3756.09L4721.02 3734.39L4762.21 3712.7L4718.51 3629.75L4674.82 3546.8L4633.64 3568.49L4592.46 3590.19L4614.1 3631.84L4635.56 3673.45L4594.38 3695.14L4553.2 3716.83L4574.73 3758.55L4596.31 3800.09L4513.36 3843.78L4430.41 3887.47L4386.71 3804.52L4343.02 3721.57L4384.2 3699.88L4425.39 3678.19L4421.85 3671.48C4419.99 3667.65 4410.25 3648.88 4400.33 3629.76L4382.28 3594.93L4423.63 3572.7L4464.92 3550.65L4442.81 3509.24L4420.64 3468.01L4338.28 3511.39L4255.92 3554.77L4277.38 3596.37L4299.02 3638.03L4257.61 3660.14L4216.38 3682.31L4237.91 3724.03L4259.49 3765.57L4217.83 3787.21L4176.23 3808.67L4154.92 3768.79C4143.09 3746.91 4133.12 3728.27 4132.75 3727.56C4132.13 3726.39 4122.89 3730.8 4090.76 3747.72L4049.58 3769.41L4027.53 3728.12L4005.3 3686.77L3922.94 3730.16L3840.58 3773.54L3862.1 3815.26L3883.68 3856.8L3924.86 3835.11L3966.05 3813.42L3988.16 3854.83L4010.33 3896.06L4052.04 3874.53L4093.59 3852.95L4137.28 3935.9L4180.97 4018.85L4098.02 4062.54L4015.07 4106.24L3993.02 4064.94L3970.79 4023.59L3931.31 4044.24C3909.6 4055.52 3890.83 4065.26 3889.71 4065.7C3887.65 4066.64 3886.04 4063.87 3865.84 4025.52L3844.15 3984.34L3802.73 4006.15L3761.2 4028.03L3804.89 4110.98L3848.58 4193.93L3890.11 4172.05L3931.53 4150.24L3953.53 4192.01L3975.53 4233.77L4017.3 4211.77L4059.07 4189.77L4080.76 4230.95L4102.45 4272.14L4060.68 4294.14L4018.91 4316.14L4040.91 4357.91L4062.91 4399.67L4021.5 4421.49L3979.96 4443.37L4023.65 4526.02L4067.27 4608.55L4108.75 4587.15L4150.3 4565.57L4128.48 4524.16L4106.6 4482.62L4148.14 4460.75L4189.55 4438.93L4168.09 4397.33L4146.45 4355.67L4229.4 4311.98L4312.35 4268.29L4356.04 4351.24L4399.73 4434.19L4358.44 4456.24L4317.09 4478.47L4338.62 4520.19L4360.2 4561.73L4319.02 4583.42L4277.83 4605.11L4299.71 4646.65L4321.59 4688.18L4404.54 4644.49L4487.43 4600.68L4465.61 4559.26ZM3875.01 4445.29L3853.01 4403.52L3894.78 4381.52L3936.43 4359.58L3914.69 4318.88L3892.89 4278.05L3768.34 4343.21L3643.73 4408.54L3650.98 4422.31C3654.89 4430.02 3663.95 4447.49 3670.96 4461.08C3677.91 4474.86 3684.47 4487.03 3685.51 4488.44L3687.35 4490.78L3728.41 4469.15L3769.47 4447.52L3791.47 4489.29L3813.47 4531.06L3855.24 4509.06L3897.01 4487.06L3875.01 4445.29ZM5053.19 3860.8C5049.59 3853.67 5039.85 3834.9 5031.61 3819.26L5016.66 3790.6L5057.85 3768.91L5099.03 3747.22L5077.34 3706.04L5055.65 3664.86L4972.7 3708.55L4889.75 3752.24L4933.44 3835.19L4977.13 3918.14L5018.54 3896.03L5059.77 3873.86L5053.19 3860.8ZM4189.59 3430.84L4167.36 3389.49L4125.76 3410.95L4084.1 3432.59L4062.41 3391.41L4040.72 3350.23L3999.54 3371.92C3976.95 3383.82 3958.43 3394.03 3958.74 3394.62C3958.87 3395.15 3967.62 3412.33 3978.22 3432.75C3988.71 3453.23 3998.01 3471.47 3999.01 3473.36L4000.56 3476.59L3959.38 3498.29L3918.2 3519.98L3940.2 3561.75L3962.2 3603.51L4086.92 3537.82L4211.64 3472.13L4189.59 3430.84ZM4184.67 3220.6L4163.21 3179L4121.79 3200.82L4080.26 3222.69L4102.26 3264.46L4124.26 3306.23L4165.31 3284.3L4206.31 3262.26L4184.67 3220.6Z" fill="black"/>
<path d="M4394.71 4223.71C4394.05 4223.31 4391.52 4219.08 4388.98 4214.25C4386.56 4209.37 4376.77 4191.07 4367.54 4173.54L4350.5 4141.48L4309.32 4163.17L4268.14 4184.87L4246.45 4143.68L4224.76 4102.5L4265.94 4080.81L4307.12 4059.12L4286.17 4019.06C4274.7 3996.99 4264.96 3978.22 4264.71 3977.45C4264.2 3976.22 4273.25 3970.85 4305.37 3953.63L4346.66 3931.58L4368.66 3973.35L4390.66 4015.12L4432.43 3993.12L4474.2 3971.12L4495.89 4012.3L4517.58 4053.48L4476.29 4075.53L4434.94 4097.76L4456.46 4139.48L4478.04 4181.02L4436.86 4202.71C4414.27 4214.61 4395.31 4223.99 4394.71 4223.71Z" fill="black"/>
<path d="M3104.98 4798.27L3061.29 4715.32L3144.13 4671.69L3226.96 4628.06L3228.85 4630.52C3229.83 4631.81 3249.65 4668.86 3272.71 4712.93L3314.85 4792.94L3231.85 4837.11L3148.68 4881.22L3104.98 4798.27Z" fill="black"/>
<path d="M5514.38 3529.2L5470.69 3446.25L5553.77 3402.79L5636.9 3359.46L5680.7 3442.05L5724.56 3524.46L5641.38 3568.27L5558.07 3612.15L5514.38 3529.2Z" fill="black"/>
<path d="M3656.11 3021.19C3655.58 3021.03 3645.31 3002.39 3633.41 2979.8L3611.84 2938.85L3653.02 2916.86L3694.01 2894.82L3672.2 2853.4L3650.2 2811.93L3691.97 2789.93L3733.74 2767.93L3755.85 2809.34L3778.02 2850.57L3819.74 2829.05L3861.28 2807.47L3882.91 2848.53C3901.87 2884.53 3904.36 2889.84 3903.03 2891.29C3901.05 2893.53 3657.55 3021.64 3656.11 3021.19Z" fill="black"/>
</g>
<g opacity="0.06" clip-path="url(#clip1_2078_681)">
<path d="M2622.17 5425.86L2600.17 5384.09L2641.35 5362.1L2682.34 5340.06L2661.4 5300.58C2649.94 5278.82 2640.38 5260.1 2640.18 5258.86C2640.08 5256.96 2644.89 5254.12 2679.01 5235.85C2700.54 5224.51 2719.14 5215.01 2720.44 5214.93C2722.7 5214.64 2724.74 5218.23 2744.44 5255.64L2766.07 5296.71L2807.84 5274.7L2849.61 5252.7L2871.25 5294.36L2892.71 5335.96L2768.53 5401.82L2644.17 5467.63L2622.17 5425.86Z" fill="black"/>
<path d="M2473.38 5344.31C2473.02 5344.2 2462.93 5325.61 2451.03 5303.02L2429.46 5262.08L2388.28 5283.77L2347.1 5305.46L2325.1 5263.69L2303.1 5221.92L2344.28 5200.23L2385.46 5178.54L2363.88 5137L2342.36 5095.28L2374 5078.31C2391.47 5068.96 2410 5059.05 2415.35 5056.08L2425 5051L2381.31 4968.05L2337.62 4885.1L2296.32 4907.15L2254.98 4929.38L2276.5 4971.1L2298.08 5012.64L2256.9 5034.33L2215.72 5056.02L2237.17 5097.33L2258.51 5138.69L2219.34 5159.92C2197.82 5171.56 2179.23 5181.65 2178.24 5182.33C2176.3 5183.5 2177.67 5186.38 2197.87 5224.74L2219.56 5265.92L2178.26 5287.38L2136.89 5308.71L2071.51 5184.58L2006.13 5060.45L2047.12 5038.41L2088.18 5016.48L2066.49 4975.3L2044.8 4934.12L2086.21 4912.01L2127.44 4889.84L2105.98 4848.24L2084.33 4806.58L2001.38 4850.27C1935.85 4884.79 1918.62 4894.32 1919.12 4895.56C1919.49 4896.26 1929.23 4915.03 1940.7 4937.1L1961.54 4977.22L1920.31 4999.39L1878.9 5021.5L1900.59 5062.69L1922.28 5103.87L1880.51 5125.87L1838.74 5147.87L1817.05 5106.69L1795.36 5065.51L1753.94 5087.02L1712.57 5108.36L1697.26 5079.3C1688.77 5063.18 1679.1 5044.53 1675.5 5037.7L1669 5025.35L1710.18 5003.66L1751.36 4981.97L1729.78 4940.43L1708.38 4898.94L1791.27 4855.13L1874.15 4811.32L1852.46 4770.14L1830.77 4728.96L1706.22 4794.12C1606.91 4846.12 1581.74 4859.68 1582.24 4860.92C1582.67 4861.75 1592.41 4880.52 1603.88 4902.58L1624.72 4942.71L1583.6 4964.52L1542.48 4986.32L1563.94 5027.93L1585.46 5069.35L1543.69 5091.35L1501.92 5113.35L1458.23 5030.4L1414.54 4947.45L1456.31 4925.45L1498.08 4903.45L1476.07 4861.68L1454.07 4819.91L1495.61 4798.03L1537.02 4776.22L1515.33 4735.04L1493.64 4693.86L1452.28 4715.2L1410.97 4736.65L1388.8 4695.42L1366.69 4654.01L1324.92 4676.01L1283.15 4698.01L1326.84 4780.96L1370.54 4863.91L1246.05 4929.18L1121.38 4994.4L1099.81 4953.45L1078.24 4912.51L1119.3 4890.58L1160.36 4868.65L1138.89 4827.05L1117.25 4785.39L1159.02 4763.39L1200.79 4741.39L1178.79 4699.62L1156.79 4657.86L1197.97 4636.16L1239.15 4614.47L1217.46 4573.29L1195.77 4532.11L1112.82 4575.8L1029.87 4619.49L1007.87 4577.73L985.87 4535.96L944.447 4557.47L902.963 4578.87L881.037 4537.82L859.228 4496.7L900.409 4475.01L941.59 4453.32L920.129 4411.71L898.487 4370.06L940.256 4348.06L982.026 4326.06L1003.9 4367.59L1025.78 4409.12L1066.9 4387.31L1108.02 4365.51L1129.89 4407.04L1151.77 4448.57L1234.95 4404.46L1317.95 4360.29L1296.26 4319.11L1274.63 4278.05L1233.32 4299.5L1192.08 4321.08L1169.91 4279.85L1147.93 4238.67L1106.27 4260.31L1064.67 4281.78L1020.87 4199.48C982.768 4127.72 977.302 4116.77 978.584 4115.49C979.277 4114.52 1016.63 4094.7 1061.52 4071.21L1143.18 4028.49L1165.11 4069.55L1186.92 4110.67L1228.4 4089.27L1269.82 4067.75L1291.83 4109.52L1313.83 4151.29L1355.24 4129.18L1396.47 4107.01L1352.77 4024.06L1309.08 3941.11L1267.78 3962.57L1226.47 3984.02L1204.43 3943.03L1182.44 3901.85L1141.02 3923.37L1099.65 3944.71L1077.96 3903.53L1056.27 3862.35L1097.27 3840.3L1138.44 3818.31L1116.75 3777.13L1095.06 3735.95L1136.83 3713.95L1178.6 3691.95L1200.29 3733.13L1221.98 3774.31L1263.64 3752.67L1305.24 3731.21L1348.81 3813.92L1392.31 3896.52L1433.85 3874.64L1475.26 3852.83L1453.57 3811.65L1431.88 3770.47L1473.65 3748.47L1515.42 3726.47L1493.37 3685.18L1471.14 3643.83L1429.54 3665.29L1387.88 3686.93L1366.19 3645.75L1344.5 3604.57L1303.19 3626.02L1261.83 3647.36L1218.14 3564.41L1174.33 3481.52L1215.44 3459.42L1256.5 3437.49L1278.5 3479.26L1300.5 3521.03L1383.45 3477.34L1466.4 3433.65L1488.51 3475.06L1510.68 3516.29L1552.4 3494.76L1593.94 3473.19L1549.94 3389.65L1505.93 3306.11L1422.98 3349.8L1340.03 3393.49L1296.34 3310.54L1252.65 3227.59L1335.6 3183.9L1418.55 3140.21L1440.55 3181.98L1462.55 3223.75L1503.98 3202.23L1545.46 3180.83L1567.08 3221.3L1588.69 3261.77L1630.29 3240.31L1671.83 3218.73L1650.14 3177.55L1628.45 3136.36L1669.86 3114.25L1711.09 3092.08L1689.63 3050.48L1667.99 3008.82L1750.94 2965.13L1833.89 2921.44L1855.89 2963.21L1877.89 3004.98L1836.36 3026.86L1794.82 3048.73L1838.39 3131.45L1882.01 3213.98L1965.5 3170.46L2048.81 3126.88L2026.81 3085.11L2004.81 3043.34L2045.99 3021.65L2087.17 2999.96L2131.17 3083.5L2175.17 3167.04L2133.99 3188.73L2092.81 3210.42L2114.5 3251.6L2136.19 3292.78L2094.43 3314.78L2052.66 3336.78L2074.66 3378.55L2096.66 3420.32L2138.43 3398.32L2180.2 3376.32L2202.07 3417.85L2223.89 3459.27L2246.35 3447.13C2258.76 3440.45 2277.29 3430.54 2287.41 3425.21L2305.94 3415.3L2262.61 3332.46L2219.45 3249.68L2260.8 3227.45L2302.09 3205.4L2280.4 3164.22L2258.71 3123.04L2300.37 3101.39C2336.33 3082.91 2342.1 3080.17 2343.02 3081.64C2343.63 3082.51 2353.48 3100.93 2364.94 3122.4L2385.63 3161.4L2426.81 3139.71L2467.99 3118.01L2489.99 3159.78L2512 3201.55L2470.82 3223.54L2429.71 3245.65L2451.16 3286.65L2472.43 3327.61L2431.43 3349.65L2390.37 3371.58L2433.9 3455.06L2477.48 3538.37L2518.77 3516.32L2560.12 3494.09L2538.66 3452.79L2517.21 3411.48L2558.2 3389.44L2599.38 3367.45L2577.75 3326.39C2558.35 3289.56 2556.29 3285.09 2557.63 3283.63C2558.44 3282.6 2595.38 3262.84 2639.5 3239.6C2702.16 3206.75 2720.35 3197.62 2721.96 3198.12C2723.23 3198.81 2738.02 3226.04 2766.72 3280.81L2809.56 3362.71L2768.33 3384.88L2726.92 3406.99L2748.56 3448.65L2770.02 3490.25L2730.08 3511.44C2708.08 3523.03 2689.49 3533.12 2688.79 3533.49C2687.73 3534.34 2692.21 3543.71 2709.07 3575.71L2730.76 3616.89L2813.94 3572.78L2896.94 3528.61L2876.1 3488.48C2864.63 3466.42 2854.96 3447.77 2854.52 3446.94C2854.08 3445.82 2863.78 3440.26 2894.84 3423.9L2935.61 3402.28L2914.27 3360.91L2892.82 3319.61L2934.59 3297.61L2976.36 3275.61L2998.05 3316.79L3019.74 3357.97L3060.92 3336.28L3102.1 3314.59L3124.1 3356.36L3146.1 3398.13L3104.92 3419.82L3063.74 3441.51L3085.38 3483.16L3106.84 3524.77L3024.08 3568.81L2941.25 3612.74L2962.74 3652.97C2974.63 3674.97 2984.48 3693.38 2984.79 3693.97C2985.03 3694.44 3003.81 3685 3026.4 3673.1L3067.58 3651.41L3089.58 3693.18L3111.58 3734.95L3153.35 3712.95L3195.12 3690.95L3238.81 3773.9L3282.5 3856.85L3199.55 3900.54C3121.43 3941.69 3116.54 3944.11 3115.43 3942.29C3114.81 3941.11 3094.99 3904.06 3071.51 3859.76L3028.71 3779.35L2987.22 3800.75L2945.68 3822.33L2967.26 3863.87L2988.79 3905.59L2947.73 3927.51L2906.67 3949.44L2928.07 3990.93L2949.53 4032.23L3032.84 3988.65L3116.33 3945.13L3181.71 4069.26L3247.09 4193.39L3205.86 4215.56L3164.45 4237.67L3142.52 4196.61L3120.42 4155.5L3079.11 4176.95L3037.81 4198.41L3015.64 4157.18L2993.53 4115.77L2952.11 4137.29L2910.74 4158.62L2888.81 4117.57L2866.89 4076.51L2825.17 4098.03L2783.63 4119.61L2827.62 4202.56L2871.66 4285.32L2912.96 4263.86L2954.27 4242.41L2976.2 4283.47L2998.24 4324.46L3039.61 4303.12L3080.91 4281.67L3102.91 4323.44L3124.91 4365.21L3083.5 4387.02L3041.96 4408.9L3064.01 4449.89L3086.05 4490.89L3044.16 4512.95L3002.39 4534.95L2980.7 4493.77L2959.01 4452.59L2917.47 4474.17L2875.75 4495.69L2831.71 4412.93L2787.78 4330.1L2747.55 4351.59C2725.55 4363.48 2707.14 4373.33 2706.67 4373.58C2706.08 4373.89 2715.52 4392.66 2727.42 4415.25L2749.11 4456.43L2707.34 4478.43L2665.57 4500.43L2687.57 4542.2L2709.57 4583.97L2751.34 4561.97L2793.11 4539.97L2814.8 4581.15L2836.49 4622.33L2877.67 4600.64L2918.85 4578.95L2940.86 4620.72L2962.86 4662.49L3004.63 4640.49L3046.39 4618.49L3067.97 4660.03L3089.5 4701.75L2965.37 4767.13L2841.24 4832.51L2819.07 4791.28L2796.96 4749.87L2755.3 4771.51L2713.7 4792.98L2692.58 4753.75C2681.06 4732.16 2671.09 4713.51 2670.53 4712.45C2669.48 4710.45 2666.71 4711.76 2628.24 4732.03L2587.05 4753.72L2630.93 4837.02L2674.75 4920.21L2716.16 4898.39L2757.58 4876.58L2779.39 4917.69L2801.08 4958.88L2842.8 4937.35L2884.34 4915.77L2906.34 4957.54L2928.34 4999.31L2886.92 5021.13L2845.39 5043L2867.27 5084.54L2889.08 5125.95L2848.02 5147.88L2806.97 5169.8L2762.56 5086.93L2718.16 5004.05L2635.21 5047.74L2552.26 5091.44L2572.79 5130.98C2584.07 5152.69 2593.81 5171.46 2594.43 5172.63C2595.3 5174.58 2592.54 5176.18 2554.18 5196.39L2513 5218.08L2534.58 5259.62L2556.1 5301.34L2515.16 5322.9C2492.69 5334.74 2473.92 5344.48 2473.38 5344.31ZM2481.83 4756.54L2460.14 4715.36L2501.55 4693.24L2542.78 4671.08L2521.31 4629.47L2499.67 4587.82L2374.95 4653.51L2250.23 4719.2L2272.23 4760.97L2294.24 4802.74L2335.78 4781.16L2377.5 4759.64L2398.68 4799.58C2410.39 4821.52 2420.18 4839.81 2420.6 4840.34C2420.85 4840.81 2439.75 4831.31 2462.34 4819.41L2503.52 4797.72L2481.83 4756.54ZM2184.73 4594.83L2162.85 4553.3L2204.03 4531.31L2245.02 4509.27L2224.08 4469.8C2212.62 4448.03 2203.06 4429.32 2202.91 4427.89C2202.75 4425.87 2206.62 4423.53 2243.69 4404.01L2284.75 4382.38L2306.75 4424.15L2328.75 4465.92L2370.52 4443.92L2412.29 4421.92L2434.17 4463.45L2456.04 4504.98L2538.57 4461.06L2620.92 4417.09L2599.65 4375.84L2578.19 4334.53L2536.65 4356.11L2494.93 4377.64L2476.72 4343.64C2466.63 4325.06 2456.66 4306.41 2454.55 4302.41L2450.65 4295L2409.47 4316.69L2368.29 4338.38L2324.6 4255.43L2280.91 4172.48L2363.86 4128.79L2446.81 4085.1L2468.92 4126.51L2491.09 4167.74L2532.33 4146.16L2573.63 4124.71L2595.74 4165.82L2617.73 4206.99L2658.91 4185.3L2700.09 4163.61L2656.4 4080.66L2612.71 3997.71L2571.53 4019.4L2530.34 4041.09L2508.34 3999.33L2486.34 3957.56L2444.57 3979.56L2402.81 4001.56L2381.11 3960.38L2359.42 3919.2L2401.19 3897.2L2442.96 3875.19L2420.96 3833.43L2398.96 3791.66L2440.14 3769.97L2481.32 3748.28L2437.63 3665.33L2393.94 3582.38L2352.76 3604.07L2311.58 3625.76L2333.22 3667.41L2354.68 3709.02L2313.5 3730.71L2272.32 3752.4L2293.84 3794.12L2315.42 3835.66L2232.47 3879.35L2149.52 3923.04L2105.83 3840.09L2062.14 3757.14L2103.32 3735.45L2144.5 3713.76L2140.97 3707.05C2139.1 3703.22 2129.37 3684.46 2119.45 3665.33L2101.4 3630.5L2142.75 3608.27L2184.04 3586.22L2161.93 3544.81L2139.76 3503.58L2057.4 3546.96L1975.04 3590.34L1996.5 3631.94L2018.14 3673.6L1976.73 3695.71L1935.5 3717.88L1957.02 3759.6L1978.6 3801.14L1936.94 3822.78L1895.34 3844.24L1874.04 3804.36C1862.21 3782.49 1852.24 3763.84 1851.87 3763.13C1851.25 3761.96 1842 3766.38 1809.88 3783.29L1768.7 3804.99L1746.65 3763.69L1724.42 3722.34L1642.06 3765.73L1559.7 3809.11L1581.22 3850.83L1602.8 3892.37L1643.98 3870.68L1685.16 3848.99L1707.27 3890.4L1729.44 3931.63L1771.16 3910.1L1812.7 3888.52L1856.39 3971.47L1900.08 4054.42L1817.13 4098.11L1734.18 4141.81L1712.13 4100.51L1689.91 4059.17L1650.43 4079.81C1628.72 4091.09 1609.95 4100.83 1608.83 4101.27C1606.76 4102.21 1605.16 4099.44 1584.95 4061.09L1563.26 4019.91L1521.85 4041.72L1480.31 4063.6L1524.01 4146.55L1567.7 4229.5L1609.23 4207.62L1650.65 4185.81L1672.65 4227.58L1694.65 4269.35L1736.42 4247.34L1778.19 4225.34L1799.88 4266.53L1821.57 4307.71L1779.8 4329.71L1738.03 4351.71L1760.03 4393.48L1782.03 4435.25L1740.61 4457.06L1699.08 4478.94L1742.76 4561.59L1786.39 4644.12L1827.87 4622.72L1869.41 4601.15L1847.6 4559.73L1825.72 4518.2L1867.25 4496.32L1908.67 4474.5L1887.21 4432.9L1865.57 4391.24L1948.52 4347.55L2031.47 4303.86L2075.16 4386.81L2118.85 4469.76L2077.56 4491.81L2036.21 4514.04L2057.73 4555.76L2079.31 4597.3L2038.13 4618.99L1996.95 4640.68L2018.83 4682.22L2040.7 4723.75L2123.65 4680.06L2206.54 4636.25L2184.73 4594.83ZM1594.13 4480.86L1572.13 4439.09L1613.9 4417.09L1655.55 4395.15L1633.81 4354.45L1612.01 4313.62L1487.46 4378.78L1362.85 4444.11L1370.1 4457.88C1374.01 4465.59 1383.06 4483.06 1390.07 4496.65C1397.03 4510.43 1403.59 4522.6 1404.63 4524.01L1406.46 4526.35L1447.53 4504.72L1488.59 4483.09L1510.59 4524.86L1532.59 4566.63L1574.36 4544.63L1616.13 4522.63L1594.13 4480.86ZM2772.3 3896.37C2768.7 3889.24 2758.97 3870.47 2750.72 3854.83L2735.78 3826.17L2776.96 3804.48L2818.14 3782.79L2796.45 3741.61L2774.76 3700.43L2691.81 3744.12L2608.86 3787.81L2652.55 3870.76L2696.24 3953.71L2737.65 3931.6L2778.88 3909.43L2772.3 3896.37ZM1908.71 3466.41L1886.48 3425.06L1844.88 3446.52L1803.22 3468.16L1781.53 3426.98L1759.84 3385.8L1718.66 3407.49C1696.06 3419.39 1677.54 3429.6 1677.85 3430.19C1677.98 3430.72 1686.73 3447.9 1697.34 3468.32C1707.82 3488.8 1717.13 3507.04 1718.12 3508.93L1719.68 3512.17L1678.5 3533.86L1637.32 3555.55L1659.32 3597.32L1681.32 3639.09L1806.04 3573.39L1930.76 3507.7L1908.71 3466.41ZM1903.79 3256.17L1882.32 3214.57L1840.91 3236.39L1799.37 3258.26L1821.37 3300.03L1843.37 3341.8L1884.43 3319.88L1925.43 3297.83L1903.79 3256.17Z" fill="black"/>
<path d="M2113.83 4259.28C2113.17 4258.88 2110.64 4254.65 2108.1 4249.82C2105.68 4244.94 2095.89 4226.65 2086.66 4209.11L2069.62 4177.06L2028.44 4198.75L1987.26 4220.44L1965.57 4179.26L1943.88 4138.07L1985.06 4116.38L2026.24 4094.69L2005.28 4054.63C1993.81 4032.56 1984.08 4013.79 1983.82 4013.03C1983.32 4011.79 1992.37 4006.42 2024.48 3989.2L2065.78 3967.15L2087.78 4008.92L2109.78 4050.69L2151.55 4028.69L2193.31 4006.69L2215.01 4047.87L2236.7 4089.05L2195.4 4111.1L2154.06 4133.33L2175.58 4175.05L2197.16 4216.59L2155.98 4238.28C2133.39 4250.18 2114.43 4259.56 2113.83 4259.28Z" fill="black"/>
<path d="M824.101 4833.84L780.41 4750.89L863.242 4707.26L946.075 4663.63L947.971 4666.09C948.95 4667.38 968.769 4704.44 991.829 4748.5L1033.97 4828.51L950.972 4872.68L867.793 4916.79L824.101 4833.84Z" fill="black"/>
<path d="M3233.5 3564.77L3189.81 3481.82L3272.88 3438.36L3356.02 3395.03L3399.82 3477.62L3443.68 3560.03L3360.49 3603.84L3277.19 3647.72L3233.5 3564.77Z" fill="black"/>
<path d="M1375.23 3056.76C1374.69 3056.6 1364.42 3037.96 1352.52 3015.37L1330.96 2974.42L1372.13 2952.43L1413.13 2930.39L1391.31 2888.97L1369.32 2847.5L1411.09 2825.5L1452.86 2803.5L1474.97 2844.91L1497.14 2886.14L1538.86 2864.62L1580.4 2843.04L1602.03 2884.1C1620.99 2920.11 1623.48 2925.41 1622.14 2926.86C1620.17 2929.1 1376.67 3057.21 1375.23 3056.76Z" fill="black"/>
</g>
<g opacity="0.06" clip-path="url(#clip2_2078_681)">
<path d="M3247.29 3362.86L3225.29 3321.09L3266.46 3299.1L3307.46 3277.06L3286.52 3237.58C3275.05 3215.82 3265.5 3197.1 3265.29 3195.86C3265.19 3193.96 3270.01 3191.12 3304.13 3172.85C3325.66 3161.51 3344.25 3152.01 3345.56 3151.93C3347.82 3151.64 3349.85 3155.23 3369.56 3192.64L3391.19 3233.71L3432.96 3211.7L3474.73 3189.7L3496.37 3231.36L3517.83 3272.96L3393.65 3338.82L3269.29 3404.63L3247.29 3362.86Z" fill="black"/>
<path d="M3098.49 3281.31C3098.13 3281.2 3088.05 3262.61 3076.15 3240.02L3054.58 3199.08L3013.4 3220.77L2972.22 3242.46L2950.22 3200.69L2928.22 3158.92L2969.4 3137.23L3010.58 3115.54L2989 3074L2967.48 3032.28L2999.12 3015.31C3016.59 3005.96 3035.12 2996.05 3040.47 2993.08L3050.12 2988L3006.43 2905.05L2962.73 2822.1L2921.44 2844.15L2880.09 2866.38L2901.62 2908.1L2923.2 2949.64L2882.02 2971.33L2840.83 2993.02L2862.29 3034.33L2883.63 3075.69L2844.46 3096.92C2822.93 3108.56 2804.35 3118.65 2803.35 3119.33C2801.42 3120.5 2802.79 3123.38 2822.99 3161.74L2844.68 3202.92L2803.37 3224.38L2762.01 3245.72L2696.63 3121.58L2631.24 2997.45L2672.24 2975.41L2713.3 2953.48L2691.6 2912.3L2669.91 2871.12L2711.32 2849.01L2752.55 2826.84L2731.09 2785.24L2709.45 2743.58L2626.5 2787.27C2560.96 2821.79 2543.74 2831.32 2544.24 2832.56C2544.61 2833.26 2554.35 2852.03 2565.82 2874.1L2586.65 2914.23L2545.42 2936.39L2504.01 2958.5L2525.7 2999.69L2547.4 3040.87L2505.63 3062.87L2463.86 3084.87L2442.17 3043.69L2420.48 3002.51L2379.05 3024.02L2337.69 3045.36L2322.38 3016.3C2313.89 3000.18 2304.21 2981.53 2300.62 2974.7L2294.11 2962.35L2335.29 2940.66L2376.47 2918.97L2354.9 2877.43L2333.5 2835.94L2416.38 2792.13L2499.27 2748.33L2477.58 2707.14L2455.89 2665.96L2331.34 2731.12C2232.03 2783.12 2206.85 2796.68 2207.36 2797.92C2207.79 2798.75 2217.53 2817.52 2229 2839.58L2249.83 2879.71L2208.71 2901.52L2167.6 2923.33L2189.06 2964.93L2210.57 3006.35L2168.81 3028.35L2127.04 3050.35L2083.35 2967.4L2039.65 2884.45L2081.42 2862.45L2123.19 2840.45L2101.19 2798.68L2079.19 2756.91L2120.72 2735.03L2162.14 2713.22L2140.45 2672.04L2118.76 2630.86L2077.39 2652.2L2036.09 2673.65L2013.92 2632.42L1991.81 2591.01L1950.04 2613.01L1908.27 2635.01L1951.96 2717.96L1995.65 2800.91L1871.16 2866.18L1746.49 2931.4L1724.93 2890.45L1703.36 2849.51L1744.42 2827.58L1785.47 2805.65L1764.01 2764.05L1742.37 2722.39L1784.14 2700.39L1825.91 2678.39L1803.91 2636.62L1781.91 2594.86L1823.09 2573.16L1864.27 2551.47L1842.58 2510.29L1820.89 2469.11L1737.94 2512.8L1654.99 2556.49L1632.99 2514.73L1610.99 2472.96L1569.56 2494.47L1528.08 2515.87L1506.15 2474.82L1484.35 2433.7L1525.53 2412.01L1566.71 2390.32L1545.25 2348.71L1523.6 2307.06L1565.37 2285.06L1607.14 2263.06L1629.02 2304.59L1650.9 2346.12L1692.01 2324.31L1733.13 2302.51L1755.01 2344.04L1776.89 2385.57L1860.07 2341.46L1943.07 2297.29L1921.37 2256.11L1899.75 2215.05L1858.44 2236.5L1817.2 2258.08L1795.03 2216.85L1773.04 2175.67L1731.39 2197.31L1689.78 2218.78L1645.99 2136.48C1607.89 2064.72 1602.42 2053.77 1603.7 2052.49C1604.39 2051.53 1641.75 2031.7 1686.64 2008.21L1768.3 1965.49L1790.23 2006.55L1812.03 2047.67L1853.52 2026.27L1894.94 2004.75L1916.94 2046.52L1938.94 2088.29L1980.35 2066.18L2021.58 2044.01L1977.89 1961.06L1934.2 1878.11L1892.9 1899.57L1851.59 1921.02L1829.55 1880.03L1807.56 1838.85L1766.14 1860.37L1724.77 1881.71L1703.08 1840.53L1681.39 1799.35L1722.38 1777.3L1763.56 1755.31L1741.87 1714.13L1720.18 1672.95L1761.95 1650.95L1803.72 1628.95L1825.41 1670.13L1847.1 1711.31L1888.75 1689.67L1930.36 1668.21L1973.92 1750.92L2017.43 1833.52L2058.96 1811.65L2100.38 1789.83L2078.69 1748.65L2057 1707.47L2098.77 1685.47L2140.54 1663.47L2118.49 1622.18L2096.26 1580.83L2054.65 1602.29L2013 1623.93L1991.31 1582.75L1969.62 1541.57L1928.31 1563.02L1886.94 1584.36L1843.25 1501.41L1799.44 1418.52L1840.56 1396.42L1881.61 1374.49L1903.61 1416.26L1925.61 1458.03L2008.56 1414.34L2091.51 1370.65L2113.63 1412.06L2135.79 1453.29L2177.51 1431.76L2219.05 1410.19L2175.05 1326.65L2131.05 1243.11L2048.1 1286.8L1965.15 1330.49L1921.46 1247.54L1877.77 1164.59L1960.72 1120.9L2043.67 1077.21L2065.67 1118.98L2087.67 1160.75L2129.09 1139.23L2170.58 1117.83L2192.19 1158.3L2213.81 1198.77L2255.41 1177.31L2296.95 1155.73L2275.26 1114.55L2253.57 1073.36L2294.98 1051.25L2336.21 1029.08L2314.75 987.483L2293.11 945.825L2376.06 902.134L2459.01 858.443L2481.01 900.212L2503.01 941.981L2461.47 963.858L2419.94 985.734L2463.51 1068.45L2507.13 1150.98L2590.62 1107.46L2673.93 1063.88L2651.93 1022.11L2629.93 980.342L2671.11 958.651L2712.29 936.96L2756.29 1020.5L2800.29 1104.04L2759.11 1125.73L2717.93 1147.42L2739.62 1188.6L2761.31 1229.78L2719.54 1251.78L2677.77 1273.78L2699.77 1315.55L2721.77 1357.32L2763.54 1335.32L2805.31 1313.32L2827.19 1354.85L2849 1396.27L2871.47 1384.13C2883.88 1377.45 2902.41 1367.54 2912.53 1362.21L2931.06 1352.3L2887.72 1269.46L2844.57 1186.68L2885.92 1164.45L2927.21 1142.4L2905.52 1101.22L2883.83 1060.04L2925.49 1038.39C2961.44 1019.91 2967.21 1017.17 2968.14 1018.64C2968.75 1019.52 2978.6 1037.93 2990.06 1059.4L3010.75 1098.4L3051.93 1076.71L3093.11 1055.02L3115.11 1096.78L3137.11 1138.55L3095.94 1160.54L3054.83 1182.65L3076.27 1223.65L3097.54 1264.61L3056.55 1286.65L3015.49 1308.58L3059.02 1392.06L3102.6 1475.37L3143.89 1453.32L3185.24 1431.09L3163.78 1389.79L3142.33 1348.49L3183.32 1326.44L3224.49 1304.45L3202.87 1263.39C3183.47 1226.56 3181.41 1222.09 3182.75 1220.63C3183.56 1219.6 3220.5 1199.84 3264.62 1176.6C3327.28 1143.75 3345.47 1134.62 3347.08 1135.12C3348.35 1135.81 3363.14 1163.04 3391.84 1217.81L3434.67 1299.71L3393.44 1321.88L3352.03 1343.99L3373.68 1385.65L3395.14 1427.25L3355.19 1448.44C3333.19 1460.03 3314.61 1470.12 3313.9 1470.49C3312.85 1471.34 3317.33 1480.71 3334.19 1512.71L3355.88 1553.89L3439.06 1509.78L3522.06 1465.61L3501.22 1425.48C3489.75 1403.42 3480.08 1384.77 3479.64 1383.94C3479.2 1382.82 3488.9 1377.26 3519.96 1360.9L3560.73 1339.28L3539.39 1297.91L3517.93 1256.61L3559.7 1234.61L3601.47 1212.61L3623.16 1253.79L3644.85 1294.97L3686.03 1273.28L3727.22 1251.59L3749.22 1293.36L3771.22 1335.13L3730.04 1356.82L3688.86 1378.51L3710.5 1420.17L3731.96 1461.77L3649.19 1505.81L3566.37 1549.74L3587.86 1589.97C3599.75 1611.97 3609.59 1630.38 3609.9 1630.97C3610.15 1631.44 3628.93 1622 3651.52 1610.1L3692.7 1588.41L3714.7 1630.18L3736.7 1671.95L3778.47 1649.95L3820.24 1627.95L3863.93 1710.9L3907.62 1793.85L3824.67 1837.54C3746.55 1878.69 3741.66 1881.11 3740.55 1879.29C3739.93 1878.11 3720.11 1841.06 3696.63 1796.76L3653.82 1716.35L3612.34 1737.75L3570.8 1759.33L3592.38 1800.87L3613.9 1842.59L3572.85 1864.51L3531.79 1886.44L3553.19 1927.93L3574.64 1969.23L3657.95 1925.65L3741.44 1882.13L3806.82 2006.26L3872.21 2130.39L3830.98 2152.56L3789.57 2174.67L3767.64 2133.61L3745.53 2092.5L3704.23 2113.95L3662.92 2135.41L3640.76 2094.18L3618.65 2052.77L3577.22 2074.29L3535.86 2095.62L3513.93 2054.57L3492 2013.51L3450.28 2035.03L3408.74 2056.61L3452.73 2139.56L3496.78 2222.32L3538.08 2200.87L3579.39 2179.41L3601.31 2220.47L3623.36 2261.46L3664.72 2240.12L3706.03 2218.67L3728.03 2260.44L3750.03 2302.21L3708.61 2324.02L3667.08 2345.9L3689.12 2386.89L3711.17 2427.89L3669.28 2449.95L3627.51 2471.95L3605.82 2430.77L3584.13 2389.59L3542.59 2411.17L3500.87 2432.69L3456.82 2349.93L3412.9 2267.1L3372.67 2288.59C3350.67 2300.48 3332.26 2310.33 3331.79 2310.58C3331.2 2310.89 3340.64 2329.66 3352.54 2352.25L3374.23 2393.43L3332.46 2415.43L3290.69 2437.43L3312.69 2479.2L3334.69 2520.97L3376.46 2498.97L3418.23 2476.97L3439.92 2518.15L3461.61 2559.33L3502.79 2537.64L3543.97 2515.95L3565.97 2557.72L3587.97 2599.49L3629.74 2577.49L3671.51 2555.49L3693.09 2597.03L3714.61 2638.75L3590.48 2704.13L3466.35 2769.51L3444.19 2728.28L3422.07 2686.87L3380.42 2708.51L3338.81 2729.98L3317.7 2690.75C3306.18 2669.16 3296.21 2650.51 3295.65 2649.45C3294.6 2647.45 3291.83 2648.76 3253.35 2669.03L3212.17 2690.72L3256.05 2774.02L3299.86 2857.21L3341.28 2835.39L3382.7 2813.58L3404.51 2854.69L3426.2 2895.88L3467.92 2874.35L3509.46 2852.77L3531.46 2894.54L3553.46 2936.31L3512.04 2958.13L3470.51 2980L3492.38 3021.54L3514.2 3062.95L3473.14 3084.88L3432.08 3106.8L3387.68 3023.93L3343.28 2941.05L3260.33 2984.74L3177.38 3028.44L3197.9 3067.98C3209.19 3089.69 3218.92 3108.46 3219.54 3109.63C3220.42 3111.58 3217.66 3113.18 3179.3 3133.39L3138.12 3155.08L3159.7 3196.62L3181.22 3238.34L3140.28 3259.9C3117.8 3271.74 3099.03 3281.48 3098.49 3281.31ZM3106.94 2693.54L3085.25 2652.36L3126.66 2630.24L3167.89 2608.08L3146.43 2566.47L3124.79 2524.82L3000.07 2590.51L2875.35 2656.2L2897.35 2697.97L2919.35 2739.74L2960.89 2718.16L3002.61 2696.64L3023.8 2736.58C3035.51 2758.52 3045.29 2776.81 3045.72 2777.34C3045.97 2777.81 3064.86 2768.31 3087.45 2756.41L3128.63 2734.72L3106.94 2693.54ZM2809.85 2531.83L2787.97 2490.3L2829.14 2468.31L2870.14 2446.27L2849.2 2406.8C2837.73 2385.03 2828.18 2366.32 2828.03 2364.89C2827.87 2362.87 2831.74 2360.53 2868.8 2341.01L2909.87 2319.38L2931.87 2361.15L2953.87 2402.92L2995.64 2380.92L3037.41 2358.92L3059.28 2400.45L3081.16 2441.98L3163.69 2398.06L3246.04 2354.09L3224.76 2312.84L3203.31 2271.53L3161.77 2293.11L3120.05 2314.64L3101.84 2280.64C3091.75 2262.06 3081.78 2243.41 3079.67 2239.41L3075.77 2232L3034.59 2253.69L2993.41 2275.38L2949.71 2192.43L2906.02 2109.48L2988.97 2065.79L3071.92 2022.1L3094.04 2063.51L3116.2 2104.74L3157.45 2083.16L3198.75 2061.71L3220.86 2102.82L3242.84 2143.99L3284.03 2122.3L3325.21 2100.61L3281.51 2017.66L3237.82 1934.71L3196.64 1956.4L3155.46 1978.09L3133.46 1936.33L3111.46 1894.56L3069.69 1916.56L3027.92 1938.56L3006.23 1897.38L2984.54 1856.2L3026.31 1834.2L3068.08 1812.19L3046.08 1770.43L3024.08 1728.66L3065.26 1706.97L3106.44 1685.28L3062.75 1602.33L3019.06 1519.38L2977.88 1541.07L2936.7 1562.76L2958.34 1604.41L2979.8 1646.02L2938.62 1667.71L2897.44 1689.4L2918.96 1731.12L2940.54 1772.66L2857.59 1816.35L2774.64 1860.04L2730.95 1777.09L2687.26 1694.14L2728.44 1672.45L2769.62 1650.76L2766.09 1644.05C2764.22 1640.23 2754.49 1621.46 2744.56 1602.33L2726.52 1567.5L2767.86 1545.27L2809.16 1523.22L2787.04 1481.81L2764.88 1440.58L2682.52 1483.96L2600.15 1527.34L2621.62 1568.94L2643.26 1610.6L2601.85 1632.71L2560.62 1654.88L2582.14 1696.6L2603.72 1738.14L2562.06 1759.78L2520.46 1781.24L2499.15 1741.36C2487.33 1719.49 2477.36 1700.84 2476.99 1700.13C2476.37 1698.96 2467.12 1703.38 2435 1720.29L2393.82 1741.99L2371.77 1700.69L2349.54 1659.35L2267.18 1702.73L2184.82 1746.11L2206.34 1787.83L2227.92 1829.37L2269.1 1807.68L2310.28 1785.99L2332.39 1827.4L2354.56 1868.63L2396.28 1847.1L2437.82 1825.52L2481.51 1908.47L2525.2 1991.42L2442.25 2035.11L2359.3 2078.81L2337.25 2037.51L2315.02 1996.17L2275.54 2016.81C2253.83 2028.09 2235.06 2037.83 2233.94 2038.27C2231.88 2039.21 2230.28 2036.44 2210.07 1998.09L2188.38 1956.91L2146.96 1978.72L2105.43 2000.6L2149.12 2083.55L2192.81 2166.5L2234.35 2144.62L2275.76 2122.81L2297.76 2164.58L2319.76 2206.35L2361.53 2184.34L2403.3 2162.34L2424.99 2203.53L2446.68 2244.71L2404.92 2266.71L2363.15 2288.71L2385.15 2330.48L2407.15 2372.25L2365.73 2394.06L2324.2 2415.94L2367.88 2498.59L2411.5 2581.12L2452.99 2559.72L2494.53 2538.15L2472.71 2496.73L2450.84 2455.2L2492.37 2433.32L2533.79 2411.5L2512.33 2369.9L2490.69 2328.24L2573.64 2284.55L2656.59 2240.86L2700.28 2323.81L2743.97 2406.76L2702.68 2428.81L2661.33 2451.04L2682.85 2492.76L2704.43 2534.3L2663.25 2555.99L2622.07 2577.68L2643.95 2619.22L2665.82 2660.75L2748.77 2617.06L2831.66 2573.25L2809.85 2531.83ZM2219.25 2417.86L2197.25 2376.09L2239.02 2354.09L2280.67 2332.15L2258.93 2291.45L2237.12 2250.62L2112.57 2315.78L1987.96 2381.11L1995.22 2394.88C1999.13 2402.59 2008.18 2420.06 2015.19 2433.65C2022.14 2447.43 2028.71 2459.6 2029.75 2461.01L2031.58 2463.35L2072.64 2441.72L2113.71 2420.09L2135.71 2461.86L2157.71 2503.63L2199.48 2481.63L2241.25 2459.63L2219.25 2417.86ZM3397.42 1833.37C3393.82 1826.25 3384.08 1807.48 3375.84 1791.83L3360.9 1763.17L3402.08 1741.48L3443.26 1719.79L3421.57 1678.61L3399.88 1637.43L3316.93 1681.12L3233.98 1724.81L3277.67 1807.76L3321.36 1890.71L3362.77 1868.6L3404 1846.43L3397.42 1833.37ZM2533.82 1403.41L2511.59 1362.06L2469.99 1383.52L2428.33 1405.16L2406.64 1363.98L2384.95 1322.8L2343.77 1344.49C2321.18 1356.39 2302.66 1366.6 2302.97 1367.19C2303.1 1367.72 2311.85 1384.9 2322.45 1405.32C2332.94 1425.8 2342.25 1444.04 2343.24 1445.93L2344.8 1449.17L2303.62 1470.86L2262.43 1492.55L2284.44 1534.32L2306.44 1576.09L2431.15 1510.39L2555.87 1444.7L2533.82 1403.41ZM2528.9 1193.17L2507.44 1151.57L2466.02 1173.39L2424.49 1195.26L2446.49 1237.03L2468.49 1278.8L2509.55 1256.88L2550.54 1234.83L2528.9 1193.17Z" fill="black"/>
<path d="M2738.95 2196.28C2738.28 2195.88 2735.76 2191.65 2733.22 2186.82C2730.79 2181.94 2721.01 2163.65 2711.77 2146.11L2694.74 2114.06L2653.56 2135.75L2612.37 2157.44L2590.68 2116.26L2568.99 2075.07L2610.17 2053.38L2651.35 2031.69L2630.4 1991.63C2618.93 1969.56 2609.19 1950.79 2608.94 1950.03C2608.44 1948.79 2617.49 1943.42 2649.6 1926.2L2690.89 1904.15L2712.89 1945.92L2734.89 1987.69L2776.66 1965.69L2818.43 1943.69L2840.12 1984.87L2861.81 2026.05L2820.52 2048.1L2779.17 2070.33L2800.7 2112.05L2822.28 2153.59L2781.09 2175.28C2758.5 2187.18 2739.55 2196.57 2738.95 2196.28Z" fill="black"/>
<path d="M1449.22 2770.84L1405.53 2687.89L1488.36 2644.26L1571.19 2600.63L1573.09 2603.09C1574.07 2604.38 1593.89 2641.44 1616.95 2685.5L1659.09 2765.51L1576.09 2809.68L1492.91 2853.79L1449.22 2770.84Z" fill="black"/>
<path d="M3858.62 1501.77L3814.93 1418.82L3898 1375.36L3981.14 1332.03L4024.94 1414.62L4068.8 1497.03L3985.61 1540.84L3902.31 1584.72L3858.62 1501.77Z" fill="black"/>
<path d="M2000.35 993.765C1999.81 993.598 1989.54 974.958 1977.64 952.367L1956.08 911.422L1997.25 889.434L2038.24 867.39L2016.43 825.974L1994.44 784.502L2036.21 762.502L2077.97 740.501L2100.09 781.911L2122.25 823.141L2163.97 801.618L2205.51 780.038L2227.14 821.102C2246.11 857.105 2248.6 862.406 2247.26 863.862C2245.29 866.105 2001.79 994.21 2000.35 993.765Z" fill="black"/>
</g>
<g opacity="0.06" clip-path="url(#clip3_2078_681)">
<path d="M5528.17 3327.29L5506.17 3285.52L5547.35 3263.53L5588.34 3241.49L5567.4 3202.01C5555.94 3180.25 5546.38 3161.53 5546.18 3160.29C5546.08 3158.39 5550.89 3155.55 5585.01 3137.28C5606.54 3125.94 5625.14 3116.44 5626.44 3116.36C5628.7 3116.07 5630.74 3119.66 5650.44 3157.07L5672.07 3198.13L5713.84 3176.13L5755.61 3154.13L5777.25 3195.79L5798.71 3237.39L5674.53 3303.25L5550.17 3369.06L5528.17 3327.29Z" fill="black"/>
<path d="M5379.38 3245.74C5379.02 3245.63 5368.93 3227.04 5357.03 3204.45L5335.46 3163.51L5294.28 3185.2L5253.1 3206.89L5231.1 3165.12L5209.1 3123.35L5250.28 3101.66L5291.46 3079.97L5269.88 3038.43L5248.36 2996.71L5280 2979.74C5297.47 2970.39 5316 2960.48 5321.35 2957.51L5331 2952.43L5287.31 2869.48L5243.62 2786.53L5202.32 2808.58L5160.98 2830.81L5182.5 2872.53L5204.08 2914.07L5162.9 2935.76L5121.72 2957.45L5143.17 2998.76L5164.51 3040.12L5125.34 3061.35C5103.82 3072.99 5085.23 3083.08 5084.24 3083.76C5082.3 3084.93 5083.67 3087.81 5103.87 3126.17L5125.56 3167.35L5084.26 3188.81L5042.89 3210.14L4977.51 3086.01L4912.13 2961.88L4953.12 2939.84L4994.18 2917.91L4972.49 2876.73L4950.8 2835.55L4992.21 2813.44L5033.44 2791.27L5011.98 2749.67L4990.33 2708.01L4907.38 2751.7C4841.85 2786.22 4824.62 2795.75 4825.12 2796.99C4825.49 2797.69 4835.23 2816.46 4846.7 2838.53L4867.54 2878.65L4826.31 2900.82L4784.9 2922.93L4806.59 2964.11L4828.28 3005.3L4786.51 3027.3L4744.74 3049.3L4723.05 3008.12L4701.36 2966.93L4659.94 2988.45L4618.57 3009.79L4603.26 2980.73C4594.77 2964.61 4585.1 2945.96 4581.5 2939.13L4575 2926.78L4616.18 2905.09L4657.36 2883.4L4635.78 2841.86L4614.38 2800.37L4697.27 2756.56L4780.15 2712.75L4758.46 2671.57L4736.77 2630.39L4612.22 2695.55C4512.91 2747.55 4487.74 2761.11 4488.24 2762.35C4488.67 2763.18 4498.41 2781.95 4509.88 2804.01L4530.72 2844.14L4489.6 2865.95L4448.48 2887.75L4469.94 2929.36L4491.46 2970.78L4449.69 2992.78L4407.92 3014.78L4364.23 2931.83L4320.54 2848.88L4362.31 2826.88L4404.08 2804.88L4382.07 2763.11L4360.07 2721.34L4401.61 2699.46L4443.02 2677.65L4421.33 2636.47L4399.64 2595.29L4358.28 2616.63L4316.97 2638.08L4294.8 2596.85L4272.69 2555.44L4230.92 2577.44L4189.15 2599.44L4232.84 2682.39L4276.54 2765.34L4152.05 2830.61L4027.38 2895.83L4005.81 2854.88L3984.24 2813.94L4025.3 2792.01L4066.36 2770.08L4044.89 2728.48L4023.25 2686.82L4065.02 2664.82L4106.79 2642.82L4084.79 2601.05L4062.79 2559.28L4103.97 2537.59L4145.15 2515.9L4123.46 2474.72L4101.77 2433.54L4018.82 2477.23L3935.87 2520.92L3913.87 2479.15L3891.87 2437.39L3850.45 2458.9L3808.96 2480.3L3787.04 2439.25L3765.23 2398.13L3806.41 2376.44L3847.59 2354.75L3826.13 2313.14L3804.49 2271.49L3846.26 2249.49L3888.03 2227.48L3909.9 2269.02L3931.78 2310.55L3972.9 2288.74L4014.02 2266.94L4035.89 2308.47L4057.77 2350L4140.95 2305.89L4223.95 2261.72L4202.26 2220.54L4180.63 2179.48L4139.32 2200.93L4098.08 2222.51L4075.91 2181.28L4053.93 2140.1L4012.27 2161.74L3970.67 2183.21L3926.87 2100.91C3888.77 2029.15 3883.3 2018.2 3884.58 2016.92C3885.28 2015.95 3922.63 1996.13 3967.52 1972.63L4049.18 1929.92L4071.11 1970.98L4092.92 2012.1L4134.4 1990.7L4175.82 1969.18L4197.83 2010.95L4219.83 2052.72L4261.24 2030.61L4302.47 2008.44L4258.77 1925.49L4215.08 1842.54L4173.78 1864L4132.47 1885.45L4110.43 1844.46L4088.44 1803.28L4047.02 1824.8L4005.65 1846.14L3983.96 1804.96L3962.27 1763.77L4003.27 1741.73L4044.44 1719.74L4022.75 1678.56L4001.06 1637.38L4042.83 1615.38L4084.6 1593.38L4106.29 1634.56L4127.98 1675.74L4169.64 1654.1L4211.24 1632.64L4254.81 1715.35L4298.31 1797.95L4339.85 1776.07L4381.26 1754.26L4359.57 1713.08L4337.88 1671.9L4379.65 1649.9L4421.42 1627.9L4399.37 1586.6L4377.14 1545.26L4335.54 1566.72L4293.88 1588.36L4272.19 1547.18L4250.5 1506L4209.19 1527.45L4167.83 1548.79L4124.14 1465.84L4080.33 1382.95L4121.44 1360.85L4162.5 1338.92L4184.5 1380.69L4206.5 1422.46L4289.45 1378.77L4372.4 1335.08L4394.51 1376.49L4416.68 1417.72L4458.4 1396.19L4499.94 1374.61L4455.94 1291.08L4411.93 1207.54L4328.98 1251.23L4246.03 1294.92L4202.34 1211.97L4158.65 1129.02L4241.6 1085.33L4324.55 1041.64L4346.55 1083.41L4368.55 1125.18L4409.98 1103.66L4451.46 1082.26L4473.08 1122.73L4494.69 1163.2L4536.29 1141.73L4577.83 1120.16L4556.14 1078.97L4534.45 1037.79L4575.86 1015.68L4617.09 993.514L4595.63 951.912L4573.99 910.254L4656.94 866.563L4739.89 822.872L4761.89 864.641L4783.89 906.41L4742.36 928.287L4700.82 950.163L4744.39 1032.88L4788.01 1115.41L4871.5 1071.89L4954.81 1028.31L4932.81 986.54L4910.81 944.771L4951.99 923.08L4993.17 901.389L5037.17 984.928L5081.17 1068.47L5039.99 1090.16L4998.81 1111.85L5020.5 1153.03L5042.19 1194.21L5000.43 1216.21L4958.66 1238.21L4980.66 1279.98L5002.66 1321.75L5044.43 1299.75L5086.2 1277.75L5108.07 1319.28L5129.89 1360.7L5152.35 1348.56C5164.76 1341.88 5183.29 1331.97 5193.41 1326.64L5211.94 1316.73L5168.61 1233.89L5125.45 1151.11L5166.8 1128.88L5208.09 1106.83L5186.4 1065.65L5164.71 1024.46L5206.37 1002.82C5242.33 984.337 5248.1 981.597 5249.02 983.065C5249.63 983.944 5259.48 1002.35 5270.94 1023.82L5291.63 1062.83L5332.81 1041.13L5373.99 1019.44L5395.99 1061.21L5418 1102.98L5376.82 1124.97L5335.71 1147.08L5357.16 1188.08L5378.43 1229.04L5337.43 1251.08L5296.37 1273.01L5339.9 1356.49L5383.48 1439.8L5424.77 1417.75L5466.12 1395.52L5444.66 1354.22L5423.21 1312.91L5464.2 1290.87L5505.38 1268.88L5483.75 1227.82C5464.35 1190.99 5462.29 1186.51 5463.63 1185.06C5464.44 1184.03 5501.38 1164.27 5545.5 1141.03C5608.16 1108.18 5626.35 1099.05 5627.96 1099.55C5629.23 1100.24 5644.02 1127.47 5672.72 1182.24L5715.56 1264.14L5674.33 1286.31L5632.92 1308.42L5654.56 1350.08L5676.02 1391.68L5636.08 1412.87C5614.08 1424.46 5595.49 1434.55 5594.79 1434.92C5593.73 1435.77 5598.21 1445.14 5615.07 1477.14L5636.76 1518.32L5719.94 1474.21L5802.94 1430.04L5782.1 1389.91C5770.63 1367.85 5760.96 1349.2 5760.52 1348.37C5760.08 1347.25 5769.78 1341.69 5800.84 1325.33L5841.61 1303.71L5820.27 1262.34L5798.82 1221.04L5840.59 1199.04L5882.36 1177.04L5904.05 1218.22L5925.74 1259.4L5966.92 1237.71L6008.1 1216.02L6030.1 1257.79L6052.1 1299.55L6010.92 1321.25L5969.74 1342.94L5991.38 1384.59L6012.84 1426.2L5930.08 1470.24L5847.25 1514.17L5868.74 1554.4C5880.63 1576.4 5890.48 1594.81 5890.79 1595.4C5891.03 1595.87 5909.81 1586.43 5932.4 1574.53L5973.58 1552.84L5995.58 1594.61L6017.58 1636.38L6059.35 1614.38L6101.12 1592.37L6144.81 1675.32L6188.5 1758.27L6105.55 1801.97C6027.43 1843.12 6022.54 1845.54 6021.43 1843.72C6020.81 1842.54 6000.99 1805.49 5977.51 1761.19L5934.71 1680.78L5893.22 1702.18L5851.68 1723.76L5873.26 1765.3L5894.79 1807.02L5853.73 1828.94L5812.67 1850.87L5834.07 1892.35L5855.53 1933.66L5938.84 1890.08L6022.33 1846.56L6087.71 1970.69L6153.09 2094.82L6111.86 2116.98L6070.45 2139.1L6048.52 2098.04L6026.42 2056.93L5985.11 2078.38L5943.81 2099.84L5921.64 2058.61L5899.53 2017.2L5858.11 2038.72L5816.74 2060.05L5794.81 2019L5772.89 1977.94L5731.17 1999.46L5689.63 2021.04L5733.62 2103.99L5777.66 2186.75L5818.96 2165.29L5860.27 2143.84L5882.2 2184.9L5904.24 2225.89L5945.61 2204.55L5986.91 2183.1L6008.91 2224.87L6030.91 2266.64L5989.5 2288.45L5947.96 2310.33L5970.01 2351.32L5992.05 2392.32L5950.16 2414.38L5908.39 2436.38L5886.7 2395.2L5865.01 2354.02L5823.47 2375.6L5781.75 2397.12L5737.71 2314.36L5693.78 2231.53L5653.55 2253.02C5631.55 2264.91 5613.14 2274.76 5612.67 2275.01C5612.08 2275.31 5621.52 2294.09 5633.42 2316.68L5655.11 2357.86L5613.34 2379.86L5571.57 2401.86L5593.57 2443.63L5615.57 2485.4L5657.34 2463.4L5699.11 2441.4L5720.8 2482.58L5742.49 2523.76L5783.67 2502.07L5824.85 2480.38L5846.86 2522.15L5868.86 2563.92L5910.63 2541.92L5952.39 2519.92L5973.97 2561.46L5995.5 2603.18L5871.37 2668.56L5747.24 2733.94L5725.07 2692.71L5702.96 2651.3L5661.3 2672.94L5619.7 2694.4L5598.58 2655.17C5587.06 2633.59 5577.09 2614.94 5576.53 2613.88C5575.48 2611.88 5572.71 2613.19 5534.24 2633.46L5493.05 2655.15L5536.93 2738.45L5580.75 2821.63L5622.16 2799.82L5663.58 2778.01L5685.39 2819.12L5707.08 2860.3L5748.8 2838.78L5790.34 2817.2L5812.34 2858.97L5834.34 2900.74L5792.92 2922.55L5751.39 2944.43L5773.27 2985.97L5795.08 3027.38L5754.02 3049.31L5712.97 3071.23L5668.56 2988.36L5624.16 2905.48L5541.21 2949.17L5458.26 2992.86L5478.79 3032.4C5490.07 3054.12 5499.81 3072.89 5500.43 3074.06C5501.3 3076.01 5498.54 3077.61 5460.18 3097.82L5419 3119.51L5440.58 3161.05L5462.1 3202.77L5421.16 3224.33C5398.69 3236.17 5379.92 3245.91 5379.38 3245.74ZM5387.83 2657.97L5366.14 2616.79L5407.55 2594.67L5448.78 2572.51L5427.31 2530.9L5405.67 2489.25L5280.95 2554.94L5156.23 2620.63L5178.23 2662.4L5200.24 2704.17L5241.78 2682.59L5283.5 2661.06L5304.68 2701.01C5316.39 2722.95 5326.18 2741.24 5326.6 2741.77C5326.85 2742.24 5345.75 2732.74 5368.34 2720.84L5409.52 2699.15L5387.83 2657.97ZM5090.73 2496.26L5068.85 2454.73L5110.03 2432.74L5151.02 2410.7L5130.08 2371.23C5118.62 2349.46 5109.06 2330.75 5108.91 2329.32C5108.75 2327.3 5112.62 2324.96 5149.69 2305.44L5190.75 2283.81L5212.75 2325.58L5234.75 2367.35L5276.52 2345.35L5318.29 2323.35L5340.17 2364.88L5362.04 2406.41L5444.57 2362.49L5526.92 2318.52L5505.65 2277.27L5484.19 2235.96L5442.65 2257.54L5400.93 2279.07L5382.72 2245.07C5372.63 2226.49 5362.66 2207.84 5360.55 2203.84L5356.65 2196.43L5315.47 2218.12L5274.29 2239.81L5230.6 2156.86L5186.91 2073.91L5269.86 2030.22L5352.81 1986.53L5374.92 2027.94L5397.09 2069.17L5438.33 2047.59L5479.63 2026.14L5501.74 2067.25L5523.73 2108.42L5564.91 2086.73L5606.09 2065.04L5562.4 1982.09L5518.71 1899.14L5477.53 1920.83L5436.34 1942.52L5414.34 1900.75L5392.34 1858.99L5350.57 1880.99L5308.81 1902.99L5287.11 1861.81L5265.42 1820.63L5307.19 1798.62L5348.96 1776.62L5326.96 1734.85L5304.96 1693.09L5346.14 1671.4L5387.32 1649.7L5343.63 1566.75L5299.94 1483.8L5258.76 1505.5L5217.58 1527.19L5239.22 1568.84L5260.68 1610.45L5219.5 1632.14L5178.32 1653.83L5199.84 1695.55L5221.42 1737.09L5138.47 1780.78L5055.52 1824.47L5011.83 1741.52L4968.14 1658.57L5009.32 1636.88L5050.5 1615.19L5046.97 1608.48C5045.1 1604.65 5035.37 1585.88 5025.45 1566.76L5007.4 1531.93L5048.75 1509.7L5090.04 1487.65L5067.93 1446.24L5045.76 1405.01L4963.4 1448.39L4881.04 1491.77L4902.5 1533.37L4924.14 1575.03L4882.73 1597.14L4841.5 1619.31L4863.02 1661.03L4884.6 1702.57L4842.94 1724.21L4801.34 1745.67L4780.04 1705.79C4768.21 1683.91 4758.24 1665.27 4757.87 1664.56C4757.25 1663.39 4748 1667.81 4715.88 1684.72L4674.7 1706.41L4652.65 1665.12L4630.42 1623.77L4548.06 1667.16L4465.7 1710.54L4487.22 1752.26L4508.8 1793.8L4549.98 1772.11L4591.16 1750.42L4613.27 1791.83L4635.44 1833.06L4677.16 1811.53L4718.7 1789.95L4762.39 1872.9L4806.08 1955.85L4723.13 1999.54L4640.18 2043.24L4618.13 2001.94L4595.91 1960.6L4556.43 1981.24C4534.72 1992.52 4515.95 2002.26 4514.83 2002.7C4512.76 2003.64 4511.16 2000.87 4490.95 1962.52L4469.26 1921.34L4427.85 1943.15L4386.31 1965.03L4430.01 2047.98L4473.7 2130.93L4515.23 2109.05L4556.65 2087.24L4578.65 2129.01L4600.65 2170.77L4642.42 2148.77L4684.19 2126.77L4705.88 2167.95L4727.57 2209.14L4685.8 2231.14L4644.03 2253.14L4666.03 2294.91L4688.03 2336.67L4646.61 2358.49L4605.08 2380.37L4648.76 2463.02L4692.39 2545.55L4733.87 2524.15L4775.41 2502.57L4753.6 2461.16L4731.72 2419.62L4773.25 2397.75L4814.67 2375.93L4793.21 2334.33L4771.57 2292.67L4854.52 2248.98L4937.47 2205.29L4981.16 2288.24L5024.85 2371.19L4983.56 2393.24L4942.21 2415.47L4963.73 2457.19L4985.31 2498.73L4944.13 2520.42L4902.95 2542.11L4924.83 2583.65L4946.7 2625.18L5029.65 2581.49L5112.54 2537.68L5090.73 2496.26ZM4500.13 2382.29L4478.13 2340.52L4519.9 2318.52L4561.55 2296.58L4539.81 2255.88L4518.01 2215.05L4393.46 2280.21L4268.85 2345.54L4276.1 2359.31C4280.01 2367.02 4289.06 2384.49 4296.07 2398.08C4303.03 2411.86 4309.59 2424.03 4310.63 2425.44L4312.46 2427.78L4353.53 2406.15L4394.59 2384.52L4416.59 2426.29L4438.59 2468.06L4480.36 2446.06L4522.13 2424.06L4500.13 2382.29ZM5678.3 1797.8C5674.7 1790.67 5664.97 1771.9 5656.72 1756.26L5641.78 1727.6L5682.96 1705.91L5724.14 1684.22L5702.45 1643.04L5680.76 1601.86L5597.81 1645.55L5514.86 1689.24L5558.55 1772.19L5602.24 1855.14L5643.65 1833.03L5684.88 1810.86L5678.3 1797.8ZM4814.71 1367.84L4792.48 1326.49L4750.88 1347.95L4709.22 1369.59L4687.53 1328.41L4665.84 1287.23L4624.66 1308.92C4602.06 1320.82 4583.54 1331.03 4583.85 1331.62C4583.98 1332.15 4592.73 1349.33 4603.34 1369.75C4613.82 1390.23 4623.13 1408.47 4624.12 1410.36L4625.68 1413.59L4584.5 1435.29L4543.32 1456.98L4565.32 1498.75L4587.32 1540.51L4712.04 1474.82L4836.76 1409.13L4814.71 1367.84ZM4809.79 1157.6L4788.32 1116L4746.91 1137.82L4705.37 1159.69L4727.37 1201.46L4749.37 1243.23L4790.43 1221.3L4831.43 1199.26L4809.79 1157.6Z" fill="black"/>
<path d="M5019.83 2160.71C5019.17 2160.31 5016.64 2156.08 5014.1 2151.25C5011.68 2146.37 5001.89 2128.07 4992.66 2110.54L4975.62 2078.48L4934.44 2100.18L4893.26 2121.87L4871.57 2080.68L4849.88 2039.5L4891.06 2017.81L4932.24 1996.12L4911.28 1956.06C4899.81 1933.99 4890.08 1915.22 4889.82 1914.45C4889.32 1913.22 4898.37 1907.85 4930.48 1890.63L4971.78 1868.58L4993.78 1910.35L5015.78 1952.12L5057.55 1930.12L5099.31 1908.12L5121.01 1949.3L5142.7 1990.48L5101.4 2012.53L5060.06 2034.76L5081.58 2076.48L5103.16 2118.02L5061.98 2139.71C5039.39 2151.61 5020.43 2160.99 5019.83 2160.71Z" fill="black"/>
<path d="M3730.1 2735.27L3686.41 2652.32L3769.24 2608.69L3852.07 2565.06L3853.97 2567.52C3854.95 2568.81 3874.77 2605.86 3897.83 2649.93L3939.97 2729.94L3856.97 2774.11L3773.79 2818.22L3730.1 2735.27Z" fill="black"/>
<path d="M6139.5 1466.2L6095.81 1383.25L6178.88 1339.79L6262.02 1296.46L6305.82 1379.05L6349.68 1461.46L6266.49 1505.27L6183.19 1549.15L6139.5 1466.2Z" fill="black"/>
<path d="M4281.23 958.194C4280.69 958.027 4270.42 939.387 4258.52 916.797L4236.96 875.851L4278.13 853.863L4319.13 831.819L4297.31 790.403L4275.32 748.931L4317.09 726.931L4358.86 704.93L4380.97 746.34L4403.14 787.57L4444.86 766.047L4486.4 744.468L4508.03 785.531C4526.99 821.535 4529.48 826.835 4528.14 828.291C4526.17 830.534 4282.67 958.639 4281.23 958.194Z" fill="black"/>
</g>
<defs>
<clipPath id="clip0_2078_681">
<rect width="3039.61" height="3039.61" fill="white" transform="translate(2280.88 3479.53) rotate(-27.7766)"/>
</clipPath>
<clipPath id="clip1_2078_681">
<rect width="3039.61" height="3039.61" fill="white" transform="translate(0 3515.1) rotate(-27.7766)"/>
</clipPath>
<clipPath id="clip2_2078_681">
<rect width="3039.61" height="3039.61" fill="white" transform="translate(625.117 1452.1) rotate(-27.7766)"/>
</clipPath>
<clipPath id="clip3_2078_681">
<rect width="3039.61" height="3039.61" fill="white" transform="translate(2906 1416.53) rotate(-27.7766)"/>
</clipPath>
</defs>
</svg>
