<svg width="316" height="464" viewBox="0 0 316 464" fill="none" xmlns="http://www.w3.org/2000/svg"><rect x="84" y="0" width="232" height="464" fill="white"/><rect x="84" y="26.3636" width="192" height="5.2727" fill="black"/><rect x="84" y="34.2727" width="192" height="2.6364" fill="black"/><rect x="84" y="42.1818" width="192" height="2.6364" fill="black"/><rect x="84" y="55.3636" width="192" height="5.2727" fill="black"/><rect x="84" y="65.9091" width="192" height="7.9091" fill="black"/><rect x="84" y="79.0909" width="192" height="2.6364" fill="black"/><rect x="84" y="84.3636" width="192" height="2.6364" fill="black"/><rect x="84" y="92.2727" width="192" height="7.9091" fill="black"/><rect x="84" y="102.8182" width="192" height="5.2727" fill="black"/><rect x="84" y="113.3636" width="192" height="5.2727" fill="black"/><rect x="84" y="123.9091" width="192" height="7.9091" fill="black"/><rect x="84" y="137.0909" width="192" height="2.6364" fill="black"/><rect x="84" y="142.3636" width="192" height="7.9091" fill="black"/><rect x="84" y="155.5455" width="192" height="2.6364" fill="black"/><rect x="84" y="160.8182" width="192" height="5.2727" fill="black"/><rect x="84" y="171.3636" width="192" height="2.6364" fill="black"/><rect x="84" y="179.2727" width="192" height="5.2727" fill="black"/><rect x="84" y="187.1818" width="192" height="7.9091" fill="black"/><rect x="84" y="200.3636" width="192" height="2.6364" fill="black"/><rect x="84" y="208.2727" width="192" height="7.9091" fill="black"/><rect x="84" y="221.4545" width="192" height="5.2727" fill="black"/><rect x="84" y="229.3636" width="192" height="5.2727" fill="black"/><rect x="84" y="239.9091" width="192" height="2.6364" fill="black"/><rect x="84" y="245.1818" width="192" height="7.9091" fill="black"/><rect x="84" y="258.3636" width="192" height="5.2727" fill="black"/><rect x="84" y="266.2727" width="192" height="7.9091" fill="black"/><rect x="84" y="279.4545" width="192" height="2.6364" fill="black"/><rect x="84" y="287.3636" width="192" height="5.2727" fill="black"/><rect x="84" y="295.2727" width="192" height="7.9091" fill="black"/><rect x="84" y="308.4545" width="192" height="2.6364" fill="black"/><rect x="84" y="316.3636" width="192" height="5.2727" fill="black"/><rect x="84" y="326.9091" width="192" height="2.6364" fill="black"/><rect x="84" y="332.1818" width="192" height="7.9091" fill="black"/><rect x="84" y="345.3636" width="192" height="2.6364" fill="black"/><rect x="84" y="353.2727" width="192" height="7.9091" fill="black"/><rect x="84" y="366.4545" width="192" height="5.2727" fill="black"/><rect x="84" y="374.3636" width="192" height="2.6364" fill="black"/><rect x="84" y="382.2727" width="192" height="2.6364" fill="black"/><rect x="84" y="390.1818" width="192" height="5.2727" fill="black"/><rect x="84" y="403.3636" width="192" height="5.2727" fill="black"/><rect x="84" y="416.5455" width="192" height="7.9091" fill="black"/><rect x="84" y="427.0909" width="192" height="2.6364" fill="black"/><rect x="84" y="432.3636" width="192" height="5.2727" fill="black"/><g transform="translate(296 232) rotate(-90)"><text x="0" y="0" dy=".35em" fill="black" font-family="Helvetica, Arial, sans-serif" font-size="32" font-weight="bold" text-anchor="middle">2029-135531</text></g></svg>
