<svg width="316" height="464" viewBox="0 0 316 464" fill="none" xmlns="http://www.w3.org/2000/svg"><rect x="84" y="0" width="232" height="464" fill="white"/><rect x="84" y="21.5909" width="232" height="4.3182" fill="black"/><rect x="84" y="28.0682" width="232" height="2.1591" fill="black"/><rect x="84" y="34.5455" width="232" height="2.1591" fill="black"/><rect x="84" y="45.3409" width="232" height="4.3182" fill="black"/><rect x="84" y="53.9773" width="232" height="6.4773" fill="black"/><rect x="84" y="64.7727" width="232" height="2.1591" fill="black"/><rect x="84" y="69.0909" width="232" height="2.1591" fill="black"/><rect x="84" y="75.5682" width="232" height="6.4773" fill="black"/><rect x="84" y="84.2045" width="232" height="4.3182" fill="black"/><rect x="84" y="92.8409" width="232" height="4.3182" fill="black"/><rect x="84" y="101.4773" width="232" height="6.4773" fill="black"/><rect x="84" y="112.2727" width="232" height="2.1591" fill="black"/><rect x="84" y="116.5909" width="232" height="6.4773" fill="black"/><rect x="84" y="127.3864" width="232" height="2.1591" fill="black"/><rect x="84" y="131.7045" width="232" height="4.3182" fill="black"/><rect x="84" y="140.3409" width="232" height="2.1591" fill="black"/><rect x="84" y="146.8182" width="232" height="4.3182" fill="black"/><rect x="84" y="153.2955" width="232" height="6.4773" fill="black"/><rect x="84" y="164.0909" width="232" height="2.1591" fill="black"/><rect x="84" y="170.5682" width="232" height="6.4773" fill="black"/><rect x="84" y="181.3636" width="232" height="4.3182" fill="black"/><rect x="84" y="187.8409" width="232" height="4.3182" fill="black"/><rect x="84" y="196.4773" width="232" height="2.1591" fill="black"/><rect x="84" y="200.7955" width="232" height="6.4773" fill="black"/><rect x="84" y="211.5909" width="232" height="4.3182" fill="black"/><rect x="84" y="218.0682" width="232" height="6.4773" fill="black"/><rect x="84" y="228.8636" width="232" height="2.1591" fill="black"/><rect x="84" y="235.3409" width="232" height="4.3182" fill="black"/><rect x="84" y="241.8182" width="232" height="6.4773" fill="black"/><rect x="84" y="252.6136" width="232" height="2.1591" fill="black"/><rect x="84" y="259.0909" width="232" height="4.3182" fill="black"/><rect x="84" y="267.7273" width="232" height="2.1591" fill="black"/><rect x="84" y="272.0455" width="232" height="6.4773" fill="black"/><rect x="84" y="282.8409" width="232" height="2.1591" fill="black"/><rect x="84" y="289.3182" width="232" height="6.4773" fill="black"/><rect x="84" y="300.1136" width="232" height="4.3182" fill="black"/><rect x="84" y="306.5909" width="232" height="2.1591" fill="black"/><rect x="84" y="313.0682" width="232" height="2.1591" fill="black"/><rect x="84" y="319.5455" width="232" height="4.3182" fill="black"/><rect x="84" y="330.3409" width="232" height="4.3182" fill="black"/><rect x="84" y="341.1364" width="232" height="6.4773" fill="black"/><rect x="84" y="349.7727" width="232" height="2.1591" fill="black"/><rect x="84" y="354.0909" width="232" height="4.3182" fill="black"/><text x="200" y="442" fill="black" font-family="Helvetica, Arial, sans-serif" font-size="56" font-weight="bold" text-anchor="middle" textLength="197" lengthAdjust="spacingAndGlyphs">2029-135531</text></svg>
