<svg width="764" height="322" viewBox="0 0 764 322" fill="none" xmlns="http://www.w3.org/2000/svg">
<rect x="44.0078" y="196" width="680" height="126" rx="36" fill="#574BA6"/>
<rect x="34.0078" y="163" width="226" height="159" rx="36" fill="#574BA6"/>
<mask id="path-3-outside-1_2102_601" maskUnits="userSpaceOnUse" x="43" y="38" width="690" height="228" fill="black">
<rect fill="white" x="43" y="38" width="690" height="228"/>
<path d="M134.516 63.6338C143.788 62.7713 158.02 62.1244 171.605 64.0651C189.071 66.437 205.674 72.4746 212.359 80.2373C216.24 84.3343 217.102 108.485 216.455 111.072C215.377 115.169 213.221 118.404 208.693 120.344C205.243 121.638 201.361 121.423 198.127 119.051C192.952 115.385 192.521 104.603 185.405 95.7626C177.211 85.628 164.057 82.8249 154.354 83.2561C147.454 83.6874 137.966 85.628 132.576 94.0376C129.988 98.3502 129.772 102.663 131.929 107.622C136.457 118.188 152.845 122.069 161.254 124.226L178.505 128.97C198.989 134.36 217.102 141.045 224.218 164.117C228.962 179.211 224.649 200.127 212.359 215.006C191.227 240.666 152.198 243.685 130.419 241.313C118.56 239.803 80.8245 232.256 69.8274 210.909C67.0242 205.087 65.946 197.324 69.3961 191.933C71.9837 187.19 76.2962 185.033 81.687 184.602C88.3715 184.386 93.1154 186.758 99.153 195.168C112.306 213.928 124.597 218.887 140.769 218.887C148.963 218.887 161.686 216.731 167.939 207.027C170.311 203.146 171.173 197.971 168.801 192.796C164.057 182.23 148.963 178.996 140.769 177.702L129.557 175.977C107.778 172.095 83.6277 162.608 76.0806 135.87C71.768 121.854 75.0025 99.4283 89.4497 84.3343C102.603 71.3965 121.147 65.3589 134.516 63.6338ZM347.038 216.084C346.822 208.753 342.509 194.737 339.059 185.249H279.761C274.802 185.249 269.195 212.418 272.861 217.162C274.586 219.318 277.174 219.318 279.33 221.043C281.271 222.768 282.996 224.709 283.211 227.297C283.643 229.453 283.211 234.197 279.761 235.491C277.174 236.784 276.311 237.216 254.748 237C248.279 237 240.732 237 238.576 236.784C236.204 236.569 232.754 236.784 231.245 232.472C230.598 230.1 230.598 226.219 232.538 223.415C234.91 220.181 235.557 221.259 238.36 218.887C239.87 217.809 241.81 216.084 243.32 213.281C245.261 210.046 247.417 205.302 248.495 201.205C248.495 201.205 260.139 165.627 268.549 143.848C275.88 125.951 289.465 97.7033 289.465 97.7033C304.343 70.534 302.618 67.7308 325.906 67.7308C347.469 67.7308 345.96 66.437 361.485 95.1157C361.485 95.1157 377.657 127.676 385.851 149.023C393.182 168.214 402.886 199.48 402.886 199.48C404.611 204.656 406.983 211.124 407.845 212.634C408.277 214.359 410.002 217.378 413.02 218.671C416.47 220.828 417.117 221.043 418.627 224.709C419.274 226.434 419.489 229.884 417.333 232.687C413.452 237.863 408.061 237 402.67 237H352.213C347.038 237 342.509 237.216 339.059 231.609C338.197 229.669 337.981 225.356 338.844 223.631C340.138 221.259 340.784 221.043 342.941 219.965C344.019 219.103 347.253 218.671 347.038 216.084ZM288.386 161.314H331.944C331.944 161.314 326.553 144.926 322.672 135.223C317.281 121.423 310.381 107.838 310.381 107.838C310.381 107.838 303.481 121.423 298.305 133.713C294.208 144.279 288.386 161.314 288.386 161.314ZM445.383 237C439.13 237 435.033 234.197 434.602 228.375C434.171 224.925 436.327 221.475 438.914 219.534C441.071 218.24 443.874 218.24 445.815 215.006C447.324 213.065 447.324 209.615 447.324 207.89V96.8408C447.324 95.1157 447.324 91.8813 445.815 89.725C443.874 86.4906 441.071 86.4906 438.914 85.1968C436.327 83.2561 433.955 81.7467 434.602 76.356C435.249 70.534 439.13 67.7308 445.383 67.7308H506.838C512.875 67.7308 516.972 70.534 517.404 76.356C517.835 80.0217 515.894 83.2561 513.091 85.1968C510.935 86.4906 508.132 86.4906 506.191 89.725C504.897 91.8813 504.897 95.1157 504.897 96.8408V192.58C504.897 209.184 504.035 213.065 508.347 215.868C510.719 217.809 526.676 217.809 530.773 216.515C535.085 215.006 538.104 212.634 543.495 206.596C551.257 197.324 552.12 195.383 555.139 193.012C558.373 190.424 562.901 188.915 566.998 190.424C571.311 191.718 574.114 196.462 573.683 199.696C573.252 202.931 566.567 230.531 563.548 233.766C560.314 237.216 557.942 237 554.061 237H445.383ZM691.711 67.7308C696.024 67.7308 701.846 67.2995 703.14 72.259C703.787 75.4935 706.159 89.2937 708.099 100.075C708.531 103.094 707.884 108.054 701.846 109.563C696.024 111.288 691.711 108.916 689.771 105.897C682.871 93.822 683.949 88.6469 667.561 88.6469H661.955C660.445 88.8625 659.367 89.2937 658.72 89.725C656.348 91.6657 656.995 94.2532 656.995 97.9189V207.89C656.995 209.615 656.779 213.065 658.073 215.006C660.014 218.24 662.817 218.24 664.973 219.534C667.561 221.475 669.717 224.925 669.286 228.375C668.855 234.197 664.758 237 658.504 237H597.481C591.228 237 587.131 234.197 586.7 228.375C586.269 224.925 588.425 221.475 591.012 219.534C593.169 218.24 595.972 218.24 597.913 215.006C599.422 213.065 599.422 209.615 599.422 207.89V97.9189C599.422 94.2532 599.853 91.6657 597.697 89.725C597.266 89.2937 595.972 88.8625 594.462 88.6469H588.856C572.468 88.6469 573.546 93.822 566.646 105.897C564.921 108.916 560.609 111.288 554.571 109.563C548.533 108.054 547.887 103.094 548.318 100.075C550.258 89.2937 552.63 75.4935 553.493 72.259C554.571 67.2995 560.609 67.7308 564.921 67.7308H691.711Z"/>
</mask>
<path d="M134.516 63.6338C143.788 62.7713 158.02 62.1244 171.605 64.0651C189.071 66.437 205.674 72.4746 212.359 80.2373C216.24 84.3343 217.102 108.485 216.455 111.072C215.377 115.169 213.221 118.404 208.693 120.344C205.243 121.638 201.361 121.423 198.127 119.051C192.952 115.385 192.521 104.603 185.405 95.7626C177.211 85.628 164.057 82.8249 154.354 83.2561C147.454 83.6874 137.966 85.628 132.576 94.0376C129.988 98.3502 129.772 102.663 131.929 107.622C136.457 118.188 152.845 122.069 161.254 124.226L178.505 128.97C198.989 134.36 217.102 141.045 224.218 164.117C228.962 179.211 224.649 200.127 212.359 215.006C191.227 240.666 152.198 243.685 130.419 241.313C118.56 239.803 80.8245 232.256 69.8274 210.909C67.0242 205.087 65.946 197.324 69.3961 191.933C71.9837 187.19 76.2962 185.033 81.687 184.602C88.3715 184.386 93.1154 186.758 99.153 195.168C112.306 213.928 124.597 218.887 140.769 218.887C148.963 218.887 161.686 216.731 167.939 207.027C170.311 203.146 171.173 197.971 168.801 192.796C164.057 182.23 148.963 178.996 140.769 177.702L129.557 175.977C107.778 172.095 83.6277 162.608 76.0806 135.87C71.768 121.854 75.0025 99.4283 89.4497 84.3343C102.603 71.3965 121.147 65.3589 134.516 63.6338ZM347.038 216.084C346.822 208.753 342.509 194.737 339.059 185.249H279.761C274.802 185.249 269.195 212.418 272.861 217.162C274.586 219.318 277.174 219.318 279.33 221.043C281.271 222.768 282.996 224.709 283.211 227.297C283.643 229.453 283.211 234.197 279.761 235.491C277.174 236.784 276.311 237.216 254.748 237C248.279 237 240.732 237 238.576 236.784C236.204 236.569 232.754 236.784 231.245 232.472C230.598 230.1 230.598 226.219 232.538 223.415C234.91 220.181 235.557 221.259 238.36 218.887C239.87 217.809 241.81 216.084 243.32 213.281C245.261 210.046 247.417 205.302 248.495 201.205C248.495 201.205 260.139 165.627 268.549 143.848C275.88 125.951 289.465 97.7033 289.465 97.7033C304.343 70.534 302.618 67.7308 325.906 67.7308C347.469 67.7308 345.96 66.437 361.485 95.1157C361.485 95.1157 377.657 127.676 385.851 149.023C393.182 168.214 402.886 199.48 402.886 199.48C404.611 204.656 406.983 211.124 407.845 212.634C408.277 214.359 410.002 217.378 413.02 218.671C416.47 220.828 417.117 221.043 418.627 224.709C419.274 226.434 419.489 229.884 417.333 232.687C413.452 237.863 408.061 237 402.67 237H352.213C347.038 237 342.509 237.216 339.059 231.609C338.197 229.669 337.981 225.356 338.844 223.631C340.138 221.259 340.784 221.043 342.941 219.965C344.019 219.103 347.253 218.671 347.038 216.084ZM288.386 161.314H331.944C331.944 161.314 326.553 144.926 322.672 135.223C317.281 121.423 310.381 107.838 310.381 107.838C310.381 107.838 303.481 121.423 298.305 133.713C294.208 144.279 288.386 161.314 288.386 161.314ZM445.383 237C439.13 237 435.033 234.197 434.602 228.375C434.171 224.925 436.327 221.475 438.914 219.534C441.071 218.24 443.874 218.24 445.815 215.006C447.324 213.065 447.324 209.615 447.324 207.89V96.8408C447.324 95.1157 447.324 91.8813 445.815 89.725C443.874 86.4906 441.071 86.4906 438.914 85.1968C436.327 83.2561 433.955 81.7467 434.602 76.356C435.249 70.534 439.13 67.7308 445.383 67.7308H506.838C512.875 67.7308 516.972 70.534 517.404 76.356C517.835 80.0217 515.894 83.2561 513.091 85.1968C510.935 86.4906 508.132 86.4906 506.191 89.725C504.897 91.8813 504.897 95.1157 504.897 96.8408V192.58C504.897 209.184 504.035 213.065 508.347 215.868C510.719 217.809 526.676 217.809 530.773 216.515C535.085 215.006 538.104 212.634 543.495 206.596C551.257 197.324 552.12 195.383 555.139 193.012C558.373 190.424 562.901 188.915 566.998 190.424C571.311 191.718 574.114 196.462 573.683 199.696C573.252 202.931 566.567 230.531 563.548 233.766C560.314 237.216 557.942 237 554.061 237H445.383ZM691.711 67.7308C696.024 67.7308 701.846 67.2995 703.14 72.259C703.787 75.4935 706.159 89.2937 708.099 100.075C708.531 103.094 707.884 108.054 701.846 109.563C696.024 111.288 691.711 108.916 689.771 105.897C682.871 93.822 683.949 88.6469 667.561 88.6469H661.955C660.445 88.8625 659.367 89.2937 658.72 89.725C656.348 91.6657 656.995 94.2532 656.995 97.9189V207.89C656.995 209.615 656.779 213.065 658.073 215.006C660.014 218.24 662.817 218.24 664.973 219.534C667.561 221.475 669.717 224.925 669.286 228.375C668.855 234.197 664.758 237 658.504 237H597.481C591.228 237 587.131 234.197 586.7 228.375C586.269 224.925 588.425 221.475 591.012 219.534C593.169 218.24 595.972 218.24 597.913 215.006C599.422 213.065 599.422 209.615 599.422 207.89V97.9189C599.422 94.2532 599.853 91.6657 597.697 89.725C597.266 89.2937 595.972 88.8625 594.462 88.6469H588.856C572.468 88.6469 573.546 93.822 566.646 105.897C564.921 108.916 560.609 111.288 554.571 109.563C548.533 108.054 547.887 103.094 548.318 100.075C550.258 89.2937 552.63 75.4935 553.493 72.259C554.571 67.2995 560.609 67.7308 564.921 67.7308H691.711Z" fill="#F2C335"/>
<path d="M134.516 63.6338L132.293 39.737L131.868 39.7765L131.445 39.8312L134.516 63.6338ZM171.605 64.0651L168.21 87.8239L168.293 87.8356L168.375 87.8468L171.605 64.0651ZM212.359 80.2373L194.172 95.8979L194.544 96.3296L194.936 96.7431L212.359 80.2373ZM216.455 111.072L239.665 117.18L239.703 117.037L239.739 116.893L216.455 111.072ZM208.693 120.344L217.12 142.816L217.638 142.622L218.147 142.404L208.693 120.344ZM198.127 119.051L212.32 99.6969L212.16 99.5801L211.999 99.466L198.127 119.051ZM185.405 95.7626L204.101 80.7144L204.085 80.6938L204.068 80.6733L185.405 95.7626ZM154.354 83.2561L153.289 59.2798L153.073 59.2894L152.857 59.3029L154.354 83.2561ZM132.576 94.0376L112.37 81.0856L112.179 81.3849L111.996 81.6897L132.576 94.0376ZM131.929 107.622L153.988 98.1682L153.963 98.1104L153.938 98.0528L131.929 107.622ZM161.254 124.226L167.618 101.085L167.417 101.03L167.215 100.978L161.254 124.226ZM178.505 128.97L172.141 152.111L172.269 152.146L172.397 152.179L178.505 128.97ZM224.218 164.117L201.284 171.19L201.303 171.252L201.322 171.313L224.218 164.117ZM212.359 215.006L193.855 199.721L193.844 199.735L193.832 199.749L212.359 215.006ZM130.419 241.313L127.389 265.121L127.605 265.148L127.821 265.172L130.419 241.313ZM69.8274 210.909L48.2033 221.32L48.3437 221.612L48.492 221.9L69.8274 210.909ZM69.3961 191.933L89.6106 204.871L90.0634 204.163L90.4656 203.426L69.3961 191.933ZM81.687 184.602L80.9132 160.614L80.3424 160.633L79.7731 160.678L81.687 184.602ZM99.153 195.168L118.804 181.39L118.727 181.28L118.649 181.171L99.153 195.168ZM167.939 207.027L188.113 220.028L188.268 219.787L188.418 219.542L167.939 207.027ZM168.801 192.796L146.907 202.626L146.945 202.711L146.984 202.796L168.801 192.796ZM140.77 177.702L144.513 153.996L144.466 153.988L144.419 153.981L140.77 177.702ZM129.557 175.977L125.346 199.605L125.626 199.654L125.907 199.698L129.557 175.977ZM76.0806 135.87L99.1782 129.35L99.1019 129.08L99.0193 128.812L76.0806 135.87ZM89.4497 84.3343L72.6199 67.224L72.3619 67.4778L72.1116 67.7393L89.4497 84.3343ZM134.516 63.6338L136.739 87.5307C145.176 86.7459 157.292 86.2641 168.21 87.8239L171.605 64.0651L174.999 40.3063C158.748 37.9848 142.401 38.7967 132.293 39.737L134.516 63.6338ZM171.605 64.0651L168.375 87.8468C175.551 88.8213 182.204 90.5146 187.358 92.5104C193.129 94.7448 194.628 96.427 194.172 95.8979L212.359 80.2373L230.545 64.5767C223.405 56.2849 213.26 51.067 204.691 47.7489C195.506 44.1923 185.124 41.6808 174.834 40.2834L171.605 64.0651ZM212.359 80.2373L194.936 96.7431C193.324 95.042 192.405 93.5003 191.977 92.7141C191.514 91.8639 191.271 91.2402 191.184 91.0073C191.026 90.5832 191.088 90.6467 191.259 91.4429C191.592 93.0002 191.936 95.4227 192.202 98.3768C192.46 101.234 192.598 104.054 192.638 106.189C192.659 107.268 192.65 107.998 192.638 108.367C192.631 108.561 192.629 108.49 192.652 108.233C192.664 108.099 192.692 107.807 192.748 107.405C192.796 107.065 192.916 106.274 193.172 105.252L216.455 111.072L239.739 116.893C240.533 113.716 240.592 110.545 240.611 109.978C240.66 108.515 240.66 106.901 240.63 105.288C240.569 102.039 240.37 98.0808 240.008 94.0649C239.655 90.1458 239.095 85.6007 238.196 81.3967C237.749 79.3122 237.112 76.7966 236.167 74.2575C235.409 72.2222 233.61 67.7724 229.781 63.7315L212.359 80.2373ZM216.455 111.072L193.246 104.965C193.309 104.724 193.724 103.293 195.064 101.604C196.507 99.7838 198.162 98.7465 199.239 98.2849L208.693 120.344L218.147 142.404C230.761 136.998 237.093 126.956 239.665 117.18L216.455 111.072ZM208.693 120.344L200.266 97.8725C203.245 96.7554 208.088 96.5936 212.32 99.6969L198.127 119.051L183.934 138.404C194.635 146.251 207.241 146.521 217.12 142.816L208.693 120.344ZM198.127 119.051L211.999 99.466C213.571 100.579 214.625 101.727 215.256 102.53C215.864 103.304 216.151 103.849 216.177 103.897C216.203 103.946 216.104 103.763 215.853 103.162C215.595 102.543 215.315 101.823 214.883 100.703C213.365 96.7706 210.327 88.4502 204.101 80.7144L185.405 95.7626L166.709 110.811C167.598 111.916 168.334 113.407 170.104 117.991C170.795 119.78 172.068 123.163 173.736 126.32C175.447 129.558 178.6 134.63 184.255 138.635L198.127 119.051ZM185.405 95.7626L204.068 80.6733C189.24 62.3336 167.108 58.6656 153.289 59.2798L154.354 83.2561L155.42 107.232C157.68 107.132 160.317 107.438 162.591 108.226C164.761 108.977 166.004 109.939 166.742 110.852L185.405 95.7626ZM154.354 83.2561L152.857 59.3029C144.246 59.841 124.287 62.4957 112.37 81.0856L132.576 94.0376L152.781 106.99C152.595 107.278 152.328 107.568 152.057 107.779C151.818 107.966 151.732 107.971 151.944 107.885C152.171 107.793 152.616 107.646 153.332 107.508C154.044 107.371 154.883 107.27 155.851 107.209L154.354 83.2561ZM132.576 94.0376L111.996 81.6897C105.111 93.1642 104.92 105.694 109.919 117.192L131.929 107.622L153.938 98.0528C154.004 98.2029 154.55 99.5663 154.445 101.743C154.336 104.007 153.596 105.651 153.155 106.385L132.576 94.0376ZM131.929 107.622L109.869 117.076C115.768 130.841 127.971 137.685 135.322 140.979C143.267 144.54 151.596 146.526 155.293 147.474L161.254 124.226L167.215 100.978C162.503 99.7696 158.433 98.7366 154.95 97.176C153.326 96.4481 152.592 95.9233 152.426 95.7873C152.306 95.6893 153.234 96.4089 153.988 98.1682L131.929 107.622ZM161.254 124.226L154.891 147.367L172.141 152.111L178.505 128.97L184.868 105.829L167.618 101.085L161.254 124.226ZM178.505 128.97L172.397 152.179C182.47 154.83 188.774 157.072 193.219 159.986C196.725 162.284 199.442 165.219 201.284 171.19L224.218 164.117L247.152 157.044C241.878 139.943 231.981 128 219.531 119.84C208.019 112.295 195.024 108.5 184.613 105.76L178.505 128.97ZM224.218 164.117L201.322 171.313C203.326 177.687 201.649 190.286 193.855 199.721L212.359 215.006L230.862 230.291C247.649 209.969 254.598 180.735 247.114 156.921L224.218 164.117ZM212.359 215.006L193.832 199.749C187.648 207.258 177.989 212.435 165.977 215.347C154.009 218.248 141.652 218.394 133.018 217.454L130.419 241.313L127.821 265.172C140.965 266.603 159.011 266.426 177.286 261.996C195.516 257.576 215.938 248.413 230.885 230.263L212.359 215.006ZM130.419 241.313L133.449 217.505C128.805 216.914 118.413 215.008 108.442 211.16C97.4008 206.898 92.4385 202.394 91.1628 199.918L69.8274 210.909L48.492 221.9C58.2134 240.771 77.6171 250.714 91.1581 255.94C105.769 261.579 120.174 264.202 127.389 265.121L130.419 241.313ZM69.8274 210.909L91.4514 200.497C91.3828 200.355 91.3094 200.163 91.2587 199.976C91.2068 199.784 91.2198 199.75 91.2286 199.907C91.2355 200.029 91.3479 202.156 89.6106 204.871L69.3961 191.933L49.1816 178.996C39.1849 194.616 43.8332 212.244 48.2033 221.32L69.8274 210.909ZM69.3961 191.933L90.4656 203.426C89.6901 204.848 88.2905 206.407 86.3977 207.488C84.7029 208.457 83.5101 208.533 83.6009 208.526L81.687 184.602L79.7731 160.678C68.4632 161.583 55.7249 166.877 48.3266 180.441L69.3961 191.933ZM81.687 184.602L82.4608 208.59C82.6285 208.584 82.1354 208.617 81.2599 208.425C80.3106 208.218 79.3709 207.848 78.5822 207.388C77.8567 206.966 77.6071 206.67 77.8258 206.889C78.0731 207.137 78.6761 207.798 79.6572 209.165L99.153 195.168L118.649 181.171C114.697 175.667 109.659 169.942 102.743 165.913C95.1947 161.515 87.6244 160.398 80.9132 160.614L81.687 184.602ZM99.153 195.168L79.502 208.946C87.4866 220.334 96.4785 229.357 107.557 235.251C118.805 241.234 130.127 242.887 140.77 242.887V218.887V194.887C135.24 194.887 132.33 194.06 130.101 192.874C127.703 191.598 123.973 188.762 118.804 181.39L99.153 195.168ZM140.77 218.887V242.887C146.701 242.887 154.782 242.14 163.038 239.239C171.369 236.312 181.259 230.663 188.113 220.028L167.939 207.027L147.765 194.027C148.365 193.096 148.768 193.376 147.126 193.953C145.408 194.557 143.032 194.887 140.77 194.887V218.887ZM167.939 207.027L188.418 219.542C194.386 209.776 196.748 196.169 190.619 182.796L168.801 192.796L146.984 202.796C146.393 201.507 146.098 199.907 146.243 198.272C146.379 196.741 146.869 195.48 147.46 194.513L167.939 207.027ZM168.801 192.796L190.696 182.966C184.735 169.689 173.277 163.003 165.467 159.684C157.317 156.22 149.159 154.729 144.513 153.996L140.77 177.702L137.026 201.408C140.574 201.968 144.06 202.741 146.692 203.86C147.926 204.384 148.385 204.746 148.37 204.733C148.285 204.664 147.525 204.003 146.907 202.626L168.801 192.796ZM140.77 177.702L144.419 153.981L133.206 152.256L129.557 175.977L125.907 199.698L137.12 201.423L140.77 177.702ZM129.557 175.977L133.768 152.349C114.014 148.829 102.746 141.991 99.1782 129.35L76.0806 135.87L52.9831 142.389C64.5092 183.224 101.543 195.362 125.346 199.605L129.557 175.977ZM76.0806 135.87L99.0193 128.812C98.2868 126.431 97.83 121.632 99.1474 115.763C100.42 110.096 103.035 104.85 106.788 100.929L89.4497 84.3343L72.1116 67.7393C51.3512 89.4293 46.399 121.013 53.1419 142.928L76.0806 135.87ZM89.4497 84.3343L106.279 101.445C114.488 93.37 127.428 88.7474 137.588 87.4365L134.516 63.6338L131.445 39.8312C114.866 41.9703 90.7177 49.423 72.6199 67.224L89.4497 84.3343ZM347.038 216.084L323.048 216.79L323.067 217.434L323.121 218.077L347.038 216.084ZM339.059 185.249L361.614 177.047L355.87 161.249H339.059V185.249ZM272.861 217.162L253.87 231.837L253.994 231.997L254.12 232.155L272.861 217.162ZM279.33 221.043L295.275 203.106L294.809 202.692L294.323 202.303L279.33 221.043ZM283.211 227.297L259.294 229.29L259.408 230.658L259.677 232.003L283.211 227.297ZM279.761 235.491L271.334 213.019L270.155 213.461L269.028 214.024L279.761 235.491ZM254.748 237L254.988 213.001L254.868 213H254.748V237ZM238.576 236.784L240.964 212.903L240.857 212.893L240.749 212.883L238.576 236.784ZM231.245 232.472L208.09 238.787L208.313 239.602L208.592 240.4L231.245 232.472ZM232.538 223.415L213.185 209.223L212.992 209.486L212.806 209.754L232.538 223.415ZM238.36 218.887L224.411 199.358L223.609 199.93L222.858 200.566L238.36 218.887ZM243.32 213.281L222.74 200.933L222.453 201.411L222.189 201.902L243.32 213.281ZM248.495 201.205L225.685 193.741L225.465 194.413L225.285 195.098L248.495 201.205ZM268.549 143.848L246.34 134.75L246.247 134.976L246.16 135.203L268.549 143.848ZM289.465 97.7033L268.414 86.1758L268.11 86.7311L267.836 87.3017L289.465 97.7033ZM361.485 95.1157L382.98 84.4396L382.792 84.0614L382.591 83.69L361.485 95.1157ZM385.851 149.023L408.271 140.458L408.264 140.441L408.257 140.423L385.851 149.023ZM402.886 199.48L379.964 206.594L380.038 206.833L380.117 207.07L402.886 199.48ZM407.845 212.634L431.129 206.813L430.326 203.601L428.683 200.727L407.845 212.634ZM413.02 218.671L425.74 198.32L424.173 197.34L422.474 196.612L413.02 218.671ZM418.627 224.709L441.099 216.282L440.964 215.924L440.819 215.571L418.627 224.709ZM417.333 232.687L398.31 218.054L398.221 218.17L398.133 218.287L417.333 232.687ZM339.059 231.609L317.128 241.357L317.779 242.822L318.62 244.188L339.059 231.609ZM338.844 223.631L317.774 212.139L317.569 212.515L317.378 212.898L338.844 223.631ZM342.941 219.965L353.674 241.432L355.948 240.294L357.933 238.706L342.941 219.965ZM288.386 161.314L265.676 153.552L254.821 185.314H288.386V161.314ZM331.944 161.314V185.314H365.104L354.742 153.815L331.944 161.314ZM322.672 135.223L300.317 143.955L300.352 144.046L300.388 144.136L322.672 135.223ZM310.381 107.838L331.779 96.9691L310.381 54.842L288.983 96.9691L310.381 107.838ZM298.305 133.713L276.186 124.4L276.053 124.717L275.929 125.037L298.305 133.713ZM347.038 216.084L371.027 215.378C370.829 208.629 368.992 200.914 367.408 195.132C365.664 188.768 363.51 182.261 361.614 177.047L339.059 185.249L316.504 193.451C318.059 197.725 319.786 202.969 321.115 207.818C321.778 210.238 322.291 212.374 322.633 214.122C323.004 216.013 323.049 216.821 323.048 216.79L347.038 216.084ZM339.059 185.249V161.249H279.761V185.249V209.249H339.059V185.249ZM279.761 185.249V161.249C268.049 161.249 261.264 168.867 259.38 171.149C256.785 174.294 255.134 177.594 254.146 179.816C252.06 184.507 250.58 189.812 249.597 194.456C248.593 199.197 247.841 204.519 247.704 209.52C247.637 211.989 247.7 215.013 248.192 218.15C248.576 220.596 249.671 226.403 253.87 231.837L272.861 217.162L291.852 202.487C293.684 204.859 294.562 207.021 294.96 208.171C295.384 209.397 295.549 210.312 295.612 210.708C295.728 211.451 295.666 211.574 295.686 210.828C295.725 209.401 295.997 207.041 296.556 204.397C297.137 201.655 297.759 199.872 298.005 199.321C298.182 198.921 297.755 200.061 296.401 201.702C295.691 202.562 294.196 204.212 291.768 205.767C289.243 207.384 285.121 209.249 279.761 209.249V185.249ZM272.861 217.162L254.12 232.155C258.885 238.111 264.678 240.552 266.48 241.324C267.873 241.921 267.289 241.66 267.225 241.629C266.771 241.41 265.645 240.831 264.337 239.784L279.33 221.043L294.323 202.303C291.937 200.394 289.679 199.167 288.079 198.396C287.298 198.019 286.615 197.724 286.182 197.54C285.969 197.449 285.759 197.361 285.641 197.312C285.498 197.252 285.434 197.225 285.388 197.205C285.293 197.164 285.464 197.235 285.751 197.377C286.053 197.527 286.561 197.793 287.181 198.188C287.812 198.589 288.554 199.12 289.337 199.804C290.125 200.493 290.892 201.282 291.602 202.169L272.861 217.162ZM279.33 221.043L263.385 238.981C263.81 239.359 263.039 238.757 262.11 237.399C261.029 235.819 259.606 233.036 259.294 229.29L283.211 227.297L307.128 225.304C306.078 212.702 297.72 205.28 295.275 203.106L279.33 221.043ZM283.211 227.297L259.677 232.003C259.143 229.332 259.28 227.069 259.954 224.821C260.668 222.441 263.422 215.986 271.334 213.019L279.761 235.491L288.188 257.962C299.55 253.702 304.245 244.227 305.93 238.613C307.574 233.131 307.711 227.418 306.745 222.59L283.211 227.297ZM279.761 235.491L269.028 214.024C268.399 214.339 269.673 213.654 271.319 213.192C272.694 212.807 273.428 212.815 272.576 212.879C270.551 213.03 266.018 213.111 254.988 213.001L254.748 237L254.508 260.999C265.042 261.104 271.721 261.077 276.165 260.744C278.547 260.565 281.33 260.236 284.268 259.413C287.477 258.514 289.83 257.289 290.494 256.957L279.761 235.491ZM254.748 237V213C251.484 213 248.097 213 245.263 212.974C243.845 212.961 242.661 212.943 241.757 212.918C240.645 212.888 240.548 212.862 240.964 212.903L238.576 236.784L236.188 260.665C239.906 261.037 249.32 261 254.748 261V237ZM238.576 236.784L240.749 212.883C240.146 212.828 239.439 212.781 239.352 212.775C239.1 212.757 239.176 212.759 239.357 212.78C239.687 212.818 241.177 212.994 243.112 213.73C245.224 214.532 247.694 215.932 249.908 218.212C252.097 220.465 253.291 222.811 253.897 224.543L231.245 232.472L208.592 240.4C209.953 244.289 212.144 248.225 215.479 251.658C218.839 255.116 222.602 257.285 226.062 258.599C229.344 259.847 232.236 260.279 233.927 260.472C234.444 260.531 237.931 260.825 236.403 260.686L238.576 236.784ZM231.245 232.472L254.399 226.157C254.862 227.855 254.927 229.243 254.802 230.493C254.676 231.755 254.204 234.284 252.271 237.076L232.538 223.415L212.806 209.754C205.532 220.261 206.277 232.138 208.09 238.787L231.245 232.472ZM232.538 223.415L251.892 237.608C251.833 237.688 251.214 238.531 250.033 239.584C249.421 240.13 248.762 240.642 248.073 241.105C247.402 241.556 246.853 241.86 246.582 242.004C246.46 242.069 246.386 242.106 246.423 242.087C246.442 242.078 246.466 242.066 246.525 242.036C246.575 242.011 246.657 241.97 246.745 241.925C247.11 241.74 247.777 241.399 248.57 240.943C249.385 240.474 250.26 239.927 251.185 239.278C252.102 238.635 252.991 237.946 253.863 237.208L238.36 218.887L222.858 200.566C223.27 200.217 223.888 199.766 224.633 199.338C224.934 199.165 225.146 199.059 225.079 199.093C225.059 199.104 225.033 199.116 224.978 199.144C224.931 199.168 224.85 199.208 224.766 199.251C224.596 199.337 224.318 199.479 223.994 199.651C222.435 200.483 220.328 201.759 218.076 203.769C216.019 205.604 214.429 207.525 213.185 209.223L232.538 223.415ZM238.36 218.887L252.31 238.417C255.865 235.878 260.727 231.576 264.451 224.659L243.32 213.281L222.189 201.902C222.511 201.304 222.92 200.753 223.363 200.282C223.796 199.823 224.187 199.518 224.411 199.358L238.36 218.887ZM243.32 213.281L263.9 225.629C266.796 220.801 269.953 213.969 271.705 207.313L248.495 201.205L225.285 195.098C225.136 195.665 224.792 196.688 224.23 197.977C223.678 199.243 223.118 200.303 222.74 200.933L243.32 213.281ZM248.495 201.205C271.305 208.67 271.304 208.671 271.304 208.671C271.304 208.671 271.304 208.671 271.305 208.67C271.305 208.67 271.305 208.669 271.306 208.667C271.307 208.664 271.309 208.658 271.311 208.65C271.316 208.635 271.324 208.612 271.334 208.58C271.355 208.516 271.387 208.419 271.429 208.29C271.514 208.032 271.64 207.648 271.805 207.15C272.133 206.153 272.614 204.698 273.218 202.883C274.427 199.25 276.126 194.18 278.083 188.441C282.029 176.873 286.914 162.912 290.937 152.493L268.549 143.848L246.16 135.203C241.773 146.563 236.632 161.28 232.653 172.946C230.648 178.824 228.91 184.01 227.673 187.729C227.054 189.589 226.56 191.085 226.219 192.118C226.048 192.635 225.916 193.037 225.826 193.311C225.781 193.449 225.747 193.554 225.723 193.626C225.711 193.662 225.702 193.69 225.696 193.709C225.693 193.718 225.69 193.726 225.689 193.731C225.688 193.734 225.687 193.736 225.686 193.737C225.686 193.738 225.686 193.739 225.686 193.739C225.686 193.74 225.685 193.741 248.495 201.205ZM268.549 143.848L290.757 152.946C294.204 144.532 299.239 133.41 303.528 124.162C305.65 119.587 307.547 115.56 308.914 112.678C309.596 111.238 310.145 110.087 310.521 109.299C310.71 108.906 310.855 108.603 310.952 108.401C311 108.3 311.036 108.224 311.06 108.174C311.072 108.149 311.081 108.131 311.087 108.119C311.089 108.113 311.091 108.109 311.092 108.107C311.093 108.106 311.093 108.105 311.094 108.105C311.094 108.105 311.094 108.105 311.094 108.104C311.094 108.105 311.093 108.105 289.465 97.7033C267.836 87.3017 267.836 87.3021 267.835 87.3027C267.835 87.3031 267.835 87.3038 267.834 87.3045C267.834 87.3059 267.833 87.3077 267.832 87.3099C267.83 87.3144 267.827 87.3206 267.823 87.3285C267.815 87.3442 267.805 87.3667 267.79 87.3959C267.763 87.4542 267.722 87.539 267.669 87.6492C267.563 87.8694 267.409 88.1911 267.212 88.6047C266.817 89.4317 266.247 90.627 265.541 92.115C264.131 95.089 262.174 99.2422 259.983 103.967C255.647 113.316 250.224 125.267 246.34 134.75L268.549 143.848ZM289.465 97.7033L310.515 109.231C312.458 105.682 314.127 102.538 315.541 99.8755C316.995 97.1388 318.101 95.0631 319.084 93.3145C321.249 89.4614 321.679 89.3462 321.008 89.9799C320.464 90.4929 319.669 91.0863 318.706 91.5626C317.803 92.0089 317.221 92.1206 317.309 92.1023C318.003 91.9597 320.045 91.7308 325.906 91.7308V67.7308V43.7308C315.489 43.7308 300.257 43.558 288.056 55.0772C283.045 59.8078 279.661 65.4877 277.237 69.8016C275.087 73.6289 271.437 80.6563 268.414 86.1758L289.465 97.7033ZM325.906 67.7308V91.7308C328.911 91.7308 330.842 91.7108 332.748 91.73C334.57 91.7483 335.452 91.8017 335.889 91.8472C336.247 91.8846 333.855 91.6279 331.367 89.7231C329.795 88.5191 329.845 87.8257 331.902 91.2078C333.874 94.451 336.279 98.9677 340.379 106.541L361.485 95.1157L382.591 83.69C378.928 76.9244 375.7 70.8483 372.914 66.2682C370.214 61.827 366.383 56.0797 360.552 51.6144C353.806 46.4482 346.778 44.7226 340.869 44.1062C336.111 43.61 330.245 43.7308 325.906 43.7308V67.7308ZM361.485 95.1157C339.99 105.792 339.99 105.791 339.99 105.791C339.99 105.791 339.99 105.791 339.99 105.791C339.99 105.791 339.99 105.792 339.991 105.793C339.992 105.795 339.994 105.799 339.997 105.805C340.003 105.818 340.013 105.838 340.027 105.866C340.054 105.921 340.097 106.007 340.153 106.121C340.266 106.35 340.437 106.695 340.658 107.145C341.101 108.046 341.747 109.366 342.55 111.02C344.159 114.332 346.388 118.968 348.865 124.252C353.891 134.972 359.674 147.799 363.445 157.623L385.851 149.023L408.257 140.423C403.834 128.9 397.435 114.774 392.326 103.876C389.736 98.3519 387.409 93.5138 385.729 90.0536C384.888 88.3219 384.207 86.9313 383.734 85.9677C383.497 85.4857 383.311 85.1103 383.184 84.8521C383.12 84.723 383.071 84.6232 383.036 84.554C383.019 84.5194 383.006 84.4925 382.996 84.4733C382.992 84.4638 382.988 84.4562 382.985 84.4505C382.984 84.4477 382.982 84.4454 382.982 84.4436C382.981 84.4427 382.981 84.4417 382.98 84.4412C382.98 84.4403 382.98 84.4396 361.485 95.1157ZM385.851 149.023L363.431 157.588C366.877 166.608 370.986 178.758 374.307 188.911C375.951 193.934 377.37 198.37 378.377 201.548C378.88 203.135 379.28 204.406 379.553 205.276C379.689 205.711 379.793 206.045 379.863 206.268C379.898 206.38 379.924 206.464 379.941 206.518C379.949 206.546 379.955 206.566 379.959 206.579C379.961 206.585 379.963 206.589 379.964 206.592C379.964 206.593 379.964 206.594 379.964 206.594C379.964 206.595 379.964 206.594 379.964 206.595C379.964 206.594 379.964 206.594 402.886 199.48C425.807 192.367 425.807 192.366 425.807 192.366C425.807 192.365 425.807 192.364 425.806 192.364C425.806 192.362 425.805 192.36 425.804 192.358C425.803 192.353 425.801 192.346 425.798 192.337C425.793 192.319 425.785 192.294 425.775 192.262C425.755 192.197 425.725 192.103 425.687 191.981C425.611 191.737 425.5 191.381 425.356 190.923C425.07 190.008 424.654 188.686 424.133 187.043C423.092 183.759 421.627 179.179 419.928 173.985C416.565 163.708 412.156 150.63 408.271 140.458L385.851 149.023ZM402.886 199.48L380.117 207.07C381.061 209.902 382.181 213.085 383.207 215.832C383.885 217.646 385.4 221.728 387.007 224.541L407.845 212.634L428.683 200.727C428.936 201.168 429.102 201.5 429.172 201.64C429.251 201.801 429.296 201.898 429.301 201.91C429.308 201.926 429.257 201.812 429.14 201.527C428.907 200.962 428.577 200.119 428.171 199.032C427.365 196.873 426.435 194.234 425.654 191.891L402.886 199.48ZM407.845 212.634L384.562 218.455C386.316 225.47 391.967 235.76 403.566 240.731L413.02 218.671L422.474 196.612C425.637 197.967 427.546 199.947 428.553 201.269C429.449 202.446 430.471 204.183 431.129 206.813L407.845 212.634ZM413.02 218.671L400.3 239.023C400.547 239.177 400.777 239.32 400.969 239.44C401.172 239.566 401.324 239.66 401.463 239.747C401.757 239.931 401.824 239.976 401.8 239.96C401.754 239.93 400.763 239.277 399.581 238.095C398.266 236.78 397.355 235.464 396.784 234.47C396.341 233.698 396.202 233.282 396.434 233.847L418.627 224.709L440.819 215.571C439.828 213.165 437.829 208.461 433.522 204.154C431.558 202.19 429.664 200.85 428.48 200.058C427.501 199.404 426.203 198.609 425.74 198.32L413.02 218.671ZM418.627 224.709L396.155 233.136C395.133 230.411 394.949 228.036 395.137 226.04C395.35 223.779 396.172 220.834 398.31 218.054L417.333 232.687L436.356 247.32C444.724 236.442 443.925 223.818 441.099 216.282L418.627 224.709ZM417.333 232.687L398.133 218.287C399.031 217.091 400.414 215.755 402.282 214.691C404.081 213.667 405.654 213.277 406.498 213.132C407.215 213.009 407.48 213.054 406.69 213.054C406.31 213.054 405.886 213.046 405.171 213.032C404.538 213.019 403.624 213 402.67 213V237V261C403.064 261 403.498 261.008 404.207 261.022C404.833 261.035 405.745 261.054 406.69 261.054C408.547 261.054 411.414 260.991 414.637 260.437C422.092 259.154 430.3 255.398 436.533 247.087L417.333 232.687ZM402.67 237V213H352.213V237V261H402.67V237ZM352.213 237V213C350.505 213 350.15 213.003 349.798 212.983C349.614 212.973 350.44 212.995 351.731 213.373C353.177 213.796 354.902 214.573 356.55 215.851C358.156 217.097 359.076 218.344 359.499 219.031L339.059 231.609L318.62 244.188C323.319 251.825 330.084 257.051 338.248 259.441C344.519 261.276 350.983 261 352.213 261V237ZM339.059 231.609L360.991 221.862C361.83 223.749 362.09 225.143 362.153 225.493C362.25 226.023 362.28 226.408 362.29 226.698C362.299 226.963 362.307 227.541 362.194 228.411C362.136 228.862 362.022 229.57 361.79 230.459C361.57 231.299 361.142 232.701 360.31 234.364L338.844 223.631L317.378 212.898C314.102 219.449 314.241 226.134 314.319 228.381C314.421 231.282 314.903 236.351 317.128 241.357L339.059 231.609ZM338.844 223.631L359.913 235.123C359.913 235.125 359.895 235.158 359.861 235.216C359.827 235.274 359.773 235.366 359.7 235.484C359.556 235.717 359.313 236.091 358.968 236.553C358.21 237.571 357.151 238.755 355.767 239.888C354.47 240.949 353.374 241.561 353.039 241.743C352.941 241.797 352.725 241.906 353.674 241.432L342.941 219.965L332.208 198.499C332.079 198.563 330.973 199.104 330.106 199.576C329.004 200.175 327.261 201.192 325.371 202.738C321.253 206.108 318.991 209.907 317.774 212.139L338.844 223.631ZM342.941 219.965L357.933 238.706C356.321 239.996 354.938 240.726 354.505 240.952C354.011 241.208 353.653 241.362 353.874 241.263C353.904 241.25 354.499 240.987 355.038 240.732C355.643 240.445 356.577 239.985 357.643 239.358C359.596 238.209 363.294 235.76 366.361 231.338C369.827 226.342 371.471 220.289 370.955 214.091L347.038 216.084L323.121 218.077C322.712 213.172 324.033 208.144 326.919 203.983C329.406 200.397 332.269 198.595 333.306 197.985C334.264 197.422 335.207 197.03 334.258 197.454C334.028 197.558 333.242 197.907 332.366 198.362C331.55 198.786 329.83 199.719 327.948 201.224L342.941 219.965ZM288.386 161.314V185.314H331.944V161.314V137.314H288.386V161.314ZM331.944 161.314C354.742 153.815 354.742 153.814 354.742 153.814C354.741 153.813 354.741 153.813 354.741 153.812C354.741 153.811 354.74 153.81 354.74 153.808C354.739 153.805 354.737 153.801 354.736 153.796C354.732 153.786 354.728 153.771 354.722 153.753C354.71 153.717 354.693 153.666 354.671 153.6C354.627 153.468 354.564 153.277 354.483 153.032C354.321 152.544 354.087 151.842 353.795 150.971C353.213 149.233 352.394 146.813 351.45 144.076C349.6 138.717 347.124 131.732 344.955 126.309L322.672 135.223L300.388 144.136C302.1 148.417 304.261 154.478 306.077 159.738C306.965 162.311 307.737 164.594 308.286 166.232C308.56 167.05 308.778 167.704 308.926 168.15C309 168.372 309.056 168.543 309.093 168.655C309.112 168.712 309.126 168.753 309.134 168.78C309.139 168.793 309.142 168.803 309.144 168.808C309.145 168.811 309.145 168.813 309.146 168.814C309.146 168.814 309.146 168.814 309.146 168.814C309.146 168.814 309.146 168.814 309.146 168.814C309.146 168.814 309.145 168.813 331.944 161.314ZM322.672 135.223L345.027 126.49C342.069 118.918 338.757 111.552 336.238 106.175C334.967 103.461 333.872 101.198 333.087 99.5992C332.694 98.7988 332.377 98.162 332.154 97.7154C332.042 97.492 331.954 97.316 331.891 97.1906C331.859 97.1278 331.834 97.0777 331.815 97.0407C331.805 97.0222 331.798 97.0069 331.792 96.995C331.789 96.989 331.786 96.9839 331.784 96.9796C331.783 96.9774 331.782 96.9754 331.781 96.9737C331.78 96.9728 331.78 96.9717 331.78 96.9713C331.779 96.9702 331.779 96.9691 310.381 107.838C288.983 118.707 288.982 118.706 288.982 118.705C288.982 118.705 288.981 118.704 288.981 118.703C288.981 118.702 288.98 118.702 288.98 118.701C288.979 118.7 288.979 118.7 288.98 118.701C288.98 118.702 288.983 118.706 288.986 118.714C288.994 118.729 289.008 118.757 289.028 118.797C289.069 118.877 289.134 119.007 289.221 119.182C289.397 119.532 289.661 120.064 289.999 120.753C290.677 122.132 291.643 124.128 292.771 126.536C295.05 131.4 297.884 137.727 300.317 143.955L322.672 135.223ZM310.381 107.838C288.983 96.9691 288.982 96.9698 288.982 96.9706C288.982 96.9709 288.981 96.9717 288.981 96.9724C288.98 96.9736 288.98 96.9751 288.979 96.9768C288.977 96.9803 288.975 96.9845 288.972 96.9895C288.967 96.9997 288.96 97.0131 288.952 97.0297C288.935 97.063 288.912 97.1093 288.882 97.168C288.823 97.2855 288.738 97.453 288.631 97.6668C288.416 98.0944 288.108 98.7082 287.726 99.4787C286.961 101.018 285.892 103.193 284.655 105.766C282.204 110.861 278.994 117.732 276.186 124.4L298.305 133.713L320.425 143.027C322.792 137.404 325.619 131.337 327.913 126.567C329.047 124.208 330.026 122.218 330.717 120.826C331.063 120.131 331.335 119.588 331.517 119.224C331.609 119.043 331.678 118.906 331.722 118.819C331.744 118.775 331.76 118.744 331.769 118.725C331.774 118.715 331.777 118.709 331.779 118.706C331.78 118.704 331.78 118.704 331.78 118.704C331.78 118.704 331.78 118.704 331.78 118.705C331.779 118.705 331.779 118.705 331.779 118.705C331.779 118.706 331.779 118.707 310.381 107.838ZM298.305 133.713L275.929 125.037C273.739 130.684 271.157 137.875 269.176 143.494C268.173 146.337 267.301 148.842 266.68 150.638C266.369 151.537 266.12 152.259 265.948 152.76C265.862 153.01 265.795 153.206 265.749 153.339C265.726 153.406 265.708 153.458 265.696 153.494C265.69 153.512 265.685 153.526 265.682 153.535C265.68 153.54 265.679 153.544 265.678 153.547C265.678 153.548 265.677 153.549 265.677 153.55C265.677 153.551 265.677 153.551 265.676 153.552C265.676 153.552 265.676 153.552 288.386 161.314C311.097 169.076 311.097 169.076 311.097 169.076C311.097 169.076 311.097 169.076 311.097 169.076C311.097 169.076 311.097 169.076 311.097 169.075C311.097 169.074 311.098 169.071 311.099 169.068C311.102 169.061 311.105 169.051 311.11 169.036C311.12 169.006 311.136 168.961 311.157 168.901C311.198 168.78 311.26 168.599 311.341 168.363C311.504 167.891 311.741 167.2 312.04 166.336C312.639 164.608 313.479 162.194 314.443 159.458C316.397 153.918 318.775 147.309 320.682 142.39L298.305 133.713ZM434.602 228.375L458.536 226.602L458.492 225.998L458.417 225.398L434.602 228.375ZM438.914 219.534L426.567 198.954L425.505 199.591L424.514 200.334L438.914 219.534ZM445.815 215.006L426.87 200.271L425.98 201.415L425.235 202.658L445.815 215.006ZM445.815 89.725L425.235 102.073L425.669 102.797L426.153 103.488L445.815 89.725ZM438.914 85.1968L424.514 104.397L425.505 105.14L426.566 105.777L438.914 85.1968ZM434.602 76.356L458.431 79.2154L458.443 79.1109L458.455 79.0063L434.602 76.356ZM517.404 76.356L493.469 78.1289L493.507 78.6456L493.568 79.1602L517.404 76.356ZM513.091 85.1968L525.439 105.777L526.109 105.374L526.752 104.929L513.091 85.1968ZM506.191 89.725L485.611 77.3771V77.3771L506.191 89.725ZM508.347 215.868L523.545 197.293L522.528 196.462L521.427 195.746L508.347 215.868ZM530.773 216.515L538 239.401L538.352 239.29L538.701 239.168L530.773 216.515ZM543.495 206.596L561.397 222.581L561.652 222.296L561.897 222.003L543.495 206.596ZM555.139 193.012L569.966 211.883L570.049 211.818L570.131 211.752L555.139 193.012ZM566.998 190.424L558.701 212.944L559.395 213.2L560.102 213.412L566.998 190.424ZM573.683 199.696L597.472 202.868L597.472 202.868L573.683 199.696ZM563.548 233.766L581.057 250.18L581.075 250.161L581.094 250.141L563.548 233.766ZM445.383 237V213C445.502 213 448.722 212.99 452.429 215.837C456.796 219.192 458.327 223.779 458.536 226.602L434.602 228.375L410.667 230.148C411.308 238.793 415.103 247.692 423.19 253.904C430.616 259.608 439.012 261 445.383 261V237ZM434.602 228.375L458.417 225.398C458.942 229.599 457.791 232.806 456.864 234.566C455.949 236.305 454.749 237.658 453.314 238.734L438.914 219.534L424.514 200.334C417.667 205.47 408.934 216.529 410.787 231.352L434.602 228.375ZM438.914 219.534L451.262 240.114C449.962 240.894 448.947 241.252 449.346 241.096C449.426 241.066 449.499 241.038 449.689 240.965C449.848 240.903 450.09 240.81 450.356 240.705C450.887 240.495 451.683 240.171 452.595 239.746C454.472 238.87 456.992 237.497 459.596 235.324C462.253 233.107 464.544 230.438 466.394 227.354L445.815 215.006L425.235 202.658C426.115 201.19 427.328 199.734 428.846 198.468C430.311 197.245 431.631 196.559 432.296 196.249C432.601 196.107 432.787 196.036 432.711 196.066C432.673 196.081 432.612 196.105 432.47 196.159C432.358 196.202 432.131 196.289 431.912 196.375C431.466 196.549 430.705 196.85 429.834 197.245C428.942 197.65 427.811 198.207 426.567 198.954L438.914 219.534ZM445.815 215.006L464.759 229.74C469.36 223.824 470.505 217.487 470.894 214.761C471.354 211.539 471.324 208.658 471.324 207.89H447.324H423.324C423.324 208.848 423.294 208.554 423.376 207.973C423.427 207.618 423.57 206.752 423.968 205.581C424.356 204.443 425.177 202.448 426.87 200.271L445.815 215.006ZM447.324 207.89H471.324V96.8408H447.324H423.324V207.89H447.324ZM447.324 96.8408H471.324C471.324 96.0598 471.355 93.2088 470.884 89.9812C470.443 86.9558 469.286 81.405 465.476 75.9619L445.815 89.725L426.153 103.488C424.931 101.743 424.278 100.166 423.931 99.1297C423.582 98.0892 423.443 97.2984 423.387 96.908C423.293 96.268 423.324 95.8967 423.324 96.8408H447.324ZM445.815 89.725L466.394 77.3771C464.544 74.2923 462.253 71.6233 459.596 69.4065C456.992 67.2341 454.472 65.861 452.595 64.9848C451.683 64.5594 450.887 64.2357 450.356 64.0257C450.09 63.9207 449.848 63.8275 449.689 63.7662C449.499 63.6932 449.426 63.6653 449.346 63.6343C448.948 63.4788 449.962 63.8369 451.262 64.617L438.914 85.1968L426.566 105.777C427.811 106.523 428.942 107.081 429.834 107.486C430.705 107.881 431.466 108.182 431.912 108.356C432.131 108.442 432.358 108.529 432.47 108.572C432.612 108.626 432.673 108.65 432.711 108.665C432.787 108.695 432.601 108.624 432.296 108.482C431.631 108.171 430.311 107.486 428.846 106.263C427.328 104.997 426.115 103.54 425.235 102.073L445.815 89.725ZM438.914 85.1968L453.314 65.9968C452.176 65.143 452.518 65.395 452.764 65.6077C453.247 66.0257 454.491 67.1681 455.706 69.0495C457.003 71.0581 457.846 73.2491 458.239 75.3777C458.604 77.351 458.487 78.7491 458.431 79.2154L434.602 76.356L410.773 73.4965C409.973 80.1639 410.744 87.906 415.384 95.0908C417.435 98.266 419.717 100.486 421.352 101.902C422.75 103.112 424.359 104.28 424.514 104.397L438.914 85.1968ZM434.602 76.356L458.455 79.0063C458.214 81.18 456.893 85.4781 452.644 88.7896C448.89 91.7152 445.557 91.7308 445.383 91.7308V67.7308V43.7308C438.957 43.7308 430.556 45.1479 423.136 50.9307C415.222 57.0992 411.637 65.71 410.749 73.7056L434.602 76.356ZM445.383 67.7308V91.7308H506.838V67.7308V43.7308H445.383V67.7308ZM506.838 67.7308V91.7308C506.445 91.7308 503.159 91.6656 499.469 88.7896C495.184 85.4497 493.677 80.9335 493.469 78.1289L517.404 76.356L541.338 74.583C540.699 65.9565 536.928 57.1277 528.977 50.9307C521.621 45.1976 513.268 43.7308 506.838 43.7308V67.7308ZM517.404 76.356L493.568 79.1602C492.738 72.1068 496.658 67.3831 499.43 65.4642L513.091 85.1968L526.752 104.929C535.13 99.1291 542.932 87.9366 541.239 73.5518L517.404 76.356ZM513.091 85.1968L500.743 64.617C502.043 63.8369 503.058 63.4788 502.659 63.6343C502.58 63.6653 502.507 63.6932 502.317 63.7662C502.157 63.8275 501.915 63.9207 501.649 64.0257C501.118 64.2357 500.322 64.5594 499.411 64.9848C497.533 65.861 495.013 67.2341 492.409 69.4065C489.752 71.6233 487.462 74.2923 485.611 77.3771L506.191 89.725L526.771 102.073C525.89 103.541 524.678 104.997 523.16 106.263C521.695 107.486 520.374 108.171 519.709 108.482C519.404 108.624 519.218 108.695 519.294 108.665C519.332 108.65 519.393 108.626 519.535 108.572C519.647 108.529 519.874 108.442 520.093 108.356C520.539 108.182 521.3 107.881 522.172 107.486C523.063 107.081 524.194 106.523 525.439 105.777L513.091 85.1968ZM506.191 89.725L485.611 77.3771C482.47 82.6122 481.58 87.7814 481.244 90.4678C480.874 93.4272 480.897 96.0505 480.897 96.8408H504.897H528.897C528.897 95.906 528.92 96.0496 528.873 96.4214C528.843 96.6651 528.755 97.2761 528.51 98.1296C528.271 98.9606 527.778 100.394 526.771 102.073L506.191 89.725ZM504.897 96.8408H480.897V192.58H504.897H528.897V96.8408H504.897ZM504.897 192.58H480.897C480.897 199.039 480.646 206.773 481.113 211.675C481.404 214.728 482.12 219.469 484.665 224.396C487.499 229.882 491.503 233.544 495.267 235.991L508.347 215.868L521.427 195.746C522.1 196.183 523.16 196.958 524.304 198.154C525.493 199.397 526.516 200.826 527.312 202.367C528.806 205.259 528.929 207.467 528.897 207.124C528.863 206.765 528.816 205.741 528.829 202.947C528.841 200.644 528.897 196.706 528.897 192.58H504.897ZM508.347 215.868L493.149 234.443C497.555 238.048 502.216 239.308 503.505 239.66C505.589 240.228 507.573 240.555 509.101 240.759C512.222 241.176 515.558 241.352 518.509 241.401C521.525 241.452 524.693 241.38 527.595 241.171C529.82 241.011 534.056 240.646 538 239.401L530.773 216.515L523.545 193.629C524.294 193.393 524.83 193.277 525.027 193.237C525.255 193.189 525.36 193.176 525.307 193.184C525.188 193.201 524.811 193.247 524.153 193.295C522.837 193.389 521.099 193.438 519.317 193.408C518.448 193.393 517.642 193.361 516.941 193.316C516.223 193.27 515.727 193.218 515.45 193.181C515.085 193.132 515.401 193.151 516.142 193.353C516.526 193.458 517.34 193.696 518.394 194.148C518.939 194.381 519.659 194.719 520.485 195.189C521.298 195.652 522.372 196.334 523.545 197.293L508.347 215.868ZM530.773 216.515L538.701 239.168C548.817 235.627 555.15 229.577 561.397 222.581L543.495 206.596L525.592 190.612C524.446 191.896 523.606 192.781 522.973 193.407C522.347 194.025 522.034 194.279 521.959 194.337C521.918 194.369 522.07 194.249 522.365 194.089C522.662 193.927 522.864 193.856 522.844 193.863L530.773 216.515ZM543.495 206.596L561.897 222.003C565.964 217.145 568.535 213.825 569.786 212.272C570.954 210.822 570.586 211.397 569.966 211.883L555.139 193.012L540.311 174.14C536.673 176.998 534.364 179.729 532.406 182.16C530.53 184.489 528.789 186.775 525.093 191.19L543.495 206.596ZM555.139 193.012L570.131 211.752C569.378 212.355 568.246 213.045 566.566 213.465C564.79 213.909 561.934 214.135 558.701 212.944L566.998 190.424L575.295 167.904C560.628 162.5 547.356 168.503 540.146 174.271L555.139 193.012ZM566.998 190.424L560.102 213.412C555.968 212.172 553.521 209.67 552.245 207.786C551.545 206.752 550.873 205.444 550.395 203.814C549.941 202.262 549.466 199.732 549.893 196.524L573.683 199.696L597.472 202.868C598.692 193.72 595.375 185.872 591.994 180.879C588.347 175.49 582.341 169.97 573.895 167.436L566.998 190.424ZM573.683 199.696L549.893 196.524C549.983 195.853 550.032 195.753 549.783 196.916C549.599 197.772 549.331 198.953 548.991 200.384C548.313 203.242 547.407 206.839 546.432 210.416C545.439 214.057 544.458 217.362 543.636 219.765C543.216 220.995 542.957 221.631 542.876 221.814C542.836 221.905 542.96 221.61 543.256 221.086C543.436 220.766 544.318 219.195 546.003 217.39L563.548 233.766L581.094 250.141C584.525 246.465 586.325 242.249 586.789 241.197C587.653 239.239 588.416 237.163 589.053 235.3C590.347 231.517 591.631 227.113 592.74 223.046C594.768 215.612 597.008 206.348 597.472 202.868L573.683 199.696ZM563.548 233.766L546.039 217.351C546.306 217.066 547.1 216.274 548.452 215.421C549.903 214.507 551.512 213.829 553.127 213.418C554.595 213.044 555.645 213.004 555.739 213C555.786 212.998 555.72 213.002 555.404 213.003C554.822 213.004 554.951 213 554.061 213V237V261C554.411 261 559.813 261.247 564.967 259.935C571.772 258.203 576.999 254.509 581.057 250.18L563.548 233.766ZM554.061 237V213H445.383V237V261H554.061V237ZM703.14 72.259L726.674 67.5523L726.538 66.8721L726.363 66.2008L703.14 72.259ZM708.099 100.075L731.858 96.6812L731.797 96.2511L731.72 95.8235L708.099 100.075ZM701.846 109.563L696.025 86.2795L695.524 86.4049L695.028 86.5518L701.846 109.563ZM689.771 105.897L668.933 117.805L669.244 118.348L669.582 118.875L689.771 105.897ZM661.955 88.6469V64.6469H660.249L658.56 64.8881L661.955 88.6469ZM658.72 89.725L645.407 69.7559L644.431 70.4069L643.522 71.15L658.72 89.725ZM658.073 215.006L678.653 202.658L678.359 202.168L678.042 201.693L658.073 215.006ZM664.973 219.534L679.373 200.334L678.383 199.591L677.321 198.954L664.973 219.534ZM669.286 228.375L645.471 225.398L645.396 225.998L645.352 226.602L669.286 228.375ZM586.7 228.375L610.634 226.602L610.59 225.998L610.515 225.398L586.7 228.375ZM591.012 219.534L578.664 198.954L577.603 199.591L576.612 200.334L591.012 219.534ZM597.913 215.006L578.968 200.271L578.078 201.415L577.333 202.658L597.913 215.006ZM597.697 89.725L580.726 106.695L581.173 107.142L581.642 107.564L597.697 89.725ZM594.463 88.6469L597.857 64.8881L596.168 64.6469H594.463V88.6469ZM566.646 105.897L587.484 117.805V117.805L566.646 105.897ZM554.571 109.563L561.164 86.4864L560.78 86.3765L560.392 86.2795L554.571 109.563ZM548.318 100.075L524.697 95.8235L524.62 96.2511L524.559 96.6811L548.318 100.075ZM553.493 72.259L576.682 78.4429L576.826 77.9032L576.945 77.3573L553.493 72.259ZM691.711 67.7308V91.7308C693.543 91.7308 693.696 91.7074 694.376 91.7289C694.84 91.7436 694.19 91.7655 693.012 91.4856C691.812 91.2005 689.04 90.3669 686.128 87.9606C682.888 85.2839 680.817 81.7663 679.917 78.3172L703.14 72.259L726.363 66.2008C724.816 60.272 721.532 54.9485 716.702 50.9578C712.199 47.2375 707.46 45.5818 704.103 44.7846C698.435 43.4384 692.007 43.7308 691.711 43.7308V67.7308ZM703.14 72.259L679.606 76.9657C680.197 79.9198 682.437 92.9849 684.479 104.327L708.099 100.075L731.72 95.8235C729.88 85.6026 727.377 71.0671 726.674 67.5523L703.14 72.259ZM708.099 100.075L684.34 103.469C684.136 102.04 683.917 98.8624 685.742 95.0416C686.746 92.9398 688.292 90.8491 690.413 89.1478C692.516 87.4604 694.578 86.6414 696.025 86.2795L701.846 109.563L707.667 132.846C717.318 130.433 724.972 124.278 729.055 115.729C732.605 108.296 732.493 101.129 731.858 96.6812L708.099 100.075ZM701.846 109.563L695.028 86.5518C696.716 86.0515 699.503 85.8295 702.65 86.9888C705.585 88.07 708.159 90.1191 709.959 92.919L689.771 105.897L669.582 118.875C677.352 130.962 692.715 137.3 708.664 132.574L701.846 109.563ZM689.771 105.897L710.609 93.9899C709.222 91.5639 708.575 90.1158 707.027 87.1119C705.83 84.7901 703.518 80.3462 699.691 76.2846C689.985 65.985 677.443 64.6469 667.561 64.6469V88.6469V112.647C669.012 112.647 669.907 112.706 670.399 112.758C670.891 112.81 670.771 112.835 670.257 112.685C669.694 112.521 668.739 112.171 667.614 111.496C666.461 110.803 665.498 109.989 664.757 109.203C664.069 108.473 663.731 107.934 663.719 107.915C663.711 107.901 663.759 107.977 663.874 108.185C663.991 108.396 664.146 108.685 664.361 109.103C664.58 109.529 664.817 109.999 665.123 110.606C665.413 111.183 665.763 111.88 666.136 112.611C666.897 114.098 667.82 115.857 668.933 117.805L689.771 105.897ZM667.561 88.6469V64.6469H661.955V88.6469V112.647H667.561V88.6469ZM661.955 88.6469L658.56 64.8881C654.479 65.4711 649.76 66.8541 645.407 69.7559L658.72 89.725L672.033 109.694C670.392 110.788 668.945 111.407 667.942 111.758C666.887 112.127 666.003 112.312 665.349 112.406L661.955 88.6469ZM658.72 89.725L643.522 71.15C640.35 73.7455 637.664 77.0386 635.784 80.9852C633.978 84.7745 633.338 88.2832 633.087 90.787C632.853 93.1265 632.915 95.1908 632.942 96.0827C632.981 97.3998 632.995 97.4804 632.995 97.9189H656.995H680.995C680.995 96.5246 680.928 94.9071 680.92 94.6474C680.9 93.9625 680.948 94.5714 680.849 95.5632C680.733 96.7192 680.376 98.9881 679.116 101.632C677.782 104.433 675.904 106.675 673.918 108.3L658.72 89.725ZM656.995 97.9189H632.995V207.89H656.995H680.995V97.9189H656.995ZM656.995 207.89H632.995C632.995 207.449 632.915 210.699 633.129 213.32C633.254 214.855 633.513 216.975 634.128 219.345C634.728 221.658 635.852 224.941 638.104 228.319L658.073 215.006L678.042 201.693C679.647 204.1 680.313 206.224 680.59 207.29C680.881 208.414 680.952 209.2 680.969 209.414C680.99 209.664 680.982 209.729 680.982 209.457C680.982 209.326 680.983 209.177 680.986 208.919C680.989 208.725 680.995 208.297 680.995 207.89H656.995ZM658.073 215.006L637.493 227.354C639.344 230.438 641.635 233.107 644.292 235.324C646.896 237.497 649.416 238.87 651.293 239.746C652.205 240.171 653 240.495 653.532 240.705C653.797 240.81 654.04 240.903 654.199 240.965C654.389 241.038 654.462 241.066 654.541 241.096C654.94 241.252 653.926 240.894 652.625 240.114L664.973 219.534L677.321 198.954C676.076 198.207 674.945 197.65 674.054 197.245C673.183 196.85 672.422 196.549 671.975 196.375C671.757 196.289 671.529 196.202 671.418 196.159C671.275 196.105 671.215 196.081 671.177 196.066C671.101 196.036 671.287 196.107 671.592 196.249C672.256 196.559 673.577 197.245 675.042 198.468C676.56 199.734 677.772 201.19 678.653 202.658L658.073 215.006ZM664.973 219.534L650.573 238.734C649.139 237.658 647.939 236.305 647.024 234.566C646.097 232.806 644.946 229.599 645.471 225.398L669.286 228.375L693.101 231.352C694.953 216.529 686.221 205.47 679.373 200.334L664.973 219.534ZM669.286 228.375L645.352 226.602C645.561 223.779 647.092 219.192 651.459 215.837C655.166 212.99 658.386 213 658.504 213V237V261C664.876 261 673.272 259.608 680.698 253.904C688.785 247.692 692.58 238.793 693.22 230.148L669.286 228.375ZM658.504 237V213H597.481V237V261H658.504V237ZM597.481 237V213C597.6 213 600.82 212.99 604.527 215.837C608.894 219.192 610.425 223.779 610.634 226.602L586.7 228.375L562.765 230.148C563.406 238.793 567.201 247.692 575.288 253.904C582.714 259.608 591.11 261 597.481 261V237ZM586.7 228.375L610.515 225.398C611.04 229.599 609.889 232.806 608.962 234.566C608.047 236.305 606.847 237.658 605.412 238.734L591.012 219.534L576.612 200.334C569.765 205.47 561.032 216.529 562.885 231.352L586.7 228.375ZM591.012 219.534L603.36 240.114C602.06 240.894 601.045 241.252 601.444 241.096C601.524 241.066 601.597 241.038 601.787 240.965C601.946 240.903 602.188 240.81 602.454 240.705C602.985 240.495 603.781 240.171 604.693 239.746C606.57 238.87 609.09 237.497 611.694 235.324C614.351 233.107 616.641 230.438 618.492 227.354L597.913 215.006L577.333 202.658C578.213 201.19 579.426 199.734 580.944 198.468C582.409 197.245 583.729 196.559 584.394 196.249C584.699 196.107 584.885 196.036 584.809 196.066C584.771 196.081 584.71 196.105 584.568 196.159C584.456 196.202 584.229 196.289 584.01 196.375C583.564 196.549 582.803 196.85 581.932 197.245C581.04 197.65 579.909 198.207 578.664 198.954L591.012 219.534ZM597.913 215.006L616.857 229.74C621.458 223.824 622.603 217.487 622.992 214.761C623.452 211.539 623.422 208.658 623.422 207.89H599.422H575.422C575.422 208.848 575.392 208.554 575.474 207.973C575.525 207.618 575.668 206.752 576.066 205.581C576.454 204.443 577.275 202.448 578.968 200.271L597.913 215.006ZM599.422 207.89H623.422V97.9189H599.422H575.422V207.89H599.422ZM599.422 97.9189H623.422C623.422 96.8173 623.439 97.4107 623.455 95.5702C623.464 94.5334 623.467 92.5612 623.197 90.3156C622.553 84.9513 620.303 77.7814 613.752 71.8859L597.697 89.725L581.642 107.564C579.789 105.897 578.188 103.771 577.063 101.317C576.001 99.0031 575.66 97.0467 575.539 96.0346C575.431 95.1366 575.461 94.62 575.457 95.1599C575.454 95.4083 575.449 95.6448 575.44 96.1663C575.432 96.6216 575.422 97.2381 575.422 97.9189H599.422ZM597.697 89.725L614.668 72.7546C610.223 68.3099 605.117 66.6845 604.073 66.3367C601.911 65.6157 599.774 65.1619 597.857 64.8881L594.463 88.6469L591.068 112.406C590.661 112.347 589.925 112.217 588.895 111.873C588.381 111.702 587.473 111.372 586.349 110.801C585.464 110.351 583.139 109.108 580.726 106.695L597.697 89.725ZM594.463 88.6469V64.6469H588.856V88.6469V112.647H594.463V88.6469ZM588.856 88.6469V64.6469C578.974 64.6469 566.432 65.985 556.726 76.2846C552.899 80.3462 550.587 84.7901 549.39 87.1119C547.842 90.1158 547.195 91.5639 545.808 93.9899L566.646 105.897L587.484 117.805C588.597 115.857 589.52 114.098 590.281 112.611C590.654 111.88 591.004 111.183 591.294 110.606C591.6 109.999 591.837 109.529 592.056 109.103C592.271 108.685 592.426 108.396 592.543 108.185C592.658 107.977 592.706 107.901 592.698 107.915C592.686 107.934 592.349 108.473 591.66 109.203C590.919 109.989 589.956 110.803 588.803 111.496C587.678 112.171 586.723 112.521 586.16 112.685C585.646 112.835 585.526 112.81 586.018 112.758C586.51 112.706 587.405 112.647 588.856 112.647V88.6469ZM566.646 105.897L545.808 93.9899C547.845 90.4265 550.865 88.1174 553.929 86.9888C557.161 85.798 559.827 86.1043 561.164 86.4864L554.571 109.563L547.978 132.639C563.295 137.016 579.612 131.581 587.484 117.805L566.646 105.897ZM554.571 109.563L560.392 86.2795C561.839 86.6414 563.901 87.4604 566.004 89.1478C568.125 90.8491 569.671 92.9398 570.675 95.0416C572.5 98.8624 572.281 102.04 572.077 103.469L548.318 100.075L524.559 96.6811C523.924 101.129 523.812 108.296 527.362 115.729C531.445 124.278 539.099 130.433 548.75 132.846L554.571 109.563ZM548.318 100.075L571.938 104.327C572.954 98.6806 573.966 92.9051 574.924 87.6195C575.39 85.0512 575.806 82.809 576.149 81.049C576.542 79.0337 576.709 78.3441 576.682 78.4429L553.493 72.259L530.303 66.0751C529.101 70.5852 526.419 86.2605 524.697 95.8235L548.318 100.075ZM553.493 72.259L576.945 77.3573C576.12 81.1504 573.964 84.99 570.53 87.8641C567.497 90.4026 564.609 91.2349 563.475 91.5009C562.328 91.77 561.715 91.7448 562.215 91.7292C562.92 91.7073 563.099 91.7308 564.921 91.7308V67.7308V43.7308C564.607 43.7308 558.169 43.4426 552.513 44.7693C549.196 45.5474 544.327 47.2018 539.724 51.0543C534.719 55.2424 531.404 60.8878 530.041 67.1607L553.493 72.259ZM564.921 67.7308V91.7308H691.711V67.7308V43.7308H564.921V67.7308Z" fill="#574BA6" mask="url(#path-3-outside-1_2102_601)"/>
<path d="M318.992 302.34C314.488 302.34 310.571 301.527 307.24 299.899C303.909 298.234 301.354 295.887 299.575 292.859C297.796 289.831 296.907 286.311 296.907 282.299C296.907 276.735 297.948 271.796 300.03 267.481C302.149 263.166 305.007 259.835 308.602 257.489C312.198 255.104 316.191 253.912 320.582 253.912C324.67 253.912 327.773 254.972 329.893 257.091C332.012 259.173 333.072 261.936 333.072 265.38C333.072 267.689 332.656 269.544 331.823 270.944C331.028 272.345 329.874 273.045 328.36 273.045C327.3 273.045 326.467 272.799 325.862 272.307C325.256 271.815 324.953 271.096 324.953 270.149C324.953 269.809 325.029 269.184 325.181 268.276C325.408 267.14 325.521 266.232 325.521 265.551C325.521 262.106 323.685 260.384 320.014 260.384C317.516 260.384 315.132 261.198 312.861 262.825C310.59 264.453 308.754 266.856 307.353 270.036C305.953 273.177 305.253 276.924 305.253 281.277C305.253 285.819 306.521 289.339 309.057 291.837C311.593 294.297 315.34 295.527 320.298 295.527C322.758 295.527 325.237 295.225 327.735 294.619C330.271 293.976 333.072 293.01 336.138 291.723C336.706 291.496 337.179 291.383 337.557 291.383C338.163 291.383 338.617 291.61 338.92 292.064C339.223 292.518 339.374 293.105 339.374 293.824C339.374 296.133 338.125 297.836 335.627 298.934C332.94 300.107 330.139 300.978 327.224 301.545C324.348 302.075 321.604 302.34 318.992 302.34ZM356.437 289.396C356.929 289.396 357.308 289.623 357.573 290.077C357.876 290.531 358.027 291.156 358.027 291.951C358.027 293.465 357.667 294.638 356.948 295.471C355.321 297.477 353.542 299.123 351.612 300.41C349.719 301.697 347.562 302.34 345.139 302.34C341.809 302.34 339.329 300.826 337.702 297.798C336.112 294.77 335.317 290.853 335.317 286.046C335.317 281.428 335.904 276.167 337.077 270.263C338.289 264.358 340.049 259.287 342.357 255.047C344.704 250.808 347.486 248.689 350.703 248.689C352.52 248.689 353.939 249.54 354.961 251.243C356.021 252.909 356.551 255.312 356.551 258.454C356.551 262.958 355.302 268.181 352.804 274.123C350.306 280.066 346.918 285.951 342.641 291.78C342.906 293.332 343.341 294.449 343.947 295.13C344.553 295.773 345.347 296.095 346.332 296.095C347.883 296.095 349.246 295.66 350.419 294.789C351.593 293.881 353.088 292.348 354.904 290.191C355.359 289.661 355.87 289.396 356.437 289.396ZM349.454 254.309C348.584 254.309 347.6 255.88 346.502 259.022C345.404 262.163 344.439 266.062 343.606 270.717C342.774 275.373 342.32 279.839 342.244 284.116C344.931 279.687 347.07 275.259 348.659 270.831C350.249 266.364 351.044 262.296 351.044 258.624C351.044 255.748 350.514 254.309 349.454 254.309ZM359.867 302.34C357.52 302.34 355.647 301.489 354.246 299.785C352.846 298.082 352.146 295.849 352.146 293.086C352.146 290.058 352.846 287.2 354.246 284.513C355.647 281.788 357.501 279.612 359.81 277.984C362.157 276.319 364.636 275.486 367.248 275.486C368.08 275.486 368.629 275.656 368.894 275.997C369.197 276.3 369.443 276.868 369.632 277.7C370.427 277.549 371.26 277.473 372.13 277.473C373.985 277.473 374.912 278.136 374.912 279.46C374.912 280.255 374.628 282.148 374.06 285.138C373.19 289.49 372.755 292.518 372.755 294.222C372.755 294.789 372.887 295.243 373.152 295.584C373.455 295.925 373.833 296.095 374.288 296.095C375.007 296.095 375.877 295.641 376.899 294.733C377.921 293.786 379.303 292.272 381.044 290.191C381.498 289.661 382.009 289.396 382.577 289.396C383.069 289.396 383.447 289.623 383.712 290.077C384.015 290.531 384.166 291.156 384.166 291.951C384.166 293.465 383.807 294.638 383.088 295.471C381.536 297.401 379.889 299.028 378.148 300.353C376.407 301.678 374.723 302.34 373.095 302.34C371.846 302.34 370.692 301.924 369.632 301.091C368.61 300.221 367.834 299.047 367.304 297.571C365.336 300.751 362.857 302.34 359.867 302.34ZM361.911 296.606C362.743 296.606 363.538 296.114 364.295 295.13C365.052 294.146 365.601 292.84 365.942 291.213L368.042 280.766C366.453 280.804 364.977 281.41 363.614 282.583C362.289 283.718 361.229 285.232 360.435 287.125C359.64 289.017 359.242 291.023 359.242 293.143C359.242 294.316 359.469 295.187 359.924 295.754C360.416 296.322 361.078 296.606 361.911 296.606ZM390.112 303.589C388.144 303.589 386.63 303.135 385.57 302.227C384.548 301.318 384.037 300.296 384.037 299.161C384.037 298.177 384.397 297.325 385.116 296.606C385.835 295.887 386.895 295.527 388.295 295.527C388.787 295.527 389.355 295.584 389.998 295.698C390.68 295.773 391.191 295.83 391.531 295.868C391.494 294.884 391.266 293.957 390.85 293.086C390.472 292.216 389.98 291.383 389.374 290.588C388.768 289.755 388.201 289.036 387.671 288.431C386.497 290.664 385.324 292.518 384.151 293.994C383.015 295.471 381.766 296.871 380.404 298.196C379.722 298.877 379.003 299.218 378.246 299.218C377.641 299.218 377.149 299.01 376.77 298.593C376.392 298.139 376.202 297.59 376.202 296.947C376.202 296.19 376.467 295.49 376.997 294.846L377.735 293.938C379.817 291.364 381.388 289.244 382.448 287.579C383.091 286.481 383.848 285.024 384.718 283.207C385.589 281.353 386.441 279.441 387.273 277.473C387.992 275.808 389.488 274.975 391.758 274.975C392.818 274.975 393.556 275.07 393.973 275.259C394.389 275.448 394.597 275.751 394.597 276.167C394.597 276.394 394.521 276.754 394.37 277.246C394.219 277.738 394.011 278.23 393.746 278.722C393.064 280.085 392.724 281.239 392.724 282.185C392.724 282.753 392.913 283.378 393.291 284.059C393.708 284.74 394.332 285.592 395.165 286.614C396.376 288.203 397.285 289.566 397.89 290.702C398.534 291.799 398.855 293.01 398.855 294.335C398.855 294.714 398.817 295.243 398.742 295.925C400.596 295.206 402.773 293.294 405.271 290.191C405.725 289.661 406.236 289.396 406.804 289.396C407.296 289.396 407.674 289.623 407.939 290.077C408.242 290.531 408.393 291.156 408.393 291.951C408.393 293.389 408.034 294.562 407.315 295.471C405.422 297.817 403.605 299.426 401.864 300.296C400.161 301.129 398.041 301.583 395.506 301.659C393.992 302.946 392.194 303.589 390.112 303.589ZM414.341 303.589C412.373 303.589 410.859 303.135 409.799 302.227C408.777 301.318 408.266 300.296 408.266 299.161C408.266 298.177 408.626 297.325 409.345 296.606C410.064 295.887 411.124 295.527 412.524 295.527C413.016 295.527 413.584 295.584 414.227 295.698C414.909 295.773 415.42 295.83 415.76 295.868C415.722 294.884 415.495 293.957 415.079 293.086C414.7 292.216 414.208 291.383 413.603 290.588C412.997 289.755 412.429 289.036 411.9 288.431C410.726 290.664 409.553 292.518 408.38 293.994C407.244 295.471 405.995 296.871 404.632 298.196C403.951 298.877 403.232 299.218 402.475 299.218C401.869 299.218 401.377 299.01 400.999 298.593C400.62 298.139 400.431 297.59 400.431 296.947C400.431 296.19 400.696 295.49 401.226 294.846L401.964 293.938C404.046 291.364 405.617 289.244 406.676 287.579C407.32 286.481 408.077 285.024 408.947 283.207C409.818 281.353 410.669 279.441 411.502 277.473C412.221 275.808 413.716 274.975 415.987 274.975C417.047 274.975 417.785 275.07 418.202 275.259C418.618 275.448 418.826 275.751 418.826 276.167C418.826 276.394 418.75 276.754 418.599 277.246C418.448 277.738 418.239 278.23 417.974 278.722C417.293 280.085 416.952 281.239 416.952 282.185C416.952 282.753 417.142 283.378 417.52 284.059C417.937 284.74 418.561 285.592 419.394 286.614C420.605 288.203 421.513 289.566 422.119 290.702C422.762 291.799 423.084 293.01 423.084 294.335C423.084 294.714 423.046 295.243 422.971 295.925C424.825 295.206 427.002 293.294 429.5 290.191C429.954 289.661 430.465 289.396 431.032 289.396C431.525 289.396 431.903 289.623 432.168 290.077C432.471 290.531 432.622 291.156 432.622 291.951C432.622 293.389 432.263 294.562 431.543 295.471C429.651 297.817 427.834 299.426 426.093 300.296C424.39 301.129 422.27 301.583 419.734 301.659C418.22 302.946 416.423 303.589 414.341 303.589ZM435.447 271.853C433.857 271.853 432.665 271.493 431.87 270.774C431.075 270.017 430.678 268.976 430.678 267.651C430.678 266.327 431.189 265.229 432.211 264.358C433.271 263.45 434.577 262.996 436.128 262.996C437.529 262.996 438.664 263.336 439.535 264.018C440.405 264.699 440.841 265.664 440.841 266.913C440.841 268.427 440.349 269.638 439.365 270.547C438.38 271.417 437.075 271.853 435.447 271.853ZM434.993 302.34C432.533 302.34 430.735 301.47 429.599 299.729C428.502 297.988 427.953 295.679 427.953 292.802C427.953 291.099 428.161 288.923 428.577 286.273C429.032 283.586 429.599 281.088 430.281 278.779C430.621 277.568 431.075 276.735 431.643 276.281C432.211 275.827 433.119 275.6 434.368 275.6C436.299 275.6 437.264 276.243 437.264 277.53C437.264 278.476 436.904 280.671 436.185 284.116C435.277 288.279 434.823 291.099 434.823 292.575C434.823 293.711 434.974 294.581 435.277 295.187C435.58 295.792 436.091 296.095 436.81 296.095C437.491 296.095 438.343 295.622 439.365 294.676C440.386 293.73 441.749 292.234 443.452 290.191C443.906 289.661 444.417 289.396 444.985 289.396C445.477 289.396 445.856 289.623 446.121 290.077C446.423 290.531 446.575 291.156 446.575 291.951C446.575 293.465 446.215 294.638 445.496 295.471C441.749 300.05 438.248 302.34 434.993 302.34ZM452.541 302.34C448.946 302.34 446.126 301.299 444.082 299.218C442.076 297.098 441.073 294.316 441.073 290.872C441.073 287.806 441.679 285.119 442.89 282.81C444.101 280.501 445.672 278.722 447.602 277.473C449.532 276.224 451.557 275.6 453.677 275.6C455.759 275.6 457.367 276.224 458.503 277.473C459.676 278.684 460.263 280.255 460.263 282.185C460.263 283.775 459.903 285.119 459.184 286.216C458.503 287.314 457.594 287.863 456.459 287.863C455.74 287.863 455.153 287.693 454.699 287.352C454.283 287.011 454.074 286.538 454.074 285.933C454.074 285.668 454.112 285.365 454.188 285.024C454.264 284.683 454.32 284.437 454.358 284.286C454.547 283.718 454.642 283.188 454.642 282.696C454.642 282.204 454.51 281.826 454.245 281.561C454.018 281.296 453.677 281.163 453.223 281.163C452.352 281.163 451.538 281.561 450.781 282.356C450.024 283.113 449.419 284.154 448.965 285.478C448.51 286.803 448.283 288.26 448.283 289.85C448.283 292.007 448.719 293.654 449.589 294.789C450.498 295.887 451.766 296.436 453.393 296.436C454.68 296.436 455.853 296.057 456.913 295.3C458.011 294.543 459.089 293.427 460.149 291.951C460.603 291.383 461.114 291.099 461.682 291.099C462.174 291.099 462.553 291.326 462.818 291.78C463.12 292.234 463.272 292.859 463.272 293.654C463.272 295.016 462.95 296.19 462.307 297.174C461.285 298.763 459.941 300.031 458.276 300.978C456.61 301.886 454.699 302.34 452.541 302.34Z" fill="white"/>
</svg>
