<svg width="38" height="156" viewBox="0 0 38 156" fill="none" xmlns="http://www.w3.org/2000/svg">
<path d="M12.3838 127.085C14.4238 127.085 16.2958 127.613 17.9998 128.669C19.7038 129.725 21.0958 131.261 22.1758 133.277C23.2558 135.293 23.8918 137.693 24.0838 140.477L32.7598 142.025C36.0958 142.625 37.7638 144.257 37.7638 146.921C37.7638 148.385 37.3318 149.741 36.4678 150.989C35.6038 152.213 34.2838 153.197 32.5078 153.941C30.7318 154.685 28.5478 155.057 25.9558 155.057C21.0838 155.057 16.9558 154.277 13.5718 152.717C10.1638 151.133 7.61984 149.021 5.93984 146.381C4.23584 143.717 3.38384 140.789 3.38384 137.597C3.38384 135.341 3.77984 133.433 4.57184 131.873C5.36384 130.289 6.44384 129.101 7.81184 128.309C9.15584 127.493 10.6798 127.085 12.3838 127.085ZM20.3758 139.829C19.7518 134.909 17.1958 132.449 12.7078 132.449C11.1238 132.449 9.83984 132.977 8.85584 134.033C7.84784 135.065 7.34384 136.673 7.34384 138.857C7.34384 141.329 8.12384 143.489 9.68384 145.337C11.2438 147.161 13.4158 148.577 16.1998 149.585C18.9598 150.569 22.1158 151.061 25.6678 151.061C27.1558 151.061 28.4758 150.917 29.6278 150.629C30.7798 150.317 31.6798 149.933 32.3278 149.477C32.9518 148.997 33.2638 148.541 33.2638 148.109C33.2638 147.509 32.4358 147.053 30.7798 146.741L23.9758 145.553C23.8318 146.489 23.7718 146.897 23.7958 146.777C23.6758 147.497 23.4598 147.965 23.1478 148.181C22.8118 148.397 22.3918 148.505 21.8878 148.505C21.3598 148.505 20.9398 148.361 20.6278 148.073C20.3158 147.761 20.1598 147.341 20.1598 146.813C20.1598 146.573 20.1718 146.393 20.1958 146.273C20.2918 145.697 20.3518 145.253 20.3758 144.941C18.5038 144.629 15.9958 144.185 12.8518 143.609C12.0358 143.465 11.4598 143.141 11.1238 142.637C10.7638 142.109 10.5838 141.497 10.5838 140.801C10.5838 140.009 10.7398 139.445 11.0518 139.109C11.3398 138.749 11.8078 138.569 12.4558 138.569C12.8398 138.569 13.1518 138.593 13.3918 138.641L20.3758 139.829ZM34.0198 125.605C34.0198 126.517 33.5398 127.165 32.5798 127.549C31.6198 127.909 30.0838 128.089 27.9718 128.089C24.8518 128.089 21.8878 127.645 19.0798 126.757C18.3838 126.541 17.8798 126.193 17.5678 125.713C17.2318 125.209 17.0638 124.513 17.0638 123.625C17.0638 123.145 17.1238 122.809 17.2438 122.617C17.3638 122.425 17.5918 122.329 17.9278 122.329C18.3118 122.329 19.1758 122.509 20.5198 122.869C21.4798 123.109 22.3198 123.301 23.0398 123.445C23.7598 123.589 24.6478 123.709 25.7038 123.805C23.6398 123.013 21.9598 122.125 20.6638 121.141C19.3678 120.157 18.4438 119.197 17.8918 118.261C17.3398 117.301 17.0638 116.425 17.0638 115.633C17.0638 114.073 17.8438 113.293 19.4038 113.293C19.7158 113.293 20.4718 113.401 21.6718 113.617C22.6318 113.809 23.2318 113.905 23.4718 113.905C24.3118 113.905 24.7318 113.605 24.7318 113.005C24.7318 112.333 24.2038 111.469 23.1478 110.413C22.8358 110.101 22.6798 109.777 22.6798 109.441C22.6798 109.129 22.8238 108.889 23.1118 108.721C23.3758 108.529 23.7358 108.433 24.1918 108.433C25.0798 108.433 25.7758 108.673 26.2798 109.153C26.9758 109.825 27.5758 110.617 28.0798 111.529C28.5598 112.417 28.7998 113.365 28.7998 114.373C28.7998 115.645 28.4758 116.617 27.8278 117.289C27.1798 117.937 26.3038 118.261 25.1998 118.261C24.8398 118.261 24.4798 118.225 24.1198 118.153C23.6398 118.105 23.3158 118.081 23.1478 118.081C22.7638 118.081 22.5718 118.213 22.5718 118.477C22.5718 118.837 22.9798 119.317 23.7958 119.917C24.5878 120.493 25.6438 121.069 26.9638 121.645C28.2838 122.221 29.6758 122.689 31.1398 123.049C32.2678 123.313 33.0358 123.625 33.4438 123.985C33.8278 124.321 34.0198 124.861 34.0198 125.605ZM25.8118 95.722C25.8118 95.41 25.9558 95.17 26.2438 95.002C26.5318 94.81 26.9278 94.714 27.4318 94.714C28.3918 94.714 29.1358 94.942 29.6638 95.398C30.7438 96.286 31.7398 97.546 32.6518 99.178C33.5638 100.786 34.0198 102.514 34.0198 104.362C34.0198 106.882 33.3358 108.838 31.9678 110.23C30.5998 111.622 28.7278 112.318 26.3518 112.318C24.6958 112.318 23.1598 111.97 21.7438 111.274C20.3038 110.578 19.1638 109.618 18.3238 108.394C17.4838 107.146 17.0638 105.742 17.0638 104.182C17.0638 102.79 17.4838 101.674 18.3238 100.834C19.1398 99.994 20.2558 99.574 21.6718 99.574C23.3278 99.574 24.7558 100.174 25.9558 101.374C27.1318 102.55 28.0678 104.554 28.7638 107.386C29.8678 106.786 30.4198 105.646 30.4198 103.966C30.4198 102.886 30.0478 101.662 29.3038 100.294C28.5358 98.902 27.5398 97.702 26.3158 96.694C25.9798 96.406 25.8118 96.082 25.8118 95.722ZM20.5918 104.794C20.5918 105.682 21.1078 106.438 22.1398 107.062C23.1718 107.662 24.4198 107.962 25.8838 107.962L25.9558 107.962C25.6198 106.546 25.1158 105.43 24.4438 104.614C23.7718 103.798 22.9918 103.39 22.1038 103.39C21.6478 103.39 21.2878 103.522 21.0238 103.786C20.7358 104.026 20.5918 104.362 20.5918 104.794ZM34.8118 90.9492C34.8118 92.1972 34.5238 93.1572 33.9478 93.8292C33.3718 94.4772 32.7238 94.8012 32.0038 94.8012C31.3798 94.8012 30.8398 94.5732 30.3838 94.1172C29.9278 93.6612 29.6998 92.9892 29.6998 92.1012C29.6998 91.7892 29.7358 91.4292 29.8078 91.0212C29.8558 90.5892 29.8918 90.2652 29.9158 90.0492C29.2918 90.0732 28.7038 90.2172 28.1518 90.4812C27.5998 90.7212 27.0718 91.0332 26.5678 91.4172C26.0398 91.8012 25.5838 92.1612 25.1998 92.4972C26.6158 93.2412 27.7918 93.9852 28.7278 94.7292C29.6638 95.4492 30.5518 96.2412 31.3918 97.1052C31.8238 97.5372 32.0398 97.9932 32.0398 98.4732C32.0398 98.8572 31.9078 99.1692 31.6438 99.4092C31.3558 99.6492 31.0078 99.7692 30.5998 99.7692C30.1198 99.7692 29.6758 99.6012 29.2678 99.2652L28.6918 98.7972C27.0598 97.4772 25.7158 96.4812 24.6598 95.8092C23.9638 95.4012 23.0398 94.9212 21.8878 94.3692C20.7118 93.8172 19.4998 93.2772 18.2518 92.7492C17.1958 92.2932 16.6678 91.3452 16.6678 89.9052C16.6678 89.2332 16.7278 88.7652 16.8478 88.5012C16.9678 88.2372 17.1598 88.1052 17.4238 88.1052C17.5678 88.1052 17.7958 88.1532 18.1078 88.2492C18.4198 88.3452 18.7318 88.4772 19.0438 88.6452C19.9078 89.0772 20.6398 89.2932 21.2398 89.2932C21.5998 89.2932 21.9958 89.1732 22.4278 88.9332C22.8598 88.6692 23.3998 88.2732 24.0478 87.7452C25.0558 86.9772 25.9198 86.4012 26.6398 86.0172C27.3358 85.6092 28.1038 85.4052 28.9438 85.4052C29.1838 85.4052 29.5198 85.4292 29.9518 85.4772C29.4958 84.3012 28.2838 82.9212 26.3158 81.3372C25.9798 81.0492 25.8118 80.7252 25.8118 80.3652C25.8118 80.0532 25.9558 79.8132 26.2438 79.6452C26.5318 79.4532 26.9278 79.3572 27.4318 79.3572C28.3438 79.3572 29.0878 79.5852 29.6638 80.0412C31.1518 81.2412 32.1718 82.3932 32.7238 83.4972C33.2518 84.5772 33.5398 85.9212 33.5878 87.5292C34.4038 88.4892 34.8118 89.6292 34.8118 90.9492ZM25.8118 66.2259C25.8118 65.9139 25.9558 65.6739 26.2438 65.5059C26.5318 65.3139 26.9278 65.2179 27.4318 65.2179C28.3918 65.2179 29.1358 65.4459 29.6638 65.9019C30.7438 66.7899 31.7398 68.0499 32.6518 69.6819C33.5638 71.2899 34.0198 73.0179 34.0198 74.8659C34.0198 77.3859 33.3358 79.3419 31.9678 80.7339C30.5998 82.1259 28.7278 82.8219 26.3518 82.8219C24.6958 82.8219 23.1598 82.4739 21.7438 81.7779C20.3038 81.0819 19.1638 80.1219 18.3238 78.8979C17.4838 77.6499 17.0638 76.2459 17.0638 74.6859C17.0638 73.2939 17.4838 72.1779 18.3238 71.3379C19.1398 70.4979 20.2558 70.0779 21.6718 70.0779C23.3278 70.0779 24.7558 70.6779 25.9558 71.8779C27.1318 73.0539 28.0678 75.0579 28.7638 77.8899C29.8678 77.2899 30.4198 76.1499 30.4198 74.4699C30.4198 73.3899 30.0478 72.1659 29.3038 70.7979C28.5358 69.4059 27.5398 68.2059 26.3158 67.1979C25.9798 66.9099 25.8118 66.5859 25.8118 66.2259ZM20.5918 75.2979C20.5918 76.1859 21.1078 76.9419 22.1398 77.5659C23.1718 78.1659 24.4198 78.4659 25.8838 78.4659L25.9558 78.4659C25.6198 77.0499 25.1158 75.9339 24.4438 75.1179C23.7718 74.3019 22.9918 73.8939 22.1038 73.8939C21.6478 73.8939 21.2878 74.0259 21.0238 74.2899C20.7358 74.5299 20.5918 74.8659 20.5918 75.2979ZM34.0198 65.5931C34.0198 66.5051 33.5398 67.1531 32.5798 67.5371C31.6198 67.8971 30.0838 68.0771 27.9718 68.0771C24.8518 68.0771 21.8878 67.6331 19.0798 66.7451C18.3838 66.5291 17.8798 66.1811 17.5678 65.7011C17.2318 65.1971 17.0638 64.5011 17.0638 63.6131C17.0638 63.1331 17.1238 62.7971 17.2438 62.6051C17.3638 62.4131 17.5918 62.3171 17.9278 62.3171C18.3118 62.3171 19.1758 62.4971 20.5198 62.8571C21.4798 63.0971 22.3198 63.2891 23.0398 63.4331C23.7598 63.5771 24.6478 63.6971 25.7038 63.7931C23.6398 63.0011 21.9598 62.1131 20.6638 61.1291C19.3678 60.1451 18.4438 59.1851 17.8918 58.2491C17.3398 57.2891 17.0638 56.4131 17.0638 55.6211C17.0638 54.0611 17.8438 53.2811 19.4038 53.2811C19.7158 53.2811 20.4718 53.3891 21.6718 53.6051C22.6318 53.7971 23.2318 53.8931 23.4718 53.8931C24.3118 53.8931 24.7318 53.5931 24.7318 52.9931C24.7318 52.3211 24.2038 51.4571 23.1478 50.4011C22.8358 50.0891 22.6798 49.7651 22.6798 49.4291C22.6798 49.1171 22.8238 48.8771 23.1118 48.7091C23.3758 48.5171 23.7358 48.4211 24.1918 48.4211C25.0798 48.4211 25.7758 48.6611 26.2798 49.1411C26.9758 49.8131 27.5758 50.6051 28.0798 51.5171C28.5598 52.4051 28.7998 53.3531 28.7998 54.3611C28.7998 55.6331 28.4758 56.6051 27.8278 57.2771C27.1798 57.9251 26.3038 58.2491 25.1998 58.2491C24.8398 58.2491 24.4798 58.2131 24.1198 58.1411C23.6398 58.0931 23.3158 58.0691 23.1478 58.0691C22.7638 58.0691 22.5718 58.2011 22.5718 58.4651C22.5718 58.8251 22.9798 59.3051 23.7958 59.9051C24.5878 60.4811 25.6438 61.0571 26.9638 61.6331C28.2838 62.2091 29.6758 62.6771 31.1398 63.0371C32.2678 63.3011 33.0358 63.6131 33.4438 63.9731C33.8278 64.3091 34.0198 64.8491 34.0198 65.5931ZM22.8958 32.5049C22.8718 32.4329 22.8598 32.3129 22.8598 32.1449C22.8598 31.7849 22.9798 31.5089 23.2198 31.3169C23.4598 31.1249 23.7838 31.0289 24.1918 31.0289C24.9358 31.0289 25.5238 31.1729 25.9558 31.4609C26.3638 31.7489 26.6638 32.1809 26.8558 32.7569C27.2158 33.8609 27.3958 35.0369 27.3958 36.2849C27.3958 37.3409 27.2518 38.3369 26.9638 39.2729C28.0918 39.9689 29.2558 40.7369 30.4558 41.5769C31.8238 42.5369 32.7598 43.3649 33.2638 44.0609C33.7678 44.7569 34.0198 45.5489 34.0198 46.4369C34.0198 47.4209 33.6358 48.2009 32.8678 48.7769C32.0998 49.3289 30.8878 49.6769 29.2318 49.8209C25.8718 50.1089 22.9318 50.2529 20.4118 50.2529L19.1518 50.2529C18.3598 50.2289 17.8078 50.0129 17.4958 49.6049C17.1838 49.1969 17.0278 48.5849 17.0278 47.7689C17.0278 47.1449 17.1718 46.6889 17.4598 46.4009C17.7238 46.0889 18.1798 45.9329 18.8278 45.9329C21.5878 45.9329 25.1758 45.7649 29.5918 45.4289C27.4558 43.9889 25.7518 42.9089 24.4798 42.1889C23.7838 42.5489 22.9558 42.7289 21.9958 42.7289C21.1798 42.7289 20.3878 42.5489 19.6198 42.1889C18.8518 41.8289 18.2278 41.3369 17.7478 40.7129C17.2678 40.0889 17.0278 39.3809 17.0278 38.5889C17.0278 37.8929 17.2798 37.3289 17.7838 36.8969C18.2638 36.4649 18.9718 36.2489 19.9078 36.2489C20.9878 36.2489 22.2238 36.5369 23.6158 37.1129C23.5678 36.2009 23.3878 34.9889 23.0758 33.4769L22.8958 32.5049ZM25.8118 18.097C25.8118 17.785 25.9558 17.545 26.2438 17.377C26.5318 17.185 26.9278 17.089 27.4318 17.089C28.3918 17.089 29.1358 17.317 29.6638 17.773C30.7438 18.661 31.7398 19.921 32.6518 21.553C33.5638 23.161 34.0198 24.889 34.0198 26.737C34.0198 29.257 33.3358 31.213 31.9678 32.605C30.5998 33.997 28.7278 34.693 26.3518 34.693C24.6958 34.693 23.1598 34.345 21.7438 33.649C20.3038 32.953 19.1638 31.993 18.3238 30.769C17.4838 29.521 17.0638 28.117 17.0638 26.557C17.0638 25.165 17.4838 24.049 18.3238 23.209C19.1398 22.369 20.2558 21.949 21.6718 21.949C23.3278 21.949 24.7558 22.549 25.9558 23.749C27.1318 24.925 28.0678 26.929 28.7638 29.761C29.8678 29.161 30.4198 28.021 30.4198 26.341C30.4198 25.261 30.0478 24.037 29.3038 22.669C28.5358 21.277 27.5398 20.077 26.3158 19.069C25.9798 18.781 25.8118 18.457 25.8118 18.097ZM20.5918 27.169C20.5918 28.057 21.1078 28.813 22.1398 29.437C23.1718 30.037 24.4198 30.337 25.8838 30.337L25.9558 30.337C25.6198 28.921 25.1158 27.805 24.4438 26.989C23.7718 26.173 22.9918 25.765 22.1038 25.765C21.6478 25.765 21.2878 25.897 21.0238 26.161C20.7358 26.401 20.5918 26.737 20.5918 27.169ZM25.8118 7.09195C27.7798 6.82795 29.7238 6.44395 31.6438 5.93995C31.9558 5.84395 32.2798 5.79595 32.6158 5.79595C33.6958 5.79595 34.2358 6.45595 34.2358 7.77595C34.2358 8.51995 34.0318 9.09595 33.6238 9.50395C33.2158 9.88795 32.4478 10.2479 31.3198 10.5839L31.1758 10.6199C32.3038 11.5319 33.0598 12.3599 33.4438 13.1039C33.8278 13.8239 34.0198 14.6639 34.0198 15.6239C34.0198 17.0879 33.4798 18.2999 32.3998 19.2599C31.2958 20.1959 29.8678 20.6639 28.1158 20.6639C26.1958 20.6639 24.4198 20.2559 22.7878 19.4399C21.1558 18.6239 19.8238 17.5079 18.7918 16.0919C17.7358 14.6759 17.0998 13.0919 16.8838 11.3399C12.3478 10.8839 8.39984 10.0199 5.03984 8.74795C1.67984 7.45195 -0.000164919 5.73595 -0.000165013 3.59995C-0.000165058 2.56795 0.467835 1.71595 1.40384 1.04395C2.33984 0.347949 3.75584 -5.08669e-05 5.65184 -5.09498e-05C8.29184 -5.10652e-05 11.3758 0.647949 14.9038 1.94395C18.4318 3.23995 22.0678 4.95595 25.8118 7.09195ZM3.52783 3.99595C3.52783 4.69195 5.30384 5.35195 8.85584 5.97595C12.4078 6.57595 16.2718 6.98395 20.4478 7.19995C14.6878 4.53595 10.0078 3.20395 6.40784 3.20395C5.49584 3.20395 4.78784 3.28795 4.28384 3.45595C3.77983 3.59995 3.52783 3.77995 3.52783 3.99595ZM30.3838 14.3639C30.3838 13.8839 30.2038 13.4279 29.8438 12.9959C29.4838 12.5399 28.7878 11.9639 27.7558 11.2679C26.0038 11.5079 24.1918 11.6279 22.3198 11.6279C21.5758 11.6279 20.9998 11.6159 20.5918 11.5919C20.9758 12.9119 21.8518 14.0039 23.2198 14.8679C24.5878 15.7319 26.0998 16.1639 27.7558 16.1639C29.5078 16.1639 30.3838 15.5639 30.3838 14.3639Z" fill="#F8EE46"/>
</svg>
