<svg width="132" height="132" viewBox="0 0 132 132" fill="none" xmlns="http://www.w3.org/2000/svg">
<path d="M62.082 126.483V124.433L64.1091 124.422L66.1303 124.404L66.1245 122.464C66.1245 121.396 66.1361 120.483 66.1534 120.431C66.1881 120.356 66.4306 120.345 68.1111 120.333C69.168 120.333 70.0746 120.345 70.1266 120.368C70.219 120.402 70.2248 120.581 70.2248 122.418V124.433H72.2749H74.325L74.3135 126.472L74.2962 128.505L68.192 128.522L62.082 128.533V126.483Z" fill="black"/>
<path d="M58.0144 120.339C58.0029 120.327 57.9913 119.409 57.9913 118.3V116.29H55.9701H53.9488V114.24V112.19H55.9701H57.9913L58.0029 110.157L58.0202 108.119L59.5794 108.107C60.4399 108.102 61.3524 108.096 61.618 108.09H62.0916V104.019V99.9472L60.0588 99.9588L58.0202 99.9761L58.0029 102.015L57.9913 104.047H55.9701H53.9488L53.9373 106.069L53.9199 108.09L51.9853 108.113C50.9227 108.125 50.0045 108.136 49.9525 108.142C49.8543 108.148 49.8486 108.286 49.8486 110.169V112.19L47.8273 112.179L45.8061 112.161V106.069V99.9761L47.8273 99.9588L49.8486 99.9472V97.926V95.9047L51.8871 95.8932L53.9199 95.8758L53.9373 93.843L53.9488 91.8045H49.8774C46.6608 91.8045 45.8061 91.8218 45.8003 91.8795C45.8003 91.9142 45.7945 92.8324 45.7887 93.9123L45.7772 95.8758L43.7444 95.8932L41.7058 95.9047V97.926V99.9472H39.6557H37.6056V97.926V95.9047L35.5785 95.8932L33.5573 95.8758V94.4494C33.5573 93.6582 33.5631 92.7458 33.5631 92.4108V91.8045H35.5843H37.6056L37.6171 89.7717L37.6344 87.7446L41.7058 87.7389L45.7772 87.7331V85.7118V83.6906L39.673 83.6733C34.8047 83.6617 33.5631 83.6733 33.5573 83.731C33.5573 83.7714 33.5515 84.6897 33.5457 85.7696L33.5342 87.7331L31.5129 87.7389L29.4917 87.7446L29.4744 89.7774L29.4628 91.8045H27.4127H25.3626V87.7331V83.6617H27.4127H29.4628V81.6116V79.5615H31.5014H33.5342V77.5402V75.519L31.5129 75.5016L29.4917 75.4901L29.4744 73.4573L29.4628 71.4187H27.4127H25.3626V75.4901V79.5615L19.2584 79.5499L13.1484 79.5326V77.5229V75.5132L15.1697 75.5016L17.1909 75.4901L17.2083 73.4573L17.2198 71.4187H19.2699H21.3201V69.3686V67.3185H23.3413H25.3626V65.2972V63.276H21.2912H17.2198V61.2258V59.1757L15.1928 59.1642L13.1658 59.1468L13.1542 57.1256L13.1484 55.1043H15.1697H17.1909L17.2083 53.0715L17.2198 51.033H19.2699H21.3201V53.0715V55.1101L23.3413 55.1043L25.3626 55.0986V57.1371V59.1757L29.4513 59.1642L33.5342 59.1468V57.1256V55.1101L31.5129 55.0986L29.4917 55.0928L29.4744 53.06L29.4628 51.033L27.4242 51.0214L25.3914 51.0041L25.3741 46.9558C25.3626 43.4273 25.3741 42.896 25.4492 42.8729C25.4954 42.8498 27.3318 42.844 29.5321 42.8498L33.5342 42.8613L33.5457 44.8826L33.5515 46.9038L35.5785 46.9212L37.6056 46.9327V48.9828V51.033L39.6441 51.0214L41.6769 51.0041V46.9327V42.8613L39.6557 42.8498L37.6344 42.8382L37.6171 40.817L37.6056 38.79L35.5785 38.7784L33.5573 38.7611V36.7398V34.7186L35.5785 34.7013L37.6056 34.6897V32.6685V30.6472H39.6557H41.7058V32.6685V34.6897L43.7444 34.7013L45.7772 34.7186V38.7784V42.8325H47.8158H49.8486V40.8112V38.79H51.8987H53.9488L53.9373 36.7572L53.9199 34.7186L51.8871 34.7013L49.8486 34.6897V32.6685V30.6472L47.8273 30.6357L45.8061 30.6183V26.547L45.8003 22.4756L47.8273 22.4583L49.8486 22.4467V24.4968V26.547H53.9199H57.9913L58.0029 28.5855L58.0202 30.6183L60.0588 30.6357L62.0916 30.6472V26.547V22.4467H58.0202H53.9488V18.3753V14.304H58.0202H62.0916V16.3541V18.4042L64.1186 18.4158L66.1456 18.4331L66.1572 20.4255L66.1687 22.4178L68.2015 22.4352L70.2343 22.4467V20.4255V18.4042L72.2729 18.3927L74.3057 18.3753L74.323 16.3425L74.3346 14.304H78.4059H82.4773V16.3541V18.4042H80.4387H78.4002V22.464L78.4059 26.5181L82.4946 26.5354L86.5776 26.547V24.4968V22.4467H88.5988H90.6201V26.547V30.6472H88.5988H86.5776V32.6685V34.6897H84.5274H82.4773V36.7398V38.79H84.5274H86.5776V40.8285V42.8613L87.6864 42.8498C88.2985 42.844 89.211 42.8382 89.7076 42.8382L90.6201 42.8325L90.6316 38.7726L90.6489 34.7186L92.6875 34.7013L94.7203 34.6897V32.6685V30.6472L96.7589 30.6588C98.5145 30.6761 98.7917 30.6876 98.7975 30.7627C98.8032 30.8089 98.809 31.7156 98.8148 32.7724L98.8206 34.6897H100.842H102.863V36.7398V38.79L100.836 38.8015L98.809 38.8188L98.8032 40.8285L98.7917 42.8325L96.7704 42.8498L94.7492 42.8613L94.7319 46.95L94.7203 51.033L96.7531 51.0214L98.7917 51.0041L98.8032 48.9828L98.8148 46.9616L100.836 46.9443L102.863 46.9327V44.9172C102.863 43.1097 102.875 42.896 102.955 42.8671C103.007 42.844 104.827 42.8325 106.992 42.8325C110.064 42.8382 110.948 42.8556 111 42.9075C111.035 42.9595 111.052 44.3051 111.046 46.9905L111.035 51.0041L109.002 51.0214L106.963 51.033L106.952 53.0715L106.934 55.1043L104.971 55.1101C103.891 55.1101 102.973 55.1217 102.938 55.1217C102.88 55.1332 102.863 55.5837 102.863 57.1545V59.1757L106.952 59.1642L111.035 59.1468L111.046 57.1833C111.052 56.1034 111.058 55.191 111.058 55.1505C111.064 55.0986 111.549 55.0812 113.073 55.0812L115.077 55.0755L115.095 53.0542L115.106 51.033H117.156H119.206V53.0542V55.0755H121.228H123.249V57.1256V59.1757H121.228H119.206L119.195 61.2143L119.177 63.2471L115.106 63.2644L111.035 63.276L111.046 65.2568C111.058 66.3425 111.064 67.2492 111.064 67.278C111.064 67.3011 111.976 67.3185 113.085 67.3185H115.106V69.3686V71.4187H117.156H119.206V75.4901V79.5615H115.135C111.3 79.5615 111.064 79.5557 111.058 79.4633C111.058 79.4055 111.046 77.5806 111.04 75.4035L111.023 71.4476L108.996 71.4303L106.963 71.4187L106.952 73.4515L106.934 75.4901L104.913 75.5016L102.892 75.5132L102.875 77.5402L102.863 79.5615L106.946 79.573L111.035 79.5903V85.683V91.7756L109.002 91.7929L106.963 91.8045L106.952 89.7832L106.934 87.7562L104.913 87.7446L102.892 87.7331L102.875 85.7003L102.863 83.6617L100.836 83.6502L98.8148 83.6328L98.8032 81.6116L98.7917 79.5903L96.7531 79.573L94.7203 79.5615L94.7319 83.6386L94.7492 87.71L96.7704 87.7215L98.7917 87.7331L98.8032 89.7543L98.8206 91.7756L100.842 91.7929L102.863 91.8045V93.8546V95.9047H100.83H98.7917L98.809 97.926L98.8263 99.9472H96.7704H94.7203V97.926V95.9047L92.6875 95.8932L90.6489 95.8758L90.6316 91.8045L90.6201 87.7331L88.6392 87.7446C87.5535 87.7562 86.6469 87.762 86.6238 87.762C86.5949 87.762 86.5776 88.6744 86.5776 89.7832V91.8045H84.5274H82.4773V93.8546V95.9047H84.5274H86.5776V97.926V99.9472H88.5988H90.6201V101.997V104.047H92.6702H94.7203L94.7088 106.08L94.6914 108.119H88.5988H82.5062L82.4889 106.086L82.4773 104.047L80.4387 104.036L78.4059 104.019L78.3886 102.084C78.3828 101.021 78.3771 100.103 78.3771 100.051C78.3771 99.953 78.2442 99.9472 76.3558 99.9472H74.3346V104.036V108.119H76.3674H78.4002L78.4059 110.14V112.161L80.4445 112.179L82.4773 112.19V114.24V116.29H80.4445H78.4059V118.329V120.362L76.3847 120.373L74.3634 120.385L74.3346 116.302L74.3057 112.219H70.2343H66.1629L66.1514 114.154C66.1456 115.216 66.1398 116.135 66.1398 116.192C66.1341 116.285 65.9955 116.29 64.1128 116.29H62.0916L62.08 118.323L62.0627 120.362H60.053C58.95 120.362 58.0317 120.356 58.0144 120.339ZM70.2343 97.926V95.9047L72.2729 95.8932L74.3057 95.8758L74.323 93.843L74.3346 91.8045H68.2131H62.0916V93.8546V95.9047L64.1244 95.9163L66.1629 95.9336L66.1687 97.8971C66.1745 98.977 66.1803 99.8779 66.186 99.9068C66.186 99.9299 67.1043 99.9472 68.2131 99.9472H70.2343V97.926ZM62.0916 85.7003V83.6617L64.1186 83.6502L66.1398 83.6328L66.1341 81.6924C66.1341 80.6241 66.1456 79.7116 66.1687 79.6539C66.2034 79.573 66.3997 79.5615 68.2188 79.5615H70.2343V81.6116V83.6617H72.2844H74.3346V85.7003V87.7389L78.3944 87.7215L82.4484 87.6984L82.4658 85.683L82.4773 83.6617L80.4445 83.6502L78.4059 83.6328L78.3944 81.9581C78.3828 81.0399 78.3771 80.1216 78.3771 79.9253V79.5615H76.3558H74.3346V75.4901V71.4187H78.4059H82.4773L82.4889 73.4573L82.5062 75.4901L84.5274 75.4959L86.5487 75.5074L86.566 77.5344L86.5776 79.5615H88.5988H90.6201V75.4901V71.4187H88.5988H86.5776V69.3686V67.3185H84.5274H82.4773V65.2972V63.276H84.5274H86.5776V61.2258V59.1757H88.5988H90.6201V55.1043V51.033H88.5988H86.5776L86.566 53.0715L86.5487 55.1043H84.5274H82.5062L82.4889 57.1429L82.4773 59.1757H78.4059H74.3346V55.1043V51.033H76.3558H78.3771V50.7038C78.3828 50.519 78.3886 49.6008 78.3944 48.6652L78.4059 46.9616L80.4445 46.9443L82.4773 46.9327L82.4658 44.8941L82.4484 42.8613H78.4059H74.3634L74.3461 44.8941L74.3346 46.9327L72.296 46.9443L70.2632 46.9616L70.2459 49.0002L70.2343 51.033L68.1957 51.0214L66.1629 51.0041L66.1514 49.0406C66.1398 47.9607 66.1341 47.0424 66.1341 47.0078C66.1341 46.95 65.6894 46.9327 64.1128 46.9327H62.0916L62.08 44.8999L62.0627 42.8613H58.0202H53.9777L53.9604 44.8999L53.9488 46.9327H55.9701H57.9913L58.0029 48.9713L58.0202 51.0041L60.0588 51.0214L62.0916 51.033V55.1043V59.1757H58.0202H53.9488L53.9373 57.1429L53.9199 55.1043L51.9853 55.0986C50.9227 55.0928 50.0045 55.087 49.9525 55.0812C49.8543 55.0755 49.8486 54.9369 49.8486 53.0542V51.033H47.8158H45.7772V55.1043V59.1757H47.8158H49.8486V61.2258V63.276H51.8987H53.9488V65.2972V67.3185H51.8987H49.8486V69.3686V71.4187H47.8158H45.7772L45.783 75.4785L45.7887 79.5326L47.8158 79.5499L49.8486 79.5615V77.5287V75.4901H51.8871H53.9199L53.9373 73.4573L53.9488 71.4187H58.0202H62.0916V75.4901V79.5615L60.0588 79.573L58.0202 79.5903L58.0029 81.6289L57.9913 83.6617H55.9701H53.9488V85.7003V87.7389H58.0202L62.0916 87.7331V85.7003ZM41.7058 69.3686V67.3185H43.7559H45.8003L45.7887 65.3145L45.7772 63.3048L39.673 63.2875L33.5631 63.276V63.9516C33.5573 64.327 33.5515 65.1817 33.5457 65.8458C33.5342 66.5157 33.54 67.1163 33.5515 67.1914L33.5746 67.3185H35.5901H37.6056V69.3686V71.4187H39.6557H41.7058V69.3686ZM98.8032 70.7546C98.809 70.4081 98.8148 69.4899 98.8148 68.7218L98.8206 67.3185H100.842H102.863V65.2972V63.276H98.7917H94.7203V67.3473V71.4187L96.7589 71.4072L98.7917 71.3898L98.8032 70.7546ZM74.323 36.7572L74.3057 34.7186L72.2729 34.7013L70.2343 34.6897V32.6685V30.6472H68.2131C67.1043 30.6472 66.186 30.6645 66.186 30.6934C66.1803 30.7165 66.1687 31.5539 66.1629 32.553C66.1514 33.552 66.1398 34.4414 66.1398 34.5338L66.1341 34.6897H64.1128H62.0916V36.7398V38.79H68.2131H74.3346L74.323 36.7572ZM78.3886 28.5798L78.4059 26.547H76.3731H74.3346V28.5971V30.6472L76.3558 30.6357L78.3771 30.6183L78.3886 28.5798Z" fill="black"/>
<path d="M66.1592 71.3726C66.1419 71.3437 66.1303 71.1301 66.1303 70.8933C66.1361 70.6565 66.1303 69.7556 66.1303 68.8952L66.1245 67.3186H64.1033H62.082V65.2973V63.2761H64.1033H66.1245L66.1303 61.3126C66.1361 60.2327 66.1419 59.3144 66.1476 59.2798C66.1534 59.222 66.6096 59.1989 68.192 59.1874L70.2248 59.1758V61.226V63.2761H72.2749H74.325V65.2973V67.3186L72.2922 67.3301L70.2537 67.3475L70.2363 69.386L70.2248 71.4188H68.2035C67.0947 71.4188 66.1765 71.3957 66.1592 71.3726Z" fill="black"/>
<path d="M4.97656 67.3474V63.276H9.04216H13.1078L13.1309 63.4089C13.1424 63.4782 13.154 65.3031 13.1482 67.4629V71.3899L9.06526 71.4072L4.97656 71.4188V67.3474Z" fill="black"/>
<path d="M123.234 67.3474V63.276L127.306 63.2876L131.377 63.3049L131.389 67.3647L131.406 71.4188H127.323H123.234V67.3474Z" fill="black"/>
<path d="M62.1167 10.2212C62.0994 10.2038 62.082 9.27985 62.082 8.17105V6.16135L64.1091 6.1498L66.1303 6.13247V4.09967L66.1245 2.0611H68.1747H70.2248L70.2363 4.09967L70.2537 6.13247L72.2922 6.1498L74.325 6.16135V8.17682C74.325 9.94397 74.3135 10.1981 74.2326 10.2269C74.1114 10.2731 62.1629 10.2674 62.1167 10.2212Z" fill="black"/>
</svg>
