<svg width="312" height="310" viewBox="0 0 312 310" fill="none" xmlns="http://www.w3.org/2000/svg">
<circle cx="156.001" cy="108.829" r="82" transform="rotate(-21.3644 156.001 108.829)" stroke="white" stroke-width="4"/>
<path d="M138.226 82.7198C138.71 82.5307 139.093 82.7988 139.377 83.524C139.91 84.8882 139.107 85.9891 136.965 86.8268C136.551 86.9889 135.925 87.1442 135.087 87.2928C135.73 88.2756 136.378 89.3962 137.029 90.6545C137.691 91.8888 138.188 92.9291 138.519 93.7752C139.248 95.6402 139.503 97.183 139.284 98.4038C139.065 99.6245 138.463 100.427 137.479 100.812C136.235 101.299 135.001 100.766 133.777 99.214C132.57 97.6553 131.271 95.0973 129.879 91.54C128.582 88.2245 127.622 84.7274 127 81.0485C126.387 77.3457 126.267 74.1373 126.639 71.4234C127.022 68.6854 127.964 67.0225 129.466 66.4349C130.278 66.1174 131.05 66.2334 131.783 66.7831C132.533 67.326 133.148 68.2104 133.627 69.4365C135.215 73.4945 134.518 78.8643 131.536 85.5457C132.026 87.3056 132.52 88.8244 133.02 90.1023C133.716 91.8809 134.489 93.6791 135.339 95.4968C136.197 97.3317 136.763 98.1951 137.04 98.0871C137.558 97.8844 137.465 96.8851 136.763 95.0892C136.236 93.7423 135.631 92.4757 134.948 91.2894C134.282 90.0964 133.52 88.8613 132.662 87.5842C132.557 87.3664 132.515 87.0545 132.535 86.6483C132.573 86.2354 132.662 85.8522 132.802 85.4986C132.943 85.145 133.108 84.931 133.298 84.8567C133.643 84.7216 134.064 84.5768 134.561 84.4222C134.724 84.3786 134.908 84.3164 135.115 84.2353C135.806 83.9651 136.551 83.6041 137.35 83.1522C137.481 83.0809 137.621 83.0062 137.77 82.9281C137.919 82.8501 138.071 82.7806 138.226 82.7198ZM129.926 69.212C129.615 69.3336 129.432 70.0122 129.378 71.248C129.341 72.477 129.439 74.0513 129.673 75.9711C129.899 77.8735 130.227 79.8559 130.655 81.9183C131.422 79.8065 131.845 77.7592 131.926 75.7765C132 73.7765 131.755 72.0305 131.191 70.5387C130.779 69.4853 130.357 69.0431 129.926 69.212ZM142.527 89.5492C141.75 89.8532 140.973 89.7491 140.195 89.237C139.428 88.7009 138.835 87.8975 138.416 86.8268C137.909 85.5317 137.533 84.3151 137.287 83.1769C137.034 82.0214 136.87 80.7616 136.794 79.3975C136.764 78.8119 136.86 78.3461 137.083 78C137.306 77.6539 137.755 77.3491 138.428 77.0857C138.808 76.9371 139.091 76.8962 139.276 76.963C139.479 77.0231 139.627 77.174 139.722 77.4158C139.776 77.5539 139.863 78.0573 139.984 78.926C140.062 79.6325 140.15 80.265 140.249 80.8236C140.613 82.7718 140.913 84.0482 141.149 84.6526C141.291 85.0152 141.436 85.2573 141.583 85.379C141.723 85.4833 141.888 85.4984 142.078 85.4241C142.337 85.3227 142.555 84.9387 142.733 84.2721C142.927 83.5987 143.034 82.6509 143.054 81.4286C143.091 80.1996 143.016 78.7356 142.829 77.0366C142.765 76.4645 142.827 76.0122 143.015 75.6796C143.221 75.3403 143.609 75.0592 144.178 74.8363C144.576 74.6809 144.872 74.6247 145.068 74.6675C145.257 74.693 145.403 74.8353 145.504 75.0943C145.673 75.526 145.92 76.7933 146.244 78.8963C146.626 81.2957 146.917 82.7545 147.12 83.2726C147.248 83.6007 147.419 83.8327 147.631 83.9686C147.837 84.0872 148.052 84.1026 148.277 84.0148C148.622 83.8797 148.947 83.5137 149.251 82.9169C149.565 82.2961 149.934 81.3554 150.357 80.0949C150.47 79.7721 150.656 79.56 150.915 79.4587C151.139 79.3709 151.352 79.407 151.554 79.5669C151.773 79.7201 151.954 79.978 152.096 80.3406C152.366 81.0314 152.411 81.6308 152.232 82.1391C151.847 83.3448 151.338 84.41 150.704 85.3349C150.088 86.253 149.236 86.9249 148.148 87.3504C147.319 87.6747 146.581 87.595 145.934 87.1114C145.304 86.6211 144.763 85.7975 144.31 84.6405C144.476 85.9296 144.39 87.0084 144.053 87.877C143.709 88.7283 143.201 89.2857 142.527 89.5492ZM159.357 76.1564C159.581 76.0686 159.794 76.1047 159.996 76.2646C160.215 76.4178 160.396 76.6757 160.538 77.0383C160.808 77.729 160.853 78.3285 160.674 78.8368C160.289 80.0425 159.772 81.1111 159.12 82.0427C158.487 82.9676 157.617 83.6462 156.512 84.0785C154.993 84.673 153.591 84.4247 152.308 83.3337C151.043 82.2359 149.981 80.5905 149.123 78.3974C148.299 76.2907 147.628 73.7857 147.109 70.8825C146.608 67.9725 146.506 65.3444 146.803 62.9983C147.117 60.6454 148.008 59.1819 149.475 58.6078C150.304 58.2835 151.104 58.4187 151.874 59.0134C152.655 59.5841 153.325 60.5861 153.886 62.0193C154.69 64.0743 155.052 66.6802 154.973 69.8371C154.894 72.9941 154.399 76.2839 153.488 79.7065C153.886 80.3672 154.283 80.7989 154.681 81.0017C155.072 81.1872 155.493 81.1921 155.942 81.0165C156.65 80.7395 157.193 80.2978 157.573 79.6912C157.947 79.0673 158.355 78.1012 158.799 76.7926C158.912 76.4698 159.097 76.2577 159.357 76.1564ZM149.909 61.395C149.511 61.5504 149.343 62.4426 149.403 64.0718C149.463 65.701 149.718 67.6518 150.169 69.9245C150.62 72.1971 151.21 74.3158 151.939 76.2806C152.374 73.7806 152.56 71.3786 152.495 69.0745C152.423 66.7531 152.059 64.7549 151.404 63.0799C150.891 61.7675 150.392 61.2059 149.909 61.395ZM166.305 75.8874C166.427 75.6404 166.583 75.4798 166.773 75.4055C166.981 75.3244 167.192 75.3811 167.407 75.5756C167.633 75.746 167.81 75.9953 167.939 76.3234C168.222 77.0487 168.19 77.7285 167.841 78.3628C167.233 79.4566 166.359 80.2264 165.22 80.6723C163.579 81.314 162.112 81.1014 160.819 80.0344C159.519 78.9502 158.436 77.3029 157.572 75.0925C156.748 72.9858 156.076 70.4808 155.558 67.5775C155.057 64.6675 154.954 62.0395 155.251 59.6934C155.565 57.3405 156.456 55.877 157.924 55.3028C158.753 54.9786 159.552 55.1138 160.323 55.7085C161.103 56.2792 161.774 57.2811 162.335 58.7144C163.139 60.7693 163.501 63.3753 163.422 66.5322C163.36 69.6824 162.87 72.9602 161.952 76.3655C162.35 77.0263 162.765 77.4512 163.198 77.6405C163.63 77.8297 164.114 77.8196 164.649 77.6102C164.943 77.4954 165.237 77.2807 165.532 76.9662C165.844 76.6449 166.102 76.2853 166.305 75.8874ZM158.357 58.0901C157.96 58.2455 157.791 59.1377 157.851 60.7669C157.911 62.396 158.167 64.3469 158.618 66.6195C159.069 68.8921 159.658 71.0109 160.387 72.9757C160.823 70.4757 161.008 68.0736 160.943 65.7695C160.871 63.4482 160.508 61.45 159.853 59.775C159.339 58.4626 158.841 57.901 158.357 58.0901ZM106.302 131.728C104.005 132.626 101.997 132.914 100.278 132.591C98.5517 132.251 97.3375 131.183 96.635 129.387C96.2634 128.437 96.1438 127.648 96.276 127.018C96.4082 126.389 96.7938 125.95 97.4327 125.7C97.8989 125.517 98.3261 125.49 98.7142 125.617C99.1024 125.744 99.3707 125.997 99.5193 126.377C99.6544 126.722 99.7468 127.035 99.7963 127.314C99.8233 127.383 99.8533 127.511 99.8863 127.697C99.9366 127.876 99.9989 128.061 100.073 128.251C100.377 129.028 100.992 129.454 101.918 129.53C102.861 129.599 104.04 129.357 105.456 128.803C106.924 128.229 107.971 127.521 108.597 126.679C109.217 125.819 109.341 124.914 108.969 123.965C108.739 123.377 108.354 122.951 107.812 122.685C107.263 122.402 106.649 122.234 105.971 122.18C105.287 122.11 104.345 122.07 103.147 122.061C101.615 122.063 100.334 121.996 99.3059 121.861C98.2946 121.719 97.3314 121.369 96.4163 120.811C95.5117 120.229 94.8263 119.342 94.3603 118.151C93.8739 116.908 93.7697 115.674 94.0476 114.45C94.3428 113.22 95.0073 112.094 96.0412 111.072C97.0924 110.044 98.4642 109.199 100.156 108.537C101.417 108.043 102.648 107.781 103.85 107.749C105.045 107.699 106.103 107.933 107.021 108.449C107.958 108.959 108.642 109.767 109.074 110.872C109.5 111.96 109.656 112.844 109.545 113.525C109.433 114.206 109.057 114.672 108.418 114.922C107.969 115.097 107.535 115.108 107.116 114.953C106.715 114.792 106.44 114.521 106.291 114.141C106.163 113.813 106.07 113.5 106.014 113.204C105.863 112.666 105.761 112.327 105.707 112.189C105.423 111.464 104.853 111.05 103.996 110.947C103.14 110.844 102.185 110.999 101.131 111.411C99.6463 111.992 98.6147 112.714 98.0365 113.577C97.4688 114.416 97.3775 115.328 97.7625 116.312C98.0192 116.969 98.4373 117.452 99.0169 117.763C99.6137 118.067 100.275 118.256 101.001 118.331C101.727 118.405 102.718 118.445 103.975 118.452C105.497 118.473 106.74 118.545 107.703 118.666C108.666 118.787 109.569 119.111 110.412 119.637C111.272 120.157 111.915 120.96 112.341 122.048C113.138 124.086 112.976 125.961 111.854 127.674C110.743 129.363 108.892 130.715 106.302 131.728ZM114.83 112.264C114.104 112.548 113.496 112.597 113.005 112.41C112.508 112.207 112.14 111.803 111.904 111.199C111.668 110.594 111.705 110.002 112.016 109.423C112.337 108.819 112.852 108.379 113.56 108.102C114.199 107.852 114.778 107.805 115.296 107.96C115.815 108.116 116.186 108.478 116.409 109.048C116.679 109.739 116.671 110.379 116.384 110.969C116.09 111.542 115.572 111.974 114.83 112.264ZM120.064 126.255C118.941 126.694 117.966 126.618 117.137 126.026C116.325 125.428 115.663 124.472 115.149 123.16C114.845 122.383 114.552 121.353 114.269 120.069C113.997 118.762 113.81 117.521 113.709 116.346C113.648 115.733 113.707 115.272 113.885 114.964C114.062 114.655 114.436 114.389 115.006 114.166C115.887 113.822 116.442 113.943 116.672 114.53C116.841 114.962 117.068 116.028 117.355 117.727C117.684 119.789 117.98 121.157 118.243 121.83C118.446 122.348 118.67 122.718 118.916 122.941C119.163 123.163 119.45 123.21 119.778 123.081C120.089 122.96 120.393 122.592 120.69 121.978C120.988 121.364 121.342 120.439 121.755 119.202C121.867 118.879 122.053 118.667 122.312 118.566C122.537 118.478 122.75 118.514 122.952 118.674C123.171 118.827 123.352 119.085 123.493 119.448C123.764 120.138 123.809 120.738 123.629 121.246C122.737 124.004 121.549 125.674 120.064 126.255ZM125.091 124.288C124.435 124.545 123.834 124.382 123.287 123.799C122.758 123.21 122.196 122.155 121.602 120.636C120.723 118.391 120.209 116.133 120.057 113.863C120.017 113.301 120.125 112.841 120.383 112.481C120.651 112.098 121.104 111.781 121.743 111.531C122.089 111.396 122.347 111.344 122.519 111.377C122.691 111.409 122.824 111.546 122.919 111.788C123.027 112.064 123.141 112.736 123.26 113.805C123.357 114.563 123.456 115.221 123.555 115.78C123.654 116.339 123.817 117.011 124.046 117.798C124.034 116.09 124.201 114.631 124.544 113.422C124.887 112.213 125.318 111.278 125.836 110.617C126.371 109.95 126.924 109.504 127.494 109.282C128.616 108.842 129.397 109.184 129.836 110.307C130.099 110.98 130.386 112.272 130.695 114.182C130.954 115.812 131.179 116.87 131.368 117.353C131.638 118.044 132.023 118.291 132.524 118.095C132.87 117.96 133.194 117.594 133.499 116.997C133.813 116.377 134.182 115.436 134.605 114.175C134.717 113.853 134.903 113.641 135.162 113.539C135.387 113.451 135.6 113.487 135.802 113.647C136.021 113.801 136.202 114.058 136.343 114.421C136.614 115.112 136.659 115.711 136.479 116.22C136.095 117.425 135.586 118.491 134.952 119.415C134.336 120.333 133.483 121.005 132.396 121.431C131.515 121.775 130.752 121.785 130.107 121.46C129.456 121.118 128.941 120.463 128.562 119.496C128.373 119.012 128.156 118.102 127.912 116.764C127.711 115.588 127.529 114.793 127.367 114.378C127.259 114.102 127.11 114.001 126.92 114.075C126.695 114.163 126.491 114.582 126.306 115.331C126.132 116.056 126.015 116.978 125.954 118.097C125.911 119.209 125.966 120.342 126.12 121.497C126.247 122.383 126.239 123.023 126.095 123.418C125.961 123.789 125.626 124.079 125.091 124.288ZM147.074 108.939C147.299 108.851 147.515 108.896 147.724 109.073C147.943 109.227 148.117 109.467 148.245 109.795C148.401 110.192 148.462 110.527 148.429 110.799C148.396 111.07 148.283 111.343 148.092 111.617C146.999 113.2 146.201 114.368 145.7 115.122L144.477 116.884C145.22 120.715 145.454 123.859 145.18 126.315C144.931 128.782 143.986 130.337 142.345 130.978C141.465 131.323 140.64 131.327 139.871 130.991C139.109 130.671 138.556 130.072 138.211 129.191C137.732 127.965 137.699 126.455 138.112 124.66C138.532 122.883 139.669 120.447 141.525 117.352L141.285 116.281C141.174 116.862 140.927 117.377 140.545 117.825C140.173 118.249 139.754 118.552 139.288 118.735C138.217 119.154 137.211 119.099 136.268 118.572C135.325 118.045 134.607 117.151 134.114 115.891C133.573 114.509 133.383 113.08 133.542 111.604C133.695 110.111 134.152 108.787 134.915 107.633C135.689 106.454 136.671 105.632 137.863 105.166C138.243 105.017 138.523 104.997 138.705 105.105C138.897 105.189 139.111 105.404 139.346 105.75C139.647 105.553 140.013 105.37 140.445 105.201C140.877 105.032 141.206 104.983 141.433 105.053C141.67 105.1 141.863 105.313 142.011 105.693C142.092 105.9 142.148 106.068 142.178 106.195C142.318 106.758 142.633 108.198 143.121 110.515C143.214 110.957 143.316 111.445 143.425 111.979C143.545 112.49 143.67 113.038 143.8 113.625C144.724 112.069 145.644 110.653 146.559 109.38C146.73 109.154 146.901 109.007 147.074 108.939ZM139.197 115.754C139.594 115.598 139.88 115.208 140.053 114.583C140.227 113.957 140.215 113.165 140.02 112.207L139.116 107.453C138.415 107.747 137.866 108.28 137.471 109.052C137.07 109.806 136.856 110.686 136.832 111.692C136.807 112.697 136.983 113.683 137.362 114.65C137.571 115.185 137.83 115.542 138.139 115.72C138.464 115.891 138.817 115.902 139.197 115.754ZM141.647 128.354C142.079 128.186 142.36 127.478 142.49 126.233C142.637 124.981 142.519 123.126 142.135 120.667C141.251 122.327 140.694 123.73 140.465 124.875C140.236 126.019 140.257 126.937 140.527 127.628C140.642 127.922 140.788 128.143 140.966 128.292C141.161 128.435 141.388 128.456 141.647 128.354ZM150.861 114.208C150.083 114.512 149.306 114.408 148.528 113.896C147.761 113.359 147.168 112.556 146.749 111.485C146.243 110.19 145.866 108.974 145.62 107.836C145.367 106.68 145.203 105.42 145.127 104.056C145.097 103.471 145.194 103.005 145.417 102.659C145.64 102.313 146.088 102.008 146.762 101.744C147.141 101.596 147.424 101.555 147.61 101.622C147.812 101.682 147.961 101.833 148.055 102.074C148.11 102.213 148.197 102.716 148.318 103.585C148.395 104.291 148.483 104.924 148.582 105.482C148.946 107.43 149.246 108.707 149.483 109.311C149.624 109.674 149.769 109.916 149.916 110.038C150.057 110.142 150.222 110.157 150.412 110.083C150.671 109.981 150.889 109.597 151.066 108.931C151.261 108.257 151.368 107.309 151.387 106.087C151.424 104.858 151.349 103.394 151.163 101.695C151.098 101.123 151.16 100.671 151.349 100.338C151.554 99.9989 151.942 99.7178 152.512 99.4949C152.909 99.3395 153.206 99.2833 153.402 99.3261C153.591 99.3516 153.736 99.4939 153.837 99.7529C154.006 100.185 154.253 101.452 154.578 103.555C154.959 105.954 155.251 107.413 155.454 107.931C155.582 108.259 155.752 108.491 155.965 108.627C156.17 108.746 156.386 108.761 156.61 108.673C156.955 108.538 157.28 108.172 157.584 107.576C157.899 106.955 158.268 106.014 158.69 104.754C158.803 104.431 158.989 104.219 159.248 104.117C159.472 104.03 159.686 104.066 159.888 104.226C160.107 104.379 160.287 104.637 160.429 104.999C160.699 105.69 160.745 106.289 160.565 106.798C160.181 108.003 159.672 109.069 159.038 109.994C158.421 110.912 157.569 111.583 156.481 112.009C155.652 112.333 154.914 112.254 154.267 111.77C153.638 111.28 153.096 110.456 152.644 109.299C152.809 110.588 152.724 111.667 152.387 112.536C152.043 113.387 151.534 113.944 150.861 114.208ZM167.69 100.815C167.914 100.727 168.128 100.763 168.33 100.923C168.549 101.076 168.729 101.334 168.871 101.697C169.141 102.388 169.187 102.987 169.007 103.495C168.623 104.701 168.105 105.77 167.454 106.701C166.82 107.626 165.951 108.305 164.846 108.737C163.326 109.332 161.925 109.083 160.642 107.992C159.376 106.895 158.314 105.249 157.456 103.056C156.632 100.949 155.961 98.4443 155.443 95.5411C154.941 92.6311 154.839 90.003 155.136 87.6569C155.45 85.3041 156.341 83.8406 157.809 83.2664C158.638 82.9421 159.437 83.0774 160.207 83.6721C160.988 84.2427 161.659 85.2447 162.22 86.678C163.023 88.7329 163.386 91.3388 163.307 94.4958C163.227 97.6527 162.732 100.942 161.821 104.365C162.219 105.026 162.617 105.458 163.015 105.66C163.406 105.846 163.826 105.851 164.275 105.675C164.983 105.398 165.527 104.956 165.907 104.35C166.28 103.726 166.689 102.76 167.132 101.451C167.245 101.128 167.431 100.916 167.69 100.815ZM158.242 86.0536C157.845 86.209 157.676 87.1013 157.736 88.7304C157.796 90.3596 158.051 92.3105 158.502 94.5831C158.953 96.8557 159.543 98.9744 160.272 100.939C160.708 98.4392 160.893 96.0372 160.828 93.7331C160.756 91.4117 160.393 89.4135 159.737 87.7385C159.224 86.4261 158.726 85.8645 158.242 86.0536ZM171.565 106.109C170.494 106.528 169.487 106.473 168.545 105.946C167.602 105.419 166.884 104.525 166.391 103.265C165.85 101.883 165.66 100.454 165.819 98.9785C165.971 97.4852 166.429 96.1613 167.192 95.0067C167.966 93.8281 168.948 93.0058 170.139 92.5397C170.519 92.391 170.8 92.3708 170.982 92.4789C171.174 92.563 171.388 92.7782 171.623 93.1243C171.958 92.9134 172.325 92.7302 172.722 92.5748C173.568 92.2439 174.109 92.3806 174.346 92.9849C174.487 93.3476 174.696 94.2617 174.97 95.7272C175.35 97.8684 175.692 99.3275 175.996 100.105C176.097 100.364 176.239 100.547 176.42 100.655C176.619 100.757 176.822 100.767 177.029 100.686C177.358 100.557 177.674 100.195 177.978 99.5981C178.275 98.984 178.635 98.0467 179.058 96.7862C179.171 96.4634 179.357 96.2513 179.616 96.15C179.84 96.0622 180.053 96.0982 180.255 96.2582C180.474 96.4113 180.655 96.6692 180.797 97.0319C181.067 97.7226 181.112 98.3221 180.933 98.8303C180.569 99.988 180.109 101.024 179.551 101.939C178.993 102.855 178.343 103.457 177.6 103.748C177.03 103.971 176.429 103.987 175.797 103.796C175.176 103.581 174.612 103.184 174.107 102.606C173.776 104.407 172.929 105.575 171.565 106.109ZM171.474 103.128C171.854 102.979 172.129 102.613 172.298 102.029C172.468 101.445 172.485 100.751 172.35 99.9477L171.444 94.8067C170.726 95.1077 170.161 95.6474 169.748 96.4259C169.347 97.1804 169.133 98.0603 169.108 99.0655C169.083 100.071 169.26 101.057 169.638 102.024C169.848 102.559 170.107 102.916 170.415 103.094C170.741 103.265 171.094 103.276 171.474 103.128ZM182.385 101.876C181.729 102.133 181.127 101.97 180.581 101.387C180.052 100.798 179.49 99.7433 178.895 98.2237C178.017 95.9788 177.503 93.7212 177.351 91.4509C177.311 90.8893 177.419 90.4287 177.677 90.0691C177.945 89.6855 178.398 89.3687 179.037 89.1188C179.383 88.9837 179.641 88.9323 179.813 88.9646C179.985 88.9969 180.118 89.1339 180.213 89.3757C180.321 89.652 180.435 90.3243 180.554 91.3926C180.651 92.1509 180.75 92.8094 180.849 93.3679C180.948 93.9265 181.111 94.5992 181.339 95.386C181.328 93.6781 181.494 92.2193 181.838 91.0099C182.181 89.8005 182.612 88.8654 183.13 88.2048C183.665 87.5374 184.218 87.0923 184.788 86.8694C185.91 86.4303 186.691 86.772 187.13 87.8944C187.218 88.1189 187.353 88.6933 187.535 89.6175C187.667 90.3623 187.767 90.821 187.834 90.9937C188.071 91.598 188.405 91.8158 188.837 91.6469C189.32 91.4578 189.793 90.8347 190.256 89.7777C190.392 89.4654 190.582 89.262 190.823 89.1674C191.048 89.0796 191.261 89.1156 191.463 89.2756C191.675 89.4115 191.846 89.6435 191.974 89.9716C192.224 90.6105 192.247 91.1788 192.044 91.6766C191.756 92.3665 191.355 93.0211 190.841 93.6404C190.337 94.2357 189.723 94.6752 188.997 94.9589C188.082 95.317 187.292 95.3574 186.626 95.0803C185.977 94.7964 185.497 94.2573 185.187 93.463C185.085 93.204 185.01 92.9348 184.96 92.6555C184.86 92.2967 184.786 92.0568 184.739 91.9359C184.63 91.6596 184.481 91.5586 184.292 91.6329C184.032 91.7342 183.802 92.1629 183.6 92.9189C183.408 93.6509 183.291 94.5728 183.248 95.6847C183.205 96.7965 183.26 97.9298 183.413 99.0845C183.541 99.9704 183.533 100.611 183.388 101.006C183.255 101.377 182.92 101.667 182.385 101.876ZM190.286 82.7475C189.56 83.0312 188.952 83.08 188.461 82.8937C187.963 82.6902 187.596 82.2863 187.36 81.6819C187.124 81.0775 187.161 80.4855 187.472 79.9059C187.793 79.3024 188.308 78.8621 189.016 78.5851C189.655 78.3352 190.234 78.288 190.752 78.4434C191.271 78.5989 191.642 78.9616 191.865 79.5314C192.135 80.2222 192.127 80.8626 191.84 81.4526C191.546 82.0254 191.028 82.4571 190.286 82.7475ZM195.519 96.7382C194.397 97.1772 193.421 97.1009 192.593 96.5092C191.781 95.9108 191.119 94.9554 190.605 93.643C190.301 92.8659 190.008 91.8358 189.725 90.5528C189.453 89.2456 189.266 88.0046 189.165 86.8297C189.104 86.2163 189.162 85.7553 189.34 85.4468C189.518 85.1382 189.892 84.8725 190.462 84.6496C191.343 84.3051 191.898 84.4264 192.128 85.0135C192.297 85.4452 192.524 86.511 192.811 88.2107C193.14 90.2723 193.436 91.6399 193.699 92.3134C193.902 92.8314 194.126 93.2015 194.372 93.4238C194.619 93.6461 194.906 93.693 195.234 93.5647C195.545 93.4431 195.849 93.0752 196.146 92.4611C196.443 91.8471 196.798 90.9218 197.211 89.6853C197.323 89.3625 197.509 89.1504 197.768 89.0491C197.993 88.9613 198.206 88.9974 198.408 89.1573C198.627 89.3105 198.807 89.5684 198.949 89.931C199.22 90.6217 199.265 91.2212 199.085 91.7295C198.193 94.4877 197.005 96.1572 195.519 96.7382ZM207.95 85.0661C208.175 84.9783 208.388 85.0143 208.59 85.1743C208.809 85.3275 208.99 85.5854 209.131 85.948C209.402 86.6387 209.447 87.2382 209.267 87.7465C208.883 88.9521 208.365 90.0208 207.714 90.9524C207.063 91.8841 206.168 92.5728 205.028 93.0186C201.505 94.3966 198.775 92.6076 196.836 87.6516C196.539 86.8918 196.264 86.1133 196.012 85.3159L195.002 85.7111C194.484 85.9137 194.093 85.9572 193.828 85.8416C193.581 85.7192 193.377 85.4508 193.215 85.0363C192.836 84.0693 193.036 83.4338 193.813 83.1298L195.289 82.5523C194.84 80.5379 194.61 78.6269 194.6 76.819C194.589 75.0112 194.825 73.4755 195.306 72.212C195.805 70.9418 196.546 70.1142 197.531 69.7291C198.256 69.4454 198.951 69.542 199.615 70.0188C200.279 70.4956 200.801 71.2175 201.179 72.1845C202.226 74.8611 202.015 77.6314 200.547 80.4954L203.448 79.3606C203.725 79.2525 203.947 79.2352 204.115 79.3088C204.283 79.3824 204.432 79.5833 204.56 79.9114C205.026 81.1029 204.283 82.0803 202.332 82.8436L199.172 84.0798C199.475 84.9567 199.721 85.6369 199.911 86.1204C200.613 87.9163 201.313 89.0958 202.012 89.659C202.727 90.2154 203.542 90.3146 204.457 89.9566C205.2 89.6661 205.768 89.1849 206.163 88.513C206.557 87.8411 206.967 86.9042 207.393 85.7023C207.505 85.3795 207.691 85.1674 207.95 85.0661ZM197.804 72.4893C197.545 72.5907 197.38 73.0336 197.308 73.8181C197.247 74.5787 197.296 75.5948 197.455 76.8666C197.625 78.1144 197.888 79.4748 198.246 80.9479C198.92 79.6686 199.295 78.3871 199.37 77.1033C199.456 75.7955 199.323 74.6926 198.972 73.7947C198.573 72.7758 198.184 72.3407 197.804 72.4893ZM213.17 75.7667C213.567 75.6114 213.864 75.5551 214.06 75.5979C214.256 75.6407 214.401 75.783 214.496 76.0248C214.658 76.4392 215.011 78.0035 215.555 80.7175C216.11 83.3077 216.441 84.8408 216.547 85.3168C217.645 90.0047 218.139 93.8633 218.029 96.8926C217.92 99.9219 216.933 101.801 215.068 102.531C214.187 102.875 213.363 102.879 212.594 102.543C211.832 102.224 211.279 101.624 210.934 100.743C210.617 99.9316 210.474 99.0318 210.505 98.0438C210.554 97.0491 210.863 95.8032 211.433 94.3063C212.026 92.8198 212.969 91.0072 214.263 88.8684L214.108 88.2423C213.979 87.5561 213.759 86.5868 213.448 85.3345C213.589 86.7129 213.477 87.8518 213.112 88.7512C212.741 89.6333 212.209 90.2094 211.519 90.4796C210.742 90.7836 209.964 90.6795 209.186 90.1674C208.419 89.6313 207.826 88.8279 207.407 87.7573C206.901 86.4622 206.524 85.2455 206.278 84.1073C206.025 82.9519 205.861 81.6921 205.785 80.3279C205.755 79.7424 205.852 79.2765 206.075 78.9304C206.298 78.5844 206.746 78.2796 207.42 78.0162C207.8 77.8675 208.082 77.8267 208.268 77.8935C208.47 77.9536 208.619 78.1045 208.714 78.3463C208.768 78.4844 208.855 78.9878 208.976 79.8564C209.053 80.5629 209.141 81.1954 209.24 81.754C209.379 82.5161 209.525 83.2454 209.678 83.9422C209.824 84.6216 209.979 85.1686 210.141 85.583C210.397 86.2392 210.707 86.4964 211.07 86.3545C211.329 86.2532 211.547 85.8692 211.724 85.2025C211.919 84.5291 212.026 83.5813 212.045 82.3591C212.082 81.1301 212.007 79.6661 211.821 77.9671C211.756 77.395 211.818 76.9427 212.007 76.6101C212.212 76.2708 212.6 75.9897 213.17 75.7667ZM214.37 99.9069C214.802 99.738 215.089 99.0481 215.233 97.8371C215.377 96.6262 215.26 94.7504 214.883 92.2098C213.993 93.8523 213.424 95.2494 213.178 96.4011C212.956 97.5632 212.98 98.4897 213.25 99.1804C213.365 99.474 213.511 99.6955 213.689 99.8449C213.884 99.9875 214.111 100.008 214.37 99.9069ZM152.15 134.812C152.375 134.725 152.588 134.761 152.79 134.921C153.009 135.074 153.19 135.332 153.331 135.694C153.602 136.385 153.647 136.984 153.467 137.493C153.083 138.698 152.574 139.764 151.94 140.689C151.324 141.607 150.471 142.278 149.384 142.704C148.468 143.062 147.597 143.024 146.771 142.591C146.037 143.615 145.137 144.345 144.074 144.781C145.153 148.202 145.731 151.181 145.808 153.72C145.892 156.275 145.165 157.854 143.628 158.455C142.696 158.82 141.873 158.753 141.161 158.255C140.449 157.757 139.859 156.913 139.393 155.721C138.731 154.029 138.346 151.9 138.238 149.334C138.137 146.785 138.368 143.837 138.931 140.491C137.945 137.97 137.242 136.224 136.822 135.253C136.609 134.759 136.652 134.284 136.952 133.829C137.251 133.373 137.712 133.024 138.334 132.78C138.696 132.639 138.986 132.615 139.202 132.71C139.429 132.78 139.635 133.028 139.821 133.453C139.99 133.885 140.124 134.201 140.222 134.401C140.504 133.494 140.856 132.789 141.276 132.286C141.69 131.766 142.199 131.388 142.804 131.151C143.771 130.773 144.708 130.854 145.617 131.395C146.542 131.929 147.252 132.826 147.745 134.087C148.103 135.002 148.304 135.949 148.348 136.927C148.392 137.905 148.294 138.85 148.053 139.76C148.456 139.722 148.778 139.656 149.02 139.561C149.59 139.338 150.053 138.918 150.409 138.301C150.765 137.684 151.159 136.733 151.593 135.449C151.705 135.126 151.891 134.914 152.15 134.812ZM143.23 142.244C143.798 141.863 144.236 141.303 144.545 140.565C144.864 139.803 145.023 138.964 145.024 138.048C145.017 137.115 144.841 136.208 144.497 135.327C144.294 134.809 144.039 134.461 143.73 134.283C143.415 134.088 143.084 134.058 142.739 134.193C142.117 134.436 141.623 135.386 141.256 137.043C141.536 137.81 141.963 138.927 142.537 140.395C142.848 141.189 143.079 141.805 143.23 142.244ZM142.843 155.835C143.309 155.653 143.299 154.482 142.813 152.323C142.333 150.181 141.545 147.582 140.45 144.526C140.383 146.544 140.441 148.422 140.624 150.163C140.807 151.903 141.107 153.308 141.526 154.379C141.742 154.932 141.977 155.328 142.23 155.567C142.466 155.813 142.67 155.903 142.843 155.835ZM154.938 140.531C154.282 140.788 153.681 140.625 153.134 140.042C152.605 139.453 152.043 138.398 151.449 136.879C150.57 134.634 150.056 132.376 149.904 130.106C149.864 129.544 149.972 129.084 150.23 128.724C150.498 128.341 150.951 128.024 151.59 127.774C151.936 127.639 152.194 127.587 152.366 127.62C152.538 127.652 152.671 127.789 152.766 128.031C152.874 128.307 152.988 128.979 153.107 130.048C153.205 130.806 153.303 131.464 153.402 132.023C153.501 132.582 153.665 133.254 153.893 134.041C153.882 132.333 154.048 130.874 154.391 129.665C154.734 128.456 155.165 127.521 155.683 126.86C156.218 126.193 156.771 125.747 157.341 125.524C158.463 125.085 159.244 125.427 159.683 126.55C159.771 126.774 159.906 127.348 160.088 128.273C160.22 129.017 160.32 129.476 160.388 129.649C160.624 130.253 160.958 130.471 161.39 130.302C161.873 130.113 162.346 129.49 162.809 128.433C162.946 128.12 163.135 127.917 163.377 127.822C163.601 127.735 163.814 127.771 164.016 127.931C164.229 128.067 164.399 128.299 164.527 128.627C164.777 129.266 164.801 129.834 164.597 130.332C164.309 131.022 163.908 131.676 163.394 132.296C162.89 132.891 162.276 133.33 161.551 133.614C160.635 133.972 159.845 134.012 159.179 133.735C158.53 133.452 158.051 132.912 157.74 132.118C157.638 131.859 157.563 131.59 157.514 131.311C157.413 130.952 157.339 130.712 157.292 130.591C157.184 130.315 157.035 130.214 156.845 130.288C156.586 130.389 156.355 130.818 156.153 131.574C155.962 132.306 155.844 133.228 155.801 134.34C155.759 135.452 155.814 136.585 155.967 137.74C156.094 138.626 156.086 139.266 155.942 139.661C155.808 140.032 155.473 140.322 154.938 140.531ZM174.936 123.39C175.16 123.303 175.377 123.347 175.585 123.525C175.794 123.702 175.966 123.963 176.101 124.308C176.425 125.137 176.367 125.727 175.927 126.079C175.033 126.847 173.975 127.5 172.752 128.038C172.991 129.617 172.799 131.036 172.177 132.295C171.547 133.536 170.62 134.397 169.394 134.876C168.358 135.282 167.37 135.379 166.432 135.169C165.511 134.952 164.698 134.503 163.994 133.823C163.29 133.143 162.749 132.319 162.37 131.352C161.857 130.04 161.651 128.776 161.754 127.561C161.849 126.329 162.226 125.256 162.884 124.342C163.535 123.41 164.395 122.735 165.466 122.316C166.778 121.803 168.011 121.848 169.163 122.453C170.326 123.033 171.237 123.961 171.895 125.237C172.686 124.868 173.586 124.317 174.593 123.584C174.718 123.496 174.832 123.431 174.936 123.39ZM168.527 132.05C169.079 131.834 169.467 131.423 169.688 130.819C169.927 130.208 169.95 129.452 169.757 128.552C169.08 128.399 168.48 128.086 167.956 127.614C167.45 127.135 167.069 126.567 166.812 125.911C166.704 125.635 166.622 125.348 166.566 125.052L166.436 125.102C165.746 125.373 165.299 125.936 165.096 126.791C164.904 127.623 165.044 128.644 165.517 129.852C165.888 130.802 166.354 131.456 166.912 131.815C167.488 132.168 168.026 132.246 168.527 132.05ZM186.622 118.819C186.847 118.731 187.063 118.776 187.272 118.953C187.481 119.13 187.652 119.392 187.788 119.737C188.112 120.566 188.054 121.156 187.614 121.507C186.72 122.275 185.661 122.928 184.438 123.466C184.677 125.045 184.486 126.464 183.863 127.723C183.234 128.965 182.306 129.825 181.08 130.305C180.044 130.71 179.057 130.808 178.118 130.597C177.197 130.38 176.385 129.932 175.68 129.251C174.976 128.571 174.435 127.748 174.057 126.781C173.543 125.468 173.338 124.205 173.44 122.99C173.536 121.758 173.912 120.685 174.57 119.77C175.221 118.839 176.082 118.164 177.152 117.745C178.465 117.231 179.697 117.277 180.85 117.881C182.012 118.462 182.923 119.39 183.581 120.665C184.373 120.296 185.272 119.745 186.28 119.013C186.404 118.924 186.518 118.859 186.622 118.819ZM180.213 127.478C180.766 127.262 181.153 126.852 181.375 126.248C181.613 125.636 181.636 124.881 181.443 123.981C180.766 123.827 180.166 123.515 179.643 123.042C179.137 122.563 178.756 121.996 178.499 121.339C178.391 121.063 178.309 120.777 178.252 120.48L178.123 120.531C177.432 120.801 176.985 121.364 176.783 122.22C176.59 123.052 176.731 124.072 177.203 125.281C177.575 126.231 178.04 126.885 178.598 127.244C179.174 127.596 179.713 127.674 180.213 127.478ZM195.707 116.072C196.19 115.882 196.574 116.15 196.858 116.876C197.391 118.24 196.588 119.341 194.446 120.178C194.032 120.341 193.406 120.496 192.568 120.644C193.211 121.627 193.859 122.748 194.51 124.006C195.172 125.241 195.669 126.281 196 127.127C196.729 128.992 196.984 130.535 196.765 131.755C196.546 132.976 195.944 133.779 194.959 134.164C193.716 134.65 192.482 134.118 191.258 132.566C190.051 131.007 188.752 128.449 187.36 124.892C186.063 121.576 185.103 118.079 184.481 114.4C183.868 110.697 183.748 107.489 184.12 104.775C184.503 102.037 185.445 100.374 186.947 99.7865C187.759 99.4691 188.531 99.5851 189.264 100.135C190.014 100.678 190.628 101.562 191.108 102.788C192.695 106.846 191.999 112.216 189.017 118.897C189.507 120.657 190.001 122.176 190.501 123.454C191.197 125.233 191.97 127.031 192.82 128.848C193.677 130.683 194.244 131.547 194.521 131.439C195.039 131.236 194.946 130.237 194.244 128.441C193.717 127.094 193.112 125.827 192.429 124.641C191.763 123.448 191.001 122.213 190.143 120.936C190.038 120.718 189.996 120.406 190.016 120C190.054 119.587 190.143 119.204 190.283 118.85C190.424 118.497 190.589 118.283 190.779 118.208C191.124 118.073 191.545 117.928 192.042 117.774C192.204 117.73 192.389 117.668 192.596 117.587C193.287 117.317 194.032 116.956 194.831 116.504C194.962 116.433 195.102 116.358 195.251 116.28C195.399 116.202 195.551 116.132 195.707 116.072ZM187.406 102.564C187.096 102.685 186.913 103.364 186.859 104.6C186.822 105.829 186.92 107.403 187.153 109.323C187.38 111.225 187.707 113.208 188.136 115.27C188.903 113.158 189.326 111.111 189.407 109.128C189.481 107.128 189.236 105.382 188.672 103.89C188.26 102.837 187.838 102.395 187.406 102.564Z" fill="white"/>
<path d="M107.253 242.657V223.522H112.816L120.326 233.674V223.522H125.443V242.657H119.881L112.371 232.923V242.657H107.253ZM128.494 242.657V223.522H141.928V227.749H135.253V231.143H141.344V234.647H135.253V238.291H141.928V242.657H128.494ZM147.442 242.657V227.916H143.131V223.522H158.233V227.916H153.922V242.657H147.442ZM168.611 242.657L164.272 223.522H170.53L172.338 235.454L174.202 226.776H180.682L182.574 235.454L184.381 223.522H190.64L186.301 242.657H179.82L177.456 232.172L175.092 242.657H168.611ZM195.274 242.657V227.916H190.962V223.522H206.065V227.916H201.754V242.657H195.274ZM118.315 268.963C117.351 268.963 116.377 268.861 115.394 268.657C114.43 268.472 113.54 268.203 112.724 267.851L113.642 263.595C115.144 264.207 116.507 264.513 117.731 264.513C119.251 264.513 120.011 263.938 120.011 262.789C120.011 262.047 119.622 261.519 118.843 261.203C118.065 260.87 116.767 260.703 114.949 260.703V256.892C118.25 256.892 119.9 256.234 119.9 254.918C119.9 254.51 119.706 254.194 119.316 253.972C118.945 253.731 118.426 253.61 117.759 253.61C116.201 253.61 114.801 253.935 113.559 254.584L112.474 250.662C114.291 249.624 116.34 249.104 118.621 249.104C120.494 249.104 121.968 249.531 123.043 250.384C124.119 251.218 124.656 252.368 124.656 253.833C124.656 254.76 124.425 255.622 123.961 256.419C123.516 257.198 122.876 257.856 122.042 258.394C123.247 258.821 124.119 259.46 124.656 260.313C125.213 261.148 125.491 262.01 125.491 262.9C125.491 264.142 125.194 265.218 124.601 266.126C124.007 267.035 123.173 267.74 122.098 268.24C121.022 268.722 119.761 268.963 118.315 268.963ZM128.123 273.358L127.15 270.91C128.782 270.354 129.597 269.659 129.597 268.824C128.856 268.824 128.235 268.555 127.734 268.018C127.252 267.48 127.011 266.803 127.011 265.987C127.011 265.171 127.289 264.504 127.845 263.985C128.42 263.447 129.162 263.178 130.07 263.178C131.072 263.178 131.85 263.53 132.407 264.235C132.981 264.921 133.269 265.867 133.269 267.072C133.269 268.648 132.824 269.983 131.934 271.077C131.044 272.171 129.774 272.932 128.123 273.358ZM142.591 268.657V264.152H134.886V260.035L142.285 249.522H148.515V260.091H151.185V264.152H148.515V268.657H142.591ZM138.975 260.091H142.591V254.25L138.975 260.091ZM158.236 268.657V249.522H164.021L168.805 258.811L173.478 249.522H179.263V268.657H173.478V258.645L169.946 265.32H167.581L164.021 258.645V268.657H158.236ZM192.592 268.88C191.479 268.88 190.552 268.639 189.81 268.157C189.069 267.675 188.475 266.979 188.03 266.071V268.657H182.189V250.328L188.086 249.466V257.588C188.531 256.531 189.161 255.761 189.977 255.279C190.812 254.778 191.683 254.528 192.592 254.528C193.89 254.528 195.049 254.834 196.068 255.446C197.107 256.039 197.923 256.864 198.516 257.921C199.128 258.978 199.434 260.211 199.434 261.621C199.434 263.03 199.128 264.281 198.516 265.375C197.923 266.469 197.107 267.332 196.068 267.962C195.049 268.574 193.89 268.88 192.592 268.88ZM190.784 264.485C191.581 264.485 192.249 264.217 192.786 263.679C193.324 263.141 193.593 262.483 193.593 261.704C193.593 260.925 193.324 260.267 192.786 259.729C192.249 259.192 191.581 258.923 190.784 258.923C190.024 258.923 189.375 259.182 188.837 259.701C188.299 260.202 188.03 260.851 188.03 261.648C188.03 262.446 188.299 263.123 188.837 263.679C189.375 264.217 190.024 264.485 190.784 264.485ZM54.5773 300.053C52.3336 299.849 50.433 299.182 48.8755 298.051C47.3179 296.938 46.1404 295.464 45.3431 293.628C44.5458 291.793 44.1471 289.716 44.1471 287.398C44.1471 284.95 44.5736 282.846 45.4266 281.084C46.2795 279.304 47.4848 277.895 49.0423 276.857C50.5999 275.818 52.4449 275.197 54.5773 274.993V278.498C53.2793 278.72 52.2502 279.582 51.4899 281.084C50.7297 282.586 50.3496 284.691 50.3496 287.398C50.3496 289.03 50.4887 290.504 50.7668 291.82C51.0449 293.118 51.4899 294.175 52.1018 294.991C52.7323 295.826 53.5574 296.336 54.5773 296.521V300.053ZM61.6417 294.963C60.6775 294.963 59.704 294.861 58.7213 294.657C57.7571 294.472 56.867 294.203 56.0512 293.851L56.969 289.595C58.471 290.207 59.8338 290.513 61.0576 290.513C62.5781 290.513 63.3384 289.938 63.3384 288.789C63.3384 288.047 62.949 287.519 62.1702 287.203C61.3914 286.87 60.0934 286.703 58.2763 286.703V282.892C61.5768 282.892 63.2271 282.234 63.2271 280.918C63.2271 280.51 63.0324 280.194 62.643 279.972C62.2722 279.731 61.753 279.61 61.0855 279.61C59.5279 279.61 58.1279 279.935 56.8856 280.584L55.8009 276.662C57.618 275.624 59.667 275.104 61.9477 275.104C63.8205 275.104 65.2946 275.531 66.3701 276.384C67.4455 277.218 67.9832 278.368 67.9832 279.833C67.9832 280.76 67.7515 281.622 67.2879 282.419C66.8429 283.198 66.2032 283.856 65.3688 284.394C66.574 284.821 67.4455 285.46 67.9832 286.313C68.5395 287.148 68.8177 288.01 68.8177 288.9C68.8177 290.142 68.521 291.218 67.9276 292.126C67.3343 293.035 66.4999 293.74 65.4244 294.24C64.3489 294.722 63.088 294.963 61.6417 294.963ZM77.9864 294.657V290.152H70.282V286.035L77.6804 275.522H83.9107V286.091H86.5808V290.152H83.9107V294.657H77.9864ZM74.3706 286.091H77.9864V280.25L74.3706 286.091ZM93.3667 294.963C92.4025 294.963 91.429 294.861 90.4463 294.657C89.4821 294.472 88.592 294.203 87.7762 293.851L88.694 289.595C90.196 290.207 91.5588 290.513 92.7826 290.513C94.3031 290.513 95.0634 289.938 95.0634 288.789C95.0634 288.047 94.674 287.519 93.8952 287.203C93.1164 286.87 91.8184 286.703 90.0013 286.703V282.892C93.3018 282.892 94.9521 282.234 94.9521 280.918C94.9521 280.51 94.7574 280.194 94.368 279.972C93.9972 279.731 93.478 279.61 92.8104 279.61C91.2529 279.61 89.8529 279.935 88.6106 280.584L87.5258 276.662C89.343 275.624 91.3919 275.104 93.6727 275.104C95.5455 275.104 97.0196 275.531 98.095 276.384C99.1705 277.218 99.7082 278.368 99.7082 279.833C99.7082 280.76 99.4765 281.622 99.0129 282.419C98.5679 283.198 97.9282 283.856 97.0938 284.394C98.299 284.821 99.1705 285.46 99.7082 286.313C100.265 287.148 100.543 288.01 100.543 288.9C100.543 290.142 100.246 291.218 99.6526 292.126C99.0593 293.035 98.2248 293.74 97.1494 294.24C96.0739 294.722 94.813 294.963 93.3667 294.963ZM110.685 294.88C108.998 294.88 107.496 294.463 106.179 293.628C104.863 292.775 103.824 291.607 103.064 290.124C102.322 288.622 101.951 286.907 101.951 284.978C101.951 283.068 102.322 281.372 103.064 279.888C103.824 278.405 104.863 277.237 106.179 276.384C107.496 275.531 108.998 275.104 110.685 275.104C111.946 275.104 113.105 275.355 114.162 275.855C115.218 276.338 116.136 277.024 116.915 277.914C117.694 278.785 118.297 279.824 118.723 281.029C119.168 282.234 119.391 283.551 119.391 284.978C119.391 286.888 119.01 288.594 118.25 290.096C117.508 291.579 116.479 292.748 115.163 293.601C113.865 294.454 112.372 294.88 110.685 294.88ZM110.685 290.124C111.612 290.124 112.335 289.67 112.854 288.761C113.392 287.852 113.661 286.591 113.661 284.978C113.661 283.402 113.392 282.16 112.854 281.251C112.335 280.324 111.612 279.861 110.685 279.861C109.739 279.861 108.998 280.315 108.46 281.223C107.941 282.132 107.681 283.384 107.681 284.978C107.681 286.554 107.95 287.806 108.488 288.733C109.044 289.66 109.776 290.124 110.685 290.124ZM132.553 294.657H126.684V276.328L132.553 275.466V285.006L139.089 279.694L142.093 283.56L138.171 286.842C138.431 288.158 138.811 289.085 139.312 289.623C139.812 290.142 140.461 290.402 141.259 290.402C141.592 290.402 141.991 290.346 142.455 290.235L142.037 294.713C141.685 294.787 141.37 294.834 141.092 294.852C140.814 294.871 140.545 294.88 140.285 294.88C138.449 294.88 136.994 294.444 135.918 293.573C134.861 292.683 134.083 291.385 133.582 289.679L132.553 290.569V294.657ZM149.241 294.88C147.998 294.88 146.988 294.657 146.209 294.212C145.449 293.767 144.892 293.165 144.54 292.405C144.188 291.644 144.012 290.791 144.012 289.846V280.723H149.88V289.039C149.88 289.466 150.001 289.799 150.242 290.04C150.501 290.263 150.807 290.374 151.16 290.374C151.53 290.374 151.911 290.263 152.3 290.04L152.606 293.907C152.198 294.222 151.67 294.463 151.021 294.63C150.372 294.797 149.778 294.88 149.241 294.88ZM146.96 279.193C146.107 279.193 145.374 278.924 144.762 278.386C144.151 277.83 143.845 277.153 143.845 276.356C143.845 275.8 143.993 275.318 144.29 274.91C144.586 274.483 144.976 274.15 145.458 273.908C145.94 273.667 146.441 273.547 146.96 273.547C147.535 273.547 148.054 273.677 148.517 273.936C148.999 274.196 149.38 274.539 149.658 274.965C149.954 275.392 150.103 275.855 150.103 276.356C150.103 276.912 149.945 277.404 149.63 277.83C149.333 278.257 148.944 278.59 148.462 278.831C147.998 279.073 147.498 279.193 146.96 279.193ZM159.515 294.88C158.199 294.88 157.124 294.657 156.289 294.212C155.473 293.767 154.88 293.165 154.509 292.405C154.138 291.644 153.953 290.791 153.953 289.846V275.772L159.821 274.91V289.039C159.821 289.466 159.961 289.799 160.239 290.04C160.517 290.263 160.878 290.374 161.323 290.374C161.768 290.374 162.213 290.263 162.658 290.04L163.076 293.907C162.631 294.222 162.065 294.463 161.379 294.63C160.693 294.797 160.072 294.88 159.515 294.88ZM171.646 294.88C170.069 294.88 168.679 294.574 167.473 293.962C166.268 293.35 165.323 292.507 164.636 291.431C163.969 290.337 163.635 289.085 163.635 287.676C163.635 286.23 163.978 284.978 164.664 283.921C165.369 282.846 166.324 282.012 167.529 281.418C168.734 280.825 170.116 280.528 171.673 280.528C173.268 280.528 174.668 280.834 175.873 281.446C177.078 282.039 178.015 282.874 178.682 283.949C179.35 285.006 179.684 286.248 179.684 287.676C179.684 289.104 179.341 290.365 178.655 291.459C177.987 292.534 177.051 293.378 175.845 293.99C174.64 294.583 173.24 294.88 171.646 294.88ZM171.701 290.708C172.461 290.708 173.083 290.43 173.565 289.874C174.065 289.299 174.316 288.566 174.316 287.676C174.316 286.786 174.075 286.063 173.592 285.507C173.11 284.932 172.498 284.645 171.757 284.645C170.959 284.645 170.31 284.932 169.81 285.507C169.328 286.063 169.087 286.786 169.087 287.676C169.087 288.566 169.328 289.299 169.81 289.874C170.31 290.43 170.941 290.708 171.701 290.708ZM192.171 294.88C191.058 294.88 190.131 294.639 189.389 294.157C188.648 293.675 188.054 292.979 187.609 292.071V294.657H181.768V276.328L187.665 275.466V283.588C188.11 282.531 188.74 281.761 189.556 281.279C190.391 280.778 191.262 280.528 192.171 280.528C193.469 280.528 194.628 280.834 195.647 281.446C196.686 282.039 197.502 282.864 198.095 283.921C198.707 284.978 199.013 286.211 199.013 287.621C199.013 289.03 198.707 290.281 198.095 291.375C197.502 292.469 196.686 293.332 195.647 293.962C194.628 294.574 193.469 294.88 192.171 294.88ZM190.363 290.485C191.16 290.485 191.828 290.217 192.365 289.679C192.903 289.141 193.172 288.483 193.172 287.704C193.172 286.925 192.903 286.267 192.365 285.729C191.828 285.192 191.16 284.923 190.363 284.923C189.603 284.923 188.954 285.182 188.416 285.701C187.878 286.202 187.609 286.851 187.609 287.648C187.609 288.446 187.878 289.123 188.416 289.679C188.954 290.217 189.603 290.485 190.363 290.485ZM208.423 300.081C207.718 300.081 207.06 300.035 206.448 299.942C205.836 299.849 205.354 299.738 205.002 299.608L205.447 295.575C205.78 295.649 206.142 295.705 206.531 295.742C206.921 295.798 207.301 295.826 207.672 295.826C208.914 295.826 209.804 295.566 210.342 295.047C210.898 294.528 211.176 293.73 211.176 292.655V291.07C210.731 292.201 210.101 293.026 209.285 293.545C208.469 294.046 207.505 294.296 206.392 294.296C204.668 294.296 203.333 293.675 202.387 292.432C201.441 291.171 200.969 289.401 200.969 287.12V280.723H206.837V287.426C206.837 289.076 207.421 289.901 208.589 289.901C209.313 289.901 209.887 289.605 210.314 289.011C210.759 288.418 210.981 287.639 210.981 286.675V280.723H216.85V291.403C216.85 294.37 216.118 296.558 214.653 297.967C213.188 299.377 211.111 300.081 208.423 300.081ZM225.584 294.88C224.268 294.88 223.192 294.657 222.358 294.212C221.542 293.767 220.948 293.165 220.578 292.405C220.207 291.644 220.021 290.791 220.021 289.846V284.172H218.241V280.723H220.439L223.025 276.328H225.89V280.723H229.116V284.172H225.89V289.039C225.89 289.466 226.029 289.799 226.307 290.04C226.585 290.263 226.947 290.374 227.392 290.374C227.837 290.374 228.282 290.263 228.727 290.04L229.144 293.907C228.699 294.222 228.134 294.463 227.448 294.63C226.762 294.797 226.14 294.88 225.584 294.88ZM239.527 290.986C240.065 290.986 240.63 290.93 241.224 290.819C241.836 290.708 242.457 290.504 243.087 290.207L243.755 293.795C243.069 294.148 242.318 294.416 241.502 294.602C240.704 294.787 239.787 294.88 238.748 294.88C236.875 294.88 235.299 294.574 234.02 293.962C232.759 293.35 231.804 292.507 231.155 291.431C230.506 290.356 230.182 289.113 230.182 287.704C230.182 286.258 230.525 284.997 231.211 283.921C231.915 282.846 232.852 282.012 234.02 281.418C235.188 280.825 236.477 280.528 237.886 280.528C239.981 280.528 241.585 281.186 242.698 282.503C243.81 283.801 244.367 285.655 244.367 288.066L236.078 289.123C236.69 290.365 237.84 290.986 239.527 290.986ZM235.633 286.564L240 285.646C239.926 285.052 239.722 284.617 239.388 284.339C239.054 284.042 238.637 283.894 238.136 283.894C237.395 283.894 236.801 284.153 236.356 284.672C235.93 285.173 235.689 285.803 235.633 286.564ZM250.783 294.88C249.948 294.88 249.105 294.797 248.252 294.63C247.399 294.463 246.629 294.231 245.943 293.934L246.75 290.43C247.176 290.652 247.76 290.847 248.502 291.014C249.244 291.162 249.902 291.236 250.477 291.236C251.404 291.236 251.868 290.986 251.868 290.485C251.868 290.244 251.719 290.068 251.423 289.957C251.144 289.846 250.774 289.753 250.31 289.679C249.865 289.586 249.383 289.475 248.864 289.345C248.345 289.197 247.853 288.983 247.39 288.705C246.945 288.409 246.574 287.991 246.277 287.454C245.999 286.916 245.86 286.211 245.86 285.34C245.86 283.875 246.435 282.707 247.584 281.835C248.752 280.964 250.347 280.528 252.368 280.528C253.147 280.528 253.87 280.584 254.538 280.695C255.224 280.806 255.873 281.038 256.485 281.39L255.901 284.784C254.918 284.376 253.889 284.172 252.813 284.172C252.127 284.172 251.627 284.227 251.311 284.339C251.015 284.45 250.866 284.635 250.866 284.895C250.866 285.099 251.015 285.256 251.311 285.368C251.608 285.479 251.988 285.59 252.452 285.701C252.934 285.794 253.434 285.933 253.954 286.119C254.473 286.286 254.964 286.527 255.428 286.842C255.91 287.157 256.299 287.584 256.596 288.121C256.893 288.64 257.041 289.317 257.041 290.152C257.041 291.635 256.494 292.794 255.4 293.628C254.306 294.463 252.767 294.88 250.783 294.88ZM257.423 300.053V296.521C258.739 296.298 259.778 295.427 260.538 293.907C261.298 292.367 261.678 290.198 261.678 287.398C261.678 284.821 261.308 282.753 260.566 281.196C259.843 279.62 258.795 278.72 257.423 278.498V274.993C259.741 275.216 261.669 275.892 263.208 277.024C264.747 278.136 265.906 279.582 266.685 281.363C267.464 283.143 267.853 285.154 267.853 287.398C267.853 289.79 267.436 291.904 266.601 293.74C265.786 295.557 264.599 297.012 263.041 298.106C261.502 299.2 259.63 299.849 257.423 300.053Z" fill="black"/>
</svg>
